<svg width="80" height="80" viewBox="0 0 80 80" fill="none" xmlns="http://www.w3.org/2000/svg">
<circle cx="40" cy="40" r="40" fill="white"/>
<path fill-rule="evenodd" clip-rule="evenodd" d="M52.1321 40.7293H52.1621H52.2199H52.2778H52.3358H52.3937H52.4515H52.5095H52.5674H52.6253H52.6832H52.7411H52.799H52.8569H52.9148H52.9727H53.0306H53.0885H53.1464H53.2043H53.2622H53.3201H53.378H53.4359H53.4938H53.5517H53.6096H53.6675H53.7254H53.7833H53.8412H53.8991H53.9571H54.015H54.0728H54.1308H54.1887H54.2465H54.3045H54.3624H54.4203H54.4782H54.5361H54.594H54.6519H54.7098H54.7677H54.8256H54.8835H54.9414H54.9993H55.0572H55.1151H55.173H55.2309H55.2888H55.3467H55.4046H55.4625H55.5204H55.5783H55.6265L55.6363 40.7296C55.6541 40.73 55.6736 40.7308 55.6941 40.7319C55.7127 40.7329 55.7322 40.7342 55.752 40.7357C55.7711 40.7371 55.7905 40.7387 55.81 40.7405C55.8294 40.7423 55.8488 40.7443 55.8678 40.7464C55.8878 40.7486 55.9073 40.7509 55.9257 40.7534C55.9465 40.7562 55.966 40.7591 55.9837 40.7621C55.9964 40.7643 56.0081 40.7665 56.0187 40.7687L56.0415 40.7739C56.0609 40.7784 56.0802 40.7833 56.0994 40.7887C56.1189 40.794 56.1382 40.7997 56.1574 40.8058C56.1768 40.812 56.1961 40.8186 56.2153 40.8256C56.2347 40.8326 56.254 40.8401 56.2731 40.8479C56.2926 40.8559 56.3119 40.8643 56.3311 40.873C56.3506 40.8819 56.3699 40.8912 56.389 40.9009C56.4085 40.9108 56.4277 40.9212 56.4469 40.9319C56.4664 40.9429 56.4857 40.9545 56.5048 40.9663C56.5243 40.9785 56.5437 40.991 56.5627 41.0041C56.5823 41.0175 56.6016 41.0313 56.6206 41.0457C56.6402 41.0605 56.6595 41.0758 56.6785 41.0916C56.6982 41.108 56.7175 41.1249 56.7364 41.1423C56.7562 41.1605 56.7755 41.1791 56.7943 41.1983C56.8142 41.2185 56.8334 41.2394 56.8522 41.2607C56.8721 41.2834 56.8914 41.3068 56.9101 41.3307C56.9302 41.3565 56.9495 41.3829 56.968 41.4101C56.9883 41.4399 57.0076 41.4704 57.0259 41.5017C57.0465 41.5371 57.0658 41.5734 57.0838 41.6108C57.1051 41.655 57.1245 41.7006 57.1417 41.7475C57.1649 41.8106 57.1843 41.8759 57.1996 41.9433C57.2261 42.0602 57.2404 42.1833 57.2404 42.3119C57.2404 42.441 57.2262 42.5647 57.1996 42.6819C57.1843 42.7496 57.1649 42.8151 57.1417 42.8782C57.1244 42.9252 57.1051 42.9709 57.0838 43.0153C57.0658 43.0526 57.0465 43.089 57.0259 43.1244C57.0076 43.1558 56.9883 43.1863 56.968 43.2161C56.9495 43.2433 56.9301 43.2698 56.9101 43.2955C56.8914 43.3195 56.8721 43.3428 56.8522 43.3655C56.8334 43.3868 56.8141 43.4077 56.7943 43.4279C56.7755 43.4471 56.7561 43.4656 56.7364 43.4838C56.7175 43.5011 56.6982 43.5179 56.6785 43.5343C56.6595 43.55 56.6402 43.5653 56.6206 43.5801C56.6016 43.5944 56.5823 43.6082 56.5627 43.6215C56.5437 43.6346 56.5243 43.6471 56.5048 43.6592C56.4857 43.671 56.4664 43.6824 56.4469 43.6933C56.4278 43.7041 56.4085 43.7143 56.389 43.7242C56.3699 43.7338 56.3506 43.7431 56.3311 43.752C56.3119 43.7606 56.2926 43.7689 56.2731 43.7768C56.254 43.7845 56.2347 43.792 56.2153 43.7989C56.1961 43.8058 56.1768 43.8123 56.1574 43.8184C56.1382 43.8244 56.1189 43.83 56.0994 43.8353C56.0802 43.8405 56.0609 43.8454 56.0415 43.8498L56.0187 43.855C56.0081 43.8574 55.9964 43.8597 55.9837 43.862C55.966 43.8651 55.9465 43.8681 55.9257 43.8709C55.9073 43.8734 55.8878 43.8758 55.8678 43.878C55.8488 43.8801 55.8294 43.882 55.81 43.8838C55.7905 43.8855 55.7711 43.8871 55.752 43.8885C55.7322 43.8899 55.7127 43.8912 55.6941 43.8921C55.6736 43.8932 55.6541 43.8939 55.6363 43.8944L55.6052 43.8948H55.5783H55.5204H55.4625H55.4046H55.3467H55.2888H55.2309H55.173H55.1151H55.0572H54.9993H54.9414H54.8835H54.8256H54.7677H54.7098H54.6519H54.594H54.5361H54.4782H54.4203H54.3624H54.3045H54.2465H54.1887H54.1308H54.0728H54.015H53.9571H53.8991H53.8412H53.7833H53.7254H53.6675H53.6096H53.5517H53.4938H53.4359H53.378H53.3201H53.2622H53.2043H53.1464H53.0885H53.0306H52.9727H52.9148H52.8569H52.799H52.7411H52.6832H52.6253H52.5674H52.5095H52.4515H52.3937H52.3358H52.2778H52.2199H52.1621H52.1321V40.7293ZM56.7945 37.1468C56.8178 37.253 56.8303 37.3656 56.8303 37.4841C56.8303 37.6024 56.8178 37.7148 56.7945 37.821C56.7795 37.8892 56.7601 37.9548 56.7366 38.0177C56.7194 38.0635 56.7 38.1079 56.6787 38.1508C56.6608 38.1868 56.6414 38.2217 56.6208 38.2554C56.6025 38.2853 56.5831 38.3142 56.5629 38.3424C56.5443 38.368 56.525 38.3929 56.505 38.417C56.4863 38.4395 56.4671 38.4613 56.4471 38.4824C56.4283 38.5023 56.409 38.5215 56.3892 38.5402C56.3703 38.558 56.351 38.5752 56.3313 38.5919C56.3124 38.6078 56.2931 38.6232 56.2734 38.6381C56.2544 38.6525 56.2351 38.6664 56.2155 38.6798C56.1965 38.6928 56.1771 38.7053 56.1576 38.7173C56.1385 38.729 56.1192 38.7403 56.0997 38.7511C56.0806 38.7617 56.0613 38.7719 56.0418 38.7816C56.0227 38.7911 56.0033 38.8001 55.9839 38.8088C55.9648 38.8173 55.9455 38.8254 55.926 38.8331C55.9068 38.8406 55.8875 38.8477 55.8681 38.8545C55.8489 38.8612 55.8296 38.8675 55.8102 38.8733C55.791 38.8791 55.7717 38.8846 55.7523 38.8897C55.7331 38.8946 55.7138 38.8993 55.6944 38.9035C55.6752 38.9077 55.6559 38.9114 55.6365 38.9149L55.6224 38.9174C55.6111 38.9194 55.5962 38.9216 55.5786 38.9238C55.5615 38.926 55.5418 38.9282 55.5207 38.9304C55.5023 38.9322 55.4828 38.934 55.4628 38.9357C55.4438 38.9373 55.4243 38.9387 55.4048 38.94C55.3854 38.9412 55.3659 38.9423 55.347 38.943C55.3269 38.9438 55.3074 38.9444 55.2891 38.9445L55.2799 38.9445H55.2312H55.1733H55.1154H55.0575H54.9995H54.9417H54.8838H54.8259H54.768H54.7101H54.6522H54.5942H54.5364H54.4785H54.4205H54.3627H54.3048H54.2469H54.1889H54.1311H54.0732H54.0152H53.9574H53.8995H53.8415H53.7837H53.7258H53.6679H53.6099H53.5521H53.4942H53.4362H53.3783H53.3205H53.2626H53.2046H53.1468H53.0889H53.0309H52.973H52.9152H52.8572H52.7993H52.7415H52.6836H52.6256H52.5677H52.5099H52.4519H52.394H52.3362H52.2782H52.2203H52.1624H52.1321V36.0235H52.1624H52.2203H52.2782H52.3362H52.394H52.4519H52.5099H52.5677H52.6256H52.6836H52.7415H52.7993H52.8572H52.9152H52.973H53.0309H53.0889H53.1468H53.2046H53.2626H53.3205H53.3783H53.4362H53.4942H53.5521H53.6099H53.6679H53.7258H53.7837H53.8415H53.8995H53.9574H54.0152H54.0732H54.1311H54.1889H54.2469H54.3048H54.3627H54.4205H54.4785H54.5364H54.5942H54.6522H54.7101H54.768H54.8259H54.8838H54.9417H54.9995H55.0575H55.1154H55.1733H55.2312H55.2891H55.3135L55.347 36.0246C55.3659 36.0253 55.3854 36.0265 55.4048 36.0277C55.4243 36.029 55.4438 36.0304 55.4628 36.032C55.4828 36.0336 55.5023 36.0354 55.5207 36.0372C55.5418 36.0393 55.5615 36.0413 55.5786 36.0433C55.5962 36.0453 55.6111 36.0472 55.6224 36.0488L55.6365 36.0513C55.6559 36.0549 55.6752 36.0587 55.6944 36.063C55.7138 36.0673 55.7331 36.0719 55.7523 36.077C55.7717 36.0821 55.791 36.0875 55.8102 36.0934C55.8296 36.0993 55.8489 36.1057 55.8681 36.1124C55.8875 36.1192 55.9068 36.1264 55.926 36.134C55.9455 36.1417 55.9648 36.1498 55.9839 36.1583C56.0033 36.1671 56.0227 36.1761 56.0418 36.1856C56.0613 36.1954 56.0806 36.2055 56.0997 36.2161C56.1192 36.2269 56.1385 36.2383 56.1576 36.25C56.1771 36.262 56.1965 36.2745 56.2155 36.2875C56.2351 36.3009 56.2544 36.3149 56.2734 36.3293C56.2931 36.3442 56.3124 36.3596 56.3313 36.3756C56.351 36.3923 56.3703 36.4095 56.3892 36.4273C56.409 36.4459 56.4283 36.4652 56.4471 36.4851C56.4671 36.5062 56.4863 36.528 56.505 36.5505C56.525 36.5746 56.5443 36.5995 56.5629 36.6252C56.5831 36.6533 56.6025 36.6822 56.6208 36.7121C56.6414 36.7459 56.6608 36.7808 56.6787 36.8167C56.7 36.8596 56.7194 36.9041 56.7366 36.95C56.7601 37.0129 56.7795 37.0785 56.7945 37.1468ZM63.9752 22H63.999L63.9989 52C63.9989 52.1793 63.9906 52.3566 63.9752 52.5318C63.9617 52.686 63.9423 52.8386 63.9173 52.9892C63.9005 53.0905 63.8812 53.1908 63.8594 53.2902C63.8417 53.3711 63.8224 53.4515 63.8015 53.5311C63.7834 53.5998 63.764 53.668 63.7436 53.7358C63.7251 53.797 63.706 53.858 63.6857 53.9184C63.6672 53.9732 63.6477 54.0275 63.6278 54.0816C63.6092 54.1319 63.5898 54.182 63.5698 54.2317C63.5511 54.2784 63.5318 54.3247 63.512 54.3709C63.4931 54.4146 63.4738 54.458 63.454 54.5011C63.4352 54.5422 63.4159 54.5831 63.3961 54.6237C63.3772 54.6626 63.3579 54.7013 63.3382 54.7397C63.3193 54.7765 63.2999 54.8132 63.2803 54.8495C63.2614 54.8845 63.242 54.9191 63.2224 54.9537C63.2034 54.9871 63.1841 55.0203 63.1645 55.0534C63.1454 55.0855 63.1261 55.1175 63.1066 55.1493C63.0875 55.1802 63.0683 55.211 63.0486 55.2416C63.0296 55.2712 63.0102 55.3005 62.9907 55.3297C62.9717 55.3582 62.9523 55.3863 62.9328 55.4144C62.9137 55.442 62.8944 55.4695 62.8749 55.4968C62.8558 55.5234 62.8365 55.5499 62.817 55.5762C62.7979 55.6018 62.7785 55.6271 62.759 55.6524C62.7399 55.6773 62.7207 55.7022 62.7012 55.7267C62.682 55.7509 62.6628 55.7748 62.6432 55.7986C62.6241 55.8219 62.6047 55.845 62.5853 55.868C62.5661 55.8908 62.547 55.9136 62.5274 55.9361C62.5083 55.958 62.4889 55.9796 62.4695 56.0013C62.4504 56.0227 62.431 56.044 62.4116 56.0651C62.3924 56.0859 62.3732 56.1067 62.3537 56.1272C62.3346 56.1474 62.3152 56.1672 62.2958 56.1871C62.2765 56.2069 62.2574 56.2268 62.2378 56.2463C62.2187 56.2653 62.1993 56.284 62.1799 56.3028C62.1607 56.3215 62.1415 56.3402 62.122 56.3586C62.1029 56.3767 62.0835 56.3946 62.0641 56.4125C62.0449 56.4302 62.0256 56.4478 62.0062 56.4652C61.987 56.4825 61.9677 56.4996 61.9483 56.5166C61.9291 56.5334 61.9098 56.55 61.8904 56.5666C61.8711 56.583 61.8519 56.5994 61.8325 56.6155C61.8133 56.6315 61.7939 56.6472 61.7745 56.6629C61.7553 56.6785 61.7361 56.6941 61.7167 56.7095C61.6975 56.7246 61.6781 56.7395 61.6587 56.7544C61.6395 56.7692 61.6203 56.7841 61.6008 56.7987C61.5817 56.8131 61.5623 56.8272 61.5429 56.8415C61.5236 56.8556 61.5044 56.8698 61.485 56.8837C61.4658 56.8975 61.4464 56.9108 61.4271 56.9243C61.4078 56.9377 61.3886 56.9513 61.3692 56.9645C61.35 56.9775 61.3306 56.9903 61.3113 57.0031C61.292 57.0159 61.2728 57.0287 61.2533 57.0413C61.2341 57.0537 61.2148 57.0659 61.1954 57.0781C61.1762 57.0902 61.1569 57.1024 61.1375 57.1143C61.1183 57.1261 61.099 57.1378 61.0796 57.1494L61.0217 57.1836C61.0024 57.1949 60.9832 57.2061 60.9638 57.2171C60.9446 57.2281 60.9252 57.2388 60.9059 57.2495C60.8866 57.2602 60.8674 57.271 60.848 57.2815C60.8288 57.2919 60.8094 57.3019 60.7901 57.3121C60.7707 57.3223 60.7516 57.3327 60.7321 57.3427C60.713 57.3525 60.6935 57.3619 60.6742 57.3715C60.6549 57.3812 60.6357 57.3909 60.6163 57.4003C60.5971 57.4096 60.5777 57.4187 60.5584 57.4278L60.5005 57.4549L60.4426 57.4811C60.4233 57.4897 60.404 57.4981 60.3847 57.5065C60.3654 57.5148 60.3462 57.5234 60.3268 57.5316C60.3076 57.5397 60.2882 57.5473 60.2688 57.5552C60.2495 57.5631 60.2303 57.5712 60.2109 57.5789C60.1917 57.5865 60.1724 57.5938 60.153 57.6012C60.1338 57.6086 60.1145 57.616 60.0951 57.6232L60.0372 57.6446C60.0179 57.6515 59.9986 57.6583 59.9793 57.665C59.96 57.6717 59.9408 57.6787 59.9214 57.6853C59.9022 57.6918 59.8827 57.6978 59.8634 57.7041L59.8056 57.7229C59.7863 57.729 59.767 57.7349 59.7476 57.7408L59.6897 57.758C59.6704 57.7637 59.6512 57.7695 59.6318 57.7749C59.6126 57.7804 59.5932 57.7854 59.5739 57.7906C59.5546 57.7959 59.5354 57.8012 59.516 57.8063L59.4581 57.8209L59.4002 57.835L59.3423 57.8488C59.323 57.8532 59.3037 57.8572 59.2843 57.8614C59.265 57.8657 59.2458 57.87 59.2264 57.8741L59.1685 57.8856L59.1106 57.8967C59.0913 57.9003 59.072 57.9042 59.0527 57.9076C59.0334 57.911 59.0141 57.914 58.9948 57.9172L58.9369 57.9268L58.8789 57.9355L58.8211 57.9436C58.8017 57.9462 58.7825 57.9492 58.7631 57.9517C58.7439 57.9542 58.7245 57.9561 58.7052 57.9583C58.6859 57.9606 58.6666 57.9629 58.6473 57.965C58.628 57.967 58.6088 57.9691 58.5894 57.971C58.5702 57.9729 58.5508 57.9745 58.5315 57.9761C58.5121 57.9778 58.4929 57.9797 58.4735 57.9813C58.4543 57.9828 58.435 57.984 58.4157 57.9853L58.3577 57.989C58.3384 57.9901 58.3192 57.9915 58.2998 57.9925C58.2806 57.9934 58.2612 57.9939 58.2419 57.9947L58.184 57.9969L58.1261 57.9984C58.1068 57.9988 58.0875 57.9988 58.0682 57.9991L58.0103 57.9999L57.9983 58H57.9524H57.8944H57.8366H57.7786H57.7207H57.6628H57.6049H57.547H57.489H57.4312H57.3732H57.3153H57.2574H57.1995H57.1416H57.0836H57.0258H56.9678H56.9099H56.852H56.7941H56.7362H56.6783H56.6204H56.5625H56.5045H56.4467H56.3887H56.3308H56.2729H56.215H56.1571H56.0991H56.0413H55.9833H55.9254H55.8675H55.8096H55.7517H55.6938H55.6359H55.5779H55.52H55.4621H55.4042H55.3463H55.2884H55.2305H55.1726H55.1146H55.0568H54.9988H54.9409H54.883H54.8251H54.7672H54.7093H54.6514H54.5934H54.5355H54.4776H54.4197H54.3618H54.3039H54.246H54.1881H54.1302H54.0722H54.0143H53.9564H53.8985H53.8406H53.7827H53.7248H53.6669H53.6089H53.551H53.4931H53.4352H53.3773H53.3194H53.2615H53.2035H53.1457H53.0877H53.0298H52.9719H52.914H52.8561H52.7982H52.7403H52.6824H52.6244H52.5665H52.5086H52.4507H52.3928H52.3349H52.277H52.219H52.1612H52.1032H52.0453H51.9874H51.9295H51.8716H51.8136H51.7558H51.6978H51.6399H51.582H51.5241H51.4662H51.4083H51.3504H51.2925H51.2345H51.1767H51.1187H51.0608H51.0029H50.945H50.8871H50.8291H50.7713H50.7133H50.6554H50.5975H50.5396H50.4817H50.4238H50.3659H50.3079H50.25H50.1921H50.1342H50.0763H50.0184H49.9605H49.9026H49.8446H49.7868H49.7288H49.6709H49.613H49.5551H49.4972H49.4392H49.3814H49.3234H49.1985V45.7679H49.3234H49.3814H49.4392H49.4972H49.5551H49.613H49.6709H49.7288H49.7868H49.8446H49.9026H49.9605H50.0184H50.0763H50.1342H50.1921H50.25H50.3079H50.3659H50.4238H50.4817H50.5396H50.5975H50.6554H50.7133H50.7713H50.8291H50.8871H50.945H51.0029H51.0608H51.1187H51.1767H51.2345H51.2925H51.3504H51.4083H51.4662H51.5241H51.582H51.6399H51.6978H51.7558H51.8136H51.8716H51.9295H51.9874H52.0453H52.1032H52.1612H52.219H52.277H52.3349H52.3928H52.4507H52.5086H52.5665H52.6244H52.6824H52.7403H52.7982H52.8561H52.914H52.9719H53.0298H53.0877H53.1457H53.2035H53.2615H53.3194H53.3773H53.4352H53.4931H53.551H53.6089H53.6669H53.7248H53.7827H53.8406H53.8985H53.9564H54.0143H54.0722H54.1302H54.1881H54.246H54.3039H54.3618H54.4197H54.4776H54.5355H54.5934H54.6514H54.7093H54.7672H54.8251H54.883H54.9409H54.9988H55.0568H55.1146H55.1726H55.2305H55.2884H55.3463H55.4042H55.4621H55.52H55.5779H55.6359H55.6938H55.7517H55.8096H55.8675H55.9254H55.9833H56.0413H56.0991H56.1571H56.215H56.2729H56.3308H56.3887H56.4467H56.5045H56.5625H56.6204H56.6783H56.7362H56.7941H56.852H56.9099H56.9678H57.0258H57.0836H57.1416H57.1995H57.2574H57.3153H57.3732H57.4312H57.489H57.547H57.6049H57.6628H57.7207H57.7786H57.8366H57.8944H57.9524H58.0103H58.0682H58.1261H58.184H58.2419H58.2998H58.3577H58.4157H58.4735H58.5043L58.5315 45.7677L58.5894 45.7672L58.6473 45.766C58.6666 45.7655 58.686 45.7653 58.7052 45.7646C58.7246 45.7639 58.7438 45.763 58.7631 45.7621L58.8211 45.7594L58.8789 45.7559L58.9369 45.752L58.9948 45.7474L59.0527 45.7421C59.072 45.7403 59.0914 45.7385 59.1106 45.7365C59.13 45.7345 59.1492 45.7322 59.1685 45.7299L59.2264 45.7229C59.2458 45.7204 59.2651 45.718 59.2843 45.7153C59.3037 45.7126 59.323 45.7096 59.3423 45.7067C59.3616 45.7038 59.381 45.7009 59.4002 45.6978L59.4581 45.6881L59.516 45.6777C59.5353 45.6741 59.5547 45.6706 59.5739 45.6668C59.5933 45.6629 59.6126 45.6588 59.6318 45.6548L59.6897 45.6422C59.7091 45.6379 59.7284 45.6336 59.7476 45.6291C59.7671 45.6245 59.7863 45.6197 59.8056 45.6149C59.8249 45.6101 59.8442 45.6052 59.8634 45.6001C59.8828 45.5951 59.9022 45.5899 59.9214 45.5846C59.9408 45.5793 59.96 45.5737 59.9793 45.5681C59.9987 45.5625 60.018 45.5568 60.0372 45.5509L60.0951 45.5328C60.1146 45.5266 60.1338 45.5201 60.153 45.5136C60.1724 45.5071 60.1917 45.5006 60.2109 45.4938C60.2303 45.487 60.2497 45.4802 60.2688 45.4731C60.2883 45.466 60.3075 45.4585 60.3268 45.4511C60.3462 45.4436 60.3655 45.436 60.3847 45.4283C60.404 45.4205 60.4234 45.4127 60.4426 45.4046C60.462 45.3965 60.4813 45.3881 60.5005 45.3797C60.5199 45.3711 60.5392 45.3624 60.5584 45.3536C60.5778 45.3446 60.5971 45.3357 60.6163 45.3265C60.6357 45.3172 60.6551 45.3079 60.6742 45.2983C60.6937 45.2886 60.7129 45.2787 60.7321 45.2687C60.7516 45.2585 60.7709 45.2481 60.7901 45.2377C60.8095 45.227 60.8288 45.2163 60.848 45.2054C60.8674 45.1944 60.8868 45.1832 60.9059 45.1719C60.9253 45.1603 60.9447 45.1487 60.9638 45.1369C60.9833 45.1247 61.0025 45.1124 61.0217 45.1C61.0412 45.0873 61.0605 45.0745 61.0796 45.0615C61.0991 45.0483 61.1184 45.0348 61.1375 45.0212C61.1571 45.0074 61.1763 44.9933 61.1954 44.9791C61.215 44.9646 61.2343 44.95 61.2533 44.9351C61.2729 44.9198 61.2922 44.9044 61.3113 44.8889C61.3308 44.8729 61.3501 44.8567 61.3692 44.8403C61.3887 44.8235 61.408 44.8064 61.4271 44.7892C61.4467 44.7715 61.466 44.7535 61.485 44.7353C61.5046 44.7166 61.5239 44.6977 61.5429 44.6785C61.5626 44.6586 61.5818 44.6385 61.6008 44.6182C61.6205 44.5972 61.6398 44.5758 61.6587 44.5543C61.6784 44.5318 61.6978 44.5091 61.7167 44.4861C61.7364 44.4622 61.7557 44.438 61.7745 44.4134C61.7943 44.3877 61.8137 44.3618 61.8325 44.3355C61.8524 44.3075 61.8716 44.279 61.8904 44.2503C61.9103 44.2199 61.9296 44.1891 61.9483 44.1579C61.9684 44.1243 61.9877 44.0903 62.0062 44.0558C62.0264 44.0183 62.0458 43.9804 62.0641 43.9419C62.0846 43.8988 62.1039 43.8551 62.122 43.8107C62.1428 43.7598 62.1622 43.7083 62.1799 43.6558C62.2017 43.5911 62.2209 43.5251 62.2378 43.4579C62.2626 43.3598 62.2819 43.259 62.2958 43.1558C62.3126 43.0306 62.3214 42.9019 62.3214 42.7697C62.3214 42.6409 62.3127 42.5158 62.2958 42.3943C62.2819 42.2945 62.2625 42.1972 62.2378 42.1025C62.221 42.038 62.2016 41.9747 62.1799 41.9126C62.1622 41.8616 62.1429 41.8114 62.122 41.7622C62.1039 41.7195 62.0846 41.6775 62.0641 41.6361C62.0457 41.5988 62.0264 41.5621 62.0062 41.5259C61.9876 41.4926 61.9684 41.4597 61.9483 41.4273C61.9297 41.3972 61.9103 41.3675 61.8904 41.3382C61.8716 41.3106 61.8524 41.2831 61.8325 41.2562C61.8137 41.2308 61.7943 41.2058 61.7745 41.181C61.7557 41.1573 61.7364 41.1339 61.7167 41.1108C61.6977 41.0886 61.6785 41.0666 61.6587 41.045C61.6398 41.0241 61.6205 41.0036 61.6008 40.9833C61.5819 40.9637 61.5625 40.9444 61.5429 40.9253C61.5239 40.9067 61.5046 40.8885 61.485 40.8704C61.466 40.8529 61.4466 40.8356 61.4271 40.8185C61.408 40.8019 61.3887 40.7854 61.3692 40.7692C61.3501 40.7533 61.3308 40.7377 61.3113 40.7222C61.2922 40.7072 61.2729 40.6922 61.2533 40.6775C61.2342 40.6632 61.2149 40.649 61.1954 40.6349C61.1763 40.6212 61.157 40.6076 61.1375 40.5942C61.1184 40.5811 61.0991 40.5681 61.0796 40.5553C61.0605 40.5427 61.0412 40.5303 61.0217 40.5181C61.0025 40.5061 60.9833 40.4941 60.9638 40.4824C60.9447 40.471 60.9254 40.4596 60.9059 40.4485C60.8867 40.4375 60.8674 40.4266 60.848 40.4159C60.8288 40.4053 60.8095 40.395 60.7901 40.3848C60.7709 40.3746 60.7516 40.3646 60.7321 40.3548C60.713 40.3451 60.6937 40.3354 60.6742 40.326C60.655 40.3166 60.6358 40.3074 60.6163 40.2983C60.5971 40.2894 60.5778 40.2807 60.5584 40.2721C60.5393 40.2635 60.5199 40.2551 60.5005 40.2468C60.4813 40.2386 60.462 40.2305 60.4426 40.2226C60.4233 40.2147 60.4041 40.2068 60.3847 40.1992C60.3655 40.1917 60.3462 40.1842 60.3268 40.1769C60.3076 40.1697 60.2882 40.1628 60.2688 40.1558C60.2496 40.1488 60.2303 40.1421 60.2109 40.1354C60.1917 40.1288 60.1725 40.1222 60.153 40.1158C60.1338 40.1094 60.1145 40.1032 60.0951 40.0972C60.0759 40.0911 60.0565 40.0852 60.0372 40.0794L59.9793 40.0624C59.96 40.0569 59.9408 40.0514 59.9214 40.0461C59.9022 40.0409 59.8828 40.0359 59.8634 40.0309C59.8442 40.0259 59.8249 40.0211 59.8056 40.0163C59.7863 40.0115 59.767 40.0068 59.7476 40.0023C59.7284 39.9978 59.7091 39.9934 59.6897 39.9892C59.6705 39.9849 59.6512 39.9808 59.6318 39.9768C59.6126 39.9727 59.5933 39.9687 59.5739 39.9649L59.516 39.9538L59.4581 39.9435C59.4388 39.9401 59.4195 39.9368 59.4002 39.9337L59.3423 39.9245C59.323 39.9216 59.3037 39.9189 59.2843 39.9162L59.2264 39.9083L59.1685 39.901L59.1106 39.8945L59.0527 39.8884L58.9948 39.883L58.9369 39.8781L58.8834 39.874L58.8834 39.8046L58.9369 39.7963L58.9948 39.7867C59.0142 39.7834 59.0335 39.7801 59.0527 39.7766L59.1106 39.7655C59.13 39.7616 59.1493 39.7577 59.1685 39.7536L59.2264 39.741C59.2458 39.7366 59.2652 39.7322 59.2843 39.7276C59.3038 39.7229 59.323 39.718 59.3423 39.7131C59.3617 39.7081 59.381 39.7029 59.4002 39.6978C59.4195 39.6925 59.4389 39.6871 59.4581 39.6816C59.4775 39.676 59.4968 39.6704 59.516 39.6646C59.5354 39.6587 59.5548 39.6527 59.5739 39.6465C59.5934 39.6403 59.6126 39.6339 59.6318 39.6274C59.6513 39.6208 59.6705 39.614 59.6897 39.6072C59.7092 39.6003 59.7285 39.5933 59.7476 39.5861C59.7671 39.5788 59.7864 39.5714 59.8056 39.5639C59.825 39.5563 59.8443 39.5484 59.8634 39.5405C59.8829 39.5324 59.9022 39.5243 59.9214 39.5159C59.9409 39.5074 59.9601 39.4988 59.9793 39.49C59.9987 39.4811 60.018 39.472 60.0372 39.4628C60.0567 39.4534 60.076 39.4439 60.0951 39.4342C60.1146 39.4244 60.1339 39.4144 60.153 39.4043C60.1725 39.394 60.1918 39.3835 60.2109 39.3729C60.2304 39.362 60.2497 39.351 60.2688 39.3399C60.2883 39.3285 60.3077 39.3169 60.3268 39.3052C60.3463 39.2933 60.3656 39.2812 60.3847 39.2689C60.4042 39.2564 60.4235 39.2435 60.4426 39.2306C60.4621 39.2174 60.4814 39.204 60.5005 39.1905C60.5201 39.1765 60.5394 39.1625 60.5584 39.1482C60.578 39.1336 60.5973 39.1188 60.6163 39.1038C60.6359 39.0883 60.6552 39.0728 60.6742 39.0569C60.6938 39.0406 60.7131 39.024 60.7321 39.0073C60.7518 38.99 60.771 38.9725 60.7901 38.9548C60.8097 38.9365 60.829 38.918 60.848 38.8993C60.8676 38.8799 60.887 38.8603 60.9059 38.8405C60.9256 38.8197 60.9449 38.7988 60.9638 38.7776C60.9835 38.7555 61.0028 38.7331 61.0217 38.7105C61.0415 38.6868 61.0608 38.6628 61.0796 38.6386C61.0994 38.613 61.1187 38.5871 61.1375 38.5609C61.1574 38.5331 61.1767 38.5049 61.1954 38.4765C61.2154 38.4462 61.2348 38.4156 61.2533 38.3845C61.2734 38.3509 61.2928 38.3168 61.3113 38.2824C61.3316 38.2446 61.3509 38.2062 61.3692 38.1675C61.3897 38.1239 61.409 38.0797 61.4271 38.0351C61.4481 37.9831 61.4674 37.9303 61.485 37.8769C61.5071 37.8097 61.5264 37.7415 61.5429 37.6724C61.5696 37.5602 61.5889 37.4458 61.6008 37.3293C61.6103 37.2374 61.6151 37.1443 61.6151 37.0503C61.6151 36.951 61.6102 36.8542 61.6008 36.7598C61.5889 36.6391 61.5695 36.5226 61.5429 36.41C61.5264 36.3398 61.507 36.2711 61.485 36.2041C61.4674 36.1505 61.4481 36.0979 61.4271 36.0464C61.409 36.002 61.3897 35.9583 61.3692 35.9155C61.3508 35.8773 61.3315 35.8397 61.3113 35.8028C61.2927 35.7689 61.2734 35.7356 61.2533 35.7028C61.2347 35.6723 61.2154 35.6423 61.1954 35.6127C61.1767 35.585 61.1574 35.5577 61.1375 35.5309C61.1187 35.5054 61.0994 35.4803 61.0796 35.4556C61.0607 35.432 61.0415 35.4086 61.0217 35.3856C61.0028 35.3638 60.9835 35.3423 60.9638 35.3211C60.9449 35.3006 60.9256 35.2804 60.9059 35.2605C60.8869 35.2413 60.8676 35.2224 60.848 35.2037C60.829 35.1856 60.8097 35.1677 60.7901 35.1502C60.771 35.1331 60.7517 35.1163 60.7321 35.0997C60.7131 35.0836 60.6938 35.0676 60.6742 35.0519C60.6552 35.0367 60.6359 35.0215 60.6163 35.0067C60.5972 34.9922 60.5779 34.978 60.5584 34.9639C60.5393 34.9501 60.52 34.9366 60.5005 34.9232C60.4814 34.9101 60.4621 34.8973 60.4426 34.8846C60.4235 34.8721 60.4041 34.8598 60.3847 34.8477C60.3656 34.8358 60.3462 34.8242 60.3268 34.8126C60.3076 34.8013 60.2883 34.7902 60.2688 34.7792C60.2497 34.7684 60.2304 34.7577 60.2109 34.7473C60.1918 34.737 60.1725 34.7269 60.153 34.7168C60.1339 34.707 60.1146 34.6973 60.0951 34.6878C60.0759 34.6783 60.0567 34.669 60.0372 34.6599C60.018 34.6509 59.9987 34.6421 59.9793 34.6334C59.9601 34.6249 59.9408 34.6166 59.9214 34.6083C59.9022 34.6002 59.8828 34.5921 59.8634 34.5842C59.8443 34.5764 59.8249 34.5688 59.8056 34.5612C59.7864 34.5538 59.7671 34.5464 59.7476 34.5392C59.7284 34.5321 59.7092 34.5251 59.6897 34.5183C59.6705 34.5115 59.6512 34.5049 59.6318 34.4984C59.6126 34.492 59.5933 34.4857 59.5739 34.4795C59.5547 34.4733 59.5354 34.4673 59.516 34.4614C59.4967 34.4555 59.4775 34.4497 59.4581 34.4441C59.4389 34.4385 59.4195 34.4332 59.4002 34.4279C59.381 34.4227 59.3617 34.4176 59.3423 34.4125L59.2843 34.3978C59.2651 34.393 59.2458 34.3884 59.2264 34.3839C59.2072 34.3794 59.1879 34.3751 59.1685 34.3709L59.1106 34.3585C59.0913 34.3546 59.0721 34.3505 59.0527 34.3468C59.0335 34.343 59.0141 34.3396 58.9948 34.336L58.9369 34.3258C58.9176 34.3226 58.8984 34.3193 58.8789 34.3162L58.8211 34.3074L58.7631 34.2993L58.7052 34.2916L58.6473 34.2847L58.5894 34.2785L58.5315 34.2727L58.4735 34.2676L58.4157 34.2631L58.3577 34.259L58.2998 34.2557L58.2768 34.2544L58.2419 34.2522L58.184 34.2488L58.1261 34.2456L58.0682 34.2426L58.0103 34.2398L57.9524 34.2373L57.8944 34.2352L57.8366 34.2334L57.7786 34.2321L57.7207 34.2313L57.6888 34.2312H57.6628H57.6049H57.547H57.489H57.4312H57.3732H57.3153H57.2574H57.1995H57.1416H57.0836H57.0258H56.9678H56.9099H56.852H56.7941H56.7362H56.6783H56.6204H56.5625H56.5045H56.4467H56.3887H56.3308H56.2729H56.215H56.1571H56.0991H56.0413H55.9833H55.9254H55.8675H55.8096H55.7517H55.6938H55.6359H55.5779H55.52H55.4621H55.4042H55.3463H55.2884H55.2305H55.1726H55.1146H55.0568H54.9988H54.9409H54.883H54.8251H54.7672H54.7093H54.6514H54.5934H54.5355H54.4776H54.4197H54.3618H54.3039H54.246H54.1881H54.1302H54.0722H54.0143H53.9564H53.8985H53.8406H53.7827H53.7248H53.6669H53.6089H53.551H53.4931H53.4352H53.3773H53.3194H53.2615H53.2035H53.1457H53.0877H53.0298H52.9719H52.914H52.8561H52.7982H52.7403H52.6824H52.6244H52.5665H52.5086H52.4507H52.3928H52.3349H52.277H52.219H52.1612H52.1032H52.0453H51.9874H51.9295H51.8716H51.8136H51.7558H51.6978H51.6399H51.582H51.5241H51.4662H51.4083H51.3504H51.2925H51.2345H51.1767H51.1187H51.0608H51.0029H50.945H50.8871H50.8291H50.7713H50.7133H50.6554H50.5975H50.5396H50.4817H50.4238H50.3659H50.3079H50.25H50.1921H50.1342H50.0763H50.0184H49.9605H49.9026H49.8446H49.7868H49.7288H49.6709H49.613H49.5551H49.4972H49.4392H49.3814H49.3234H49.1985V28.0005C49.1985 27.5813 49.2416 27.1723 49.3234 26.7773C49.341 26.6928 49.3603 26.6089 49.3814 26.5257C49.3994 26.4546 49.4188 26.3839 49.4392 26.3138C49.4576 26.2511 49.4769 26.1889 49.4972 26.1272C49.5157 26.0707 49.5349 26.0146 49.5551 25.9589C49.5737 25.9072 49.5929 25.8559 49.613 25.8049C49.6318 25.7573 49.651 25.7099 49.6709 25.6629C49.6898 25.6186 49.709 25.5744 49.7288 25.5306C49.7476 25.489 49.767 25.4476 49.7868 25.4066C49.8056 25.3673 49.825 25.3284 49.8446 25.2897C49.8636 25.2524 49.8829 25.2155 49.9026 25.1787C49.9215 25.1432 49.9408 25.108 49.9605 25.0729C49.9795 25.0389 49.9988 25.0052 50.0184 24.9717C50.0375 24.9391 50.0567 24.9067 50.0763 24.8746C50.0953 24.8435 50.1146 24.8126 50.1342 24.7818C50.1532 24.752 50.1726 24.7225 50.1921 24.6931C50.2112 24.6643 50.2305 24.6356 50.25 24.6071C50.2692 24.5792 50.2883 24.5513 50.3079 24.5238C50.327 24.4971 50.3464 24.4707 50.3659 24.4444C50.3849 24.4185 50.4043 24.3927 50.4238 24.3671C50.443 24.3419 50.4621 24.3167 50.4817 24.2918C50.5007 24.2676 50.5202 24.2438 50.5396 24.2199C50.5587 24.1963 50.578 24.1729 50.5975 24.1497C50.6167 24.1268 50.6359 24.1038 50.6554 24.0812C50.6745 24.0591 50.6939 24.0374 50.7133 24.0156C50.7326 23.994 50.7517 23.9724 50.7713 23.951C50.7904 23.9302 50.8098 23.9095 50.8291 23.8888C50.8483 23.8685 50.8676 23.8483 50.8871 23.8282C50.9063 23.8083 50.9255 23.7885 50.945 23.7689C50.9641 23.7497 50.9835 23.7307 51.0029 23.7118C51.0221 23.6929 51.0412 23.6739 51.0608 23.6553C51.0799 23.6371 51.0994 23.6193 51.1187 23.6014C51.138 23.5835 51.1572 23.5656 51.1767 23.548C51.1958 23.5307 51.2152 23.5137 51.2345 23.4966C51.2538 23.4797 51.273 23.4628 51.2925 23.4461C51.3117 23.4296 51.331 23.4134 51.3504 23.3971C51.3696 23.3811 51.3889 23.365 51.4083 23.3492C51.4275 23.3335 51.4468 23.318 51.4662 23.3026L51.5241 23.257L51.582 23.2127C51.6012 23.1981 51.6205 23.1837 51.6399 23.1694C51.6591 23.1552 51.6784 23.1411 51.6978 23.1272L51.7558 23.086C51.775 23.0725 51.7943 23.0591 51.8136 23.0459L51.8716 23.0067L51.9295 22.9685C51.9488 22.956 51.968 22.9435 51.9874 22.9312L52.0453 22.895C52.0646 22.8831 52.0838 22.8711 52.1032 22.8594C52.1224 22.8478 52.1418 22.8365 52.1612 22.8251C52.1804 22.8138 52.1996 22.8023 52.219 22.7912C52.2382 22.7802 52.2577 22.7696 52.277 22.7588C52.2963 22.748 52.3154 22.737 52.3349 22.7264C52.3541 22.716 52.3735 22.7059 52.3928 22.6957C52.4121 22.6855 52.4313 22.6752 52.4507 22.6652C52.4699 22.6552 52.4893 22.6456 52.5086 22.6359C52.5279 22.6262 52.5472 22.6165 52.5665 22.6071L52.6244 22.5791C52.6437 22.5699 52.663 22.561 52.6824 22.552C52.7017 22.5431 52.7209 22.534 52.7403 22.5253C52.7595 22.5167 52.7789 22.5084 52.7982 22.5C52.8175 22.4915 52.8367 22.4829 52.8561 22.4747C52.8753 22.4665 52.8947 22.4587 52.914 22.4508C52.9333 22.4428 52.9525 22.4348 52.9719 22.4271L53.0298 22.4043L53.0877 22.3823C53.1071 22.375 53.1263 22.3676 53.1457 22.3605C53.1649 22.3535 53.1842 22.3469 53.2035 22.3401C53.2229 22.3333 53.2421 22.3263 53.2615 22.3197C53.2807 22.3131 53.3001 22.307 53.3194 22.3006L53.3773 22.2818C53.3966 22.2757 53.4158 22.2695 53.4352 22.2635C53.4544 22.2576 53.4738 22.252 53.4931 22.2463C53.5124 22.2406 53.5317 22.2346 53.551 22.2291C53.5702 22.2236 53.5896 22.2185 53.6089 22.2133C53.6282 22.208 53.6475 22.2027 53.6669 22.1976L53.7248 22.1826C53.744 22.1777 53.7633 22.1731 53.7827 22.1685C53.802 22.1638 53.8212 22.1588 53.8406 22.1544C53.8598 22.1499 53.8792 22.1459 53.8985 22.1416L53.9564 22.129L54.0143 22.1171C54.0335 22.1132 54.0529 22.1096 54.0722 22.106C54.0916 22.1023 54.1108 22.0983 54.1302 22.0948C54.1494 22.0913 54.1688 22.0884 54.1881 22.0851L54.246 22.0755C54.2653 22.0724 54.2846 22.0693 54.3039 22.0664C54.3232 22.0635 54.3425 22.061 54.3618 22.0583C54.3811 22.0556 54.4003 22.0527 54.4197 22.0502C54.439 22.0477 54.4583 22.0455 54.4776 22.0432L54.5355 22.0365C54.5548 22.0344 54.5741 22.0321 54.5934 22.0301C54.6127 22.0282 54.6321 22.0267 54.6514 22.025L54.7093 22.0199L54.7672 22.0155C54.7864 22.0141 54.8058 22.013 54.8251 22.0118C54.8444 22.0107 54.8636 22.0092 54.883 22.0082C54.9023 22.0072 54.9216 22.0066 54.9409 22.0058L54.9988 22.0036C55.0182 22.003 55.0374 22.0022 55.0568 22.0017C55.076 22.0013 55.0954 22.0012 55.1146 22.001C55.1339 22.0007 55.1532 22.0003 55.1726 22.0002L55.1871 22H55.2305H55.2884H55.3463H55.4042H55.4621H55.52H55.5779H55.6359H55.6938H55.7517H55.8096H55.8675H55.9254H55.9833H56.0413H56.0991H56.1571H56.215H56.2729H56.3308H56.3887H56.4467H56.5045H56.5625H56.6204H56.6783H56.7362H56.7941H56.852H56.9099H56.9678H57.0258H57.0836H57.1416H57.1995H57.2574H57.3153H57.3732H57.4312H57.489H57.547H57.6049H57.6628H57.7207H57.7786H57.8366H57.8944H57.9524H58.0103H58.0682H58.1261H58.184H58.2419H58.2998H58.3577H58.4157H58.4735H58.5315H58.5894H58.6473H58.7052H58.7631H58.8211H58.8789H58.9369H58.9948H59.0527H59.1106H59.1685H59.2264H59.2843H59.3423H59.4002H59.4581H59.516H59.5739H59.6318H59.6897H59.7476H59.8056H59.8634H59.9214H59.9793H60.0372H60.0951H60.153H60.2109H60.2688H60.3268H60.3847H60.4426H60.5005H60.5584H60.6163H60.6742H60.7321H60.7901H60.848H60.9059H60.9638H61.0217H61.0796H61.1375H61.1954H61.2533H61.3113H61.3692H61.4271H61.485H61.5429H61.6008H61.6587H61.7167H61.7745H61.8325H61.8904H61.9483H62.0062H62.0641H62.122H62.1799H62.2378H62.2958H62.3537H62.4116H62.4695H62.5274H62.5853H62.6432H62.7012H62.759H62.817H62.8749H62.9328H62.9907H63.0486H63.1066H63.1645H63.2224H63.2803H63.3382H63.3961H63.454H63.512H63.5698H63.6278H63.6857H63.7436H63.8015H63.8594H63.9173H63.9752V22Z" fill="url(#paint0_linear)"/>
<path fill-rule="evenodd" clip-rule="evenodd" d="M16.1242 42.878C16.0827 42.8584 16.0414 42.8385 16 42.8185V28.0004C16 27.5825 16.0428 27.1745 16.1242 26.7806C16.1416 26.696 16.161 26.6122 16.182 26.529C16.2 26.4577 16.2193 26.387 16.2398 26.3168C16.2581 26.2542 16.2774 26.1921 16.2976 26.1304C16.3161 26.0739 16.3353 26.0176 16.3554 25.9619C16.3741 25.9103 16.3932 25.8589 16.4132 25.808C16.4319 25.7604 16.4512 25.7129 16.4711 25.6659C16.4898 25.6215 16.5091 25.5775 16.5288 25.5337C16.5477 25.4921 16.567 25.4508 16.5866 25.4097C16.6055 25.3705 16.6248 25.3315 16.6445 25.2927C16.6633 25.2555 16.6826 25.2185 16.7023 25.1817C16.7212 25.1463 16.7405 25.111 16.7601 25.076C16.779 25.0421 16.7983 25.0083 16.8179 24.9748C16.8369 24.9423 16.8561 24.9098 16.8757 24.8777C16.8947 24.8466 16.914 24.8157 16.9335 24.785C16.9524 24.7552 16.9719 24.7256 16.9913 24.6962C17.0104 24.6674 17.0296 24.6387 17.0491 24.6103C17.0683 24.5823 17.0873 24.5544 17.1069 24.5268C17.1259 24.5002 17.1453 24.4739 17.1647 24.4475C17.1838 24.4216 17.2031 24.3959 17.2226 24.3703C17.2417 24.3452 17.2608 24.3198 17.2804 24.295C17.2994 24.2708 17.3188 24.2471 17.3382 24.2232C17.3573 24.1996 17.3765 24.1762 17.396 24.1529C17.4151 24.13 17.4343 24.1071 17.4538 24.0845C17.4728 24.0624 17.4922 24.0407 17.5116 24.0188C17.5308 23.9972 17.5499 23.9756 17.5694 23.9543C17.5885 23.9334 17.6079 23.9128 17.6272 23.8922C17.6464 23.8718 17.6656 23.8516 17.685 23.8315C17.7042 23.8117 17.7234 23.7918 17.7428 23.7723C17.7619 23.753 17.7813 23.734 17.8007 23.7151C17.8199 23.6962 17.839 23.6772 17.8585 23.6586C17.8775 23.6404 17.897 23.6227 17.9162 23.6047C17.9355 23.5868 17.9546 23.5689 17.9741 23.5513C17.9932 23.534 18.0126 23.517 18.0319 23.5C18.0511 23.4831 18.0703 23.4661 18.0897 23.4494C18.1089 23.4329 18.1282 23.4167 18.1475 23.4005C18.1667 23.3844 18.1859 23.3683 18.2053 23.3525C18.2244 23.3369 18.2438 23.3214 18.2631 23.3059C18.2823 23.2906 18.3015 23.2754 18.3209 23.2603C18.3401 23.2454 18.3594 23.2307 18.3788 23.216C18.398 23.2015 18.4172 23.187 18.4366 23.1727L18.4943 23.1305C18.5135 23.1166 18.5328 23.1029 18.5522 23.0892C18.5713 23.0757 18.5906 23.0624 18.61 23.0492C18.6292 23.036 18.6484 23.0229 18.6678 23.0099C18.687 22.9971 18.7063 22.9845 18.7256 22.9718C18.7448 22.9593 18.764 22.9467 18.7834 22.9343C18.8025 22.9221 18.8219 22.9102 18.8412 22.8982C18.8605 22.8863 18.8796 22.8742 18.899 22.8625C18.9181 22.8509 18.9375 22.8397 18.9568 22.8283C18.9761 22.8169 18.9952 22.8054 19.0146 22.7942C19.0338 22.7832 19.0532 22.7727 19.0724 22.7619C19.0917 22.7511 19.1109 22.7401 19.1303 22.7295C19.1494 22.7191 19.1688 22.709 19.1881 22.6988C19.2073 22.6885 19.2265 22.6783 19.2459 22.6682C19.2651 22.6583 19.2844 22.6486 19.3037 22.6388L19.3615 22.6101C19.3807 22.6007 19.4 22.5912 19.4193 22.582C19.4385 22.5728 19.4578 22.5639 19.4771 22.555C19.4964 22.546 19.5155 22.5368 19.5349 22.5281C19.5541 22.5194 19.5734 22.5112 19.5927 22.5028C19.612 22.4943 19.6312 22.4857 19.6505 22.4775C19.6697 22.4693 19.6891 22.4615 19.7084 22.4535L19.7662 22.4299L19.824 22.4069L19.8818 22.3849C19.9011 22.3777 19.9202 22.3701 19.9396 22.363C19.9587 22.356 19.9782 22.3495 19.9974 22.3427C20.0167 22.3358 20.0359 22.3289 20.0552 22.3223L20.113 22.303L20.1708 22.2842C20.1901 22.2781 20.2093 22.2718 20.2286 22.2658C20.2478 22.2599 20.2672 22.2543 20.2864 22.2486C20.3057 22.2428 20.3249 22.237 20.3443 22.2314C20.3635 22.2259 20.3828 22.2207 20.402 22.2154L20.4599 22.1997C20.4791 22.1946 20.4983 22.1895 20.5177 22.1846C20.5369 22.1797 20.5562 22.1752 20.5755 22.1705C20.5947 22.1658 20.614 22.1609 20.6333 22.1564C20.6525 22.1519 20.6718 22.1477 20.6911 22.1435L20.7489 22.1309C20.7682 22.1268 20.7874 22.1226 20.8067 22.1187C20.8259 22.1149 20.8453 22.1113 20.8645 22.1076C20.8838 22.1039 20.903 22.1001 20.9224 22.0966C20.9416 22.0931 20.9608 22.0899 20.9801 22.0866L21.038 22.077C21.0572 22.0739 21.0764 22.0706 21.0958 22.0677C21.115 22.0648 21.1343 22.0623 21.1536 22.0596C21.1728 22.0569 21.1921 22.054 21.2114 22.0515L21.2692 22.0442L21.327 22.0376C21.3463 22.0355 21.3655 22.033 21.3848 22.031C21.404 22.029 21.4234 22.0276 21.4426 22.0258L21.5004 22.0207C21.5197 22.0191 21.5389 22.0175 21.5582 22.0161C21.5775 22.0147 21.5968 22.0136 21.6161 22.0124C21.6354 22.0112 21.6546 22.0098 21.6739 22.0088C21.6931 22.0077 21.7124 22.007 21.7317 22.0061L21.7895 22.0039C21.8087 22.0033 21.8279 22.0023 21.8473 22.0018C21.8665 22.0013 21.8858 22.0013 21.9051 22.0011C21.9243 22.0008 21.9436 22.0004 21.9629 22.0003L21.9886 22H22.0207H22.0785H22.1363H22.1941H22.252H22.3098H22.3676H22.4254H22.4832H22.541H22.5988H22.6566H22.7144H22.7722H22.8301H22.8878H22.9457H23.0035H23.0613H23.1191H23.1769H23.2347H23.2925H23.3503H23.4082H23.4659H23.5238H23.5816H23.6394H23.6972H23.755H23.8128H23.8706H23.9284H23.9862H24.044H24.1018H24.1597H24.2175H24.2753H24.3331H24.3909H24.4487H24.5065H24.5643H24.6221H24.6799H24.7378H24.7956H24.8534H24.9112H24.969H25.0268H25.0846H25.1424H25.2002H25.258H25.3159H25.3736H25.4314H25.4893H25.5471H25.6049H25.6627H25.7205H25.7783H25.8361H25.8939H25.9517H26.0095H26.0674H26.1252H26.183H26.2408H26.2986H26.3564H26.4142H26.472H26.5298H26.5876H26.6455H26.7033H26.7611H26.8189H26.8767H26.9345H26.9923H27.0501H27.1079H27.1657H27.2236H27.2813H27.3392H27.397H27.4548H27.5126H27.5704H27.6282H27.686H27.7438H27.8017H27.8594H27.9172H27.9751H28.0329H28.0907H28.1485H28.2063H28.2641H28.3219H28.3797H28.4375H28.4953H28.5532H28.611H28.6688H28.7266H28.7844H28.8422H28.9H28.9578H29.0156H29.0734H29.1313H29.1891H29.2469H29.3047H29.3625H29.4203H29.4781H29.5359H29.5937H29.6515H29.7094H29.7671H29.8249H29.8828H29.9406H29.9984H30.0562H30.114H30.1718H30.2296H30.2875H30.3452H30.403H30.4609H30.5187H30.5765H30.6343H30.6921H30.7499H30.799V52C30.799 52.261 30.7822 52.5181 30.7499 52.7703C30.7344 52.8917 30.7148 53.0118 30.6921 53.1309C30.6748 53.2214 30.6556 53.3113 30.6343 53.4003C30.6163 53.4753 30.5971 53.5498 30.5765 53.6237C30.5583 53.6886 30.5389 53.7529 30.5187 53.8168C30.5003 53.8747 30.4809 53.9322 30.4609 53.9893C30.4423 54.0421 30.423 54.0947 30.403 54.1469C30.3844 54.1956 30.3651 54.244 30.3452 54.2921C30.3265 54.3373 30.3072 54.3824 30.2875 54.4271C30.2686 54.4695 30.2493 54.5117 30.2296 54.5536C30.2108 54.5936 30.1915 54.6333 30.1718 54.6728C30.1529 54.7107 30.1337 54.7484 30.114 54.7858C30.0951 54.8219 30.0758 54.8577 30.0562 54.8933C30.0372 54.9278 30.0181 54.9621 29.9984 54.9962C29.9794 55.029 29.9601 55.0616 29.9406 55.0941C29.9217 55.1255 29.9023 55.1565 29.8828 55.1875C29.8638 55.2178 29.8445 55.2479 29.8249 55.2778C29.8058 55.307 29.7867 55.3362 29.7671 55.3651C29.7481 55.3931 29.7288 55.4208 29.7094 55.4485C29.6904 55.4755 29.671 55.5023 29.6515 55.529C29.6324 55.5553 29.6132 55.5814 29.5937 55.6074C29.5747 55.6327 29.5554 55.6579 29.5359 55.6829C29.5168 55.7073 29.4975 55.7315 29.4781 55.7556C29.4589 55.7795 29.4398 55.8033 29.4203 55.8269C29.4013 55.8499 29.3819 55.8726 29.3625 55.8953C29.3434 55.9176 29.3241 55.9398 29.3047 55.9619C29.2855 55.9837 29.2664 56.0056 29.2469 56.0271C29.2278 56.0481 29.2084 56.0687 29.1891 56.0895C29.1699 56.1101 29.1507 56.1307 29.1313 56.1511C29.1122 56.171 29.0928 56.1906 29.0734 56.2103C29.0543 56.2297 29.0351 56.249 29.0156 56.2682C28.9965 56.2872 28.9772 56.306 28.9578 56.3247C28.9387 56.3431 28.9193 56.3612 28.9 56.3794C28.8808 56.3974 28.8617 56.4154 28.8422 56.4332C28.8231 56.4506 28.8037 56.4677 28.7844 56.4849C28.7651 56.502 28.7461 56.5193 28.7266 56.5361C28.7075 56.5527 28.688 56.5687 28.6688 56.5851C28.6495 56.6013 28.6304 56.6177 28.611 56.6338C28.5919 56.6495 28.5725 56.6649 28.5532 56.6804C28.5339 56.6958 28.5148 56.7114 28.4953 56.7266C28.4762 56.7416 28.4568 56.7562 28.4375 56.771C28.4183 56.7856 28.3992 56.8004 28.3797 56.8149C28.3606 56.8291 28.3412 56.843 28.3219 56.8571C28.3027 56.871 28.2836 56.8851 28.2641 56.8989C28.245 56.9124 28.2256 56.9257 28.2063 56.939C28.187 56.9523 28.1679 56.9658 28.1485 56.9789C28.1294 56.9918 28.11 57.0043 28.0907 57.017C28.0714 57.0297 28.0523 57.0426 28.0329 57.0551C28.0138 57.0673 27.9943 57.0791 27.9751 57.0911C27.9558 57.1031 27.9367 57.1154 27.9172 57.1272C27.8981 57.1389 27.8787 57.1502 27.8594 57.1616C27.8402 57.173 27.821 57.1846 27.8017 57.1958C27.7825 57.2069 27.7632 57.2177 27.7438 57.2286C27.7246 57.2395 27.7054 57.2503 27.686 57.2609C27.6668 57.2715 27.6476 57.2819 27.6282 57.2923L27.5704 57.3228C27.5512 57.3328 27.5319 57.3428 27.5126 57.3527C27.4934 57.3624 27.4741 57.3719 27.4548 57.3814C27.4355 57.3909 27.4164 57.4007 27.397 57.41C27.3778 57.4193 27.3584 57.4281 27.3392 57.4371C27.3199 57.4461 27.3007 57.4553 27.2813 57.4641C27.2622 57.4728 27.2428 57.4812 27.2236 57.4897L27.1657 57.515L27.1079 57.5396C27.0887 57.5476 27.0694 57.5553 27.0501 57.5632C27.0308 57.571 27.0116 57.579 26.9923 57.5866C26.9731 57.5941 26.9538 57.6012 26.9345 57.6085C26.9152 57.6159 26.8961 57.6234 26.8767 57.6305C26.8575 57.6376 26.8382 57.6444 26.8189 57.6513L26.7611 57.6716L26.7033 57.6915C26.6841 57.6979 26.6647 57.704 26.6455 57.7102C26.6262 57.7165 26.607 57.723 26.5876 57.729C26.5685 57.735 26.5491 57.7405 26.5298 57.7463L26.472 57.7635L26.4142 57.78C26.395 57.7854 26.3757 57.7904 26.3564 57.7956C26.3371 57.8008 26.3179 57.8063 26.2986 57.8112C26.2794 57.8162 26.26 57.8206 26.2408 57.8253C26.2215 57.8301 26.2023 57.8349 26.183 57.8394L26.1252 57.8527L26.0674 57.8654C26.0481 57.8695 26.0289 57.874 26.0095 57.878C25.9903 57.8819 25.971 57.8853 25.9517 57.889C25.9325 57.8928 25.9132 57.8966 25.8939 57.9001L25.8361 57.9105C25.8169 57.9139 25.7976 57.9169 25.7783 57.9201C25.759 57.9232 25.7398 57.9267 25.7205 57.9297C25.7013 57.9327 25.682 57.9352 25.6627 57.9379L25.6049 57.946C25.5857 57.9486 25.5664 57.9513 25.5471 57.9537C25.5279 57.9561 25.5085 57.9581 25.4893 57.9603C25.47 57.9625 25.4508 57.9649 25.4314 57.9669C25.4122 57.9689 25.3929 57.9707 25.3736 57.9725L25.3159 57.9776C25.2966 57.9793 25.2774 57.9813 25.258 57.9827C25.2388 57.9842 25.2195 57.9851 25.2002 57.9864L25.1424 57.99L25.0846 57.9931C25.0654 57.994 25.0461 57.9946 25.0268 57.9953C25.0075 57.996 24.9883 57.9969 24.969 57.9975C24.9498 57.998 24.9304 57.9982 24.9112 57.9986L24.8534 57.9993C24.8355 57.9995 24.8177 58 24.7998 58H24.7956H24.7378H24.6799H24.6221H24.5643H24.5065H24.4487H24.3909H24.3331H24.2753H24.2175H24.1597H24.1018H24.044H23.9862H23.9284H23.8706H23.8128H23.755H23.6972H23.6394H23.5816H23.5238H23.4659H23.4082H23.3503H23.2925H23.2347H23.1769H23.1191H23.0613H23.0035H22.9457H22.8878H22.8301H22.7722H22.7144H22.6566H22.5988H22.541H22.4832H22.4254H22.3676H22.3098H22.252H22.1941H22.1363H22.0785H22.0207H21.9629H21.9051H21.8473H21.7895H21.7317H21.6739H21.6161H21.5582H21.5004H21.4426H21.3848H21.327H21.2692H21.2114H21.1536H21.0958H21.038H20.9801H20.9224H20.8645H20.8067H20.7489H20.6911H20.6333H20.5755H20.5177H20.4599H20.402H20.3443H20.2864H20.2286H20.1708H20.113H20.0552H19.9974H19.9396H19.8818H19.824H19.7662H19.7084H19.6505H19.5927H19.5349H19.4771H19.4193H19.3615H19.3037H19.2459H19.1881H19.1303H19.0724H19.0146H18.9568H18.899H18.8412H18.7834H18.7256H18.6678H18.61H18.5522H18.4943H18.4366H18.3788H18.3209H18.2631H18.2053H18.1475H18.0897H18.0319H17.9741H17.9162H17.8585H17.8007H17.7428H17.685H17.6272H17.5694H17.5116H17.4538H17.396H17.3382H17.2804H17.2226H17.1647H17.1069H17.0491H16.9913H16.9335H16.8757H16.8179H16.7601H16.7023H16.6445H16.5866H16.5288H16.4711H16.4132H16.3554H16.2976H16.2398H16.182H16.1242H16V45.3553C16 45.3553 16.0427 45.3671 16.1242 45.3876L16.182 45.4021L16.2398 45.4162L16.2976 45.43L16.3554 45.4437L16.4132 45.4572L16.4711 45.4704L16.5288 45.4835L16.5866 45.4963L16.6445 45.509L16.7023 45.5215L16.7601 45.5339L16.8179 45.546L16.8757 45.5581L16.9335 45.5699L16.9913 45.5816L17.0491 45.5932L17.1069 45.6046L17.1647 45.6158L17.2226 45.627L17.2804 45.638L17.3382 45.6488L17.396 45.6595L17.4538 45.6701L17.5116 45.6805L17.5694 45.6908L17.6272 45.7009L17.685 45.711L17.7428 45.7208L17.8007 45.7306L17.8585 45.7402L17.9162 45.7497L17.9741 45.759L18.0319 45.7682L18.0897 45.7774L18.1475 45.7863L18.2053 45.7952L18.2631 45.8039L18.3209 45.8125L18.3788 45.8209L18.4366 45.8293L18.4943 45.8375L18.5522 45.8456L18.61 45.8535L18.6678 45.8614L18.7256 45.8691L18.7834 45.8767L18.8412 45.8841L18.899 45.8914L18.9568 45.8987L19.0146 45.9057L19.0724 45.9128L19.1303 45.9195L19.1881 45.9263L19.2459 45.9328L19.3037 45.9393L19.3615 45.9457L19.4193 45.9519L19.4771 45.958L19.5349 45.9639L19.5927 45.9698L19.6505 45.9755L19.7084 45.9811L19.7662 45.9866L19.824 45.9919L19.8818 45.9972L19.9396 46.0022L19.9974 46.0072L20.0552 46.0121L20.113 46.0168L20.1708 46.0214L20.2286 46.0258L20.2864 46.0302L20.3443 46.0344L20.402 46.0385L20.4599 46.0425L20.5177 46.0462L20.5755 46.05L20.6333 46.0536L20.6911 46.057L20.7489 46.0604L20.8067 46.0635L20.8645 46.0666L20.9224 46.0696L20.9801 46.0723L21.038 46.075L21.0958 46.0775L21.1536 46.0799L21.2114 46.0823L21.2692 46.0844L21.327 46.0864L21.3848 46.0883L21.4426 46.09L21.5004 46.0917L21.5582 46.0932L21.6161 46.0945L21.6739 46.0958L21.7317 46.0968L21.7895 46.0977L21.8473 46.0986L21.9051 46.0992L21.9629 46.0998L22.0207 46.1002L22.0785 46.1004L22.1363 46.1006L22.1587 46.1007L22.1941 46.1005L22.252 46.1001L22.3098 46.0998L22.3676 46.0994L22.4254 46.0991L22.4832 46.098L22.541 46.097L22.5988 46.0959L22.6566 46.0949L22.7144 46.0934L22.7722 46.0916L22.8301 46.0898L22.8878 46.088L22.9457 46.0861L23.0035 46.0836L23.0613 46.081L23.1191 46.0784L23.1769 46.0759L23.2347 46.0727L23.2925 46.0694L23.3503 46.066L23.4082 46.0627L23.4659 46.0588L23.5238 46.0546L23.5816 46.0505L23.6394 46.0463L23.6972 46.0417L23.755 46.0367L23.8128 46.0317L23.8706 46.0267L23.9284 46.0213L23.9862 46.0154L24.044 46.0095L24.1018 46.0036L24.1597 45.9972L24.2175 45.9904L24.2753 45.9836L24.3331 45.9768L24.3909 45.9693L24.4487 45.9616L24.5065 45.9538L24.5643 45.946C24.5838 45.9432 24.6028 45.9401 24.6221 45.9373L24.6799 45.9286L24.7378 45.9199L24.7956 45.9107C24.815 45.9076 24.834 45.9042 24.8534 45.9009L24.9112 45.8913C24.9303 45.888 24.95 45.8849 24.969 45.8815C24.9885 45.8781 25.0074 45.8744 25.0268 45.8708L25.0846 45.86L25.1424 45.8492L25.2002 45.8379C25.2197 45.834 25.2387 45.8299 25.258 45.826L25.3159 45.8141L25.3736 45.802C25.3932 45.7978 25.4121 45.7933 25.4314 45.789L25.4893 45.7759C25.5084 45.7715 25.5281 45.7674 25.5471 45.7629C25.5666 45.7583 25.5856 45.7534 25.6049 45.7488L25.6627 45.7345C25.6819 45.7298 25.7015 45.7252 25.7205 45.7203C25.74 45.7154 25.7591 45.7102 25.7783 45.7052L25.8361 45.6897C25.8554 45.6845 25.8749 45.6795 25.8939 45.6742C25.9134 45.6689 25.9325 45.6633 25.9517 45.6578L26.0095 45.6411C26.0288 45.6355 26.0483 45.63 26.0674 45.6243L26.1252 45.6066L26.183 45.5884C26.2022 45.5824 26.2218 45.5765 26.2408 45.5703L26.2986 45.551L26.3564 45.5315C26.3756 45.5249 26.3952 45.5185 26.4142 45.5119C26.4337 45.505 26.4527 45.4979 26.472 45.4909L26.5298 45.4698C26.5491 45.4627 26.5686 45.4557 26.5876 45.4484C26.6072 45.441 26.6262 45.4333 26.6455 45.4258C26.6648 45.4183 26.6842 45.4108 26.7033 45.4032L26.7611 45.3796L26.8189 45.3553C26.8381 45.3472 26.8577 45.3394 26.8767 45.3311C26.8963 45.3226 26.9152 45.3137 26.9345 45.3051L26.9923 45.2791L27.0501 45.2522C27.0695 45.2431 27.0887 45.2337 27.1079 45.2244C27.1272 45.2151 27.1468 45.2059 27.1657 45.1964C27.1853 45.1866 27.2043 45.1766 27.2236 45.1667C27.2429 45.1568 27.2623 45.147 27.2813 45.137C27.3009 45.1267 27.3199 45.1162 27.3392 45.1057C27.3586 45.0952 27.3779 45.0846 27.397 45.074C27.4164 45.0631 27.4357 45.0522 27.4548 45.0412C27.4743 45.03 27.4935 45.0186 27.5126 45.0073C27.5319 44.9958 27.5513 44.9843 27.5704 44.9727C27.5899 44.9608 27.609 44.9487 27.6282 44.9366C27.6476 44.9244 27.667 44.9123 27.686 44.8999C27.7056 44.8873 27.7246 44.8743 27.7438 44.8614C27.7632 44.8484 27.7826 44.8355 27.8017 44.8224C27.8212 44.8088 27.8402 44.7951 27.8594 44.7813C27.8788 44.7675 27.8983 44.7536 27.9172 44.7396C27.9368 44.7252 27.9559 44.7105 27.9751 44.6959C27.9945 44.6811 28.0139 44.6661 28.0329 44.6511C28.0524 44.6357 28.0716 44.6201 28.0907 44.6045C28.1102 44.5885 28.1294 44.5723 28.1485 44.5561C28.1679 44.5396 28.1874 44.5231 28.2063 44.5064C28.226 44.4892 28.245 44.4716 28.2641 44.454C28.2835 44.4363 28.303 44.4186 28.3219 44.4006C28.3415 44.3819 28.3607 44.363 28.3797 44.3441C28.3993 44.3247 28.4185 44.3051 28.4375 44.2855C28.457 44.2654 28.4765 44.2454 28.4953 44.2251C28.515 44.2039 28.5341 44.1824 28.5532 44.1608C28.5728 44.1387 28.592 44.1164 28.611 44.0939C28.6305 44.0709 28.6499 44.0477 28.6688 44.0243C28.6884 44 28.7077 43.9756 28.7266 43.951C28.7463 43.9252 28.7654 43.8992 28.7844 43.8731C28.8041 43.8459 28.8233 43.8186 28.8422 43.791C28.8619 43.7623 28.8812 43.7334 28.9 43.7042C28.9197 43.6737 28.939 43.643 28.9578 43.6119C28.9776 43.5792 28.9969 43.5463 29.0156 43.5131C29.0355 43.4779 29.0548 43.4425 29.0734 43.4068C29.0934 43.3686 29.1126 43.3301 29.1313 43.2914C29.1513 43.2497 29.1705 43.2077 29.1891 43.1654C29.2092 43.1194 29.2285 43.0732 29.2469 43.0265C29.2671 42.975 29.2865 42.923 29.3047 42.8707C29.3253 42.8112 29.3445 42.7512 29.3625 42.6907C29.3835 42.6199 29.4027 42.5484 29.4203 42.4763C29.4421 42.3868 29.4614 42.2963 29.4781 42.2047C29.5029 42.0685 29.522 41.93 29.5359 41.7898C29.5553 41.5942 29.5648 41.3951 29.5648 41.1929V34.2313H29.5359H29.4781H29.4203H29.3625H29.3047H29.2469H29.1891H29.1313H29.0734H29.0156H28.9578H28.9H28.8422H28.7844H28.7266H28.6688H28.611H28.5532H28.4953H28.4375H28.3797H28.3219H28.2641H28.2063H28.1485H28.0907H28.0329H27.9751H27.9172H27.8594H27.8017H27.7438H27.686H27.6282H27.5704H27.5126H27.4548H27.397H27.3392H27.2813H27.2236H27.1657H27.1079H27.0501H26.9923H26.9345H26.8767H26.8189H26.7611H26.7033H26.6455H26.5876H26.5298H26.472H26.4142H26.3564H26.2986H26.2408H26.183H26.1252H26.0674H26.0095H25.9517H25.8939H25.8361H25.7783H25.7205H25.6627H25.6049H25.5471H25.4893H25.4314H25.3736H25.3159H25.258H25.2002H25.1424H25.0846H25.0268H24.969H24.9112H24.8534H24.7956H24.7378H24.6799H24.6221H24.5643H24.5065H24.4487H24.4049V41.1929C24.4049 41.3018 24.4001 41.409 24.3909 41.5142C24.3791 41.6482 24.3597 41.7788 24.3331 41.9058C24.3166 41.9842 24.2973 42.0612 24.2753 42.1368C24.2577 42.1969 24.2385 42.2562 24.2175 42.3144C24.1995 42.364 24.1802 42.4127 24.1597 42.4608C24.1414 42.5038 24.1221 42.546 24.1018 42.5877C24.0833 42.6256 24.0642 42.6631 24.044 42.6999C24.0255 42.7338 24.0061 42.767 23.9862 42.7999C23.9676 42.8309 23.9483 42.8614 23.9284 42.8915C23.9097 42.9198 23.8904 42.9476 23.8706 42.9751C23.8518 43.0012 23.8326 43.0272 23.8128 43.0527C23.794 43.0769 23.7747 43.1006 23.755 43.1241C23.7361 43.1466 23.7169 43.1688 23.6972 43.1907C23.6783 43.2118 23.659 43.2327 23.6394 43.2532C23.6204 43.273 23.6012 43.2926 23.5816 43.3118C23.5626 43.3304 23.5434 43.3488 23.5238 43.3669C23.5048 43.3843 23.4855 43.4015 23.4659 43.4185C23.447 43.4349 23.4277 43.4512 23.4082 43.4672C23.3891 43.4827 23.3698 43.498 23.3503 43.5132C23.3313 43.5278 23.312 43.5423 23.2925 43.5566C23.2735 43.5706 23.2542 43.5843 23.2347 43.5978C23.2157 43.611 23.1964 43.6239 23.1769 43.6368C23.1578 43.6492 23.1386 43.6615 23.1191 43.6736C23.1 43.6854 23.0808 43.697 23.0613 43.7085C23.0422 43.7197 23.0229 43.7306 23.0035 43.7414C22.9844 43.7521 22.9651 43.7624 22.9457 43.7726C22.9266 43.7827 22.9073 43.7926 22.8878 43.8023C22.8687 43.8118 22.8495 43.8211 22.8301 43.8303C22.8109 43.8394 22.7917 43.8483 22.7722 43.857C22.7531 43.8656 22.7339 43.874 22.7144 43.8822C22.6954 43.8903 22.676 43.8981 22.6566 43.9058C22.6375 43.9134 22.6182 43.9209 22.5988 43.9282C22.5796 43.9354 22.5604 43.9424 22.541 43.9493C22.5219 43.9561 22.5026 43.9629 22.4832 43.9694C22.4641 43.9758 22.4448 43.982 22.4254 43.9881C22.4063 43.9941 22.3869 43.9999 22.3676 44.0056C22.3484 44.0112 22.3291 44.0168 22.3098 44.0221C22.2906 44.0274 22.2714 44.0327 22.252 44.0377C22.2328 44.0427 22.2135 44.0474 22.1941 44.0521C22.175 44.0567 22.1557 44.0611 22.1363 44.0654C22.1172 44.0697 22.0979 44.0739 22.0785 44.078C22.0593 44.0819 22.0401 44.0858 22.0207 44.0895C22.0016 44.0932 21.9823 44.0966 21.9629 44.1C21.9437 44.1034 21.9245 44.1067 21.9051 44.1098L21.8473 44.1187C21.8281 44.1214 21.8088 44.124 21.7895 44.1265C21.7703 44.1291 21.7511 44.1316 21.7317 44.1338L21.6739 44.1403C21.6547 44.1422 21.6354 44.144 21.6161 44.1457C21.5968 44.1475 21.5776 44.1492 21.5582 44.1507C21.5391 44.1522 21.5198 44.1535 21.5004 44.1548C21.4812 44.156 21.462 44.1571 21.4426 44.1581C21.4234 44.1591 21.4042 44.1601 21.3848 44.1609C21.3657 44.1616 21.3463 44.1621 21.327 44.1626L21.2692 44.164C21.25 44.1643 21.2307 44.1644 21.2114 44.1646L21.1897 44.1647L21.1536 44.1646L21.0958 44.1642L21.038 44.1634L20.9801 44.1622L20.9224 44.1607L20.8645 44.1588L20.8067 44.1564L20.7489 44.1538L20.6911 44.1508L20.6333 44.1474L20.5755 44.1436L20.5177 44.1395L20.4599 44.135L20.402 44.1302L20.3443 44.125L20.2864 44.1195L20.2286 44.1135L20.1708 44.1073L20.113 44.1007L20.0552 44.0937L19.9974 44.0864L19.9396 44.0788L19.8818 44.0707L19.824 44.0623L19.7662 44.0537L19.7084 44.0447L19.6505 44.0352L19.5927 44.0255L19.5349 44.0155L19.4771 44.0051L19.4193 43.9944L19.3615 43.9833L19.3037 43.9719L19.2459 43.9602L19.1881 43.9481L19.1303 43.9358L19.0724 43.9231L19.0146 43.91L18.9568 43.8967L18.899 43.883L18.8412 43.869L18.7834 43.8547L18.7256 43.8402L18.6678 43.8251L18.61 43.8098L18.5522 43.7943L18.4943 43.7785L18.4366 43.7623L18.3788 43.7458L18.3209 43.729L18.2631 43.7118L18.2053 43.6944L18.1475 43.6767L18.0897 43.6587L18.0319 43.6404L17.9741 43.6218L17.9162 43.6029L17.8585 43.5837L17.8007 43.5642L17.7428 43.5444L17.685 43.5243L17.6272 43.5039L17.5694 43.4833L17.5116 43.4624L17.4538 43.4411L17.396 43.4196L17.3382 43.3978L17.2804 43.3758L17.2226 43.3534L17.1647 43.3308L17.1069 43.3079L17.0491 43.2847L16.9913 43.2613L16.9335 43.2376L16.8757 43.2137L16.8179 43.1894L16.7601 43.1648L16.7023 43.1401L16.6445 43.1151L16.5866 43.0897L16.5288 43.0641L16.4711 43.0384L16.4132 43.0123L16.3554 42.9859L16.2976 42.9594L16.2398 42.9325L16.182 42.9054L16.1242 42.8781V42.878Z" fill="url(#paint1_linear)"/>
<path fill-rule="evenodd" clip-rule="evenodd" d="M32.7232 35.7524C32.6811 35.7865 32.6396 35.8209 32.5991 35.8557V28.0004C32.5991 27.5827 32.642 27.175 32.7232 26.7812C32.7407 26.6967 32.7601 26.613 32.781 26.5298C32.799 26.4584 32.8184 26.3876 32.8389 26.3173C32.8572 26.2546 32.8765 26.1924 32.8967 26.1307C32.9152 26.0742 32.9344 26.0181 32.9545 25.9624C32.9731 25.9108 32.9923 25.8594 33.0123 25.8085C33.0311 25.7609 33.0503 25.7135 33.0701 25.6665C33.0889 25.6221 33.1081 25.5781 33.1279 25.5342C33.1467 25.4926 33.1661 25.4513 33.1858 25.4102C33.2046 25.3709 33.2239 25.3321 33.2436 25.2933C33.2624 25.256 33.2818 25.2191 33.3014 25.1823C33.3203 25.1468 33.3396 25.1116 33.3592 25.0765C33.3781 25.0426 33.3974 25.0088 33.417 24.9753C33.436 24.9427 33.4552 24.9103 33.4748 24.8782C33.4938 24.8471 33.5131 24.8163 33.5326 24.7856C33.5516 24.7557 33.5709 24.7262 33.5904 24.6968C33.6095 24.6679 33.6287 24.6393 33.6482 24.6108C33.6674 24.5829 33.6865 24.5549 33.7061 24.5274C33.725 24.5007 33.7445 24.4744 33.7639 24.4481C33.783 24.4222 33.8022 24.3964 33.8217 24.3708C33.8408 24.3456 33.8599 24.3204 33.8795 24.2955C33.8984 24.2714 33.918 24.2476 33.9373 24.2237C33.9564 24.2002 33.9757 24.1767 33.9951 24.1535C34.0143 24.1305 34.0335 24.1077 34.053 24.0851C34.072 24.063 34.0914 24.0412 34.1107 24.0194C34.1299 23.9978 34.1491 23.9761 34.1686 23.9547C34.1876 23.9339 34.207 23.9132 34.2263 23.8926C34.2454 23.8723 34.2647 23.8521 34.2841 23.832C34.3033 23.8121 34.3225 23.7923 34.342 23.7727C34.3611 23.7535 34.3804 23.7346 34.3997 23.7156C34.419 23.6968 34.4381 23.6777 34.4576 23.6591C34.4766 23.6409 34.4961 23.6232 34.5154 23.6052C34.5346 23.5873 34.5537 23.5694 34.5732 23.5517C34.5923 23.5345 34.6117 23.5175 34.631 23.5004C34.6502 23.4834 34.6694 23.4665 34.6888 23.4498C34.708 23.4333 34.7273 23.4172 34.7466 23.4009C34.7658 23.3849 34.7851 23.3688 34.8045 23.3529C34.8236 23.3372 34.8429 23.3217 34.8623 23.3063C34.8815 23.291 34.9007 23.2758 34.9201 23.2607C34.9392 23.2459 34.9585 23.2311 34.9779 23.2164C34.9971 23.2019 35.0163 23.1874 35.0357 23.1731C35.0548 23.1589 35.0742 23.1449 35.0935 23.1309C35.1127 23.1171 35.132 23.1032 35.1513 23.0896C35.1705 23.0761 35.1898 23.0628 35.2091 23.0495C35.2283 23.0363 35.2476 23.0232 35.2669 23.0102C35.2861 22.9974 35.3054 22.9848 35.3248 22.9722C35.344 22.9596 35.3632 22.947 35.3826 22.9347C35.4018 22.9225 35.4211 22.9106 35.4404 22.8986C35.4596 22.8866 35.4788 22.8745 35.4982 22.8628C35.5173 22.8512 35.5367 22.84 35.556 22.8286C35.5753 22.8172 35.5944 22.8056 35.6138 22.7945C35.6329 22.7835 35.6524 22.7729 35.6717 22.7621C35.6909 22.7513 35.7101 22.7404 35.7294 22.7299C35.7486 22.7194 35.7679 22.7093 35.7872 22.6991C35.8065 22.6888 35.8257 22.6786 35.8451 22.6685L35.9029 22.6391L35.9607 22.6104C35.9799 22.6009 35.9992 22.5914 36.0185 22.5822C36.0377 22.5731 36.057 22.5642 36.0763 22.5552C36.0956 22.5463 36.1147 22.5371 36.1341 22.5283C36.1533 22.5196 36.1727 22.5115 36.192 22.503C36.2112 22.4946 36.2304 22.486 36.2498 22.4777C36.269 22.4696 36.2882 22.4617 36.3075 22.4537L36.3654 22.4301C36.3846 22.4223 36.4038 22.4146 36.4232 22.4071C36.4424 22.3996 36.4617 22.3924 36.481 22.3851C36.5003 22.3778 36.5194 22.3703 36.5388 22.3632C36.5579 22.3561 36.5774 22.3496 36.5966 22.3428C36.6159 22.336 36.6351 22.3291 36.6544 22.3225C36.6736 22.3158 36.693 22.3095 36.7123 22.3031L36.7701 22.2843C36.7893 22.2782 36.8085 22.2719 36.8279 22.2659C36.847 22.26 36.8664 22.2544 36.8857 22.2487C36.9049 22.243 36.9242 22.2371 36.9435 22.2315C36.9627 22.226 36.982 22.2208 37.0013 22.2155L37.0591 22.1998C37.0784 22.1947 37.0976 22.1895 37.1169 22.1847C37.1361 22.1798 37.1555 22.1752 37.1747 22.1705C37.194 22.1658 37.2132 22.1609 37.2326 22.1564C37.2518 22.152 37.2711 22.1478 37.2904 22.1435L37.3482 22.1309C37.3675 22.1269 37.3866 22.1226 37.406 22.1187C37.4252 22.1149 37.4445 22.1114 37.4638 22.1077C37.4831 22.104 37.5023 22.1001 37.5216 22.0966L37.5795 22.0866L37.6372 22.077C37.6565 22.0739 37.6757 22.0706 37.6951 22.0677C37.7143 22.0648 37.7336 22.0623 37.7529 22.0596C37.7721 22.0569 37.7914 22.054 37.8107 22.0515L37.8685 22.0443L37.9263 22.0376C37.9456 22.0355 37.9648 22.033 37.9841 22.031C38.0033 22.029 38.0227 22.0276 38.0419 22.0258L38.0998 22.0207C38.119 22.0191 38.1383 22.0175 38.1575 22.0161C38.1768 22.0147 38.1961 22.0136 38.2153 22.0124C38.2346 22.0112 38.2538 22.0098 38.2732 22.0088C38.2924 22.0077 38.3117 22.007 38.331 22.0061L38.3888 22.0039C38.4081 22.0033 38.4273 22.0023 38.4466 22.0018C38.4658 22.0013 38.4852 22.0013 38.5044 22.0011C38.5237 22.0008 38.543 22.0004 38.5623 22.0003L38.5878 22H38.6201H38.6779H38.7357H38.7935H38.8513H38.9091H38.967H39.0247H39.0826H39.1404H39.1982H39.256H39.3138H39.3716H39.4294H39.4873H39.545H39.6029H39.6607H39.7185H39.7763H39.8341H39.8919H39.9497H40.0076H40.0654H40.1232H40.181H40.2388H40.2966H40.3544H40.4122H40.4701H40.5279H40.5857H40.6435H40.7013H40.7591H40.8169H40.8748H40.9325H40.9904H41.0482H41.106H41.1638H41.2216H41.2794H41.3372H41.3951H41.4528H41.5107H41.5685H41.6263H41.6841H41.7419H41.7997H41.8576H41.9154H41.9732H42.031H42.0888H42.1466H42.2044H42.2622H42.32H42.3779H42.4357H42.4935H42.5513H42.6091H42.6669H42.7247H42.7825H42.8403H42.8982H42.956H43.0138H43.0716H43.1294H43.1872H43.245H43.3029H43.3606H43.4185H43.4763H43.5341H43.5919H43.6497H43.7075H43.7654H43.8232H43.881H43.9388H43.9966H44.0544H44.1123H44.17H44.2278H44.2857H44.3435H44.4013H44.4591H44.5169H44.5747H44.6326H44.6904H44.7481H44.806H44.8638H44.9216H44.9794H45.0372H45.095H45.1529H45.2107H45.2684H45.3263H45.3841H45.4419H45.4998H45.5575H45.6154H45.6732H45.731H45.7888H45.8466H45.9044H45.9622H46.0201H46.0778H46.1357H46.1935H46.2513H46.3091H46.3669H46.4247H46.4825H46.5404H46.5982H46.6559H46.7138H46.7716H46.8294H46.8872H46.945H47.0028H47.0607H47.1185H47.1762H47.2341H47.2919H47.3497H47.3987V52C47.3987 52.2609 47.382 52.5178 47.3497 52.7699C47.3342 52.8913 47.3146 53.0114 47.2919 53.1304C47.2746 53.2209 47.2554 53.3108 47.2341 53.3999C47.2161 53.4749 47.197 53.5495 47.1762 53.6234C47.1581 53.6882 47.1388 53.7526 47.1185 53.8165C47.1001 53.8744 47.0807 53.9318 47.0607 53.989C47.0421 54.0418 47.0228 54.0944 47.0028 54.1465C46.9842 54.1952 46.965 54.2435 46.945 54.2916C46.9263 54.3369 46.907 54.382 46.8872 54.4267C46.8684 54.4692 46.8491 54.5113 46.8294 54.5532C46.8105 54.5932 46.7913 54.633 46.7716 54.6725C46.7527 54.7104 46.7334 54.7481 46.7138 54.7855C46.6948 54.8216 46.6756 54.8574 46.6559 54.8931C46.6369 54.9276 46.6178 54.9619 46.5982 54.9959C46.5792 55.0287 46.5599 55.0613 46.5404 55.0937C46.5214 55.1251 46.5021 55.1562 46.4825 55.1872C46.4635 55.2175 46.4443 55.2476 46.4247 55.2774C46.4056 55.3067 46.3865 55.3359 46.3669 55.3648C46.3479 55.3928 46.3285 55.4205 46.3091 55.4482C46.2901 55.4752 46.2708 55.502 46.2513 55.5287C46.2322 55.555 46.213 55.5812 46.1935 55.6071C46.1744 55.6324 46.1551 55.6574 46.1357 55.6824C46.1166 55.7069 46.0972 55.7312 46.0778 55.7553C46.0587 55.7792 46.0396 55.803 46.0201 55.8265C46.001 55.8495 45.9816 55.8722 45.9622 55.895C45.9431 55.9173 45.9239 55.9395 45.9044 55.9615C45.8852 55.9833 45.8661 56.0052 45.8466 56.0267C45.8275 56.0478 45.8081 56.0684 45.7888 56.0892C45.7696 56.1098 45.7504 56.1305 45.731 56.1508C45.7119 56.1707 45.6925 56.1903 45.6732 56.2099C45.654 56.2294 45.6348 56.2487 45.6154 56.2679C45.5962 56.2868 45.577 56.3057 45.5575 56.3244C45.5384 56.3428 45.5191 56.3609 45.4998 56.379C45.4805 56.397 45.4614 56.4152 45.4419 56.4329C45.4228 56.4504 45.4034 56.4675 45.3841 56.4846C45.3648 56.5018 45.3458 56.5191 45.3263 56.5359C45.3072 56.5525 45.2877 56.5686 45.2684 56.5849C45.2492 56.6011 45.2301 56.6175 45.2107 56.6335C45.1916 56.6493 45.1721 56.6646 45.1529 56.6801C45.1336 56.6955 45.1145 56.7111 45.095 56.7264C45.0759 56.7413 45.0565 56.7559 45.0372 56.7707C45.018 56.7853 44.9988 56.8001 44.9794 56.8146C44.9603 56.8289 44.9409 56.8428 44.9216 56.8568C44.9024 56.8708 44.8832 56.8849 44.8638 56.8987C44.8447 56.9122 44.8253 56.9254 44.806 56.9388C44.7867 56.9521 44.7676 56.9656 44.7481 56.9787C44.729 56.9916 44.7096 57.0041 44.6904 57.0168C44.6711 57.0294 44.652 57.0423 44.6326 57.0548C44.6134 57.0671 44.594 57.0789 44.5747 57.0909C44.5555 57.103 44.5363 57.1151 44.5169 57.127C44.4978 57.1386 44.4784 57.1499 44.4591 57.1614C44.4398 57.1728 44.4206 57.1843 44.4013 57.1955C44.3821 57.2066 44.3628 57.2175 44.3435 57.2284L44.2857 57.2607L44.2278 57.2921L44.17 57.3225C44.1508 57.3326 44.1316 57.3427 44.1123 57.3525C44.0931 57.3622 44.0738 57.3717 44.0544 57.3813C44.0352 57.3908 44.016 57.4005 43.9966 57.4099C43.9775 57.4191 43.958 57.4279 43.9388 57.4369C43.9195 57.4459 43.9003 57.4551 43.881 57.4639C43.8618 57.4726 43.8424 57.481 43.8232 57.4896L43.7654 57.5148L43.7075 57.5394L43.6497 57.563C43.6304 57.5708 43.6112 57.5788 43.5919 57.5864C43.5728 57.594 43.5534 57.601 43.5341 57.6084C43.5148 57.6157 43.4957 57.6232 43.4763 57.6304C43.4571 57.6375 43.4378 57.6442 43.4185 57.6511L43.3606 57.6715L43.3029 57.6913C43.2837 57.6978 43.2643 57.7038 43.245 57.7101C43.2257 57.7163 43.2066 57.7229 43.1872 57.7289C43.1681 57.7349 43.1487 57.7404 43.1294 57.7462L43.0716 57.7634L43.0138 57.7798C42.9946 57.7852 42.9753 57.7903 42.956 57.7955C42.9367 57.8007 42.9176 57.8061 42.8982 57.8111C42.879 57.8161 42.8596 57.8205 42.8403 57.8252C42.8211 57.83 42.8018 57.8348 42.7825 57.8393L42.7247 57.8527L42.6669 57.8653C42.6476 57.8694 42.6285 57.8739 42.6091 57.8778C42.5899 57.8818 42.5705 57.8852 42.5513 57.889L42.4935 57.9L42.4357 57.9104C42.4165 57.9138 42.3972 57.9169 42.3779 57.92C42.3586 57.9232 42.3394 57.9266 42.32 57.9296C42.3008 57.9326 42.2815 57.9351 42.2622 57.9379L42.2044 57.946C42.1852 57.9486 42.1659 57.9512 42.1466 57.9536C42.1274 57.956 42.1081 57.958 42.0888 57.9603C42.0695 57.9625 42.0503 57.9649 42.031 57.9669C42.0118 57.9689 41.9925 57.9706 41.9732 57.9725L41.9154 57.9776C41.8961 57.9793 41.8769 57.9812 41.8576 57.9827C41.8384 57.9841 41.819 57.9851 41.7997 57.9863L41.7419 57.99L41.6841 57.9931C41.6649 57.994 41.6456 57.9945 41.6263 57.9952C41.607 57.996 41.5878 57.9969 41.5685 57.9975C41.5493 57.998 41.53 57.9982 41.5107 57.9986L41.4528 57.9993C41.4348 57.9995 41.4169 58 41.3989 58H41.3951H41.3372H41.2794H41.2216H41.1638H41.106H41.0482H40.9904H40.9325H40.8748H40.8169H40.7591H40.7013H40.6435H40.5857H40.5279H40.4701H40.4122H40.3544H40.2966H40.2388H40.181H40.1232H40.0654H40.0076H39.9497H39.8919H39.8341H39.7763H39.7185H39.6607H39.6029H39.545H39.4873H39.4294H39.3716H39.3138H39.256H39.1982H39.1404H39.0826H39.0247H38.967H38.9091H38.8513H38.7935H38.7357H38.6779H38.6201H38.5623H38.5044H38.4466H38.3888H38.331H38.2732H38.2153H38.1575H38.0998H38.0419H37.9841H37.9263H37.8685H37.8107H37.7529H37.6951H37.6372H37.5795H37.5216H37.4638H37.406H37.3482H37.2904H37.2326H37.1747H37.1169H37.0591H37.0013H36.9435H36.8857H36.8279H36.7701H36.7123H36.6544H36.5966H36.5388H36.481H36.4232H36.3654H36.3075H36.2498H36.192H36.1341H36.0763H36.0185H35.9607H35.9029H35.8451H35.7872H35.7294H35.6717H35.6138H35.556H35.4982H35.4404H35.3826H35.3248H35.2669H35.2091H35.1513H35.0935H35.0357H34.9779H34.9201H34.8623H34.8045H34.7466H34.6888H34.631H34.5732H34.5154H34.4576H34.3997H34.342H34.2841H34.2263H34.1686H34.1107H34.053H33.9951H33.9373H33.8795H33.8217H33.7639H33.7061H33.6482H33.5904H33.5326H33.4748H33.417H33.3592H33.3014H33.2436H33.1858H33.1279H33.0701H33.0123H32.9545H32.8967H32.8389H32.781H32.7232H32.5991V44.1467C32.6396 44.1815 32.6811 44.2158 32.7232 44.2499C32.7423 44.2653 32.7616 44.2807 32.781 44.296C32.8002 44.311 32.8194 44.3261 32.8389 44.341C32.8581 44.3557 32.8772 44.3704 32.8967 44.385C32.9158 44.3992 32.9352 44.4133 32.9545 44.4274C32.9736 44.4413 32.9929 44.4552 33.0123 44.469C33.0315 44.4825 33.0507 44.4961 33.0701 44.5096L33.1279 44.5492C33.147 44.5621 33.1664 44.5749 33.1858 44.5877L33.2436 44.6254C33.2627 44.6378 33.2819 44.6502 33.3014 44.6624C33.3204 44.6744 33.3398 44.6863 33.3592 44.6982L33.417 44.7334C33.4362 44.7449 33.4554 44.7564 33.4748 44.7678C33.4939 44.779 33.5133 44.7901 33.5326 44.8012L33.5904 44.834L33.6482 44.8661L33.7061 44.8973C33.7253 44.9076 33.7444 44.918 33.7639 44.9282C33.783 44.9382 33.8023 44.948 33.8217 44.9579L33.8795 44.9873L33.9373 45.016L33.9951 45.044C34.0144 45.0532 34.0335 45.0625 34.053 45.0716L34.1107 45.0983L34.1686 45.1248L34.2263 45.1503L34.2841 45.1756L34.342 45.2003L34.3997 45.2244L34.4576 45.2481L34.5154 45.2711L34.5732 45.294L34.631 45.3159C34.6502 45.3232 34.6694 45.3306 34.6888 45.3378L34.7466 45.3589C34.7659 45.3659 34.785 45.3731 34.8045 45.38C34.8236 45.3868 34.843 45.3934 34.8623 45.4001L34.9201 45.4202L34.9779 45.4396C34.9971 45.446 35.0162 45.4526 35.0357 45.4589C35.0548 45.4652 35.0742 45.4713 35.0935 45.4775L35.1513 45.496L35.2091 45.5137L35.2669 45.5315L35.3248 45.5485L35.3826 45.5654L35.4404 45.5818L35.4982 45.598L35.556 45.6137L35.6138 45.6291L35.6717 45.6443L35.7294 45.659L35.7872 45.6735L35.8451 45.6875L35.9029 45.7016L35.9607 45.7149L36.0185 45.7282L36.0763 45.741L36.1341 45.7536L36.192 45.7661L36.2498 45.778L36.3075 45.7899L36.3654 45.8013L36.4232 45.8125L36.481 45.8235L36.5388 45.8341L36.5966 45.8447L36.6544 45.8547L36.7123 45.8647L36.7701 45.8744L36.8279 45.8838L36.8857 45.8931L36.9435 45.9019L37.0013 45.9107L37.0591 45.9191L37.1169 45.9273L37.1747 45.9355L37.2326 45.9431L37.2904 45.9508L37.3482 45.9582L37.406 45.9652L37.4638 45.9723L37.5216 45.9789L37.5795 45.9854L37.6372 45.9919L37.6951 45.9979L37.7529 46.0038L37.8107 46.0096L37.8685 46.015L37.9263 46.0204L37.9841 46.0255L38.0419 46.0304L38.0998 46.0353L38.1575 46.0398L38.2153 46.0441L38.2732 46.0485L38.331 46.0524L38.3888 46.0563L38.4466 46.0602L38.5044 46.0635L38.5623 46.0669L38.6201 46.0702L38.6779 46.073L38.7357 46.0759L38.7935 46.0787L38.8513 46.0811L38.9091 46.0835L38.967 46.0858L39.0247 46.0877L39.0826 46.0896L39.1404 46.0915L39.1982 46.0929L39.256 46.0944L39.3138 46.0958L39.3716 46.0968L39.4294 46.0978L39.4873 46.0988L39.545 46.0994L39.6029 46.0999L39.6607 46.1004L39.7185 46.1007L39.7763 46.1008L39.8341 46.1009L39.8919 46.1007L39.9497 46.1004L40.0076 46.1L40.0654 46.0996L40.1232 46.0988L40.181 46.098L40.2388 46.0973L40.2966 46.0961L40.3544 46.0949L40.4122 46.0937L40.4701 46.0922L40.5279 46.0906L40.5857 46.089L40.6435 46.0873L40.7013 46.0853L40.7591 46.0833L40.8169 46.0813L40.8748 46.0789L40.9325 46.0765L40.9904 46.0741L41.0186 46.0729L41.0482 46.0714L41.106 46.0687L41.1638 46.0656L41.2216 46.0624L41.2794 46.0589L41.3372 46.0554L41.3951 46.0515L41.4528 46.0475L41.5107 46.0433L41.5685 46.0389L41.6263 46.0343L41.6841 46.0296L41.7419 46.0247L41.7997 46.0196L41.8576 46.0144L41.9154 46.0089L41.9732 46.0034L42.031 45.9976L42.0888 45.9918L42.1466 45.9856L42.2044 45.9794L42.2622 45.973L42.32 45.9665L42.3779 45.9598L42.4357 45.953L42.4935 45.9461L42.5513 45.939L42.6091 45.9317L42.6669 45.9243L42.7247 45.9169L42.7825 45.9092L42.8403 45.9014L42.8982 45.8935L42.956 45.8854L43.0138 45.8772L43.0716 45.8689L43.1294 45.8605L43.1872 45.8518L43.245 45.8432L43.3029 45.8344L43.3606 45.8254L43.4185 45.8163L43.4763 45.8071L43.5341 45.7978L43.5919 45.7884L43.6497 45.7788L43.7075 45.7692L43.7654 45.7594L43.8232 45.7495L43.881 45.7395L43.9388 45.7294L43.9966 45.7191L44.0544 45.7087L44.1123 45.6983L44.17 45.6877L44.2278 45.677L44.2857 45.6661L44.3435 45.6552L44.4013 45.6442L44.4591 45.633L44.5169 45.6217L44.5747 45.6104L44.6326 45.5989L44.6904 45.5873L44.7481 45.5756L44.806 45.5637L44.8638 45.5517L44.9216 45.5397L44.9794 45.5275L45.0372 45.5151L45.095 45.5028L45.1529 45.4902L45.2107 45.4775L45.2684 45.4647L45.3263 45.4518L45.3841 45.4387L45.4419 45.4254L45.4998 45.412L45.5575 45.3985L45.6154 45.3847L45.6732 45.3708L45.7307 45.3566V42.8185L45.6732 42.8471L45.6154 42.8757L45.5575 42.904L45.4998 42.932L45.4419 42.9598L45.3841 42.9873L45.3263 43.0145L45.2684 43.0415L45.2107 43.0681L45.1529 43.0945L45.095 43.1206L45.0372 43.1464L44.9794 43.1718L44.9216 43.197L44.8638 43.2219L44.806 43.2465L44.7481 43.2708L44.6904 43.2948L44.6326 43.3184L44.5747 43.3417L44.5169 43.3647L44.4591 43.3875L44.4013 43.4098L44.3435 43.4319L44.2857 43.4536L44.2278 43.475L44.17 43.4961L44.1123 43.5169L44.0544 43.5373L43.9966 43.5574L43.9388 43.5771L43.881 43.5966L43.8232 43.6157L43.7654 43.6345L43.7075 43.653L43.6497 43.6711L43.5919 43.6889L43.5341 43.7064L43.4763 43.7235L43.4185 43.7403L43.3606 43.7569L43.3029 43.7729L43.245 43.7888L43.1872 43.8043L43.1294 43.8194L43.0716 43.8343L43.0138 43.8488L42.956 43.8629L42.8982 43.8768L42.8403 43.8904L42.7825 43.9035L42.7247 43.9164L42.6669 43.929L42.6091 43.9413L42.5513 43.9531L42.4935 43.9647L42.4357 43.9761L42.3779 43.987L42.32 43.9976L42.2622 44.0079L42.2044 44.0179L42.1466 44.0275L42.0888 44.0369L42.031 44.046L41.9732 44.0547L41.9154 44.0631L41.8576 44.0712L41.7997 44.079L41.7419 44.0865L41.6841 44.0937L41.6263 44.1006L41.5685 44.1071L41.5107 44.1133L41.4528 44.1193L41.3951 44.1249L41.3372 44.1303L41.2794 44.1354L41.2216 44.1401L41.1865 44.1429L41.1638 44.1444L41.106 44.1483L41.0482 44.1521L40.9904 44.1552L40.9325 44.1582L40.8748 44.1609L40.8169 44.1627L40.7591 44.1646L40.7013 44.1658L40.6435 44.1667L40.5857 44.1674C40.5663 44.1675 40.5472 44.1673 40.5279 44.1672L40.4701 44.167L40.4122 44.1662L40.3544 44.1649L40.2966 44.1634C40.2772 44.1628 40.2581 44.1619 40.2388 44.1611C40.2196 44.1603 40.2002 44.1597 40.181 44.1587L40.1232 44.1555L40.0654 44.1521L40.0076 44.1481L39.9497 44.1435C39.9305 44.1419 39.9111 44.1406 39.8919 44.1388C39.8725 44.137 39.8534 44.1349 39.8341 44.133L39.7763 44.1272L39.7185 44.1204L39.6607 44.1134L39.6029 44.1058L39.545 44.0976C39.5257 44.0948 39.5064 44.092 39.4873 44.089C39.4679 44.086 39.4487 44.0827 39.4294 44.0794C39.4102 44.0762 39.3907 44.0733 39.3716 44.0699C39.3522 44.0664 39.3331 44.0626 39.3138 44.059C39.2945 44.0554 39.2751 44.052 39.256 44.0482C39.2366 44.0444 39.2175 44.0401 39.1982 44.0361C39.1789 44.0321 39.1595 44.0282 39.1404 44.024C39.121 44.0197 39.1018 44.0151 39.0826 44.0107L39.0247 43.9971C39.0053 43.9924 38.9862 43.9874 38.967 43.9825C38.9476 43.9776 38.9283 43.9727 38.9091 43.9675C38.8897 43.9623 38.8705 43.9569 38.8513 43.9515C38.832 43.9461 38.8126 43.9407 38.7935 43.935C38.7741 43.9293 38.7549 43.9234 38.7357 43.9175C38.7164 43.9115 38.6971 43.9056 38.6779 43.8995C38.6585 43.8932 38.6393 43.8868 38.6201 43.8804C38.6008 43.8739 38.5814 43.8674 38.5623 43.8607C38.5428 43.854 38.5237 43.8469 38.5044 43.8399C38.4851 43.8328 38.4657 43.8259 38.4466 43.8186C38.4272 43.8112 38.4081 43.8036 38.3888 43.7959C38.3695 43.7883 38.3501 43.7808 38.331 43.7729C38.3115 43.7649 38.2924 43.7565 38.2732 43.7483C38.2538 43.74 38.2344 43.7318 38.2153 43.7232C38.1959 43.7145 38.1767 43.7055 38.1575 43.6966C38.1382 43.6875 38.1189 43.6785 38.0998 43.6693C38.0804 43.6599 38.0611 43.6503 38.0419 43.6407C38.0225 43.6309 38.0033 43.621 37.9841 43.6109C37.9648 43.6008 37.9453 43.5908 37.9263 43.5804C37.9068 43.5698 37.8877 43.5588 37.8685 43.5479C37.8492 43.5369 37.8298 43.526 37.8107 43.5147C37.7912 43.5032 37.772 43.4915 37.7529 43.4798C37.7334 43.4679 37.7142 43.4557 37.6951 43.4435C37.6757 43.4312 37.6563 43.4189 37.6372 43.4063C37.6177 43.3933 37.5987 43.3799 37.5795 43.3666C37.56 43.3532 37.5407 43.3396 37.5216 43.3258C37.5022 43.3118 37.4828 43.2978 37.4638 43.2835C37.4443 43.2689 37.4251 43.2538 37.406 43.2388C37.3865 43.2235 37.3673 43.2082 37.3482 43.1926C37.3288 43.1767 37.3094 43.1609 37.2904 43.1446C37.2708 43.1279 37.2517 43.1109 37.2326 43.0938C37.213 43.0764 37.1938 43.0587 37.1747 43.0409C37.1553 43.0227 37.1359 43.0043 37.1169 42.9858C37.0975 42.9667 37.0781 42.9477 37.0591 42.9283C37.0395 42.9082 37.0204 42.8877 37.0013 42.8672C36.9817 42.8461 36.9625 42.8248 36.9435 42.8032C36.9239 42.781 36.9046 42.7586 36.8857 42.736C36.8661 42.7126 36.8469 42.6891 36.8279 42.6652C36.8083 42.6405 36.789 42.6156 36.7701 42.5903C36.7505 42.5642 36.7311 42.5379 36.7123 42.5111C36.6926 42.4834 36.6733 42.4553 36.6544 42.4268C36.6347 42.3971 36.6155 42.3671 36.5966 42.3367C36.5769 42.3048 36.5576 42.2725 36.5388 42.2399C36.519 42.2056 36.4998 42.1707 36.481 42.1356C36.4611 42.0983 36.4419 42.0604 36.4232 42.0222C36.4032 41.9815 36.384 41.9402 36.3654 41.8985C36.3454 41.8537 36.326 41.8083 36.3075 41.7623C36.2872 41.7113 36.2682 41.6594 36.2498 41.607C36.2294 41.5489 36.21 41.49 36.192 41.4301C36.1711 41.3607 36.1517 41.2901 36.1341 41.2183C36.1122 41.1289 36.0931 41.0377 36.0763 40.9448C36.0514 40.807 36.032 40.6654 36.0185 40.52C36.0029 40.352 35.995 40.179 35.995 40.001C35.995 39.8228 36.0029 39.6497 36.0185 39.4816C36.032 39.3361 36.0514 39.1945 36.0763 39.0566C36.0931 38.9637 36.1122 38.8723 36.1341 38.7829C36.1517 38.7111 36.1711 38.6405 36.192 38.571C36.21 38.5111 36.2294 38.4522 36.2498 38.394C36.2682 38.3416 36.2872 38.2897 36.3075 38.2387C36.326 38.1926 36.3454 38.1473 36.3654 38.1023C36.384 38.0606 36.4032 38.0193 36.4232 37.9786C36.4419 37.9404 36.4611 37.9025 36.481 37.8652C36.4998 37.83 36.519 37.7952 36.5388 37.7608C36.5576 37.7282 36.5769 37.6959 36.5966 37.664C36.6155 37.6336 36.6347 37.6035 36.6544 37.5738C36.6733 37.5454 36.6926 37.5173 36.7123 37.4894C36.7311 37.4627 36.7505 37.4363 36.7701 37.4102C36.789 37.3849 36.8083 37.36 36.8279 37.3353C36.8469 37.3115 36.8661 37.2879 36.8857 37.2646C36.9046 37.2419 36.9239 37.2194 36.9435 37.1973C36.9625 37.1757 36.9817 37.1543 37.0013 37.1332C37.0204 37.1127 37.0395 37.0921 37.0591 37.0721C37.0781 37.0526 37.0975 37.0336 37.1169 37.0146C37.1359 36.996 37.1553 36.9777 37.1747 36.9595C37.1938 36.9417 37.213 36.9239 37.2326 36.9065C37.2517 36.8895 37.2708 36.8724 37.2904 36.8557C37.3094 36.8394 37.3288 36.8236 37.3482 36.8077C37.3673 36.7921 37.3865 36.7767 37.406 36.7614C37.4251 36.7464 37.4443 36.7313 37.4638 36.7167C37.4828 36.7024 37.5022 36.6884 37.5216 36.6744C37.5407 36.6606 37.56 36.6471 37.5795 36.6336C37.5987 36.6203 37.6177 36.6069 37.6372 36.5939C37.6563 36.5813 37.6757 36.569 37.6951 36.5566C37.7142 36.5444 37.7334 36.5322 37.7529 36.5203C37.772 36.5086 37.7912 36.4969 37.8107 36.4854C37.8298 36.4742 37.8492 36.4632 37.8685 36.4522C37.8877 36.4413 37.9068 36.4304 37.9263 36.4198C37.9453 36.4094 37.9648 36.3993 37.9841 36.3892C38.0033 36.3791 38.0225 36.3692 38.0419 36.3594C38.0611 36.3498 38.0804 36.3402 38.0998 36.3308C38.1189 36.3215 38.1382 36.3125 38.1575 36.3035C38.1767 36.2946 38.1959 36.2855 38.2153 36.2768C38.2344 36.2683 38.2538 36.2601 38.2732 36.2518C38.2924 36.2435 38.3115 36.2351 38.331 36.2271C38.3501 36.2192 38.3695 36.2117 38.3888 36.2041C38.4081 36.1964 38.4272 36.1888 38.4466 36.1814C38.4657 36.1741 38.4851 36.1672 38.5044 36.1601C38.5237 36.1531 38.5428 36.1461 38.5623 36.1392C38.5814 36.1326 38.6008 36.1261 38.6201 36.1196C38.6393 36.1132 38.6585 36.1067 38.6779 36.1005C38.6971 36.0944 38.7164 36.0884 38.7357 36.0825C38.7549 36.0765 38.7741 36.0707 38.7935 36.065L38.8513 36.0485C38.8705 36.0431 38.8897 36.0376 38.9091 36.0324C38.9283 36.0273 38.9476 36.0224 38.967 36.0175C38.9862 36.0126 39.0053 36.0076 39.0247 36.0029L39.0826 35.9893C39.1018 35.9848 39.121 35.9803 39.1404 35.976C39.1595 35.9718 39.1789 35.9678 39.1982 35.9638C39.2175 35.9598 39.2366 35.9555 39.256 35.9517C39.2751 35.9479 39.2945 35.9445 39.3138 35.9409C39.3331 35.9373 39.3522 35.9335 39.3716 35.9301C39.3907 35.9266 39.4102 35.9237 39.4294 35.9205C39.4487 35.9172 39.4679 35.9139 39.4873 35.9109L39.545 35.9023L39.6029 35.8941L39.6607 35.8864L39.7185 35.8794L39.7763 35.8727L39.8341 35.8669C39.8534 35.865 39.8725 35.8629 39.8919 35.8611C39.9111 35.8593 39.9305 35.858 39.9497 35.8564L40.0076 35.8518L40.0654 35.8478L40.1232 35.8443L40.181 35.8411C40.2002 35.8402 40.2196 35.8395 40.2388 35.8388C40.2581 35.838 40.2772 35.837 40.2966 35.8364L40.3544 35.8349L40.4122 35.8337L40.4701 35.8328L40.5279 35.8326C40.5472 35.8326 40.5663 35.8323 40.5857 35.8324L40.6435 35.8331L40.7013 35.834L40.7591 35.8353L40.8169 35.8371L40.8748 35.839L40.9325 35.8417L40.9904 35.8446L41.0482 35.8477L41.106 35.8516L41.1638 35.8555L41.1865 35.857L41.2216 35.8598L41.2794 35.8644L41.3372 35.8694L41.3951 35.8747L41.4528 35.8802L41.5107 35.8861L41.5685 35.8923L41.6263 35.8987L41.6841 35.9055L41.7419 35.9126L41.7997 35.9199L41.8576 35.9276L41.9154 35.9357L41.9732 35.9439L42.031 35.9525L42.0888 35.9615L42.1466 35.9708L42.2044 35.9803L42.2622 35.9902L42.32 36.0004L42.3779 36.0109L42.4357 36.0217L42.4935 36.0329L42.5513 36.0444L42.6091 36.0562L42.6669 36.0683L42.7247 36.0808L42.7825 36.0936L42.8403 36.1067L42.8982 36.1201L42.956 36.134L43.0138 36.1481L43.0716 36.1625L43.1294 36.1772L43.1872 36.1924L43.245 36.2078L43.3029 36.2236L43.3606 36.2397L43.4185 36.2561L43.4763 36.2729L43.5341 36.29L43.5919 36.3075L43.6497 36.3253L43.7075 36.3434L43.7654 36.3619L43.8232 36.3807L43.881 36.3998L43.9388 36.4193L43.9966 36.4391L44.0544 36.4592L44.1123 36.4797L44.17 36.5006L44.2278 36.5217L44.2857 36.5432L44.3435 36.565L44.4013 36.5872L44.4591 36.6097L44.5169 36.6325L44.5747 36.6556L44.6326 36.6791L44.6904 36.7029L44.7481 36.727L44.806 36.7515L44.8638 36.7762L44.9216 36.8013L44.9794 36.8267L45.0372 36.8523L45.095 36.8783L45.1529 36.9046L45.2107 36.9312L45.2684 36.9581L45.3263 36.9853L45.3841 37.0128L45.4419 37.0405L45.4998 37.0685L45.5575 37.0969L45.6154 37.1254L45.6732 37.1543L45.7307 37.1832V34.6433L45.6732 34.6291L45.6154 34.6151L45.5575 34.6014L45.4998 34.5878L45.4419 34.5744L45.3841 34.5612L45.3263 34.5481L45.2684 34.5352L45.2107 34.5224L45.1529 34.5097L45.095 34.4972L45.0372 34.4848L44.9794 34.4724L44.9216 34.4602L44.8638 34.4482L44.806 34.4362L44.7481 34.4244L44.6904 34.4127L44.6326 34.4011L44.5747 34.3896L44.5169 34.3783L44.4591 34.3669L44.4013 34.3558L44.3435 34.3448L44.2857 34.3339L44.2278 34.3231L44.17 34.3124L44.1123 34.3018L44.0544 34.2913L43.9966 34.281L43.9388 34.2707L43.881 34.2606L43.8232 34.2506L43.7654 34.2407L43.7075 34.231L43.6497 34.2213L43.5919 34.2118L43.5341 34.2023L43.4763 34.1931L43.4185 34.1839L43.3606 34.1748L43.3029 34.1659L43.245 34.1571L43.1872 34.1484L43.1294 34.1398L43.0716 34.1314L43.0138 34.1231L42.956 34.1149L42.8982 34.1069L42.8403 34.099L42.7825 34.0912L42.7247 34.0835L42.6669 34.0761L42.6091 34.0687L42.5513 34.0615L42.4935 34.0544L42.4357 34.0475L42.3779 34.0407L42.32 34.034L42.2622 34.0275L42.2044 34.0212L42.1466 34.015L42.0888 34.0089L42.031 34.0031L41.9732 33.9973L41.9154 33.9918L41.8576 33.9864L41.7997 33.9812L41.7419 33.9761L41.6841 33.9712L41.6263 33.9665L41.5685 33.9619L41.5107 33.9577L41.4528 33.9534L41.3951 33.9495L41.3372 33.9456L41.2794 33.9421L41.2216 33.9386L41.1638 33.9355L41.106 33.9325L41.0482 33.9297L41.0186 33.9283L40.9904 33.9271L40.9325 33.9247L40.8748 33.9223L40.8169 33.9199L40.7591 33.9179L40.7013 33.9159L40.6435 33.9139L40.5857 33.9121L40.5279 33.9105L40.4701 33.9089L40.4122 33.9074L40.3544 33.9062L40.2966 33.9051L40.2388 33.9039L40.181 33.9031L40.1232 33.9024L40.0654 33.9016L40.0076 33.9011L39.9497 33.9008L39.8919 33.9005L39.8341 33.9003L39.7763 33.9004L39.7185 33.9005L39.6607 33.9007L39.6029 33.9013L39.545 33.9018L39.4873 33.9024L39.4294 33.9034L39.3716 33.9044L39.3138 33.9054L39.256 33.9068L39.1982 33.9083L39.1404 33.9097L39.0826 33.9116L39.0247 33.9135L38.967 33.9154L38.9091 33.9178L38.8513 33.9202L38.7935 33.9225L38.7357 33.9253L38.6779 33.9282L38.6201 33.9311L38.5623 33.9344L38.5044 33.9377L38.4466 33.9411L38.3888 33.9449L38.331 33.9488L38.2732 33.9527L38.2153 33.9571L38.1575 33.9615L38.0998 33.966L38.0419 33.9709L37.9841 33.9757L37.9263 33.9809L37.8685 33.9863L37.8107 33.9917L37.7529 33.9975L37.6951 34.0035L37.6372 34.0094L37.5795 34.0159L37.5216 34.0224L37.4638 34.029L37.406 34.0361L37.3482 34.0432L37.2904 34.0506L37.2326 34.0583L37.1747 34.0659L37.1169 34.074L37.0591 34.0823L37.0013 34.0907L36.9435 34.0995L36.8857 34.1083L36.8279 34.1176L36.7701 34.1271L36.7123 34.1367L36.6544 34.1467L36.5966 34.1567L36.5388 34.1673L36.481 34.178L36.4232 34.189L36.3654 34.2002L36.3075 34.2116L36.2498 34.2235L36.192 34.2355L36.1341 34.2478L36.0763 34.2605L36.0185 34.2733L35.9607 34.2866L35.9029 34.3L35.8451 34.314L35.7872 34.328L35.7294 34.3426L35.6717 34.3573L35.6138 34.3725L35.556 34.3879L35.4982 34.4037L35.4404 34.4198L35.3826 34.4362L35.3248 34.4532L35.2669 34.4702L35.2091 34.4879L35.1513 34.5057L35.0935 34.5243C35.0742 34.5305 35.0548 34.5365 35.0357 34.5428L34.9779 34.5621C34.9586 34.5686 34.9392 34.5749 34.9201 34.5815L34.8623 34.6016L34.8045 34.6218C34.785 34.6287 34.7659 34.6359 34.7466 34.6429C34.7273 34.6499 34.7079 34.6568 34.6888 34.6639L34.631 34.6859C34.6117 34.6932 34.5923 34.7004 34.5732 34.7079L34.5154 34.7307L34.4576 34.7538L34.3997 34.7775L34.342 34.8016L34.2841 34.8263L34.2263 34.8515L34.1686 34.8772L34.1107 34.9036L34.053 34.9303C34.0335 34.9394 34.0144 34.9487 33.9951 34.9579L33.9373 34.9859L33.8795 35.0147L33.8217 35.0441C33.8023 35.054 33.783 35.0638 33.7639 35.0739C33.7444 35.084 33.7253 35.0944 33.7061 35.1047L33.6482 35.136L33.5904 35.168C33.571 35.1789 33.5518 35.1899 33.5326 35.201C33.5133 35.212 33.4939 35.2231 33.4748 35.2343C33.4554 35.2457 33.4362 35.2572 33.417 35.2687C33.3976 35.2804 33.3783 35.2922 33.3592 35.304C33.3398 35.3159 33.3204 35.3278 33.3014 35.3398C33.2819 35.352 33.2627 35.3644 33.2436 35.3767L33.1858 35.4145C33.1664 35.4273 33.147 35.44 33.1279 35.453L33.0701 35.4926C33.0507 35.5061 33.0315 35.5197 33.0123 35.5333C32.9929 35.5471 32.9736 35.5609 32.9545 35.5749C32.9352 35.589 32.9158 35.6031 32.8967 35.6173C32.8772 35.6319 32.8581 35.6466 32.8389 35.6614C32.8194 35.6763 32.8002 35.6913 32.781 35.7064C32.7616 35.7216 32.7423 35.737 32.7232 35.7525V35.7524Z" fill="url(#paint2_linear)"/>
<defs>
<linearGradient id="paint0_linear" x1="49.1985" y1="40" x2="63.9992" y2="40" gradientUnits="userSpaceOnUse">
<stop stop-color="#007B40"/>
<stop offset="1" stop-color="#55B330"/>
</linearGradient>
<linearGradient id="paint1_linear" x1="16" y1="40" x2="30.799" y2="40" gradientUnits="userSpaceOnUse">
<stop stop-color="#1D2970"/>
<stop offset="1" stop-color="#006DBA"/>
</linearGradient>
<linearGradient id="paint2_linear" x1="32.5991" y1="40" x2="47.3987" y2="40" gradientUnits="userSpaceOnUse">
<stop stop-color="#6E2B2F"/>
<stop offset="1" stop-color="#E30138"/>
</linearGradient>
</defs>
 
<metadata><rdf:RDF xmlns:rdf="http://www.w3.org/1999/02/22-rdf-syntax-ns#" xmlns:schema="http://schema.org/">
 <rdf:Description rdf:about='' xmlns:tiff="http://ns.adobe.com/tiff/1.0/">
  <tiff:Copyright>
   <rdf:Alt>
    <rdf:li xml:lang="x-default">© Copyright 2022 Corefy, Inc. All rights reserved.</rdf:li>
   </rdf:Alt>
  </tiff:Copyright>
 </rdf:Description>
</rdf:RDF></metadata></svg>
