<svg width="80" height="80" viewBox="0 0 80 80" fill="none" xmlns="http://www.w3.org/2000/svg">
<circle cx="40" cy="40" r="40" fill="white"/>
<path d="M50.9756 24.7145C49.3086 22.8146 46.2954 22 42.4406 22H31.2528C30.8714 22 30.5025 22.1361 30.2125 22.3837C29.9224 22.6314 29.7302 22.9744 29.6705 23.3511L25.0121 52.8957C24.9195 53.4783 25.3706 54.0058 25.9611 54.0058H32.868L34.6027 43.0034L34.5488 43.3479C34.6724 42.5702 35.3376 41.9966 36.1252 41.9966H39.4074C45.8552 41.9966 50.9039 39.3776 52.3787 31.8016C52.4225 31.5776 52.4604 31.3595 52.4932 31.1464C52.307 31.0478 52.307 31.0478 52.4932 31.1464C52.9323 28.3462 52.4902 26.4402 50.9756 24.7145Z" fill="#27346A"/>
<path d="M37.2455 30.1377C37.4344 30.0478 37.6409 30.0012 37.85 30.0013H46.621C47.6597 30.0013 48.6284 30.0689 49.5137 30.2114C49.7614 30.2509 50.0078 30.298 50.2526 30.3528C50.5996 30.4293 50.9426 30.5231 51.2803 30.6336C51.7155 30.7789 52.1208 30.9482 52.4933 31.1464C52.9323 28.3452 52.4902 26.4402 50.9756 24.7145C49.3077 22.8146 46.2954 22 42.4406 22H31.2519C30.4641 22 29.7939 22.5735 29.6705 23.3511L25.0121 52.8946C24.9195 53.4782 25.3706 54.005 25.9602 54.005H32.8681L36.4669 31.1833C36.5023 30.9589 36.5916 30.7466 36.7273 30.5644C36.8629 30.3823 37.0408 30.2359 37.2455 30.1377Z" fill="#27346A"/>
<path d="M52.3788 31.8017C50.904 39.3766 45.8554 41.9967 39.4075 41.9967H36.1244C35.3368 41.9967 34.6715 42.5703 34.5491 43.348L32.3911 57.0282C32.3105 57.5381 32.7048 58.0001 33.2206 58.0001H39.043C39.3765 58 39.6991 57.8809 39.9526 57.6643C40.2062 57.4476 40.3742 57.1476 40.4263 56.8182L40.483 56.5215L41.5803 49.5667L41.651 49.1823C41.7032 48.8529 41.8711 48.5529 42.1246 48.3363C42.3782 48.1196 42.7007 48.0005 43.0342 48.0004H43.9056C49.5458 48.0004 53.9621 45.709 55.2527 39.082C55.7914 36.3126 55.5127 34.0004 54.0876 32.3763C53.6554 31.8844 53.1186 31.4781 52.4933 31.1465C52.4595 31.3606 52.4227 31.5776 52.3788 31.8017Z" fill="#2790C3"/>
<path d="M50.9497 30.5313C50.7198 30.4642 50.4876 30.4047 50.2537 30.3531C50.0088 30.2992 49.7624 30.2524 49.5148 30.2126C48.6285 30.0692 47.6605 30.0015 46.6209 30.0015H37.851C37.6417 30.001 37.435 30.048 37.2465 30.1389C37.0415 30.2368 36.8634 30.3831 36.7277 30.5653C36.592 30.7475 36.5028 30.96 36.4677 31.1845L34.6036 43.0037L34.5498 43.3482C34.6724 42.5705 35.3376 41.9969 36.1253 41.9969H39.4084C45.8562 41.9969 50.9049 39.3779 52.3797 31.8019C52.4236 31.5778 52.4604 31.3607 52.4943 31.1467C52.1208 30.9495 51.7165 30.7792 51.2812 30.6348C51.1714 30.5984 51.0609 30.5639 50.9498 30.5313" fill="#1F264F"/>
 
<metadata><rdf:RDF xmlns:rdf="http://www.w3.org/1999/02/22-rdf-syntax-ns#" xmlns:schema="http://schema.org/">
 <rdf:Description rdf:about='' xmlns:tiff="http://ns.adobe.com/tiff/1.0/">
  <tiff:Copyright>
   <rdf:Alt>
    <rdf:li xml:lang="x-default">© Copyright 2022 Corefy, Inc. All rights reserved.</rdf:li>
   </rdf:Alt>
  </tiff:Copyright>
 </rdf:Description>
</rdf:RDF></metadata></svg>
