<svg width="80" height="80" viewBox="0 0 80 80" fill="none" xmlns="http://www.w3.org/2000/svg">
<circle cx="40" cy="40" r="40" fill="url(#paint0_linear)"/>
<path d="M49.1619 43.5285C48.0305 42.8752 46.7564 42.6859 45.4943 42.6418C44.4355 42.6048 42.8557 41.9263 42.8557 40.0001C42.8557 38.565 44.0191 37.41 45.4949 37.3584C46.7568 37.3143 48.0308 37.1248 49.1619 36.4717C50.178 35.8851 51.0217 35.0414 51.6083 34.0253C52.1949 33.0093 52.5037 31.8567 52.5037 30.6835C52.5037 29.5103 52.1949 28.3578 51.6083 27.3417C51.0216 26.3257 50.1779 25.482 49.1619 24.8954C48.1458 24.3088 46.9932 24 45.82 24C44.6468 24 43.4943 24.3089 42.4782 24.8955C41.4622 25.4821 40.6185 26.3259 40.0319 27.342C39.4453 28.358 39.1366 29.5106 39.1366 30.6838C39.1366 31.9787 39.5972 33.1704 40.1848 34.2756C40.6791 35.2052 40.9292 36.9305 39.234 37.9092C37.973 38.6373 36.3992 38.1763 35.6131 36.9182C34.9491 35.8556 34.1475 34.86 33.0253 34.2119C32.0093 33.6253 30.8568 33.3165 29.6835 33.3165C28.5103 33.3165 27.3578 33.6253 26.3418 34.2119C25.3257 34.7985 24.482 35.6423 23.8954 36.6583C23.3088 37.6743 23 38.8268 23 40C23 41.1733 23.3088 42.3258 23.8954 43.3418C24.482 44.3578 25.3257 45.2016 26.3418 45.7882C27.3578 46.3748 28.5103 46.6836 29.6835 46.6836C30.8568 46.6836 32.0093 46.3748 33.0253 45.7881C34.1472 45.1404 34.9489 44.1454 35.6124 43.0834C36.1573 42.2114 37.5183 41.0998 39.2339 42.0911C40.493 42.8186 40.8823 44.4125 40.1843 45.7253C39.5967 46.8304 39.1367 48.0218 39.1367 49.3165C39.1367 50.4897 39.4455 51.6423 40.0321 52.6583C40.6187 53.6743 41.4624 54.518 42.4784 55.1046C43.4944 55.6912 44.647 56 45.8202 56C46.9934 56 48.1459 55.6912 49.1619 55.1046C50.1779 54.518 51.0216 53.6743 51.6082 52.6583C52.1948 51.6423 52.5036 50.4897 52.5036 49.3165C52.5036 48.1434 52.1948 46.9908 51.6082 45.9748C51.0216 44.9588 50.1779 44.1151 49.1619 43.5285Z" fill="white"/>
<defs>
<linearGradient id="paint0_linear" x1="22.5616" y1="12.2767" x2="77.826" y2="72.2169" gradientUnits="userSpaceOnUse">
<stop stop-color="#00AAE4"/>
<stop offset="1" stop-color="#006097"/>
</linearGradient>
</defs>
 
<metadata><rdf:RDF xmlns:rdf="http://www.w3.org/1999/02/22-rdf-syntax-ns#" xmlns:schema="http://schema.org/">
 <rdf:Description rdf:about='' xmlns:tiff="http://ns.adobe.com/tiff/1.0/">
  <tiff:Copyright>
   <rdf:Alt>
    <rdf:li xml:lang="x-default">© Copyright 2022 Corefy, Inc. All rights reserved.</rdf:li>
   </rdf:Alt>
  </tiff:Copyright>
 </rdf:Description>
</rdf:RDF></metadata></svg>
