<svg width="80" height="80" viewBox="0 0 80 80" fill="none" xmlns="http://www.w3.org/2000/svg">
<circle cx="40" cy="40" r="40" fill="#8F807C"/>
<path d="M53.4047 53.5043C53.3191 53.5897 53.3191 53.5897 53.3191 53.5897C50.4069 56.4957 46.5525 58.2906 42.4411 58.8889C42.4411 58.8889 42.1842 58.8889 42.0129 58.9744C42.2698 58.8034 42.5268 58.6325 42.5268 58.6325C43.6403 57.8632 45.7816 56.1538 47.5803 53.5043H53.4047ZM46.3812 53.5043C46.3812 53.5897 46.2955 53.5897 46.2955 53.5897C44.5824 55.812 42.6981 57.3504 41.4133 58.2906C41.4133 58.2906 40.6424 58.8034 40.3854 58.9744V53.5043C40.4711 53.5043 46.3812 53.5043 46.3812 53.5043ZM39.5289 53.5043V58.9744C39.3576 58.8889 38.5011 58.2906 38.5011 58.2906C37.2163 57.4359 35.3319 55.8974 33.7045 53.5897C33.7045 53.5897 33.7045 53.5043 33.6188 53.5043C33.5332 53.5043 39.5289 53.5043 39.5289 53.5043ZM32.4197 53.5043C33.7902 55.4701 35.4176 57.1795 37.4732 58.6325C37.4732 58.6325 37.6445 58.7179 37.8158 58.8889C37.6445 58.8889 37.3876 58.8034 37.3876 58.8034C33.2762 58.2906 29.5932 56.4103 26.5953 53.5897L26.5096 53.5043C26.5953 53.5043 32.4197 53.5043 32.4197 53.5043ZM57.773 46.8376C57.773 46.9231 57.773 46.9231 57.773 46.9231C57.0021 48.9744 55.803 50.8547 54.3469 52.4786H48.2655C49.2934 50.7692 50.0642 48.8889 50.4069 46.9231C50.4069 46.9231 50.4069 46.9231 50.4069 46.8376H57.773ZM49.4647 46.8376C49.4647 46.9231 49.4647 46.9231 49.4647 46.8376C49.0364 48.8889 48.2655 50.7692 47.0664 52.4786H40.4711V46.7521H49.4647V46.8376ZM39.5289 46.8376V52.5641H32.9336C31.8201 50.7692 30.9636 48.8889 30.621 47.0085C30.621 47.0085 30.621 47.0085 30.621 46.9231H39.5289V46.8376ZM29.5075 46.8376C29.5075 46.9231 29.5931 46.9231 29.5075 46.8376C29.9358 48.8034 30.621 50.6838 31.6488 52.3932C31.6488 52.3932 31.6488 52.4786 31.7345 52.4786H25.6531C24.197 50.8547 23.0835 48.9744 22.227 46.9231V46.8376H29.5075ZM58.1156 34.1026C58.1156 34.1026 58.1156 34.188 58.1156 34.1026C58.7152 36.0684 59.0578 38.0342 59.0578 40C59.0578 42.0513 58.7152 44.0171 58.1156 45.8974C58.1156 45.8974 58.1156 45.8974 58.1156 45.9829H21.8844V45.8974C21.2848 44.0171 20.9422 42.0513 20.9422 40C20.9422 38.0342 21.2848 35.9829 21.8844 34.1026C21.8844 34.1026 21.8844 34.1026 21.8844 34.0171H58.1156V34.1026ZM54.3469 27.4359C55.803 29.1453 57.0021 31.0256 57.773 33.0769V33.1624H50.4069V33.0769C49.9786 31.1966 49.2934 29.3162 48.2655 27.5214C48.2655 27.5214 48.2655 27.4359 48.1799 27.4359H54.3469ZM47.0664 27.4359C47.0664 27.4359 47.0664 27.5214 47.0664 27.4359C48.1799 29.2308 49.0364 31.1111 49.4647 33.0769C49.4647 33.0769 49.4647 33.0769 49.4647 33.1624H40.4711V27.4359H47.0664ZM39.5289 27.4359V33.1624H30.5353V33.0769C30.9636 31.1111 31.7345 29.2308 32.848 27.5214H39.5289V27.4359ZM31.7345 27.4359C31.7345 27.5214 31.6488 27.5214 31.6488 27.5214C30.621 29.2308 29.8501 31.1111 29.5075 33.0769C29.5075 33.0769 29.5075 33.0769 29.5075 33.1624H22.1413C22.1413 33.0769 22.1413 33.0769 22.1413 33.0769C22.9122 31.0256 24.1113 29.1453 25.5675 27.5214H31.7345V27.4359ZM47.5803 26.4957C46.2955 24.6154 44.5824 22.8205 42.5268 21.3675C42.5268 21.3675 42.3555 21.2821 42.1842 21.1111C42.3555 21.1111 42.6124 21.1966 42.6124 21.1966C46.7238 21.7094 50.4069 23.5897 53.4047 26.4103L53.4904 26.4957H47.5803ZM40.4711 21.0256C40.6424 21.1111 41.4989 21.7094 41.4989 21.7094C42.7837 22.5641 44.6681 24.1026 46.2955 26.4103C46.2955 26.4103 46.2955 26.4957 46.3812 26.4957H40.3854V21.0256H40.4711ZM33.6188 26.4103C35.3319 24.188 37.2163 22.6496 38.4154 21.7094C38.4154 21.7094 39.1863 21.1966 39.4433 21.0256V26.4957H33.4475C33.6188 26.4103 33.6188 26.4103 33.6188 26.4103ZM26.6809 26.4103C29.5931 23.5897 33.4475 21.7094 37.4732 21.1111C37.4732 21.1111 37.7302 21.1111 37.9015 21.0256C37.7302 21.1966 37.4732 21.2821 37.4732 21.2821C36.3597 22.0513 34.2184 23.7607 32.4197 26.4103H26.5953H26.6809ZM39.8715 20C28.9079 20.0855 20 29.0598 20 40C20 51.0256 28.9936 60 40.0428 60C51.0064 60 60 51.0256 60 40C60 29.0598 51.0921 20.0855 40.1285 20H39.8715Z" fill="white"/>
<path d="M43.8332 35.944C43.4049 36.115 43.3193 36.6278 43.0623 37.4825L41.6062 42.5252C41.2636 43.5509 41.3493 43.8073 41.4349 44.0637V44.1492H39.0366V44.0637C39.3792 43.8928 39.4649 43.6363 39.8075 42.6107L41.2636 37.568C41.5206 36.5423 41.6062 36.2005 41.4349 35.944V35.8586H43.8332V35.944Z" fill="white"/>
<path d="M23.0747 42.0243C23.246 43.2209 23.8456 43.8192 25.216 43.7337C26.1582 43.6482 26.6721 42.9645 26.6721 42.2807C26.6721 41.6824 26.2439 41.1696 25.6443 40.6568L25.216 40.4004C24.3595 39.8021 23.6743 39.2038 23.6743 38.1781C23.6743 36.7251 24.8734 35.785 26.5008 35.6995C27.0148 35.6995 27.5287 35.785 28.0426 35.8704C28.2995 35.9559 28.5565 36.0414 28.7278 36.0414L28.2995 37.4944H28.2139C28.0426 36.6397 27.6143 36.1269 26.4152 36.2123C25.5587 36.2978 25.1304 36.9816 25.1304 37.5798C25.1304 38.1781 25.473 38.6055 26.1582 39.0328L26.5865 39.2892C27.5287 39.8875 28.2995 40.4858 28.2995 41.5969C28.2995 43.2209 27.0148 44.2465 25.1304 44.2465C23.9312 44.332 22.9034 43.9046 22.5608 43.5627C22.5608 43.3918 22.8178 42.708 22.9891 42.0243H23.0747Z" fill="white"/>
<path d="M50.9911 35.8481C50.9054 36.19 50.6485 36.7882 50.4772 37.3011H50.3915C49.9633 36.2754 49.1067 36.4464 48.4215 36.4464H48.3358C47.9076 36.4464 47.7363 36.5318 47.6506 36.9592L46.8797 39.6088H47.1367C48.2502 39.6088 49.0211 39.6942 49.3637 39.2669H49.4493L49.0211 40.8053H48.9354C48.7641 40.1216 47.9932 40.207 46.9654 40.207H46.7084L46.0232 42.5147C45.7662 43.3694 45.6806 43.7968 45.9376 44.0532V44.1387H43.4536V44.0532C43.8819 43.8823 43.9675 43.5404 44.2245 42.5147L45.6806 37.472C46.0232 36.5318 46.1089 36.19 45.8519 35.9335V35.8481H50.9911Z" fill="white"/>
<path d="M57.6816 35.8488C57.5103 36.3616 57.339 36.789 57.1677 37.3018H57.0821C56.7395 36.2762 55.7116 36.4471 55.2833 36.4471H55.1977L53.399 42.5155C53.142 43.4556 53.0564 43.7975 53.3133 44.0539V44.1394H50.915V44.0539C51.3433 43.7975 51.429 43.4556 51.6859 42.5155L53.4846 36.4471H53.3133C52.7138 36.4471 51.8572 36.3616 51.172 37.3018H51.0863C51.172 36.8744 51.3433 36.3616 51.5146 35.8488H57.6816Z" fill="white"/>
<path d="M40.2177 35.9501C39.8751 36.2066 39.6181 36.6339 39.1898 37.4031C38.5046 38.7707 35.935 43.7279 35.7637 44.1553H34.8215L34.3076 38.9416L31.481 44.1553H30.7102L30.0249 37.4886C29.9393 36.7194 29.8536 36.2066 29.5967 35.9501V35.8647H31.995V35.9501C31.738 36.292 31.6524 36.5484 31.738 37.4031L32.1663 41.3348L35.0785 35.9501H35.7637L36.2776 41.3348C36.8772 40.1382 37.8194 38.3433 38.4189 37.2322C38.9329 36.292 38.6759 36.0356 38.6759 35.9501V35.8647H40.2177V35.9501Z" fill="white"/>
 
<metadata><rdf:RDF xmlns:rdf="http://www.w3.org/1999/02/22-rdf-syntax-ns#" xmlns:schema="http://schema.org/">
 <rdf:Description rdf:about='' xmlns:tiff="http://ns.adobe.com/tiff/1.0/">
  <tiff:Copyright>
   <rdf:Alt>
    <rdf:li xml:lang="x-default">© Copyright 2022 Corefy, Inc. All rights reserved.</rdf:li>
   </rdf:Alt>
  </tiff:Copyright>
 </rdf:Description>
</rdf:RDF></metadata></svg>
