<svg width="80" height="80" viewBox="0 0 80 80" fill="none" xmlns="http://www.w3.org/2000/svg">
<circle cx="40" cy="40" r="40" fill="#161E6F"/>
<path d="M18.9871 54.9704C18.0309 54.9704 17.3013 54.7338 16.7788 54.2704C16.2563 53.7972 16 53.1269 16 52.2593C16 51.5692 16.1183 50.9383 16.345 50.3763C16.5718 49.8144 16.8873 49.3313 17.2915 48.9173C17.6858 48.5229 18.1492 48.2074 18.7012 47.9807C19.2533 47.754 19.8251 47.6455 20.4265 47.6455C20.9096 47.6455 21.363 47.6948 21.7771 47.7934C22.1912 47.892 22.5658 48.0399 22.901 48.2272L22.4869 49.9327H22.2799C21.9841 49.6074 21.6785 49.3708 21.3828 49.2229C21.087 49.075 20.7321 48.9961 20.3378 48.9961C19.6378 48.9961 19.0561 49.282 18.5928 49.844C18.1393 50.4059 17.9126 51.1256 17.9126 52.003C17.9126 52.5649 18.0407 52.9691 18.2872 53.2254C18.5435 53.4818 18.9083 53.6001 19.3913 53.6001C19.8251 53.6001 20.2392 53.5113 20.6138 53.3339C20.9983 53.1564 21.3532 52.9395 21.6982 52.6635H21.8855L21.4715 54.3493C21.3335 54.4085 21.1659 54.4775 20.9786 54.5563C20.7912 54.6352 20.6039 54.7042 20.4363 54.7535C20.2096 54.8225 19.9927 54.8718 19.7955 54.9014C19.6181 54.9605 19.342 54.9704 18.9871 54.9704Z" fill="white"/>
<path d="M28.6497 50.7215C28.6497 50.8004 28.6398 50.8989 28.63 51.0172C28.6201 51.1355 28.6004 51.2538 28.5708 51.382L27.7723 54.8424H26.047L26.6583 52.2003C26.6977 52.0031 26.7371 51.8256 26.7667 51.6876C26.7963 51.5496 26.8061 51.4214 26.8061 51.313C26.8061 51.106 26.7569 50.9482 26.6484 50.8595C26.54 50.7708 26.3527 50.7215 26.0766 50.7215C25.9386 50.7215 25.7809 50.7511 25.6034 50.8102C25.426 50.8694 25.2288 50.9581 25.0119 51.0764L24.1443 54.8522H22.429L24.1246 47.478H25.84L25.2288 50.1201C25.5738 49.8934 25.8992 49.7061 26.1851 49.5779C26.471 49.4497 26.7963 49.3807 27.1413 49.3807C27.6244 49.3807 27.999 49.499 28.2554 49.7356C28.5215 49.9525 28.6497 50.2877 28.6497 50.7215Z" fill="white"/>
<path d="M32.09 54.9798C31.183 54.9798 30.4831 54.7826 29.9901 54.3784C29.4972 53.9742 29.2507 53.4222 29.2507 52.7123C29.2507 52.2293 29.3296 51.7856 29.4972 51.3814C29.6549 50.9772 29.8915 50.6223 30.1971 50.3167C30.483 50.021 30.8478 49.7844 31.2915 49.6069C31.7252 49.4295 32.2083 49.3506 32.7308 49.3506C33.5195 49.3506 34.1209 49.5083 34.5251 49.8337C34.9293 50.159 35.1264 50.6322 35.1264 51.2533C35.1264 51.4702 35.1067 51.6772 35.0574 51.8842C35.0081 52.0913 34.9588 52.2983 34.8898 52.4955H30.9267C30.9267 52.5152 30.9267 52.5349 30.9267 52.5546C30.9267 52.5743 30.9267 52.594 30.9267 52.6138C30.9267 52.9785 31.0548 53.2743 31.321 53.4813C31.5773 53.6883 31.9815 53.7968 32.5139 53.7968C32.8885 53.7968 33.2434 53.7376 33.5786 53.6095C33.9138 53.4813 34.1997 53.3433 34.4462 53.1856H34.6335L34.318 54.5559C33.9828 54.7038 33.6378 54.8122 33.273 54.8812C32.8885 54.9502 32.504 54.9798 32.09 54.9798ZM33.3913 51.4997C33.4012 51.4406 33.411 51.3913 33.411 51.342C33.411 51.2927 33.4209 51.2434 33.4209 51.1941C33.4209 50.9477 33.342 50.7505 33.1843 50.6223C33.0266 50.4843 32.8097 50.4252 32.5139 50.4252C32.159 50.4252 31.8632 50.5238 31.6266 50.7111C31.39 50.8984 31.2027 51.1646 31.0844 51.5096H33.3913V51.4997Z" fill="white"/>
<path d="M38.034 54.9809C37.6692 54.9809 37.334 54.9316 37.0087 54.8429C36.6833 54.7542 36.4172 54.6162 36.1806 54.419C35.9538 54.2317 35.7665 53.9951 35.6383 53.719C35.5102 53.443 35.4412 53.1078 35.4412 52.7431C35.4412 52.2698 35.5299 51.8262 35.7172 51.4121C35.8947 50.9981 36.151 50.6432 36.4862 50.3376C36.8115 50.0418 37.2058 49.7953 37.6692 49.6278C38.1325 49.4503 38.6353 49.3616 39.1776 49.3616C39.5029 49.3616 39.8282 49.401 40.1437 49.47C40.469 49.539 40.7648 49.6475 41.0408 49.7855L40.6761 51.2446H40.4296C40.2423 51.0178 40.0352 50.8502 39.7986 50.7418C39.562 50.6333 39.2959 50.5742 39.01 50.5742C38.4776 50.5742 38.0438 50.7615 37.7185 51.146C37.3932 51.5304 37.2256 52.0037 37.2256 52.5755C37.2256 52.9698 37.3241 53.2656 37.5312 53.4627C37.7283 53.6599 38.0438 53.7585 38.4677 53.7585C38.7931 53.7585 39.0987 53.6895 39.3649 53.5613C39.631 53.4233 39.8676 53.2754 40.055 53.1177H40.3014L39.9367 54.5767C39.5916 54.7246 39.2959 54.8331 39.0395 54.8922C38.7832 54.9514 38.448 54.9809 38.034 54.9809Z" fill="white"/>
<path d="M46.464 54.8331H44.6697L43.6148 52.4867L42.8656 53.1571L42.4712 54.8429H40.7559L42.4515 47.4688H44.1669L43.1515 51.8657L45.5373 49.5193H47.4991L45.0345 51.8361L46.464 54.8331Z" fill="white"/>
<path d="M53.1573 51.4609C53.1573 51.9637 53.0784 52.427 52.9108 52.8608C52.7432 53.2946 52.5066 53.6692 52.201 53.9847C51.8855 54.31 51.5208 54.5565 51.1067 54.7339C50.6927 54.9114 50.1997 55.0001 49.6477 55.0001C48.859 55.0001 48.2477 54.8128 47.8238 54.4283C47.3999 54.0537 47.1929 53.5213 47.1929 52.8509C47.1929 52.3777 47.2717 51.9242 47.4295 51.5003C47.5872 51.0764 47.8238 50.7018 48.1294 50.3765C48.4252 50.061 48.7998 49.8047 49.2336 49.6173C49.6674 49.43 50.1603 49.3413 50.7025 49.3413C51.5011 49.3413 52.1024 49.5286 52.5263 49.9032C52.9404 50.2877 53.1573 50.8004 53.1573 51.4609ZM50.9391 53.2059C51.087 52.989 51.1954 52.7425 51.2644 52.4763C51.3433 52.2101 51.3729 51.8947 51.3729 51.52C51.3729 51.1947 51.3039 50.9483 51.156 50.7708C51.018 50.5933 50.7912 50.5046 50.4758 50.5046C50.2392 50.5046 50.0223 50.5638 49.8448 50.6821C49.6674 50.8004 49.4998 50.968 49.3617 51.175C49.2336 51.3722 49.135 51.6186 49.0561 51.9144C48.9773 52.2101 48.9477 52.5059 48.9477 52.8214C48.9477 53.1861 49.0266 53.4425 49.1942 53.6002C49.3617 53.7579 49.5786 53.8368 49.8547 53.8368C50.0617 53.8368 50.2589 53.7777 50.4462 53.6692C50.6434 53.5608 50.8011 53.403 50.9391 53.2059Z" fill="white"/>
<path d="M59.9692 49.5193L58.7369 54.8429H57.0215L57.1595 54.2514C56.9919 54.3598 56.8243 54.4683 56.6567 54.557C56.499 54.6556 56.3413 54.7345 56.1934 54.7838C56.0061 54.8626 55.8385 54.9119 55.6906 54.9415C55.5427 54.9711 55.385 54.9809 55.2371 54.9809C54.7738 54.9809 54.3991 54.8725 54.133 54.6457C53.8668 54.419 53.7288 54.0937 53.7288 53.65C53.7288 53.5317 53.7386 53.4233 53.7485 53.3148C53.7583 53.2162 53.7781 53.0979 53.8076 52.9796L54.6062 49.5193H56.3314L55.7202 52.1614C55.6709 52.3684 55.6413 52.536 55.6117 52.6839C55.592 52.8318 55.5723 52.9501 55.5723 53.0585C55.5723 53.2655 55.6216 53.4134 55.7202 53.512C55.8188 53.6007 56.0159 53.65 56.292 53.65C56.43 53.65 56.5877 53.6204 56.7751 53.5613C56.9525 53.5021 57.1497 53.4134 57.3666 53.305L58.2341 49.5291H59.9692V49.5193Z" fill="white"/>
<path d="M62.1386 54.9411C61.5471 54.9411 61.1232 54.8425 60.8767 54.6453C60.6204 54.4482 60.5021 54.1623 60.5021 53.7778C60.5021 53.6792 60.5119 53.5806 60.5218 53.482C60.5415 53.3834 60.5612 53.275 60.581 53.1468L61.1626 50.623H60.4626L60.719 49.4992H61.4189L61.7738 47.981H63.4892L63.1442 49.4992H64.7413L64.4849 50.623H62.8879L62.4442 52.5455C62.4146 52.6736 62.3851 52.8116 62.3555 52.9497C62.3259 53.0877 62.3161 53.1961 62.3161 53.2947C62.3161 53.482 62.3653 53.62 62.4738 53.689C62.5822 53.7679 62.74 53.7975 62.9667 53.7975C63.0554 53.7975 63.1737 53.7778 63.3118 53.7482C63.4596 53.7186 63.5681 53.6792 63.6568 53.6398H63.7948L63.5287 54.7833C63.3315 54.8326 63.1343 54.8721 62.9174 54.8918C62.7005 54.9115 62.4344 54.9411 62.1386 54.9411Z" fill="white"/>
<path d="M31.1273 27.2769L27.8148 34.03C27.0951 35.5087 26.3952 36.9382 25.8431 38.417H25.8037C25.7149 36.9382 25.6065 35.5285 25.4488 34.03L25.1037 30.4907L24.7882 27.2769H24.4333H21.4856H17.1676H17V27.7698H17.2662C20.8744 27.967 21.7913 30.0668 22.0279 31.1414L21.5941 27.7698L22.0476 31.24C22.0377 31.2104 22.0377 31.171 22.0279 31.1414L22.1067 31.7724C22.1067 31.7724 22.1067 31.7526 22.1067 31.6935L23.3686 41.4732H27.0261L34.6468 27.2769H31.1273Z" fill="white"/>
<path d="M39.5761 27.2273L36.7763 41.4334H33.6216L36.4214 27.2273H39.5761Z" fill="white"/>
<path d="M39.7927 38.15C40.6701 38.6528 41.9221 39.057 43.2727 39.057C44.4952 39.057 45.6191 38.5049 45.6191 37.3909C45.6191 36.5924 44.9881 36.06 43.6276 35.3896C42.0503 34.5714 40.5616 33.4771 40.5616 31.6138C40.5616 28.745 43.1643 27 46.388 27C48.1823 27 49.2371 27.3746 49.8681 27.7197L48.4583 30.2435C47.9752 29.9871 47.6006 29.4844 46.1218 29.5041C44.6529 29.5238 43.884 30.3223 43.884 31.1012C43.884 31.9194 44.7811 32.4321 46.0331 33.1024C47.8274 34.0094 48.971 35.1629 48.971 36.8487C48.971 40.0133 46.25 41.6301 42.9671 41.6301C40.9067 41.6301 39.2307 40.8118 38.5308 40.2992L39.7927 38.15Z" fill="white"/>
<path d="M53.5459 37.7464L51.7911 41.4334H48.4392L55.6261 27.2273H59.6779L61.413 41.4334H58.1006L57.795 37.7464H53.5459ZM57.6668 35.4296L57.3809 32.3735C57.3119 31.5946 57.2232 30.4609 57.164 29.5933H57.1246C56.75 30.4609 56.3359 31.5552 55.9416 32.3735L54.4726 35.4296H57.6668Z" fill="white"/>
 
<metadata><rdf:RDF xmlns:rdf="http://www.w3.org/1999/02/22-rdf-syntax-ns#" xmlns:schema="http://schema.org/">
 <rdf:Description rdf:about='' xmlns:tiff="http://ns.adobe.com/tiff/1.0/">
  <tiff:Copyright>
   <rdf:Alt>
    <rdf:li xml:lang="x-default">© Copyright 2022 Corefy, Inc. All rights reserved.</rdf:li>
   </rdf:Alt>
  </tiff:Copyright>
 </rdf:Description>
</rdf:RDF></metadata></svg>
