<svg width="180" height="80" viewBox="0 0 180 80" fill="none" xmlns="http://www.w3.org/2000/svg">
<rect width="80" height="80" rx="40" fill="#063897"/>
<path d="M55.5999 8.79999L56.8269 12.4669H60.7999L57.5857 14.7339L58.8137 18.4L55.5999 16.1329L52.3857 18.4L53.6134 14.7339L50.3999 12.4669H54.373L55.5999 8.79999Z" fill="#FECB2F"/>
<path d="M40 3.20001L41.1328 6.86692H44.8L41.8333 9.13312L42.9665 12.8L40 10.5324L37.0341 12.8L38.1673 9.13312L35.2 6.86692H38.8667L40 3.20001Z" fill="#FECB2F"/>
<path d="M40 65.6L41.1328 69.2684H44.8L41.8333 71.5338L42.9665 75.2L40 72.9347L37.0341 75.2L38.1673 71.5338L35.2 69.2684H38.8667L40 65.6Z" fill="#FECB2F"/>
<path d="M40 65.6L41.1328 69.2684H44.8L41.8333 71.5338L42.9665 75.2L40 72.9347L37.0341 75.2L38.1673 71.5338L35.2 69.2684H38.8667L40 65.6Z" fill="#FECB2F"/>
<path d="M68.0007 49.6L69.1326 53.268H72.8L69.8336 55.534L70.9671 59.2L68.0007 56.9347L65.0339 59.2L66.1668 55.534L63.2 53.268H66.8673L68.0007 49.6Z" fill="#FECB2F"/>
<path d="M71.2002 34.4L72.3326 38.0667H75.9999L73.033 40.3327L74.1665 44L71.2002 41.7347L68.2338 44L69.3673 40.3327L66.3999 38.0667H70.0667L71.2002 34.4Z" fill="#FECB2F"/>
<path d="M8.80069 34.4L9.93323 38.0667H13.6L10.6331 40.3327L11.767 44L8.80069 41.7347L5.8336 44L6.96691 40.3327L4 38.0667H7.66735L8.80069 34.4Z" fill="#FECB2F"/>
<path d="M11.6007 49.6L12.8276 53.268H16.7999L13.5866 55.534L14.8133 59.2L11.6007 56.9347L8.38649 59.2L9.61405 55.534L6.3999 53.268H10.3731L11.6007 49.6Z" fill="#FECB2F"/>
<path d="M11.6007 49.6L12.8276 53.268H16.7999L13.5866 55.534L14.8133 59.2L11.6007 56.9347L8.38649 59.2L9.61405 55.534L6.3999 53.268H10.3731L11.6007 49.6Z" fill="#FECB2F"/>
<path d="M68.0007 18.4L69.1326 22.3738H72.8L69.8336 24.8286L70.9671 28.8L68.0007 26.346L65.0339 28.8L66.1668 24.8286L63.2 22.3738H66.8673L68.0007 18.4Z" fill="#FECB2F"/>
<path d="M12.8007 18.4L13.9332 22.3738H17.6L14.6339 24.8286L15.7662 28.8L12.8007 26.346L9.8338 28.8L10.9669 24.8286L8 22.3738H11.6675L12.8007 18.4Z" fill="#FECB2F"/>
<path d="M12.8007 18.4L13.9332 22.3738H17.6L14.6339 24.8286L15.7662 28.8L12.8007 26.346L9.8338 28.8L10.9669 24.8286L8 22.3738H11.6675L12.8007 18.4Z" fill="#FECB2F"/>
<path d="M58.4008 62.4L59.5332 66.0663H63.2001L60.2327 68.3337L61.3667 72L58.4008 69.7346L55.4332 72L56.5671 68.3337L53.6001 66.0663H57.2678L58.4008 62.4Z" fill="#FECB2F"/>
<path d="M58.4008 62.4L59.5332 66.0663H63.2001L60.2327 68.3337L61.3667 72L58.4008 69.7346L55.4332 72L56.5671 68.3337L53.6001 66.0663H57.2678L58.4008 62.4Z" fill="#FECB2F"/>
<path d="M21.5995 62.4L22.7327 66.0684H26.4001L23.4332 68.3332L24.5664 72L21.5995 69.7357L18.6337 72L19.7667 68.3332L16.8 66.0684H20.4665L21.5995 62.4Z" fill="#FECB2F"/>
<path d="M24.4001 8.79999L25.6266 12.4669H29.6L26.3858 14.7339L27.6142 18.4L24.4001 16.1329L21.1865 18.4L22.414 14.7339L19.2 12.4669H23.1721L24.4001 8.79999Z" fill="#FECB2F"/>
<path d="M22.3999 35.2H26.2966C27.2472 35.2 28.0343 35.4844 28.658 36.053C29.2859 36.6176 29.5999 37.3192 29.5999 38.1579C29.5999 38.9925 29.288 39.6941 28.6644 40.2628C28.0407 40.8273 27.2515 41.1096 26.2966 41.1096H24.387V44H22.3999V35.2ZM26.2321 36.8999H24.387V39.4097H26.2321C26.6279 39.4097 26.9569 39.2891 27.2192 39.0477C27.4859 38.8063 27.6193 38.5097 27.6193 38.1579C27.6193 37.806 27.4859 37.5094 27.2192 37.2681C26.9569 37.0226 26.6279 36.8999 26.2321 36.8999Z" fill="white"/>
<path d="M36.2254 41.904C36.2254 41.5957 36.064 41.3474 35.7414 41.1591C35.4231 40.9707 35.032 40.8145 34.5679 40.6903C34.1082 40.5619 33.6486 40.4121 33.1889 40.2408C32.7336 40.0696 32.3447 39.7871 32.022 39.3932C31.6994 38.9993 31.538 38.5006 31.538 37.897C31.538 37.1521 31.8452 36.5164 32.4596 35.9898C33.0784 35.4633 33.8806 35.2 34.8663 35.2C35.2552 35.2 35.6309 35.245 35.9933 35.3348C36.3557 35.4205 36.6519 35.5232 36.8817 35.6431C37.116 35.7587 37.3193 35.8785 37.4916 36.0027C37.6684 36.1226 37.7944 36.2274 37.8695 36.3173L37.9889 36.4458L36.769 37.6979C36.716 37.638 36.6408 37.5652 36.5436 37.4796C36.4508 37.3897 36.2519 37.272 35.9469 37.1264C35.6419 36.9809 35.3281 36.9081 35.0055 36.9081C34.6165 36.9081 34.3027 37.0044 34.064 37.1971C33.8298 37.3897 33.7126 37.623 33.7126 37.897C33.7126 38.2052 33.8718 38.4535 34.19 38.6419C34.5126 38.826 34.9016 38.9822 35.3569 39.1106C35.8165 39.2391 36.2762 39.3889 36.7359 39.5602C37.2 39.7314 37.5933 40.0139 37.916 40.4077C38.2386 40.8016 38.4 41.3003 38.4 41.904C38.4 42.7559 38.0795 43.4515 37.4386 43.9909C36.8021 44.5303 35.9226 44.8 34.7999 44.8C34.358 44.8 33.9292 44.7465 33.5138 44.6395C33.1027 44.5368 32.7624 44.4126 32.4927 44.2671C32.2276 44.1215 31.9933 43.9738 31.79 43.824C31.5867 43.6741 31.4408 43.5479 31.3524 43.4451L31.2 43.2845L32.4265 42.103C32.4883 42.1715 32.5745 42.2614 32.685 42.3727C32.7999 42.4797 33.0519 42.6253 33.4408 42.8094C33.8298 42.9935 34.2364 43.0855 34.6607 43.0855C35.1513 43.0855 35.5337 42.9742 35.8077 42.7516C36.0861 42.529 36.2254 42.2464 36.2254 41.904Z" fill="white"/>
<path d="M40.8 35.2H44.1575C45.472 35.2 46.5743 35.6255 47.4647 36.4765C48.3549 37.3274 48.8 38.3686 48.8 39.6C48.8 40.8314 48.3549 41.8726 47.4647 42.7236C46.5743 43.5745 45.472 44 44.1575 44H40.8V35.2ZM44.1575 36.8999H42.7402V42.3063H44.1575C44.9051 42.3063 45.5434 42.0445 46.0725 41.5208C46.6016 40.9971 46.8662 40.3589 46.8662 39.6061C46.8662 38.8493 46.6079 38.209 46.0914 37.6854C45.5748 37.1617 44.9303 36.8999 44.1575 36.8999Z" fill="white"/>
<path d="M56.7999 44H50.3999C50.3999 43.3668 50.5084 42.7938 50.7254 42.2809C50.9423 41.768 51.2124 41.3632 51.5357 41.0667C51.859 40.7661 52.21 40.4816 52.5885 40.2131C52.9671 39.9406 53.316 39.7102 53.635 39.5219C53.9583 39.3295 54.2284 39.1071 54.4454 38.8546C54.6666 38.5982 54.7772 38.3237 54.7772 38.0312C54.7772 37.6865 54.6623 37.416 54.4326 37.2197C54.2071 37.0193 53.886 36.9191 53.4691 36.9191C53.1373 36.9191 52.8502 37.0073 52.6077 37.1836C52.3695 37.3599 52.212 37.5343 52.1355 37.7065L52.0334 37.9651L50.3999 37.2317C50.4169 37.1756 50.4446 37.1015 50.4828 37.0093C50.5212 36.9171 50.6233 36.7548 50.7891 36.5224C50.955 36.286 51.1465 36.0796 51.3634 35.9033C51.5803 35.727 51.8866 35.5667 52.2823 35.4224C52.6821 35.2741 53.1203 35.2 53.5967 35.2C54.5283 35.2 55.294 35.4665 55.8938 35.9994C56.4979 36.5324 56.7999 37.1876 56.7999 37.9651C56.7999 38.4018 56.6999 38.7985 56.5 39.1552C56.3001 39.5118 56.0384 39.8164 55.7152 40.0688C55.3919 40.3173 55.0601 40.5477 54.7197 40.7601C54.3837 40.9685 54.0391 41.2069 53.6861 41.4754C53.333 41.7399 53.065 42.0063 52.8821 42.2748H56.7999V44Z" fill="white"/>
<g clip-path="url(#clip0)">
<path d="M176.537 0H103.463C101.194 0 99.4028 1.79104 99.4028 4V76C99.4028 78.209 101.194 80 103.463 80H176.537C178.806 80 180.597 78.209 180.597 76V4C180.597 1.79104 178.806 0 176.537 0Z" fill="#063897"/>
<path d="M139.761 5.25372L141.015 9.19402H145.134L141.791 11.5821L143.045 15.5224L139.702 13.0746L136.418 15.4627L137.672 11.5224L134.328 9.07462H138.448L139.761 5.25372Z" fill="#FECB2F"/>
<path d="M139.761 64.0596L141.015 67.9999H145.134L141.791 70.4477L143.045 74.388L139.701 71.9402L136.358 74.388L137.612 70.4477L134.269 67.9999H138.388L139.761 64.0596Z" fill="#FECB2F"/>
<path d="M160.358 54.8657L161.672 58.806H165.791L162.448 61.2538L163.761 65.1941L160.418 62.7463L157.075 65.1941L158.388 61.2538L154.925 58.806H159.104L160.358 54.8657Z" fill="#FECB2F"/>
<path d="M119.403 54.8657L120.716 58.806H124.836L121.493 61.2538L122.806 65.1941L119.463 62.7463L116.119 65.1941L117.433 61.2538L114.09 58.806H118.209L119.403 54.8657Z" fill="#FECB2F"/>
<path d="M160.358 14.0298L161.672 17.9701H165.791L162.448 20.4179L163.761 24.3582L160.418 21.9104L157.075 24.3582L158.388 20.4179L154.925 17.9104H159.104L160.358 14.0298Z" fill="#FECB2F"/>
<path d="M119.403 14.0298L120.716 17.9701H124.836L121.492 20.3582L122.806 24.2985L119.463 21.8507L116.119 24.2985L117.433 20.3582L114.03 17.9104H118.149L119.403 14.0298Z" fill="#FECB2F"/>
<path d="M169.015 34.8657L170.328 38.806H174.448L171.045 41.194L172.299 45.1343L168.955 42.6866L165.612 45.1343L166.866 41.194L163.522 38.7463H167.642L169.015 34.8657Z" fill="#FECB2F"/>
<path d="M110.806 34.8657L112.06 38.806H116.179L112.895 41.194L114.149 45.1343L110.806 42.6866L107.463 45.1343L108.716 41.194L105.373 38.7463H109.492L110.806 34.8657Z" fill="#FECB2F"/>
<path d="M125.731 34.8059C126.448 34.8059 127.224 34.9253 127.881 35.2835C128.537 35.6417 129.134 36.0596 129.612 36.6567L128.597 37.2537C128.239 36.8358 127.821 36.4776 127.343 36.2387C126.866 35.9999 126.328 35.8805 125.731 35.8805C125.194 35.8805 124.716 35.9999 124.179 36.179C123.702 36.3581 123.284 36.7164 122.925 37.0746C122.567 37.4328 122.269 37.9104 122.09 38.388C121.91 38.8656 121.851 39.4029 121.851 39.9402C121.791 40.7164 121.97 41.4925 122.388 42.1492C122.806 42.8059 123.403 43.3432 124.06 43.6417C124.776 43.9402 125.552 44.0596 126.328 43.9402C127.105 43.8208 127.821 43.4626 128.358 42.9253V40.8955H124.955V39.7611H129.612V43.3432C129.134 43.8805 128.537 44.2984 127.821 44.597C127.164 44.8955 126.448 45.0149 125.672 45.0149C124.299 45.0149 122.985 44.4776 122.03 43.5223C121.075 42.5671 120.537 41.2537 120.537 39.8805C120.537 38.5074 121.075 37.194 122.03 36.2387C122.985 35.2835 124.358 34.8059 125.731 34.8059Z" fill="white"/>
<path d="M132 34.985H135.403C136.06 34.985 136.716 35.1045 137.313 35.3433C137.91 35.5821 138.448 35.9403 138.925 36.4179C139.403 36.8955 139.761 37.4328 140 38.0298C140.239 38.6268 140.358 39.2836 140.358 39.9403C140.358 40.597 140.239 41.2537 140 41.8507C139.761 42.4477 139.403 42.9851 138.925 43.4627C138.448 43.9403 137.91 44.2985 137.313 44.5373C136.716 44.7761 136.06 44.8955 135.403 44.8955H132V34.985ZM135.403 43.7612C135.881 43.7612 136.418 43.7015 136.896 43.5224C137.373 43.3433 137.791 43.0448 138.149 42.6865C138.507 42.3283 138.806 41.9104 138.985 41.4328C139.164 40.9552 139.284 40.4776 139.224 39.9403C139.284 39.403 139.164 38.9253 138.985 38.4477C138.806 37.9701 138.507 37.5522 138.149 37.1343C137.791 36.7761 137.373 36.4776 136.896 36.2985C136.418 36.1194 135.881 36 135.403 36.0597H133.254V43.7015H135.403V43.7612Z" fill="white"/>
<path d="M142.806 34.985H146.806C147.582 34.985 148.358 35.2836 148.895 35.8806C149.433 36.4179 149.791 37.194 149.791 37.9701C149.791 38.7462 149.492 39.5224 148.895 40.0597C148.358 40.597 147.582 40.9552 146.806 40.9552H144.119V44.8955H142.866L142.806 34.985ZM146.627 36.0597H144.06V39.8209H146.687C147.164 39.8209 147.642 39.6418 148 39.2836C148.358 38.9254 148.537 38.4477 148.537 37.9701C148.537 37.4925 148.358 37.0149 148 36.6567C147.642 36.2388 147.164 36.0597 146.627 36.0597Z" fill="white"/>
<path d="M155.104 40.9552H153.134V44.8955H151.881V34.985H155.94C156.358 34.985 156.716 35.0447 157.075 35.1642C157.433 35.2836 157.791 35.5224 158.03 35.8209C158.328 36.1194 158.507 36.4179 158.687 36.7761C158.806 37.1343 158.925 37.5522 158.866 37.9104C158.866 38.2686 158.866 38.6268 158.746 38.9851C158.627 39.3433 158.448 39.6418 158.209 39.9403C157.97 40.2388 157.672 40.4179 157.373 40.597C157.075 40.7761 156.716 40.8358 156.358 40.8358L159.045 44.8955H157.552L155.104 40.9552ZM155.761 36.0597H153.134V39.8806H155.761C156 39.8806 156.299 39.8806 156.537 39.7612C156.776 39.7015 157.015 39.5224 157.194 39.3433C157.373 39.1642 157.552 38.9254 157.672 38.6865C157.791 38.4477 157.851 38.2089 157.851 37.9104C157.851 37.6716 157.791 37.3731 157.672 37.1343C157.552 36.8955 157.433 36.6567 157.194 36.4776C157.015 36.2985 156.776 36.1791 156.537 36.0597C156.239 36.0597 156 36.0597 155.761 36.0597Z" fill="white"/>
</g>
<defs>
<clipPath id="clip0">
<rect x="100" width="80" height="80" rx="40" fill="white"/>
</clipPath>
</defs>
 
<metadata><rdf:RDF xmlns:rdf="http://www.w3.org/1999/02/22-rdf-syntax-ns#" xmlns:schema="http://schema.org/">
 <rdf:Description rdf:about='' xmlns:tiff="http://ns.adobe.com/tiff/1.0/">
  <tiff:Copyright>
   <rdf:Alt>
    <rdf:li xml:lang="x-default">© Copyright 2022 ValoraPay, Inc. All rights reserved.</rdf:li>
   </rdf:Alt>
  </tiff:Copyright>
 </rdf:Description>
</rdf:RDF></metadata></svg>
