<svg width="176" height="70" viewBox="0 0 176 70" fill="none" xmlns="http://www.w3.org/2000/svg">
<g clip-path="url(#clip0)">
<path d="M119.954 39.7539L121.711 40.3026C121.594 40.8209 121.418 41.2478 121.155 41.5831C120.891 41.9185 120.598 42.1929 120.217 42.3453C119.837 42.5283 119.368 42.6197 118.783 42.6197C118.08 42.6197 117.524 42.5283 117.055 42.3148C116.617 42.1014 116.236 41.7356 115.914 41.1868C115.592 40.6685 115.416 39.9673 115.416 39.1441C115.416 38.0465 115.709 37.1929 116.265 36.5832C116.822 35.9734 117.641 35.699 118.666 35.699C119.486 35.699 120.1 35.8819 120.569 36.2173C121.038 36.5527 121.388 37.0709 121.594 37.8026L119.837 38.199C119.778 37.9856 119.72 37.8332 119.632 37.7417C119.515 37.5893 119.398 37.4673 119.222 37.3758C119.046 37.2843 118.871 37.2538 118.695 37.2538C118.256 37.2538 117.905 37.4368 117.671 37.8331C117.495 38.1076 117.407 38.5648 117.407 39.1441C117.407 39.8758 117.524 40.3941 117.729 40.6685C117.934 40.9429 118.256 41.0953 118.637 41.0953C119.018 41.0953 119.31 40.9734 119.486 40.76C119.72 40.4856 119.866 40.1807 119.954 39.7539Z" fill="#225E63"/>
<path d="M122.413 39.1453C122.413 38.0478 122.706 37.1941 123.292 36.5843C123.877 35.9746 124.696 35.6697 125.751 35.6697C126.834 35.6697 127.654 35.9746 128.239 36.5539C128.825 37.1636 129.118 37.9868 129.118 39.0844C129.118 39.877 129.001 40.5172 128.737 41.0051C128.474 41.4929 128.122 41.8892 127.625 42.1636C127.156 42.438 126.541 42.5905 125.839 42.5905C125.107 42.5905 124.521 42.4685 124.023 42.2246C123.555 41.9807 123.174 41.6149 122.852 41.0661C122.53 40.5172 122.413 39.938 122.413 39.1453ZM124.404 39.1453C124.404 39.8161 124.521 40.3039 124.755 40.6088C124.99 40.9136 125.312 41.0661 125.751 41.0661C126.19 41.0661 126.512 40.9136 126.746 40.6392C126.981 40.3344 127.097 39.8161 127.097 39.0844C127.097 38.4441 126.981 37.9868 126.717 37.7124C126.483 37.4075 126.131 37.2856 125.721 37.2856C125.312 37.2856 124.99 37.438 124.755 37.7429C124.521 37.9868 124.404 38.4746 124.404 39.1453Z" fill="#225E63"/>
<path d="M130.143 35.7934H132.749L133.744 39.8788L134.74 35.7934H137.345V42.5007H135.706V37.3787L134.447 42.5007H132.983L131.724 37.3787V42.5007H130.084V35.7934H130.143Z" fill="#225E63"/>
<path d="M138.634 35.7934H141.942C142.675 35.7934 143.202 35.9763 143.553 36.3422C143.905 36.7081 144.08 37.1959 144.08 37.8666C144.08 38.5373 143.875 39.0861 143.494 39.452C143.114 39.8483 142.499 40.0312 141.709 40.0312H140.625V42.5312H138.634V35.7934ZM140.625 38.6592H141.123C141.504 38.6592 141.767 38.5983 141.942 38.4459C142.089 38.2934 142.177 38.141 142.177 37.9276C142.177 37.7142 142.118 37.5312 141.972 37.3788C141.826 37.2264 141.591 37.1654 141.211 37.1654H140.654V38.6592H140.625Z" fill="#225E63"/>
<path d="M145.134 35.7934H147.125V40.8544H150.228V42.5007H145.134V35.7934Z" fill="#225E63"/>
<path d="M151.223 35.7934H153.215V42.5007H151.223V35.7934Z" fill="#225E63"/>
<path d="M158.602 41.3708H156.347L156.025 42.4683H154.005L156.435 35.761H158.602L161.031 42.4683H158.952L158.602 41.3708ZM158.192 39.9379L157.489 37.5293L156.786 39.9379H158.192Z" fill="#225E63"/>
<path d="M161.647 35.7934H163.491L165.922 39.513V35.7934H167.796V42.5007H165.922L163.521 38.8117V42.5007H161.647V35.7934Z" fill="#225E63"/>
<path d="M168.673 35.7934H174.734V37.4398H172.714V42.5007H170.723V37.4398H168.703V35.7934H168.673Z" fill="#225E63"/>
<path d="M96.0036 46.0061L101.772 44.1158L99.8977 39.7866C98.5222 41.5854 97.146 43.9025 96.0036 46.0061ZM94.0422 26.2195L82.7407 0L0 4.87805L22.925 70L67.0475 55.5183C64.2368 51.3109 63.2121 46.311 66.462 43.872C70.0924 41.1281 75.5678 44.2988 79.0517 48.7805C82.4187 42.9268 91.8757 29.2988 94.0422 26.2195Z" fill="#225E63"/>
<path d="M80.1632 18.9479C83.6184 18.9479 86.4289 16.2041 86.4289 12.7894C86.4289 9.37475 83.6184 6.63086 80.1632 6.63086C76.7087 6.63086 73.8975 9.37475 73.8975 12.7894C73.8975 16.1736 76.7087 18.9479 80.1632 18.9479ZM75.0399 21.6004H85.2872V49.4967H75.0399V21.6004Z" fill="#FEFEFE"/>
<path d="M69.9741 29.7421C70.0621 29.7725 70.1202 29.7421 70.1202 29.6506V22.5774C70.1202 22.486 70.0621 22.3945 69.9741 22.3335C69.9741 22.3335 68.6272 21.4189 64.5283 21.175C64.3234 21.053 60.7221 21.0225 59.7559 21.175C44.8239 22.425 44.2676 33.675 44.2676 34.1628V36.9067C44.2676 37.2421 44.2676 48.736 59.7559 49.7421C61.2783 49.864 64.2355 49.7421 64.5283 49.7421C68.1003 49.7421 70.5598 48.6141 70.5598 48.6141C70.6473 48.5835 70.7061 48.4921 70.7061 48.4006V41.7848C70.7061 41.6933 70.6473 41.6628 70.5892 41.7238C70.5892 41.7238 69.4763 42.6384 64.6161 43.1567C63.24 43.3092 62.5666 43.2482 62.0689 43.1567C55.1592 41.9372 54.8371 36.6933 54.8371 36.6933C54.8371 36.6018 54.8078 36.4494 54.8078 36.3884V34.3762C54.8078 34.2848 54.8078 34.1323 54.8371 34.0713C54.8371 34.0713 55.3056 28.4311 62.0689 27.8214H64.6161C67.5732 28.2177 69.9741 29.7421 69.9741 29.7421Z" fill="#FEFEFE"/>
<path d="M15.8096 49.4034C15.8096 49.4949 15.8681 49.5559 15.9559 49.5559H25.9399C26.0277 49.5559 26.0863 49.4949 26.0863 49.4034V41.2937C26.0863 41.2022 26.1448 41.1412 26.2326 41.1412C26.2326 41.1412 42.1894 42.3303 42.1894 31.2022C42.1894 22.3912 32.1762 21.4461 28.897 21.5985C28.8385 21.5985 15.9559 21.5985 15.9559 21.5985C15.8681 21.5985 15.8096 21.6596 15.8096 21.751V49.4034ZM25.9106 34.9522V27.6656H28.37C28.37 27.6656 31.9127 27.8181 32.2055 30.3485C32.264 30.5315 32.264 31.7815 32.2055 31.8424C31.737 34.7998 28.6628 34.9522 28.6628 34.9522H25.9106Z" fill="#FEFEFE"/>
<path d="M80.4571 62.957C81.2768 62.957 81.9215 62.957 82.975 62.4692C86.6059 60.4874 98.8734 29.2984 111.814 19.6948C111.902 19.6337 111.99 19.5423 112.049 19.4509C112.136 19.3289 112.136 19.207 112.136 19.207C112.136 19.207 112.136 18.5667 110.234 18.5667C98.7271 18.2313 86.7522 43.3838 80.4571 53.3228C80.3696 53.4448 79.9594 53.3228 79.9594 53.3228C79.9594 53.3228 75.7433 48.1399 72.0837 46.1582C71.9955 46.1277 71.586 45.9753 71.1464 46.0057C70.8538 46.0057 69.1558 46.3716 68.3652 47.2253C67.4284 48.2618 67.4576 48.8411 67.4576 50.0911C67.4576 50.1826 67.5162 50.6094 67.6333 50.8228C68.5409 52.4691 72.6108 58.3228 75.9778 61.5545C76.4755 61.9509 77.2658 62.957 80.4571 62.957Z" fill="#2BBC5D"/>
<path d="M115.21 10.2749H124.785C126.688 10.2749 128.21 10.5493 129.353 11.0676C130.524 11.6164 131.49 12.3785 132.222 13.3542C132.983 14.3603 133.539 15.5188 133.861 16.8297C134.213 18.1407 134.388 19.5432 134.388 21.0371C134.388 23.3542 134.124 25.153 133.627 26.4335C133.129 27.7139 132.426 28.781 131.519 29.6651C130.611 30.5188 129.645 31.0981 128.62 31.4029C127.215 31.7992 125.927 31.9822 124.785 31.9822H115.21V10.2749ZM121.652 15.1834V27.0432H123.233C124.58 27.0432 125.546 26.8907 126.102 26.5858C126.659 26.281 127.127 25.7322 127.449 24.97C127.771 24.2078 127.947 22.9273 127.947 21.1895C127.947 18.8724 127.596 17.3176 126.863 16.4639C126.132 15.6103 124.961 15.1834 123.263 15.1834H121.652Z" fill="#225E63"/>
<path d="M136.174 24.8169L142.323 24.4206C142.469 25.4572 142.732 26.2498 143.142 26.7987C143.816 27.6828 144.752 28.1096 145.982 28.1096C146.89 28.1096 147.622 27.8962 148.119 27.4389C148.617 26.9815 148.881 26.4633 148.881 25.884C148.881 25.3352 148.646 24.8169 148.178 24.3596C147.71 23.9023 146.597 23.506 144.87 23.1096C142.029 22.4389 140.039 21.5547 138.809 20.4572C137.579 19.3596 136.994 17.9572 136.994 16.2499C136.994 15.1218 137.316 14.0852 137.931 13.0791C138.545 12.073 139.483 11.3108 140.741 10.7316C142.001 10.1523 143.699 9.87793 145.865 9.87793C148.53 9.87793 150.579 10.3962 151.955 11.4328C153.36 12.4694 154.18 14.1157 154.444 16.3718L148.354 16.7376C148.178 15.7621 147.856 15.0608 147.329 14.6035C146.802 14.1462 146.099 13.9328 145.192 13.9328C144.43 13.9328 143.875 14.0852 143.494 14.4206C143.113 14.756 142.937 15.1523 142.937 15.6401C142.937 15.9754 143.084 16.3109 143.406 16.5852C143.699 16.8596 144.43 17.134 145.572 17.3779C148.383 18.0181 150.403 18.6584 151.633 19.2986C152.863 19.9389 153.741 20.7621 154.298 21.7072C154.853 22.6523 155.117 23.7499 155.117 24.9389C155.117 26.3413 154.736 27.6218 154.004 28.7803C153.273 29.9694 152.219 30.8535 150.901 31.4633C149.584 32.073 147.886 32.3779 145.865 32.3779C142.323 32.3779 139.863 31.6767 138.487 30.2438C137.14 28.8108 136.379 27.012 136.174 24.8169Z" fill="#225E63"/>
<path d="M156.757 24.8169L162.906 24.4206C163.052 25.4572 163.316 26.2498 163.725 26.7987C164.399 27.6828 165.336 28.1096 166.565 28.1096C167.473 28.1096 168.205 27.8962 168.703 27.4389C169.201 26.9815 169.464 26.4633 169.464 25.884C169.464 25.3352 169.229 24.8169 168.761 24.3596C168.293 23.9023 167.181 23.506 165.453 23.1096C162.613 22.4389 160.622 21.5547 159.392 20.4572C158.192 19.3596 157.577 17.9572 157.577 16.2499C157.577 15.1218 157.899 14.0852 158.514 13.0791C159.128 12.073 160.066 11.3108 161.324 10.7316C162.584 10.1523 164.282 9.87793 166.448 9.87793C169.113 9.87793 171.162 10.3962 172.538 11.4328C173.944 12.4694 174.764 14.1157 175.027 16.3718L168.937 16.7376C168.761 15.7621 168.439 15.0608 167.912 14.6035C167.385 14.1462 166.683 13.9328 165.775 13.9328C165.013 13.9328 164.458 14.0852 164.077 14.4206C163.696 14.756 163.52 15.1523 163.52 15.6401C163.52 15.9754 163.667 16.3109 163.989 16.5852C164.282 16.8596 165.013 17.134 166.156 17.3779C168.966 18.0181 170.986 18.6584 172.216 19.2986C173.446 19.9389 174.324 20.7621 174.881 21.7072C175.437 22.6523 175.7 23.7499 175.7 24.9389C175.7 26.3413 175.319 27.6218 174.588 28.7803C173.856 29.9694 172.802 30.8535 171.484 31.4633C170.167 32.073 168.469 32.3779 166.448 32.3779C162.906 32.3779 160.447 31.6767 159.07 30.2438C157.694 28.8108 156.933 27.012 156.757 24.8169Z" fill="#225E63"/>
</g>
<defs>
<clipPath id="clip0">
<rect width="175.7" height="70" fill="white"/>
</clipPath>
</defs>
 
<metadata><rdf:RDF xmlns:rdf="http://www.w3.org/1999/02/22-rdf-syntax-ns#" xmlns:schema="http://schema.org/">
 <rdf:Description rdf:about='' xmlns:tiff="http://ns.adobe.com/tiff/1.0/">
  <tiff:Copyright>
   <rdf:Alt>
    <rdf:li xml:lang="x-default">© Copyright 2022 ValoraPay, Inc. All rights reserved.</rdf:li>
   </rdf:Alt>
  </tiff:Copyright>
 </rdf:Description>
</rdf:RDF></metadata></svg>
