<svg width="221" height="70" viewBox="0 0 221 70" fill="none" xmlns="http://www.w3.org/2000/svg">
<g clip-path="url(#clip0)">
<path d="M47.6666 52.0865H38.7559L44.3293 17.6246H53.2396L47.6666 52.0865Z" fill="#00579F"/>
<path d="M79.9689 18.4671C78.2113 17.7698 75.4236 16.9999 71.9766 16.9999C63.177 16.9999 56.9803 21.6924 56.9423 28.4012C56.8692 33.3509 61.3789 36.1001 64.7518 37.7505C68.1993 39.4369 69.3712 40.5377 69.3712 42.0409C69.3361 44.3496 66.5854 45.4138 64.0199 45.4138C60.4624 45.4138 58.5561 44.8652 55.6593 43.5807L54.4859 43.0301L53.239 50.7661C55.3289 51.7182 59.1794 52.5631 63.177 52.6002C72.5268 52.6002 78.6138 47.9803 78.6859 40.831C78.7215 36.908 76.3402 33.902 71.2063 31.4457C68.0897 29.8688 66.181 28.8056 66.181 27.1922C66.2176 25.7255 67.7953 24.2233 71.3135 24.2233C74.2103 24.1497 76.3387 24.846 77.9511 25.5428L78.7571 25.9088L79.9689 18.4671Z" fill="#00579F"/>
<path d="M91.8121 39.8779C92.5459 37.8981 95.3697 30.2357 95.3697 30.2357C95.3326 30.3093 96.102 28.2194 96.542 26.9364L97.1648 29.9058C97.1648 29.9058 98.8522 38.1549 99.2186 39.8779C97.826 39.8779 93.5721 39.8779 91.8121 39.8779ZM102.811 17.6246H95.9188C93.7933 17.6246 92.1785 18.2473 91.2614 20.4839L78.0256 52.086H87.3754C87.3754 52.086 88.9147 47.8326 89.2456 46.9165C90.2713 46.9165 99.3668 46.9165 100.686 46.9165C100.942 48.1264 101.75 52.086 101.75 52.086H110L102.811 17.6246Z" fill="#00579F"/>
<path d="M31.3131 17.6246L22.5866 41.1243L21.633 36.3583C20.0196 30.8589 14.9598 24.884 9.31323 21.9131L17.3065 52.05H26.7294L40.7355 17.6246H31.3131Z" fill="#00579F"/>
<path d="M14.4832 17.6246H0.146669L0 18.3209C11.1834 21.1807 18.59 28.0742 21.633 36.3598L18.5164 20.5214C18.0033 18.3204 16.4265 17.6972 14.4832 17.6246Z" fill="#FAA61A"/>
</g>
<g clip-path="url(#clip1)">
<path d="M147.378 69.4661V64.8309C147.378 63.0541 146.296 61.8953 144.442 61.8953C143.515 61.8953 142.511 62.2043 141.816 63.2086C141.275 62.3588 140.502 61.8953 139.344 61.8953C138.571 61.8953 137.798 62.127 137.18 62.9768V62.0498H135.558V69.4661H137.18V65.3717C137.18 64.0583 137.876 63.4403 138.957 63.4403C140.039 63.4403 140.58 64.1356 140.58 65.3717V69.4661H142.202V65.3717C142.202 64.0583 142.974 63.4403 143.979 63.4403C145.06 63.4403 145.601 64.1356 145.601 65.3717V69.4661H147.378ZM171.404 62.0498H168.777V59.8094H167.155V62.0498H165.687V63.5176H167.155V66.9167C167.155 68.6163 167.85 69.6206 169.704 69.6206C170.399 69.6206 171.172 69.3888 171.713 69.0798L171.249 67.6892C170.786 67.9983 170.245 68.0755 169.859 68.0755C169.086 68.0755 168.777 67.612 168.777 66.8395V63.5176H171.404V62.0498ZM185.155 61.8953C184.228 61.8953 183.61 62.3588 183.223 62.9768V62.0498H181.601V69.4661H183.223V65.2944C183.223 64.0584 183.764 63.3631 184.768 63.3631C185.077 63.3631 185.464 63.4403 185.773 63.5176L186.236 61.9725C185.927 61.8953 185.464 61.8953 185.155 61.8953ZM164.374 62.6678C163.601 62.127 162.519 61.8953 161.361 61.8953C159.507 61.8953 158.271 62.8223 158.271 64.2901C158.271 65.5262 159.198 66.2215 160.82 66.4532L161.592 66.5304C162.442 66.685 162.906 66.9167 162.906 67.303C162.906 67.8438 162.288 68.23 161.206 68.23C160.125 68.23 159.275 67.8438 158.734 67.4575L157.962 68.6936C158.811 69.3116 159.97 69.6206 161.129 69.6206C163.292 69.6206 164.528 68.6163 164.528 67.2257C164.528 65.9124 163.524 65.2171 161.979 64.9854L161.206 64.9082C160.511 64.8309 159.97 64.6764 159.97 64.2129C159.97 63.6721 160.511 63.3631 161.361 63.3631C162.288 63.3631 163.215 63.7493 163.678 63.9811L164.374 62.6678ZM207.481 61.8953C206.554 61.8953 205.936 62.3588 205.55 62.9768V62.0498H203.927V69.4661H205.55V65.2944C205.55 64.0584 206.09 63.3631 207.095 63.3631C207.404 63.3631 207.79 63.4403 208.099 63.5176L208.562 61.9725C208.253 61.8953 207.79 61.8953 207.481 61.8953ZM186.777 65.7579C186.777 67.9983 188.322 69.6206 190.717 69.6206C191.798 69.6206 192.571 69.3888 193.344 68.7708L192.571 67.4575C191.953 67.921 191.335 68.1528 190.64 68.1528C189.326 68.1528 188.399 67.2257 188.399 65.7579C188.399 64.3674 189.326 63.4403 190.64 63.3631C191.335 63.3631 191.953 63.5948 192.571 64.0584L193.344 62.745C192.571 62.127 191.798 61.8953 190.717 61.8953C188.322 61.8953 186.777 63.5176 186.777 65.7579ZM201.764 65.7579V62.0498H200.142V62.9768C199.601 62.2815 198.829 61.8953 197.824 61.8953C195.738 61.8953 194.116 63.5176 194.116 65.7579C194.116 67.9983 195.738 69.6206 197.824 69.6206C198.906 69.6206 199.678 69.2343 200.142 68.539V69.4661H201.764V65.7579ZM195.816 65.7579C195.816 64.4446 196.665 63.3631 198.056 63.3631C199.369 63.3631 200.296 64.3674 200.296 65.7579C200.296 67.0712 199.369 68.1528 198.056 68.1528C196.665 68.0755 195.816 67.0712 195.816 65.7579ZM176.425 61.8953C174.262 61.8953 172.717 63.4403 172.717 65.7579C172.717 68.0755 174.262 69.6206 176.502 69.6206C177.584 69.6206 178.665 69.3116 179.515 68.6163L178.743 67.4575C178.125 67.921 177.352 68.23 176.58 68.23C175.575 68.23 174.571 67.7665 174.339 66.4532H179.824C179.824 66.2215 179.824 66.0669 179.824 65.8352C179.901 63.4403 178.511 61.8953 176.425 61.8953ZM176.425 63.2858C177.429 63.2858 178.125 63.9038 178.279 65.0626H174.416C174.571 64.0584 175.266 63.2858 176.425 63.2858ZM216.674 65.7579V59.1142H215.052V62.9768C214.511 62.2815 213.738 61.8953 212.734 61.8953C210.648 61.8953 209.026 63.5176 209.026 65.7579C209.026 67.9983 210.648 69.6206 212.734 69.6206C213.816 69.6206 214.588 69.2343 215.052 68.539V69.4661H216.674V65.7579ZM210.725 65.7579C210.725 64.4446 211.575 63.3631 212.966 63.3631C214.279 63.3631 215.206 64.3674 215.206 65.7579C215.206 67.0712 214.279 68.1528 212.966 68.1528C211.575 68.0755 210.725 67.0712 210.725 65.7579ZM156.494 65.7579V62.0498H154.871V62.9768C154.331 62.2815 153.558 61.8953 152.554 61.8953C150.468 61.8953 148.846 63.5176 148.846 65.7579C148.846 67.9983 150.468 69.6206 152.554 69.6206C153.635 69.6206 154.408 69.2343 154.871 68.539V69.4661H156.494V65.7579ZM150.468 65.7579C150.468 64.4446 151.318 63.3631 152.708 63.3631C154.022 63.3631 154.949 64.3674 154.949 65.7579C154.949 67.0712 154.022 68.1528 152.708 68.1528C151.318 68.0755 150.468 67.0712 150.468 65.7579Z" fill="black"/>
<path d="M188.167 5.94843H163.832V49.6738H188.167V5.94843Z" fill="#FF5F00"/>
<path d="M165.377 27.8112C165.377 18.927 169.549 11.0472 175.961 5.94851C171.249 2.24035 165.3 0 158.811 0C143.438 0 131 12.4378 131 27.8112C131 43.1846 143.438 55.6223 158.811 55.6223C165.3 55.6223 171.249 53.382 175.961 49.6738C169.549 44.6524 165.377 36.6953 165.377 27.8112Z" fill="#EB001B"/>
<path d="M220.999 27.8112C220.999 43.1846 208.562 55.6223 193.188 55.6223C186.699 55.6223 180.751 53.382 176.038 49.6738C182.527 44.5751 186.622 36.6953 186.622 27.8112C186.622 18.927 182.45 11.0472 176.038 5.94851C180.751 2.24035 186.699 0 193.188 0C208.562 0 220.999 12.515 220.999 27.8112Z" fill="#F79E1B"/>
</g>
<defs>
<clipPath id="clip0">
<rect width="110" height="35.6002" fill="white" transform="translate(0 17)"/>
</clipPath>
<clipPath id="clip1">
<rect width="90" height="69.8369" fill="white" transform="translate(131)"/>
</clipPath>
</defs>
 
<metadata><rdf:RDF xmlns:rdf="http://www.w3.org/1999/02/22-rdf-syntax-ns#" xmlns:schema="http://schema.org/">
 <rdf:Description rdf:about='' xmlns:tiff="http://ns.adobe.com/tiff/1.0/">
  <tiff:Copyright>
   <rdf:Alt>
    <rdf:li xml:lang="x-default">© Copyright 2022 ValoraPay, Inc. All rights reserved.</rdf:li>
   </rdf:Alt>
  </tiff:Copyright>
 </rdf:Description>
</rdf:RDF></metadata></svg>
