<svg width="38" height="38" viewBox="0 0 38 38" fill="none" xmlns="http://www.w3.org/2000/svg">
<path d="M34.8332 18.9998C34.8332 27.743 27.743 34.8332 18.9998 34.8332C10.2567 34.8332 3.1665 27.743 3.1665 18.9998C3.1665 10.2567 10.2567 3.1665 18.9998 3.1665C27.743 3.1665 34.8332 10.2567 34.8332 18.9998Z" fill="#4CAF50"/>
<path d="M18.9999 3.1665V18.9998L25.3332 22.1665L18.3325 34.8332H18.9999C27.7502 34.8332 34.8332 27.7501 34.8332 18.9998C34.8332 10.2495 27.7502 3.1665 18.9999 3.1665Z" fill="#FFC107"/>
<path d="M34.8332 18.9998C34.8332 27.743 27.743 34.8332 18.9998 34.8332C10.2567 34.8332 3.1665 27.743 3.1665 18.9998C3.1665 10.2567 10.2567 3.1665 18.9998 3.1665C27.743 3.1665 34.8332 10.2567 34.8332 18.9998Z" fill="#4CAF50"/>
<path d="M18.9999 3.1665V18.9998L25.3332 22.1665L18.3325 34.8332H18.9999C27.7502 34.8332 34.8332 27.7501 34.8332 18.9998C34.8332 10.2495 27.7502 3.1665 18.9999 3.1665Z" fill="#FFC107"/>
<path d="M33.1232 11.8748H18.9998V22.1665L16.6248 21.3748L5.66818 10.4973H5.65234C8.45484 6.08775 13.3869 3.1665 18.9998 3.1665C25.1748 3.1665 30.5186 6.71317 33.1232 11.8748Z" fill="#F44336"/>
<path d="M5.6665 10.5005L12.6672 22.2662L16.6248 21.3748L5.6665 10.5005Z" fill="#DD2C00"/>
<path d="M18.3325 34.8332L25.4053 22.1198L22.1666 19.7915L18.3325 34.8332Z" fill="#558B2F"/>
<path d="M33.1432 11.875H19L17.75 15.5008L33.1432 11.875Z" fill="#F9A825"/>
<path d="M26.125 19C26.125 22.9338 22.9338 26.125 19 26.125C15.0662 26.125 11.875 22.9338 11.875 19C11.875 15.0662 15.0662 11.875 19 11.875C22.9338 11.875 26.125 15.0662 26.125 19Z" fill="white"/>
<path d="M24.5418 19.0002C24.5418 22.0615 22.0615 24.5418 19.0002 24.5418C15.9388 24.5418 13.4585 22.0615 13.4585 19.0002C13.4585 15.9388 15.9388 13.4585 19.0002 13.4585C22.0615 13.4585 24.5418 15.9388 24.5418 19.0002Z" fill="#2196F3"/>
 
<metadata><rdf:RDF xmlns:rdf="http://www.w3.org/1999/02/22-rdf-syntax-ns#" xmlns:schema="http://schema.org/">
 <rdf:Description rdf:about='' xmlns:tiff="http://ns.adobe.com/tiff/1.0/">
  <tiff:Copyright>
   <rdf:Alt>
    <rdf:li xml:lang="x-default">© Copyright 2022 Corefy, Inc. All rights reserved.</rdf:li>
   </rdf:Alt>
  </tiff:Copyright>
 </rdf:Description>
</rdf:RDF></metadata></svg>
