<svg width="32" height="32" viewBox="0 0 32 32" fill="none" xmlns="http://www.w3.org/2000/svg">
<g clip-path="url(#clip0)">
<path d="M30.0629 10.7242C29.3897 9.10436 28.0242 7.35544 26.9548 6.80258C27.7175 8.27972 28.2468 9.8661 28.5239 11.5053L28.5267 11.5313C26.7749 7.16396 23.8044 5.40304 21.3783 1.5686C21.2555 1.37472 21.1328 1.18044 21.0133 0.975366C20.9449 0.858238 20.8902 0.752703 20.8426 0.655562C20.742 0.460704 20.6644 0.254771 20.6115 0.04194C20.6116 0.0321189 20.6081 0.0226154 20.6016 0.0152424C20.5951 0.00786938 20.5861 0.0031429 20.5764 0.00196459C20.5668 -0.000654864 20.5567 -0.000654864 20.5472 0.00196459C20.5452 0.00196459 20.542 0.00556238 20.5396 0.00636189C20.5372 0.00716139 20.532 0.0107592 20.5284 0.0123582L20.5344 0.00196459C16.6428 2.28056 15.3224 6.49877 15.2009 8.60867C13.6467 8.7155 12.1609 9.28819 10.9371 10.2521C10.8094 10.1439 10.676 10.0428 10.5373 9.94904C10.1843 8.71338 10.1693 7.40563 10.4938 6.16217C9.06461 6.85452 7.79472 7.83596 6.76445 9.0444H6.75725C6.14323 8.26608 6.1864 5.69966 6.22158 5.16359C6.03993 5.23659 5.86653 5.32865 5.7043 5.43822C5.16225 5.82509 4.65552 6.25918 4.19003 6.73542C3.6596 7.27322 3.17514 7.8545 2.74172 8.47315V8.47555V8.47275C1.74563 9.88491 1.03913 11.4804 0.663 13.1671L0.642213 13.2694C0.613031 13.4057 0.507895 14.0885 0.489906 14.2368C0.489906 14.2484 0.487508 14.2592 0.486309 14.2708C0.350687 14.9757 0.266649 15.6895 0.234863 16.4067V16.4866C0.23826 20.366 1.69677 24.1029 4.32215 26.9588C6.94754 29.8148 10.5488 31.582 14.4141 31.9112C18.2794 32.2404 22.1276 31.1077 25.1982 28.7368C28.2687 26.3659 30.3382 22.9295 30.9975 19.1066C31.0235 18.9067 31.0447 18.7089 31.0679 18.507C31.387 15.8695 31.0415 13.1941 30.0629 10.7242ZM12.2059 22.8519C12.2783 22.8867 12.3462 22.9243 12.4206 22.9574L12.4314 22.9642C12.3562 22.9283 12.2811 22.8908 12.2059 22.8519ZM28.5279 11.5349V11.5201L28.5307 11.5365L28.5279 11.5349Z" fill="url(#paint0_linear)"/>
<path d="M30.0629 10.7243C29.3897 9.10452 28.0242 7.35559 26.9548 6.80273C27.7175 8.27987 28.2468 9.86625 28.5239 11.5054V11.5202L28.5267 11.5366C29.7208 14.9539 29.5481 18.7005 28.0446 21.9934C26.2689 25.8034 21.9707 29.7086 15.2428 29.5188C7.9733 29.3129 1.57124 23.9186 0.374377 16.8534C0.156511 15.7392 0.374378 15.1744 0.48391 14.2689C0.334493 14.9723 0.251115 15.688 0.234863 16.4068V16.4868C0.23826 20.3661 1.69677 24.103 4.32215 26.959C6.94754 29.815 10.5488 31.5822 14.4141 31.9114C18.2794 32.2406 22.1276 31.1078 25.1982 28.737C28.2687 26.3661 30.3382 22.9296 30.9975 19.1068C31.0235 18.9069 31.0447 18.709 31.0679 18.5071C31.387 15.8696 31.0415 13.1942 30.0629 10.7243Z" fill="url(#paint1_radial)"/>
<path d="M30.0629 10.7243C29.3897 9.10452 28.0242 7.35559 26.9548 6.80273C27.7175 8.27987 28.2468 9.86625 28.5239 11.5054V11.5202L28.5267 11.5366C29.7208 14.9539 29.5481 18.7005 28.0446 21.9934C26.2689 25.8034 21.9707 29.7086 15.2428 29.5188C7.9733 29.3129 1.57124 23.9186 0.374377 16.8534C0.156511 15.7392 0.374378 15.1744 0.48391 14.2689C0.334493 14.9723 0.251115 15.688 0.234863 16.4068V16.4868C0.23826 20.3661 1.69677 24.103 4.32215 26.959C6.94754 29.815 10.5488 31.5822 14.4141 31.9114C18.2794 32.2406 22.1276 31.1078 25.1982 28.737C28.2687 26.3661 30.3382 22.9296 30.9975 19.1068C31.0235 18.9069 31.0447 18.709 31.0679 18.5071C31.387 15.8696 31.0415 13.1942 30.0629 10.7243Z" fill="url(#paint2_radial)"/>
<path d="M22.5338 12.5454C22.5674 12.569 22.5985 12.5926 22.6301 12.6162C22.2409 11.9261 21.7565 11.2943 21.191 10.7393C16.3756 5.92311 19.929 0.296572 20.5282 0.0107477L20.5342 0.00195312C16.6426 2.28055 15.3222 6.49876 15.2007 8.60866C15.3814 8.59627 15.5605 8.58108 15.7451 8.58108C17.126 8.58361 18.4815 8.95175 19.6739 9.64808C20.8663 10.3444 21.853 11.3441 22.5338 12.5454Z" fill="url(#paint3_radial)"/>
<path d="M15.7551 13.5072C15.7295 13.8926 14.368 15.2218 13.8918 15.2218C9.48616 15.2218 8.771 17.8869 8.771 17.8869C8.96608 20.1311 10.5299 21.9796 12.4204 22.9574C12.5067 23.0022 12.5942 23.0426 12.6818 23.0821C12.8334 23.1493 12.9851 23.2114 13.1367 23.2684C13.7855 23.498 14.465 23.6291 15.1527 23.6574C22.8747 24.0196 24.3706 14.4231 18.798 11.6384C20.1126 11.4673 21.4439 11.7906 22.5337 12.5454C21.853 11.3441 20.8663 10.3444 19.6739 9.64806C18.4815 8.95173 17.1259 8.58358 15.7451 8.58105C15.5612 8.58105 15.3813 8.59625 15.2006 8.60864C13.6465 8.71547 12.1607 9.28816 10.9369 10.252C11.1731 10.4519 11.4398 10.7189 12.0014 11.2726C13.0528 12.3084 15.7491 13.3813 15.7551 13.5072Z" fill="url(#paint4_radial)"/>
<path d="M15.7551 13.5072C15.7295 13.8926 14.368 15.2218 13.8918 15.2218C9.48616 15.2218 8.771 17.8869 8.771 17.8869C8.96608 20.1311 10.5299 21.9796 12.4204 22.9574C12.5067 23.0022 12.5942 23.0426 12.6818 23.0821C12.8334 23.1493 12.9851 23.2114 13.1367 23.2684C13.7855 23.498 14.465 23.6291 15.1527 23.6574C22.8747 24.0196 24.3706 14.4231 18.798 11.6384C20.1126 11.4673 21.4439 11.7906 22.5337 12.5454C21.853 11.3441 20.8663 10.3444 19.6739 9.64806C18.4815 8.95173 17.1259 8.58358 15.7451 8.58105C15.5612 8.58105 15.3813 8.59625 15.2006 8.60864C13.6465 8.71547 12.1607 9.28816 10.9369 10.252C11.1731 10.4519 11.4398 10.7189 12.0014 11.2726C13.0528 12.3084 15.7491 13.3813 15.7551 13.5072Z" fill="url(#paint5_radial)"/>
<path d="M10.2148 9.73671C10.3403 9.81666 10.4439 9.88622 10.5346 9.94898C10.1816 8.71332 10.1665 7.40557 10.491 6.16211C9.06188 6.85445 7.79199 7.83589 6.76172 9.04434C6.83727 9.04234 9.08469 9.00196 10.2148 9.73671Z" fill="url(#paint6_radial)"/>
<path d="M0.37643 16.8531C1.57209 23.9183 7.97536 29.3126 15.2449 29.5185C21.9727 29.7088 26.2709 25.8032 28.0466 21.9931C29.5501 18.7002 29.7229 14.9536 28.5287 11.5364V11.5216C28.5287 11.51 28.5263 11.5032 28.5287 11.5068L28.5315 11.5328C29.0812 15.1214 27.2559 18.598 24.4024 20.949L24.3937 20.969C18.8339 25.497 13.5131 23.7009 12.4362 22.9677C12.3611 22.9318 12.2859 22.8943 12.2107 22.8554C8.96914 21.306 7.62997 18.3526 7.91699 15.8197C7.14751 15.8311 6.39124 15.619 5.73983 15.2093C5.08841 14.7995 4.56981 14.2097 4.24685 13.5111C5.09777 12.9898 6.06802 12.6951 7.06512 12.6551C8.06223 12.6151 9.05297 12.8311 9.94294 13.2825C11.7778 14.1154 13.8656 14.1975 15.7602 13.5111C15.7542 13.3852 13.0578 12.3119 12.0065 11.2765C11.4448 10.7229 11.1782 10.4562 10.9419 10.2559C10.8142 10.1478 10.6808 10.0466 10.5422 9.95294C10.4502 9.89018 10.3467 9.82222 10.2224 9.74067C9.09227 9.00592 6.84485 9.04629 6.7705 9.04829H6.7633C6.14928 8.26997 6.19245 5.70355 6.22763 5.16748C6.04598 5.24048 5.87258 5.33254 5.71035 5.44211C5.1683 5.82898 4.66157 6.26307 4.19608 6.73931C3.66375 7.2756 3.17728 7.85554 2.74177 8.47305V8.47545V8.47265C1.74568 9.8848 1.03918 11.4803 0.663054 13.167C0.655459 13.1985 0.104997 15.6051 0.37643 16.8531Z" fill="url(#paint7_radial)"/>
<path d="M21.1923 10.7394C21.7579 11.2949 22.2423 11.9274 22.6314 12.6182C22.7165 12.6826 22.7961 12.7465 22.8636 12.8085C26.3763 16.0465 24.5358 20.6237 24.3987 20.9495C27.2521 18.5985 29.0758 15.1219 28.5277 11.5333C26.7752 7.16396 23.8046 5.40304 21.3785 1.5686C21.2558 1.37472 21.1331 1.18044 21.0136 0.975366C20.9452 0.858238 20.8904 0.752703 20.8429 0.655563C20.7422 0.460704 20.6647 0.254771 20.6118 0.04194C20.6119 0.0321189 20.6083 0.0226154 20.6018 0.0152424C20.5954 0.00786938 20.5864 0.0031429 20.5766 0.00196459C20.5671 -0.000654864 20.557 -0.000654864 20.5475 0.00196459C20.5455 0.00196459 20.5423 0.00556238 20.5399 0.00636189C20.5375 0.0071614 20.5323 0.0107592 20.5287 0.0123582C19.9294 0.296583 16.376 5.92312 21.1923 10.7394Z" fill="url(#paint8_radial)"/>
<path d="M22.8609 12.8066C22.7934 12.7446 22.7138 12.6806 22.6287 12.6163C22.5971 12.5927 22.5659 12.5691 22.5323 12.5455C21.4425 11.7907 20.1112 11.4674 18.7966 11.6385C24.3692 14.4248 22.8741 24.0197 15.1513 23.6575C14.4636 23.6292 13.7841 23.4981 13.1353 23.2685C12.9837 23.2118 12.832 23.1497 12.6804 23.0822C12.5928 23.0423 12.5053 23.0023 12.4189 22.9575L12.4297 22.9643C13.5067 23.6995 18.8258 25.4956 24.3872 20.9655L24.396 20.9455C24.5347 20.6217 26.3752 16.0434 22.8609 12.8066Z" fill="url(#paint9_radial)"/>
<path d="M8.7714 17.8869C8.7714 17.8869 9.48656 15.2218 13.8923 15.2218C14.3684 15.2218 15.7311 13.8926 15.7555 13.5072C13.861 14.1936 11.7731 14.1115 9.93828 13.2786C9.04831 12.8271 8.05757 12.6112 7.06046 12.6512C6.06335 12.6912 5.09311 12.9859 4.24219 13.5072C4.56515 14.2057 5.08375 14.7956 5.73517 15.2054C6.38658 15.6151 7.14285 15.8272 7.91233 15.8158C7.62531 18.349 8.96448 21.3024 12.2061 22.8515C12.2784 22.8863 12.3464 22.9238 12.4208 22.957C10.5287 21.9796 8.96648 20.1312 8.7714 17.8869Z" fill="url(#paint10_radial)"/>
<path d="M30.0629 10.7242C29.3897 9.10436 28.0242 7.35544 26.9548 6.80258C27.7175 8.27972 28.2468 9.8661 28.5239 11.5053L28.5267 11.5313C26.7749 7.16396 23.8044 5.40304 21.3783 1.5686C21.2555 1.37472 21.1328 1.18044 21.0133 0.975366C20.9449 0.858238 20.8902 0.752703 20.8426 0.655562C20.742 0.460704 20.6644 0.254771 20.6115 0.04194C20.6116 0.0321189 20.6081 0.0226154 20.6016 0.0152424C20.5951 0.00786938 20.5861 0.0031429 20.5764 0.00196459C20.5668 -0.000654864 20.5567 -0.000654864 20.5472 0.00196459C20.5452 0.00196459 20.542 0.00556238 20.5396 0.00636189C20.5372 0.00716139 20.532 0.0107592 20.5284 0.0123582L20.5344 0.00196459C16.6428 2.28056 15.3224 6.49877 15.2009 8.60867C15.3815 8.59628 15.5606 8.58109 15.7453 8.58109C17.1261 8.58362 18.4817 8.95176 19.6741 9.64809C20.8665 10.3444 21.8532 11.3441 22.5339 12.5454C21.4441 11.7906 20.1129 11.4674 18.7982 11.6384C24.3708 14.4247 22.8757 24.0196 15.1529 23.6574C14.4652 23.6292 13.7857 23.4981 13.1369 23.2684C12.9853 23.2117 12.8336 23.1496 12.682 23.0822C12.5945 23.0422 12.5069 23.0022 12.4206 22.9574L12.4314 22.9642C12.3562 22.9283 12.2811 22.8908 12.2059 22.8519C12.2783 22.8867 12.3462 22.9243 12.4206 22.9574C10.5285 21.9796 8.96629 20.1312 8.77121 17.887C8.77121 17.887 9.48637 15.2218 13.8921 15.2218C14.3682 15.2218 15.7309 13.8926 15.7553 13.5073C15.7493 13.3813 13.053 12.308 12.0016 11.2726C11.44 10.719 11.1733 10.4523 10.9371 10.2521C10.8094 10.1439 10.676 10.0428 10.5373 9.94904C10.1843 8.71338 10.1693 7.40563 10.4938 6.16217C9.06461 6.85452 7.79472 7.83596 6.76445 9.0444H6.75725C6.14323 8.26608 6.1864 5.69966 6.22158 5.16359C6.03993 5.23659 5.86653 5.32865 5.7043 5.43822C5.16225 5.82509 4.65552 6.25918 4.19003 6.73542C3.6596 7.27322 3.17514 7.8545 2.74172 8.47315V8.47555V8.47275C1.74563 9.88491 1.03913 11.4804 0.663 13.1671L0.642213 13.2694C0.613031 13.4057 0.482311 14.0981 0.463523 14.2468C0.463523 14.258 0.463523 14.2352 0.463523 14.2468C0.34396 14.9615 0.267602 15.6828 0.234863 16.4067V16.4866C0.23826 20.366 1.69677 24.1029 4.32215 26.9588C6.94754 29.8148 10.5488 31.582 14.4141 31.9112C18.2794 32.2404 22.1276 31.1077 25.1982 28.7368C28.2687 26.3659 30.3382 22.9295 30.9975 19.1066C31.0235 18.9067 31.0447 18.7089 31.0679 18.507C31.387 15.8695 31.0415 13.1941 30.0629 10.7242ZM28.5259 11.5201L28.5287 11.5365L28.5259 11.5201Z" fill="url(#paint11_linear)"/>
</g>
<defs>
<linearGradient id="paint0_linear" x1="28.0122" y1="4.95252" x2="2.2924" y2="29.7673" gradientUnits="userSpaceOnUse">
<stop offset="0.048" stop-color="#FFF44F"/>
<stop offset="0.111" stop-color="#FFE847"/>
<stop offset="0.225" stop-color="#FFC830"/>
<stop offset="0.368" stop-color="#FF980E"/>
<stop offset="0.401" stop-color="#FF8B16"/>
<stop offset="0.462" stop-color="#FF672A"/>
<stop offset="0.534" stop-color="#FF3647"/>
<stop offset="0.705" stop-color="#E31587"/>
</linearGradient>
<radialGradient id="paint1_radial" cx="0" cy="0" r="1" gradientUnits="userSpaceOnUse" gradientTransform="translate(26.8237 3.54789) scale(32.2989)">
<stop offset="0.129" stop-color="#FFBD4F"/>
<stop offset="0.186" stop-color="#FFAC31"/>
<stop offset="0.247" stop-color="#FF9D17"/>
<stop offset="0.283" stop-color="#FF980E"/>
<stop offset="0.403" stop-color="#FF563B"/>
<stop offset="0.467" stop-color="#FF3750"/>
<stop offset="0.71" stop-color="#F5156C"/>
<stop offset="0.782" stop-color="#EB0878"/>
<stop offset="0.86" stop-color="#E50080"/>
</radialGradient>
<radialGradient id="paint2_radial" cx="0" cy="0" r="1" gradientUnits="userSpaceOnUse" gradientTransform="translate(15.0214 16.7526) scale(32.2989)">
<stop offset="0.3" stop-color="#960E18"/>
<stop offset="0.351" stop-color="#B11927" stop-opacity="0.74"/>
<stop offset="0.435" stop-color="#DB293D" stop-opacity="0.343"/>
<stop offset="0.497" stop-color="#F5334B" stop-opacity="0.094"/>
<stop offset="0.53" stop-color="#FF3750" stop-opacity="0"/>
</radialGradient>
<radialGradient id="paint3_radial" cx="0" cy="0" r="1" gradientUnits="userSpaceOnUse" gradientTransform="translate(18.9151 -3.78213) scale(23.3992)">
<stop offset="0.132" stop-color="#FFF44F"/>
<stop offset="0.252" stop-color="#FFDC3E"/>
<stop offset="0.506" stop-color="#FF9D12"/>
<stop offset="0.526" stop-color="#FF980E"/>
</radialGradient>
<radialGradient id="paint4_radial" cx="0" cy="0" r="1" gradientUnits="userSpaceOnUse" gradientTransform="translate(11.4486 25.1891) scale(15.3789)">
<stop offset="0.353" stop-color="#3A8EE6"/>
<stop offset="0.472" stop-color="#5C79F0"/>
<stop offset="0.669" stop-color="#9059FF"/>
<stop offset="1" stop-color="#C139E6"/>
</radialGradient>
<radialGradient id="paint5_radial" cx="0" cy="0" r="1" gradientUnits="userSpaceOnUse" gradientTransform="translate(16.7861 14.1054) rotate(-13.5916) scale(8.15382 9.54609)">
<stop offset="0.206" stop-color="#9059FF" stop-opacity="0"/>
<stop offset="0.278" stop-color="#8C4FF3" stop-opacity="0.064"/>
<stop offset="0.747" stop-color="#7716A8" stop-opacity="0.45"/>
<stop offset="0.975" stop-color="#6E008B" stop-opacity="0.6"/>
</radialGradient>
<radialGradient id="paint6_radial" cx="0" cy="0" r="1" gradientUnits="userSpaceOnUse" gradientTransform="translate(14.6137 2.22621) scale(11.0636)">
<stop stop-color="#FFE226"/>
<stop offset="0.121" stop-color="#FFDB27"/>
<stop offset="0.295" stop-color="#FFC82A"/>
<stop offset="0.502" stop-color="#FFA930"/>
<stop offset="0.732" stop-color="#FF7E37"/>
<stop offset="0.792" stop-color="#FF7139"/>
</radialGradient>
<radialGradient id="paint7_radial" cx="0" cy="0" r="1" gradientUnits="userSpaceOnUse" gradientTransform="translate(23.3099 -4.79136) scale(47.2034)">
<stop offset="0.113" stop-color="#FFF44F"/>
<stop offset="0.456" stop-color="#FF980E"/>
<stop offset="0.622" stop-color="#FF5634"/>
<stop offset="0.716" stop-color="#FF3647"/>
<stop offset="0.904" stop-color="#E31587"/>
</radialGradient>
<radialGradient id="paint8_radial" cx="0" cy="0" r="1" gradientUnits="userSpaceOnUse" gradientTransform="translate(19.3317 -2.1665) rotate(83.976) scale(34.5965 22.7053)">
<stop stop-color="#FFF44F"/>
<stop offset="0.06" stop-color="#FFE847"/>
<stop offset="0.168" stop-color="#FFC830"/>
<stop offset="0.304" stop-color="#FF980E"/>
<stop offset="0.356" stop-color="#FF8B16"/>
<stop offset="0.455" stop-color="#FF672A"/>
<stop offset="0.57" stop-color="#FF3647"/>
<stop offset="0.737" stop-color="#E31587"/>
</radialGradient>
<radialGradient id="paint9_radial" cx="0" cy="0" r="1" gradientUnits="userSpaceOnUse" gradientTransform="translate(14.353 6.32422) scale(29.4699)">
<stop offset="0.137" stop-color="#FFF44F"/>
<stop offset="0.48" stop-color="#FF980E"/>
<stop offset="0.592" stop-color="#FF5634"/>
<stop offset="0.655" stop-color="#FF3647"/>
<stop offset="0.904" stop-color="#E31587"/>
</radialGradient>
<radialGradient id="paint10_radial" cx="0" cy="0" r="1" gradientUnits="userSpaceOnUse" gradientTransform="translate(22.1324 8.04885) scale(32.2546)">
<stop offset="0.094" stop-color="#FFF44F"/>
<stop offset="0.231" stop-color="#FFE141"/>
<stop offset="0.509" stop-color="#FFAF1E"/>
<stop offset="0.626" stop-color="#FF980E"/>
</radialGradient>
<linearGradient id="paint11_linear" x1="27.7032" y1="4.8198" x2="5.81823" y2="26.7043" gradientUnits="userSpaceOnUse">
<stop offset="0.167" stop-color="#FFF44F" stop-opacity="0.8"/>
<stop offset="0.266" stop-color="#FFF44F" stop-opacity="0.634"/>
<stop offset="0.489" stop-color="#FFF44F" stop-opacity="0.217"/>
<stop offset="0.6" stop-color="#FFF44F" stop-opacity="0"/>
</linearGradient>
<clipPath id="clip0">
<rect width="32" height="32" fill="white"/>
</clipPath>
</defs>
 
<metadata><rdf:RDF xmlns:rdf="http://www.w3.org/1999/02/22-rdf-syntax-ns#" xmlns:schema="http://schema.org/">
 <rdf:Description rdf:about='' xmlns:tiff="http://ns.adobe.com/tiff/1.0/">
  <tiff:Copyright>
   <rdf:Alt>
    <rdf:li xml:lang="x-default">© Copyright 2022 Corefy, Inc. All rights reserved.</rdf:li>
   </rdf:Alt>
  </tiff:Copyright>
 </rdf:Description>
</rdf:RDF></metadata></svg>
