<svg width="38" height="38" viewBox="0 0 38 38" fill="none" xmlns="http://www.w3.org/2000/svg">
<path d="M18.9998 3.1665C10.2495 3.1665 3.1665 10.2495 3.1665 18.9998C3.1665 27.7501 10.2495 34.8332 18.9998 34.8332C27.7501 34.8332 34.8332 27.7501 34.8332 18.9998C34.8332 10.2495 27.7501 3.1665 18.9998 3.1665ZM18.9998 30.8748C14.8333 30.8748 11.0832 25.4155 11.0832 18.9998C11.0832 12.5842 14.8333 7.12484 18.9998 7.12484C23.1664 7.12484 26.9165 12.5842 26.9165 18.9998C26.9165 25.4155 23.1664 30.8748 18.9998 30.8748Z" fill="#FF1744"/>
<path d="M28.9467 6.68562C27.2438 5.5195 25.2464 4.75 23.1667 4.75C20.0412 4.75 17.2102 6.3175 15.1187 8.77088C16.2872 7.73458 17.6187 7.125 19.0002 7.125C23.1667 7.125 26.9169 12.5843 26.9169 19C26.9169 25.4157 23.1667 30.875 19.0002 30.875C17.6187 30.875 16.2872 30.2654 15.1187 29.2291C17.2102 31.6825 20.0412 33.25 23.1667 33.25C25.2457 33.25 27.2438 32.4805 28.9459 31.3152C32.5353 28.4137 34.8335 23.9796 34.8335 19C34.8335 14.0212 32.5353 9.58708 28.9467 6.68562Z" fill="#D50000"/>
 
<metadata><rdf:RDF xmlns:rdf="http://www.w3.org/1999/02/22-rdf-syntax-ns#" xmlns:schema="http://schema.org/">
 <rdf:Description rdf:about='' xmlns:tiff="http://ns.adobe.com/tiff/1.0/">
  <tiff:Copyright>
   <rdf:Alt>
    <rdf:li xml:lang="x-default">© Copyright 2022 Corefy, Inc. All rights reserved.</rdf:li>
   </rdf:Alt>
  </tiff:Copyright>
 </rdf:Description>
</rdf:RDF></metadata></svg>
