<svg width="32" height="32" viewBox="0 0 32 32" fill="none" xmlns="http://www.w3.org/2000/svg">
<path d="M16 32C24.8366 32 32 24.8366 32 16C32 7.16344 24.8366 0 16 0C7.16344 0 0 7.16344 0 16C0 24.8366 7.16344 32 16 32Z" fill="#1DA2F8"/>
<path d="M15.9998 2.36809C15.8921 2.36809 15.8047 2.28071 15.8047 2.17296V1.28009C15.8047 1.17234 15.8921 1.08496 15.9998 1.08496C16.1076 1.08496 16.1949 1.17234 16.1949 1.28009V2.17296C16.1949 2.28071 16.1076 2.36809 15.9998 2.36809Z" fill="#F2F2F2"/>
<path d="M15.9998 30.915C15.8921 30.915 15.8047 30.8276 15.8047 30.7198V29.827C15.8047 29.7192 15.8921 29.6318 15.9998 29.6318C16.1076 29.6318 16.1949 29.7192 16.1949 29.827V30.7198C16.1949 30.8276 16.1076 30.915 15.9998 30.915Z" fill="#F2F2F2"/>
<path d="M13.5986 2.57816C13.5056 2.57816 13.4233 2.51153 13.4066 2.41685L13.2515 1.53753C13.2328 1.43141 13.3037 1.33016 13.4098 1.31153C13.5162 1.29303 13.6172 1.36372 13.6358 1.46985L13.7909 2.34916C13.8096 2.45528 13.7387 2.55653 13.6326 2.57516C13.6211 2.5771 13.6098 2.57816 13.5986 2.57816Z" fill="#F2F2F2"/>
<path d="M18.5561 30.6915C18.4631 30.6915 18.3808 30.6249 18.3641 30.5302L18.209 29.6509C18.1904 29.5448 18.2612 29.4435 18.3673 29.4249C18.4737 29.4061 18.5747 29.477 18.5934 29.5832L18.7484 30.4624C18.7671 30.5686 18.6962 30.6698 18.5902 30.6884C18.5787 30.6905 18.5674 30.6915 18.5561 30.6915Z" fill="#F2F2F2"/>
<path d="M11.271 3.20198C11.1913 3.20198 11.1165 3.15273 11.0877 3.07354L10.7823 2.23454C10.7455 2.13323 10.7977 2.02129 10.899 1.98441C10.9999 1.94773 11.1122 1.99973 11.149 2.10104L11.4543 2.94004C11.4912 3.04135 11.439 3.15329 11.3377 3.19017C11.3157 3.19817 11.2932 3.20198 11.271 3.20198Z" fill="#F2F2F2"/>
<path d="M21.0347 30.0272C20.955 30.0272 20.8802 29.978 20.8514 29.8988L20.546 29.0598C20.5091 28.9585 20.5614 28.8465 20.6626 28.8097C20.7636 28.7728 20.8759 28.825 20.9126 28.9263L21.2181 29.7653C21.2548 29.8666 21.2026 29.9785 21.1014 30.0154C21.0794 30.0234 21.0569 30.0272 21.0347 30.0272Z" fill="#F2F2F2"/>
<path d="M9.0866 4.22079C9.01916 4.22079 8.9536 4.18579 8.91741 4.12317L8.47097 3.34992C8.41716 3.25661 8.44904 3.13729 8.54241 3.08342C8.6356 3.02929 8.75504 3.06148 8.80897 3.15479L9.25541 3.92804C9.30922 4.02136 9.27735 4.14067 9.18398 4.19454C9.15335 4.21236 9.11972 4.22079 9.0866 4.22079Z" fill="#F2F2F2"/>
<path d="M23.36 28.943C23.2926 28.943 23.227 28.908 23.1908 28.8453L22.7444 28.0721C22.6906 27.9788 22.7225 27.8595 22.8158 27.8056C22.909 27.7515 23.0284 27.7837 23.0824 27.877L23.5288 28.6502C23.5827 28.7435 23.5508 28.8628 23.4574 28.9167C23.4268 28.9345 23.3932 28.943 23.36 28.943Z" fill="#F2F2F2"/>
<path d="M7.11194 5.60299C7.05631 5.60299 7.00094 5.5793 6.96238 5.5333L6.38844 4.84936C6.31913 4.7668 6.32994 4.64374 6.41256 4.57443C6.495 4.50524 6.61813 4.51593 6.68744 4.59849L7.26138 5.28243C7.33069 5.36499 7.31988 5.48805 7.23725 5.55736C7.20075 5.58805 7.15625 5.60299 7.11194 5.60299Z" fill="#F2F2F2"/>
<path d="M25.462 27.4716C25.4063 27.4716 25.351 27.4479 25.3124 27.4019L24.7385 26.718C24.6692 26.6354 24.68 26.5123 24.7627 26.443C24.8451 26.374 24.9682 26.3845 25.0375 26.4671L25.6113 27.151C25.6807 27.2336 25.6698 27.3566 25.5872 27.426C25.5508 27.4566 25.5062 27.4716 25.462 27.4716Z" fill="#F2F2F2"/>
<path d="M5.40776 7.30698C5.36351 7.30698 5.31895 7.29204 5.28251 7.26135L4.59857 6.68741C4.51595 6.6181 4.5052 6.4951 4.57445 6.41248C4.64376 6.32985 4.76689 6.31923 4.84932 6.38841L5.53326 6.96235C5.61589 7.03166 5.62664 7.15466 5.55739 7.23729C5.51876 7.28323 5.46339 7.30698 5.40776 7.30698Z" fill="#F2F2F2"/>
<path d="M27.2759 25.6571C27.2316 25.6571 27.1871 25.6421 27.1505 25.6115L26.4666 25.0375C26.3841 24.9682 26.3734 24.8452 26.4426 24.7626C26.5119 24.6799 26.6349 24.6693 26.7175 24.7385L27.4014 25.3125C27.4839 25.3818 27.4946 25.5048 27.4254 25.5874C27.3868 25.6334 27.3315 25.6571 27.2759 25.6571Z" fill="#F2F2F2"/>
<path d="M4.02534 9.28158C3.99228 9.28158 3.95871 9.27314 3.92796 9.25539L3.15472 8.80895C3.06134 8.75508 3.02947 8.63576 3.08328 8.54245C3.13722 8.4492 3.25622 8.41701 3.34984 8.47107L4.12309 8.91751C4.21646 8.97139 4.24834 9.0907 4.19453 9.18402C4.1584 9.24658 4.09284 9.28158 4.02534 9.28158Z" fill="#F2F2F2"/>
<path d="M28.7474 23.5551C28.7144 23.5551 28.6808 23.5467 28.6501 23.5289L27.8769 23.0825C27.7835 23.0286 27.7516 22.9093 27.8054 22.816C27.8593 22.7226 27.9786 22.6904 28.072 22.7446L28.8452 23.191C28.9386 23.2449 28.9704 23.3642 28.9166 23.4575C28.8804 23.5201 28.8149 23.5551 28.7474 23.5551Z" fill="#F2F2F2"/>
<path d="M3.00686 11.4662C2.98467 11.4662 2.96217 11.4624 2.94017 11.4544L2.10111 11.149C1.9998 11.1121 1.94761 11.0002 1.98449 10.8989C2.02124 10.7976 2.13349 10.7456 2.23449 10.7823L3.07355 11.0876C3.17486 11.1245 3.22705 11.2365 3.19017 11.3378C3.16136 11.417 3.08655 11.4662 3.00686 11.4662Z" fill="#F2F2F2"/>
<path d="M29.832 21.2299C29.8098 21.2299 29.7873 21.226 29.7652 21.218L28.9262 20.9127C28.825 20.8758 28.7728 20.7639 28.8097 20.6625C28.8464 20.5612 28.9584 20.5093 29.0598 20.5459L29.8988 20.8513C30 20.8882 30.0522 21.0001 30.0153 21.1014C29.9865 21.1807 29.9116 21.2299 29.832 21.2299Z" fill="#F2F2F2"/>
<path d="M2.38321 13.7944C2.37196 13.7944 2.36058 13.7934 2.34915 13.7914L1.46983 13.6363C1.36371 13.6175 1.2929 13.5164 1.31158 13.4103C1.33027 13.3042 1.43102 13.2334 1.53765 13.252L2.41696 13.407C2.52308 13.4258 2.5939 13.527 2.57521 13.633C2.55852 13.7277 2.47621 13.7944 2.38321 13.7944Z" fill="#F2F2F2"/>
<path d="M30.4964 18.7514C30.4852 18.7514 30.4738 18.7504 30.4624 18.7484L29.5831 18.5933C29.477 18.5746 29.4062 18.4734 29.4249 18.3673C29.4436 18.2613 29.5442 18.1904 29.6509 18.209L30.5303 18.3641C30.6364 18.3828 30.7072 18.484 30.6885 18.5901C30.6718 18.6848 30.5894 18.7514 30.4964 18.7514Z" fill="#F2F2F2"/>
<path d="M2.1729 16.1949H1.28009C1.17234 16.1949 1.08496 16.1076 1.08496 15.9998C1.08496 15.8921 1.17234 15.8047 1.28009 15.8047H2.1729C2.28065 15.8047 2.36802 15.8921 2.36802 15.9998C2.36802 16.1076 2.28065 16.1949 2.1729 16.1949Z" fill="#F2F2F2"/>
<path d="M30.7199 16.1949H29.827C29.7192 16.1949 29.6318 16.1076 29.6318 15.9998C29.6318 15.8921 29.7192 15.8047 29.827 15.8047H30.7199C30.8277 15.8047 30.915 15.8921 30.915 15.9998C30.915 16.1076 30.8277 16.1949 30.7199 16.1949Z" fill="#F2F2F2"/>
<path d="M1.50358 18.7514C1.41058 18.7514 1.32827 18.6848 1.31158 18.5901C1.2929 18.484 1.36371 18.3827 1.46983 18.3641L2.34915 18.209C2.45565 18.1905 2.55658 18.2611 2.57521 18.3673C2.5939 18.4734 2.52308 18.5747 2.41696 18.5933L1.53765 18.7484C1.52615 18.7504 1.51477 18.7514 1.50358 18.7514Z" fill="#F2F2F2"/>
<path d="M29.6164 13.7944C29.5234 13.7944 29.4411 13.7277 29.4244 13.633C29.4057 13.527 29.4765 13.4257 29.5826 13.407L30.4619 13.252C30.5682 13.2334 30.6694 13.3041 30.688 13.4103C30.7067 13.5164 30.6359 13.6177 30.5297 13.6363L29.6505 13.7914C29.639 13.7934 29.6276 13.7944 29.6164 13.7944Z" fill="#F2F2F2"/>
<path d="M2.16779 21.2294C2.08811 21.2294 2.01329 21.1801 1.98448 21.1009C1.94761 20.9996 1.99986 20.8877 2.10111 20.8508L2.94017 20.5454C3.04111 20.5088 3.15342 20.5608 3.19017 20.6621C3.22704 20.7634 3.17479 20.8753 3.07354 20.9122L2.23448 21.2176C2.21254 21.2256 2.19004 21.2294 2.16779 21.2294Z" fill="#F2F2F2"/>
<path d="M28.993 11.4662C28.9133 11.4662 28.8385 11.4169 28.8097 11.3378C28.7728 11.2364 28.8251 11.1245 28.9262 11.0876L29.7652 10.7823C29.8667 10.7456 29.9785 10.7976 30.0153 10.8989C30.0522 11.0002 29.9999 11.1121 29.8988 11.149L29.0598 11.4544C29.0376 11.4624 29.0152 11.4662 28.993 11.4662Z" fill="#F2F2F2"/>
<path d="M3.25247 23.5551C3.18503 23.5551 3.11947 23.5201 3.08328 23.4575C3.02947 23.3642 3.06134 23.2449 3.15472 23.191L3.92796 22.7446C4.0214 22.6904 4.14053 22.7226 4.19453 22.8159C4.24834 22.9092 4.21646 23.0286 4.12309 23.0824L3.34984 23.5289C3.31909 23.5467 3.28559 23.5551 3.25247 23.5551Z" fill="#F2F2F2"/>
<path d="M27.9746 9.28164C27.9072 9.28164 27.8416 9.24664 27.8054 9.18402C27.7516 9.0907 27.7835 8.97139 27.8769 8.91751L28.6501 8.47107C28.7433 8.41701 28.8626 8.4492 28.9166 8.54245C28.9704 8.63576 28.9386 8.75507 28.8452 8.80895L28.072 9.25539C28.0413 9.2732 28.0076 9.28164 27.9746 9.28164Z" fill="#F2F2F2"/>
<path d="M4.72355 25.6566C4.66792 25.6566 4.61255 25.6329 4.57399 25.5869C4.50467 25.5043 4.51549 25.3812 4.59811 25.3119L5.28205 24.738C5.36449 24.6688 5.48761 24.6795 5.55693 24.7621C5.62624 24.8446 5.61543 24.9677 5.5328 25.037L4.84886 25.6109C4.81236 25.6416 4.76786 25.6566 4.72355 25.6566Z" fill="#F2F2F2"/>
<path d="M26.5922 7.30744C26.5366 7.30744 26.4812 7.28376 26.4426 7.23776C26.3733 7.15519 26.3841 7.03219 26.4667 6.96282L27.1506 6.38888C27.2332 6.31969 27.3563 6.33038 27.4255 6.41294C27.4948 6.49551 27.484 6.61851 27.4015 6.68788L26.7176 7.26182C26.681 7.29244 26.6365 7.30744 26.5922 7.30744Z" fill="#F2F2F2"/>
<path d="M6.53779 27.4711C6.49354 27.4711 6.44898 27.4562 6.41254 27.4255C6.32991 27.3562 6.31916 27.2332 6.38841 27.1506L6.96235 26.4667C7.03172 26.3841 7.15485 26.3734 7.23722 26.4426C7.31985 26.5119 7.3306 26.6349 7.26135 26.7175L6.68741 27.4015C6.64879 27.4475 6.59341 27.4711 6.53779 27.4711Z" fill="#F2F2F2"/>
<path d="M24.8879 5.60299C24.8436 5.60299 24.7991 5.58805 24.7626 5.55736C24.68 5.48805 24.6693 5.36505 24.7385 5.28243L25.3124 4.59849C25.3817 4.51593 25.5049 4.50524 25.5873 4.57443C25.6699 4.64374 25.6806 4.7668 25.6114 4.84936L25.0376 5.5333C24.9989 5.5793 24.9436 5.60299 24.8879 5.60299Z" fill="#F2F2F2"/>
<path d="M8.63979 28.9429C8.60672 28.9429 8.57316 28.9345 8.54241 28.9167C8.44904 28.8628 8.41716 28.7435 8.47097 28.6502L8.91741 27.877C8.97135 27.7836 9.09035 27.7515 9.18398 27.8056C9.27735 27.8595 9.30922 27.9788 9.25541 28.0721L8.80897 28.8453C8.77279 28.9079 8.70722 28.9429 8.63979 28.9429Z" fill="#F2F2F2"/>
<path d="M22.9132 4.22076C22.8802 4.22076 22.8466 4.21232 22.8158 4.19457C22.7225 4.1407 22.6906 4.02138 22.7444 3.92807L23.1908 3.15482C23.2448 3.06151 23.3638 3.02926 23.4574 3.08345C23.5508 3.13732 23.5827 3.25663 23.5288 3.34995L23.0824 4.1232C23.0462 4.18576 22.9807 4.22076 22.9132 4.22076Z" fill="#F2F2F2"/>
<path d="M10.9657 30.0273C10.9435 30.0273 10.921 30.0234 10.899 30.0154C10.7977 29.9786 10.7455 29.8666 10.7823 29.7653L11.0877 28.9263C11.1246 28.8249 11.2366 28.7728 11.3377 28.8097C11.4391 28.8466 11.4912 28.9585 11.4544 29.0598L11.149 29.8988C11.1202 29.9781 11.0453 30.0273 10.9657 30.0273Z" fill="#F2F2F2"/>
<path d="M20.7293 3.20198C20.7071 3.20198 20.6846 3.19817 20.6626 3.19017C20.5613 3.1533 20.5091 3.04136 20.546 2.94005L20.8514 2.10105C20.8881 1.99967 21.0004 1.94773 21.1014 1.98442C21.2027 2.0213 21.2549 2.13323 21.2181 2.23455L20.9126 3.07355C20.8839 3.1528 20.809 3.20198 20.7293 3.20198Z" fill="#F2F2F2"/>
<path d="M13.4443 30.6914C13.4331 30.6914 13.4217 30.6904 13.4103 30.6884C13.3042 30.6697 13.2333 30.5686 13.252 30.4624L13.4071 29.5832C13.4258 29.4771 13.5265 29.4062 13.6331 29.4249C13.7392 29.4436 13.8101 29.5447 13.7914 29.6509L13.6363 30.5302C13.6196 30.6247 13.5373 30.6914 13.4443 30.6914Z" fill="#F2F2F2"/>
<path d="M18.4014 2.57812C18.3901 2.57812 18.3787 2.57712 18.3673 2.57512C18.2612 2.55637 18.1904 2.45525 18.209 2.34912L18.3641 1.46981C18.3828 1.36375 18.4836 1.29313 18.5902 1.3115C18.6962 1.33025 18.7671 1.43138 18.7484 1.5375L18.5934 2.41681C18.5766 2.51144 18.4944 2.57812 18.4014 2.57812Z" fill="#F2F2F2"/>
<path d="M14.9209 3.86393C14.8208 3.86393 14.7356 3.78737 14.7268 3.68587L14.5227 1.3533C14.5133 1.24593 14.5927 1.1513 14.7001 1.14193C14.8076 1.13212 14.9021 1.21199 14.9114 1.3193L15.1155 3.65187C15.1248 3.75924 15.0455 3.85387 14.9381 3.86324C14.9323 3.86368 14.9265 3.86393 14.9209 3.86393Z" fill="#F2F2F2"/>
<path d="M17.2827 30.859C17.1826 30.859 17.0974 30.7825 17.0886 30.681L16.8845 28.3484C16.8752 28.241 16.9545 28.1464 17.0619 28.137C17.17 28.1272 17.2638 28.2071 17.2732 28.3144L17.4773 30.647C17.4867 30.7544 17.4073 30.849 17.2999 30.8584C17.2942 30.8587 17.2884 30.859 17.2827 30.859Z" fill="#F2F2F2"/>
<path d="M12.7962 4.23856C12.71 4.23856 12.6312 4.18106 12.6079 4.09394L12.0018 1.83225C11.9739 1.72812 12.0356 1.62119 12.1398 1.59331C12.2438 1.56487 12.3509 1.62719 12.3787 1.73125L12.9848 3.99294C13.0126 4.09706 12.9509 4.204 12.8468 4.23188C12.8299 4.23644 12.8129 4.23856 12.7962 4.23856Z" fill="#F2F2F2"/>
<path d="M19.8098 30.4133C19.7236 30.4133 19.6448 30.3558 19.6215 30.2687L19.0155 28.007C18.9876 27.9029 19.0493 27.7959 19.1534 27.7681C19.2579 27.7398 19.3644 27.8019 19.3924 27.906L19.9984 30.1677C20.0262 30.2718 19.9645 30.3787 19.8604 30.4066C19.8434 30.4112 19.8265 30.4133 19.8098 30.4133Z" fill="#F2F2F2"/>
<path d="M10.7688 4.97625C10.6953 4.97625 10.6249 4.9345 10.5919 4.86356L9.6023 2.74143C9.5568 2.64381 9.59899 2.52768 9.69661 2.48218C9.79417 2.43668 9.91049 2.47887 9.95592 2.57656L10.9455 4.69868C10.991 4.79631 10.9488 4.91243 10.8512 4.95793C10.8245 4.97037 10.7964 4.97625 10.7688 4.97625Z" fill="#F2F2F2"/>
<path d="M22.2209 29.5358C22.1474 29.5358 22.077 29.4941 22.0439 29.4231L21.0544 27.301C21.0089 27.2034 21.0511 27.0872 21.1488 27.0417C21.2464 26.9962 21.3626 27.0385 21.4081 27.1361L22.3976 29.2582C22.4431 29.3559 22.4009 29.472 22.3033 29.5175C22.2766 29.5299 22.2485 29.5358 22.2209 29.5358Z" fill="#F2F2F2"/>
<path d="M8.90018 6.0554C8.83868 6.0554 8.77812 6.0264 8.74012 5.97221L7.39705 4.05415C7.33537 3.96584 7.35674 3.84421 7.44499 3.7824C7.53362 3.72046 7.65505 3.74215 7.7168 3.83034L9.05987 5.7484C9.12156 5.83671 9.10018 5.95833 9.01193 6.02015C8.97781 6.04396 8.93874 6.0554 8.90018 6.0554Z" fill="#F2F2F2"/>
<path d="M24.4431 28.2527C24.3816 28.2527 24.321 28.2237 24.283 28.1695L22.94 26.2514C22.8783 26.1631 22.8997 26.0415 22.988 25.9797C23.0766 25.9177 23.198 25.9394 23.2598 26.0276L24.6027 27.9457C24.6644 28.034 24.643 28.1556 24.5548 28.2174C24.5207 28.2412 24.4816 28.2527 24.4431 28.2527Z" fill="#F2F2F2"/>
<path d="M7.24676 7.44195C7.19689 7.44195 7.14689 7.42288 7.10882 7.38482L5.45314 5.72907C5.37695 5.65295 5.37695 5.52932 5.45314 5.45314C5.52932 5.37695 5.65282 5.37695 5.72907 5.45314L7.38476 7.10882C7.46095 7.18495 7.46095 7.30857 7.38476 7.38476C7.34664 7.42282 7.29676 7.44195 7.24676 7.44195Z" fill="#F2F2F2"/>
<path d="M26.4084 26.6035C26.3585 26.6035 26.3085 26.5844 26.2704 26.5464L24.6148 24.8907C24.5386 24.8146 24.5386 24.6909 24.6148 24.6148C24.6909 24.5386 24.8144 24.5386 24.8907 24.6148L26.5464 26.2704C26.6226 26.3466 26.6226 26.4702 26.5464 26.5464C26.5083 26.5844 26.4583 26.6035 26.4084 26.6035Z" fill="#F2F2F2"/>
<path d="M5.85999 9.09512C5.82137 9.09512 5.78237 9.08368 5.74824 9.05981L3.83024 7.71681C3.742 7.65506 3.72062 7.53337 3.78231 7.44506C3.84424 7.35675 3.96568 7.33531 4.05412 7.39713L5.97212 8.74006C6.06037 8.80181 6.08174 8.9235 6.02005 9.01181C5.98205 9.06606 5.92149 9.09512 5.85999 9.09512Z" fill="#F2F2F2"/>
<path d="M28.0573 24.638C28.0187 24.638 27.9797 24.6266 27.9456 24.6027L26.0275 23.2597C25.9393 23.198 25.9179 23.0763 25.9796 22.988C26.0415 22.8998 26.1629 22.8782 26.2514 22.9401L28.1694 24.2831C28.2577 24.3448 28.2791 24.4665 28.2174 24.5548C28.1794 24.6089 28.1188 24.638 28.0573 24.638Z" fill="#F2F2F2"/>
<path d="M4.78148 10.9638C4.75386 10.9638 4.72586 10.9579 4.69917 10.9454L2.57711 9.95589C2.47936 9.91039 2.43717 9.79426 2.48267 9.69664C2.52817 9.59901 2.64436 9.55682 2.74192 9.60226L4.86405 10.5918C4.9618 10.6373 5.00398 10.7534 4.95848 10.851C4.92536 10.922 4.85498 10.9638 4.78148 10.9638Z" fill="#F2F2F2"/>
<path d="M29.3406 22.4159C29.313 22.4159 29.2849 22.4101 29.2582 22.3976L27.1361 21.4081C27.0385 21.3626 26.9962 21.2464 27.0418 21.1488C27.0873 21.0512 27.2035 21.0089 27.3011 21.0544L29.4232 22.0439C29.5208 22.0894 29.563 22.2056 29.5175 22.3032C29.4845 22.3742 29.414 22.4159 29.3406 22.4159Z" fill="#F2F2F2"/>
<path d="M4.04346 12.9915C4.02683 12.9915 4.00984 12.9894 3.99284 12.9848L1.73109 12.3788C1.6269 12.3509 1.56521 12.2439 1.59315 12.1399C1.62096 12.0358 1.72777 11.9737 1.83209 12.0019L4.09383 12.6079C4.19802 12.6358 4.25971 12.7428 4.23177 12.8469C4.2084 12.934 4.12952 12.9915 4.04346 12.9915Z" fill="#F2F2F2"/>
<path d="M30.2183 20.0048C30.2016 20.0048 30.1846 20.0026 30.1676 19.998L27.9059 19.3919C27.8017 19.3641 27.74 19.2571 27.768 19.153C27.7958 19.0489 27.9026 18.987 28.0069 19.0151L30.2686 19.6211C30.3728 19.649 30.4345 19.756 30.4066 19.8601C30.3833 19.9473 30.3044 20.0048 30.2183 20.0048Z" fill="#F2F2F2"/>
<path d="M3.6685 15.1164C3.66275 15.1164 3.65706 15.1161 3.65125 15.1156L1.31869 14.9115C1.21138 14.9021 1.132 14.8076 1.14138 14.7001C1.15069 14.5928 1.24563 14.5131 1.35275 14.5228L3.68531 14.7268C3.79263 14.7362 3.872 14.8308 3.86263 14.9382C3.85388 15.0398 3.76869 15.1164 3.6685 15.1164Z" fill="#F2F2F2"/>
<path d="M30.6642 17.4782C30.6586 17.4782 30.6527 17.4779 30.647 17.4774L28.3144 17.2733C28.207 17.2639 28.1276 17.1694 28.137 17.0619C28.1464 16.9546 28.2402 16.8751 28.3483 16.8845L30.6809 17.0886C30.7883 17.098 30.8677 17.1925 30.8583 17.3C30.8494 17.4017 30.7642 17.4782 30.6642 17.4782Z" fill="#F2F2F2"/>
<path d="M1.33599 17.478C1.23587 17.478 1.15068 17.4015 1.14187 17.3C1.13249 17.1926 1.21187 17.098 1.31918 17.0886L3.65174 16.8845C3.7608 16.8752 3.8538 16.9547 3.86312 17.0619C3.87249 17.1693 3.79312 17.2639 3.6858 17.2733L1.35324 17.4773C1.34743 17.4778 1.34162 17.478 1.33599 17.478Z" fill="#F2F2F2"/>
<path d="M28.3311 15.1163C28.231 15.1163 28.1458 15.0398 28.137 14.9383C28.1276 14.8309 28.207 14.7363 28.3144 14.7269L30.647 14.5228C30.755 14.5127 30.8489 14.593 30.8583 14.7002C30.8677 14.8076 30.7883 14.9022 30.6809 14.9116L28.3483 15.1156C28.3425 15.1161 28.3367 15.1163 28.3311 15.1163Z" fill="#F2F2F2"/>
<path d="M1.78143 20.0053C1.69525 20.0053 1.61643 19.9478 1.59312 19.8606C1.56525 19.7565 1.62693 19.6496 1.73106 19.6217L3.99281 19.0156C4.09662 18.9873 4.20381 19.0495 4.23174 19.1536C4.25962 19.2577 4.19793 19.3646 4.09381 19.3925L1.83206 19.9986C1.81518 20.0031 1.79806 20.0053 1.78143 20.0053Z" fill="#F2F2F2"/>
<path d="M27.9567 12.9915C27.8705 12.9915 27.7917 12.934 27.7684 12.8469C27.7405 12.7427 27.8022 12.6358 27.9064 12.6079L30.1681 12.0019C30.2721 11.9737 30.3791 12.0358 30.407 12.1399C30.4349 12.244 30.3732 12.3509 30.2691 12.3788L28.0074 12.9848C27.9904 12.9893 27.9734 12.9915 27.9567 12.9915Z" fill="#F2F2F2"/>
<path d="M2.65912 22.4159C2.58562 22.4159 2.51524 22.3742 2.48218 22.3032C2.43668 22.2056 2.47887 22.0894 2.57662 22.0439L4.69874 21.0544C4.79593 21.0089 4.91243 21.0512 4.95799 21.1488C5.00355 21.2464 4.9613 21.3626 4.86355 21.4081L2.74143 22.3976C2.71487 22.41 2.68674 22.4159 2.65912 22.4159Z" fill="#F2F2F2"/>
<path d="M27.2187 10.9642C27.1452 10.9642 27.0748 10.9224 27.0418 10.8515C26.9963 10.7539 27.0384 10.6378 27.1361 10.5923L29.2581 9.60275C29.3557 9.55731 29.4719 9.5995 29.5174 9.69712C29.5629 9.79475 29.5207 9.91088 29.4231 9.95638L27.3011 10.9459C27.2744 10.9583 27.2464 10.9642 27.2187 10.9642Z" fill="#F2F2F2"/>
<path d="M3.94237 24.638C3.88087 24.638 3.82031 24.609 3.78231 24.5549C3.72062 24.4665 3.742 24.3449 3.83024 24.2831L5.74824 22.9401C5.83687 22.8782 5.9583 22.8999 6.02005 22.9881C6.08174 23.0764 6.06037 23.198 5.97212 23.2598L4.05412 24.6027C4.02006 24.6265 3.98099 24.638 3.94237 24.638Z" fill="#F2F2F2"/>
<path d="M26.1396 9.09502C26.0781 9.09502 26.0176 9.06602 25.9796 9.01183C25.9179 8.92352 25.9393 8.80189 26.0275 8.74008L27.9456 7.39715C28.0342 7.33521 28.1555 7.3569 28.2174 7.44508C28.2791 7.5334 28.2577 7.65502 28.1694 7.71683L26.2514 9.05977C26.2173 9.08352 26.1783 9.09502 26.1396 9.09502Z" fill="#F2F2F2"/>
<path d="M5.59156 26.6035C5.54169 26.6035 5.49169 26.5844 5.45363 26.5464C5.37744 26.4703 5.37744 26.3466 5.45363 26.2704L7.10931 24.6148C7.1855 24.5386 7.309 24.5386 7.38525 24.6148C7.46144 24.6909 7.46144 24.8145 7.38525 24.8907L5.72956 26.5464C5.69144 26.5844 5.64144 26.6035 5.59156 26.6035Z" fill="#F2F2F2"/>
<path d="M24.7527 7.44237C24.7028 7.44237 24.6528 7.42331 24.6148 7.38525C24.5386 7.30912 24.5386 7.1855 24.6148 7.10931L26.2704 5.45362C26.3466 5.37744 26.4701 5.37744 26.5464 5.45362C26.6226 5.52975 26.6226 5.65337 26.5464 5.72956L24.8907 7.38525C24.8524 7.42325 24.8026 7.44237 24.7527 7.44237Z" fill="#F2F2F2"/>
<path d="M7.55674 28.2532C7.51812 28.2532 7.47912 28.2417 7.44499 28.2179C7.35674 28.1561 7.33537 28.0344 7.39705 27.9461L8.74012 26.028C8.80206 25.9398 8.92349 25.9183 9.01193 25.9801C9.10018 26.0418 9.12156 26.1635 9.05987 26.2518L7.7168 28.1699C7.67874 28.2242 7.6183 28.2532 7.55674 28.2532Z" fill="#F2F2F2"/>
<path d="M23.0997 6.05544C23.0611 6.05544 23.0221 6.044 22.988 6.02013C22.8997 5.95838 22.8783 5.83669 22.94 5.74838L24.283 3.83032C24.3449 3.742 24.4665 3.72057 24.5548 3.78238C24.6431 3.84413 24.6644 3.96582 24.6028 4.05413L23.2598 5.97219C23.2218 6.02644 23.1613 6.05544 23.0997 6.05544Z" fill="#F2F2F2"/>
<path d="M9.77908 29.5359C9.75145 29.5359 9.72339 29.53 9.69664 29.5175C9.59901 29.472 9.55676 29.3559 9.60233 29.2582L10.5919 27.1361C10.6373 27.0385 10.7536 26.9962 10.8512 27.0417C10.9488 27.0872 10.9911 27.2034 10.9455 27.301L9.95595 29.4231C9.92295 29.4941 9.85258 29.5359 9.77908 29.5359Z" fill="#F2F2F2"/>
<path d="M21.2312 4.97631C21.2036 4.97631 21.1755 4.97043 21.1488 4.95793C21.0512 4.91243 21.0089 4.79631 21.0545 4.69868L22.044 2.57656C22.0894 2.47887 22.2057 2.43668 22.3033 2.48218C22.4009 2.52768 22.4432 2.64381 22.3976 2.74143L21.4081 4.86356C21.375 4.93462 21.3046 4.97631 21.2312 4.97631Z" fill="#F2F2F2"/>
<path d="M12.1904 30.4133C12.1738 30.4133 12.1567 30.4112 12.1398 30.4066C12.0356 30.3787 11.9739 30.2717 12.0018 30.1677L12.6079 27.906C12.6358 27.802 12.7429 27.7398 12.8468 27.768C12.951 27.7959 13.0127 27.9029 12.9848 28.007L12.3787 30.2687C12.3554 30.3559 12.2765 30.4133 12.1904 30.4133Z" fill="#F2F2F2"/>
<path d="M19.2041 4.2386C19.1874 4.2386 19.1704 4.23648 19.1534 4.23185C19.0493 4.20398 18.9876 4.09698 19.0155 3.99292L19.6215 1.73123C19.6494 1.62716 19.756 1.56491 19.8605 1.59329C19.9646 1.62116 20.0263 1.72816 19.9984 1.83223L19.3924 4.09392C19.3691 4.18104 19.2902 4.2386 19.2041 4.2386Z" fill="#F2F2F2"/>
<path d="M14.7173 30.8592C14.7117 30.8592 14.7059 30.8589 14.7001 30.8583C14.5927 30.849 14.5133 30.7543 14.5227 30.647L14.7268 28.3144C14.7361 28.2071 14.8307 28.1272 14.9381 28.137C15.0455 28.1464 15.1249 28.241 15.1155 28.3484L14.9114 30.681C14.9025 30.7826 14.8174 30.8592 14.7173 30.8592Z" fill="#F2F2F2"/>
<path d="M17.0791 3.86357C17.0735 3.86357 17.0677 3.86332 17.0619 3.86276C16.9546 3.85339 16.8751 3.75883 16.8846 3.65139L17.0886 1.31882C17.0979 1.21151 17.1915 1.13158 17.2999 1.14145C17.4073 1.15083 17.4867 1.24539 17.4773 1.35283L17.2732 3.68539C17.2644 3.78708 17.1793 3.86357 17.0791 3.86357Z" fill="#F2F2F2"/>
<path d="M17.9326 17.9326L26.5544 5.44482L14.0666 14.0666L5.44482 26.5544L17.9326 17.9326Z" fill="#F2F2F2"/>
<path d="M17.9331 17.9331L26.5549 5.44531L5.44531 26.5549L17.9331 17.9331Z" fill="#CCCCCC"/>
<path d="M17.9334 17.9331L26.5552 5.44531L14.0674 14.0671L17.9334 17.9331Z" fill="#FF525D"/>
<path d="M17.933 17.9331L26.5548 5.44531L16 16.0001L17.933 17.9331Z" fill="#EF4152"/>
 
<metadata><rdf:RDF xmlns:rdf="http://www.w3.org/1999/02/22-rdf-syntax-ns#" xmlns:schema="http://schema.org/">
 <rdf:Description rdf:about='' xmlns:tiff="http://ns.adobe.com/tiff/1.0/">
  <tiff:Copyright>
   <rdf:Alt>
    <rdf:li xml:lang="x-default">© Copyright 2022 Corefy, Inc. All rights reserved.</rdf:li>
   </rdf:Alt>
  </tiff:Copyright>
 </rdf:Description>
</rdf:RDF></metadata></svg>
