<svg width="62" height="72" viewBox="0 0 62 72" fill="none" xmlns="http://www.w3.org/2000/svg">
<path d="M62 30.8571C62 53.0419 33.5833 72 31 72C28.4167 72 0 53.0419 0 30.8571C0 13.8152 13.8792 0 31 0C48.1208 0 62 13.8152 62 30.8571Z" fill="#1DBF57"/>
<ellipse cx="31" cy="30.8571" rx="31" ry="30.8571" fill="#1DBF57"/>
<path d="M13.7493 25.6582H7.14159V27.8533H11.4838C11.767 27.8533 11.9558 28.0972 11.9558 28.3411V32.1948H11.0118C10.7286 32.1948 10.5398 31.9509 10.5398 31.707V28.9265H8.69912C7.75516 28.9265 7 29.707 7 30.6826V32.6338C7 33.6094 7.75516 34.3899 8.69912 34.3899H15.4484V27.4143C15.4484 26.4387 14.6932 25.6582 13.7493 25.6582Z" fill="white"/>
<path d="M21.82 32.1951H20.8761C20.5929 32.1951 20.4041 31.9512 20.4041 31.7073V25.6585H18.5634C17.6194 25.6585 16.8643 26.439 16.8643 27.4146V32.6342C16.8643 33.6098 17.6194 34.3903 18.5634 34.3903H25.3126V22H21.7728L21.82 32.1951Z" fill="white"/>
<path d="M31.6843 32.1948H30.7403C30.4571 32.1948 30.2683 31.9509 30.2683 31.707V25.6582H26.7285V32.6338C26.7285 33.6094 27.4837 34.3899 28.4276 34.3899H31.6843V35.4631H26.8701V37.9997H33.525C34.4689 37.9997 35.2241 37.2192 35.2241 36.2436V25.6582H31.6843V32.1948Z" fill="white"/>
<path d="M43.3892 25.6582H36.5928V32.6338C36.5928 33.6094 37.3479 34.3899 38.2919 34.3899H44.9468V32.1948H40.6046C40.3214 32.1948 40.1326 31.9509 40.1326 31.707V27.8533H41.0766C41.3597 27.8533 41.5485 28.0972 41.5485 28.3411V31.1216H43.3892C44.3332 31.1216 45.0884 30.3411 45.0884 29.3655V27.4143C45.0884 26.4387 44.3332 25.6582 43.3892 25.6582Z" fill="white"/>
<path d="M53.2537 25.6582H46.5044V34.3899H50.0442V27.8533H50.9882C51.2714 27.8533 51.4602 28.0972 51.4602 28.3411V34.3899H55V27.4143C54.9528 26.4387 54.1976 25.6582 53.2537 25.6582Z" fill="white"/>
 
<metadata><rdf:RDF xmlns:rdf="http://www.w3.org/1999/02/22-rdf-syntax-ns#" xmlns:schema="http://schema.org/">
 <rdf:Description rdf:about='' xmlns:tiff="http://ns.adobe.com/tiff/1.0/">
  <tiff:Copyright>
   <rdf:Alt>
    <rdf:li xml:lang="x-default">© Copyright 2022 payhive, Inc. All rights reserved.</rdf:li>
   </rdf:Alt>
  </tiff:Copyright>
 </rdf:Description>
</rdf:RDF></metadata></svg>
