<svg width="62" height="72" viewBox="0 0 62 72" fill="none" xmlns="http://www.w3.org/2000/svg">
<path d="M62 30.8571C62 53.0419 33.5833 72 31 72C28.4167 72 0 53.0419 0 30.8571C0 13.8152 13.8792 0 31 0C48.1208 0 62 13.8152 62 30.8571Z" fill="#00A1E9"/>
<ellipse cx="31" cy="30.8571" rx="31" ry="30.8571" fill="#00A1E9"/>
<path d="M21.3438 16.7139C18.8275 16.7139 16.7917 18.7421 16.7917 21.246V40.4683C16.7917 42.9702 18.8275 44.9996 21.3438 44.9996H40.6572C43.1715 44.9996 45.2081 42.9703 45.2081 40.4683V40.2716C45.1235 40.2365 37.823 37.2054 34.1123 35.4293C31.609 38.4959 28.38 40.3563 25.0274 40.3563C19.3583 40.3563 17.4332 35.4176 20.1175 32.1665C20.7028 31.4579 21.6984 30.7808 23.2437 30.4018C25.661 29.8105 29.5081 30.7709 33.1139 31.9553C33.7625 30.766 34.3081 29.4562 34.7145 28.0616H23.6028V26.9413H29.3325V24.9327H22.3928V23.8116H29.3325V20.9463C29.3325 20.9463 29.3325 20.4636 29.8238 20.4636H32.6248V23.8116H39.4852V24.9327H32.6248V26.9413H38.2247C37.6888 29.1265 36.8752 31.1379 35.8539 32.9036C37.5534 33.5156 39.079 34.096 40.216 34.475C44.0084 35.7382 45.0712 35.8925 45.2084 35.9086V21.2461C45.2084 18.7422 43.1717 16.714 40.6575 16.714H21.3441L21.3438 16.7139ZM24.46 32.0392C24.2166 32.042 23.9722 32.0552 23.7259 32.0794C23.016 32.1504 21.6832 32.4623 20.9545 33.1038C18.7705 34.9998 20.0777 38.466 24.4981 38.466C27.0678 38.466 29.6353 36.8307 31.6522 34.2122C29.0519 32.9493 26.8122 32.012 24.4599 32.0392L24.46 32.0392Z" fill="white"/>
 
<metadata><rdf:RDF xmlns:rdf="http://www.w3.org/1999/02/22-rdf-syntax-ns#" xmlns:schema="http://schema.org/">
 <rdf:Description rdf:about='' xmlns:tiff="http://ns.adobe.com/tiff/1.0/">
  <tiff:Copyright>
   <rdf:Alt>
    <rdf:li xml:lang="x-default">© Copyright 2022 payhive, Inc. All rights reserved.</rdf:li>
   </rdf:Alt>
  </tiff:Copyright>
 </rdf:Description>
</rdf:RDF></metadata></svg>
