<svg width="62" height="72" viewBox="0 0 62 72" fill="none" xmlns="http://www.w3.org/2000/svg">
<path d="M62 30.8571C62 53.0419 33.5833 72 31 72C28.4167 72 0 53.0419 0 30.8571C0 13.8152 13.8792 0 31 0C48.1208 0 62 13.8152 62 30.8571Z" fill="#83BA3B"/>
<ellipse cx="31" cy="30.8571" rx="31" ry="30.8571" fill="#83BA3B"/>
<path d="M54.6448 27.5864C54.0193 27.1966 53.0726 27.0001 51.8318 27.0001H48.5821L47.374 32.9652H43.1168L43.3904 31.6118H45.9549L46.2588 30.0918L43.6958 30.0952L43.9702 28.7478H46.6117L46.9631 27.0004H41.5988L40.4519 32.6587H38.4833L39.638 27.0001H36.8338L35.6869 32.6584H33.7692L34.925 27.0001H32.1223L30.9127 32.9652H26.6249L26.896 31.6119H29.4707L29.775 30.1005L27.2027 30.0981L27.4756 28.7481H30.1467L30.4959 27H13.7797L12.8282 31.7269L10.9335 27H8.0241L6.45825 34.7143H9.23671L10.1845 29.857L12.0232 34.7143H21.9809L23.1916 28.7474H24.749L23.5383 34.7143H49.7391L50.4988 30.9478L51.7276 34.7143H54.5075L53.2341 31.6366L53.5255 31.5796C54.1671 31.4545 54.6676 31.1858 55.0161 30.783C55.3642 30.3765 55.5416 29.8546 55.5416 29.2277C55.5416 28.4978 55.248 27.9609 54.644 27.5859L54.6448 27.5864ZM19.5631 32.9652H15.31L15.5847 31.6118H18.2524L18.5548 30.0875H15.9128L16.1673 28.7482H20.4141L19.5623 32.9652L19.5631 32.9652ZM52.3542 30.3668C52.0747 30.5445 51.6694 30.6311 51.1151 30.6311H50.5656L50.9871 28.5609H51.3913C51.8515 28.5609 52.1871 28.628 52.4187 28.7648C52.5994 28.8722 52.8144 29.0845 52.8144 29.486C52.8138 29.9716 52.5636 30.2326 52.3534 30.3667L52.3542 30.3668Z" fill="white"/>
 
<metadata><rdf:RDF xmlns:rdf="http://www.w3.org/1999/02/22-rdf-syntax-ns#" xmlns:schema="http://schema.org/">
 <rdf:Description rdf:about='' xmlns:tiff="http://ns.adobe.com/tiff/1.0/">
  <tiff:Copyright>
   <rdf:Alt>
    <rdf:li xml:lang="x-default">© Copyright 2022 payhive, Inc. All rights reserved.</rdf:li>
   </rdf:Alt>
  </tiff:Copyright>
 </rdf:Description>
</rdf:RDF></metadata></svg>
