<svg width="62" height="72" viewBox="0 0 62 72" fill="none" xmlns="http://www.w3.org/2000/svg">
<path d="M62 30.8571C62 53.0419 33.5833 72 31 72C28.4167 72 0 53.0419 0 30.8571C0 13.8152 13.8792 0 31 0C48.1208 0 62 13.8152 62 30.8571Z" fill="#003087"/>
<ellipse cx="31" cy="30.8571" rx="31" ry="30.8571" fill="#003087"/>
<path d="M39.1698 18.7498C37.8995 17.3248 35.6033 16.7139 32.6657 16.7139H24.14C23.8493 16.7139 23.5682 16.8159 23.3472 17.0017C23.1262 17.1874 22.9797 17.4447 22.9342 17.7272L19.3842 39.8856C19.3137 40.3226 19.6574 40.7182 20.1074 40.7182H25.3709L26.6928 32.4664L26.6518 32.7248C26.7459 32.1415 27.2528 31.7113 27.853 31.7113H30.3542C35.2678 31.7113 39.1152 29.7471 40.2391 24.0651C40.2725 23.897 40.3014 23.7335 40.3263 23.5737C40.1845 23.4997 40.1845 23.4997 40.3263 23.5737C40.661 21.4735 40.3241 20.044 39.1698 18.7498Z" fill="#27346A"/>
<path d="M28.7068 22.8171C28.8507 22.7497 29.0081 22.7148 29.1674 22.7148H35.8514C36.6429 22.7148 37.3812 22.7655 38.0558 22.8724C38.2446 22.902 38.4324 22.9374 38.6189 22.9785C38.8833 23.0359 39.1447 23.1062 39.402 23.189C39.7337 23.298 40.0425 23.425 40.3264 23.5737C40.661 21.4727 40.3241 20.044 39.1698 18.7498C37.8988 17.3248 35.6033 16.7139 32.6657 16.7139H24.1393C23.5389 16.7139 23.0282 17.144 22.9342 17.7272L19.3842 39.8848C19.3137 40.3225 19.6574 40.7176 20.1067 40.7176H25.3709L28.1134 23.6013C28.1404 23.4331 28.2085 23.2738 28.3118 23.1372C28.4152 23.0006 28.5507 22.8908 28.7068 22.8171Z" fill="white"/>
<path opacity="0.4" d="M40.2402 24.0651C39.1164 29.7464 35.269 31.7114 30.3554 31.7114H27.8535C27.2532 31.7114 26.7463 32.1416 26.653 32.7249L25.0085 42.985C24.947 43.3674 25.2475 43.714 25.6406 43.714H30.0776C30.3318 43.7139 30.5776 43.6246 30.7708 43.4621C30.964 43.2996 31.092 43.0746 31.1317 42.8275L31.1749 42.605L32.0112 37.3889L32.0651 37.1006C32.1048 36.8536 32.2328 36.6286 32.426 36.4661C32.6192 36.3036 32.865 36.2142 33.1191 36.2142H33.7832C38.0813 36.2142 41.4468 34.4956 42.4303 29.5254C42.8408 27.4483 42.6284 25.7141 41.5424 24.4961C41.2131 24.1271 40.804 23.8224 40.3275 23.5737C40.3017 23.7343 40.2737 23.8971 40.2402 24.0651Z" fill="white"/>
<path opacity="0.7" d="M39.1495 23.1127C38.9743 23.0624 38.7974 23.0178 38.6191 22.979C38.4325 22.9386 38.2447 22.9035 38.056 22.8737C37.3806 22.7661 36.6429 22.7153 35.8507 22.7153H29.1675C29.008 22.715 28.8505 22.7502 28.7069 22.8184C28.5507 22.8918 28.415 23.0016 28.3115 23.1382C28.2081 23.2749 28.1401 23.4343 28.1134 23.6026L26.6929 32.467L26.6519 32.7254C26.7453 32.1421 27.2522 31.7119 27.8525 31.7119H30.3544C35.268 31.7119 39.1153 29.7477 40.2392 24.0657C40.2726 23.8976 40.3007 23.7348 40.3265 23.5742C40.0419 23.4264 39.7339 23.2986 39.4021 23.1903C39.3184 23.163 39.2342 23.1371 39.1496 23.1127" fill="white"/>
 
<metadata><rdf:RDF xmlns:rdf="http://www.w3.org/1999/02/22-rdf-syntax-ns#" xmlns:schema="http://schema.org/">
 <rdf:Description rdf:about='' xmlns:tiff="http://ns.adobe.com/tiff/1.0/">
  <tiff:Copyright>
   <rdf:Alt>
    <rdf:li xml:lang="x-default">© Copyright 2022 payhive, Inc. All rights reserved.</rdf:li>
   </rdf:Alt>
  </tiff:Copyright>
 </rdf:Description>
</rdf:RDF></metadata></svg>
