<svg width="62" height="72" viewBox="0 0 62 72" fill="none" xmlns="http://www.w3.org/2000/svg">
<path d="M62 30.8571C62 53.0419 33.5833 72 31 72C28.4167 72 0 53.0419 0 30.8571C0 13.8152 13.8792 0 31 0C48.1208 0 62 13.8152 62 30.8571Z" fill="#645DFC"/>
<circle cx="31" cy="31" r="31" fill="#645DFC"/>
<path fill-rule="evenodd" clip-rule="evenodd" d="M52.3681 31.3187C52.3681 28.2836 50.8999 25.8887 48.0938 25.8887C45.2758 25.8887 43.5708 28.2836 43.5708 31.295C43.5708 34.8636 45.5836 36.6658 48.4726 36.6658C49.8816 36.6658 50.9472 36.3456 51.7524 35.8951V33.5239C50.9472 33.927 50.0237 34.176 48.8515 34.176C47.703 34.176 46.6848 33.7729 46.5545 32.3739H52.3444C52.3444 32.2198 52.3681 31.6033 52.3681 31.3187ZM46.519 30.1924C46.519 28.8527 47.336 28.2954 48.0819 28.2954C48.8042 28.2954 49.5738 28.8527 49.5738 30.1924H46.519Z" fill="white"/>
<path fill-rule="evenodd" clip-rule="evenodd" d="M38.9999 25.8887C37.8395 25.8887 37.0936 26.434 36.6792 26.8134L36.5253 26.0784H33.9204V39.9024L36.8805 39.2741L36.8923 35.9188C37.3185 36.2271 37.9461 36.6658 38.988 36.6658C41.1074 36.6658 43.0374 34.9585 43.0374 31.2002C43.0255 27.7619 41.0719 25.8887 38.9999 25.8887ZM38.2894 34.0574C37.5909 34.0574 37.1765 33.8085 36.8923 33.5002L36.8805 29.1016C37.1883 28.7578 37.6146 28.5207 38.2894 28.5207C39.3669 28.5207 40.1128 29.73 40.1128 31.2831C40.1128 32.8718 39.3787 34.0574 38.2894 34.0574Z" fill="white"/>
<path fill-rule="evenodd" clip-rule="evenodd" d="M32.8191 24.5493V22.1426L29.8472 22.7709V25.1896L32.8191 24.5493Z" fill="white"/>
<path d="M32.8191 26.0903H29.8472V36.4643H32.8191V26.0903Z" fill="white"/>
<path fill-rule="evenodd" clip-rule="evenodd" d="M26.6625 26.9677L26.473 26.0903H23.9155V36.4643H26.8756V29.4337C27.5741 28.5208 28.7582 28.6868 29.1252 28.8172V26.0903C28.7463 25.9481 27.361 25.6872 26.6625 26.9677Z" fill="white"/>
<path fill-rule="evenodd" clip-rule="evenodd" d="M20.7424 23.5181L17.8534 24.1346L17.8416 33.6312C17.8416 35.3859 19.1558 36.6782 20.9082 36.6782C21.8791 36.6782 22.5895 36.5004 22.9802 36.287V33.8802C22.6013 34.0343 20.7306 34.5797 20.7306 32.825V28.6161H22.9802V26.0908H20.7306L20.7424 23.5181Z" fill="white"/>
<path fill-rule="evenodd" clip-rule="evenodd" d="M12.7385 29.1016C12.7385 28.6393 13.1174 28.4614 13.7449 28.4614C14.6448 28.4614 15.7814 28.7341 16.6813 29.2202V26.434C15.6985 26.0428 14.7276 25.8887 13.7449 25.8887C11.3413 25.8887 9.74292 27.1454 9.74292 29.2439C9.74292 32.5162 14.2422 31.9945 14.2422 33.4054C14.2422 33.9507 13.7686 34.1286 13.1055 34.1286C12.1228 34.1286 10.8677 33.7255 9.87316 33.1801V36.0018C10.9743 36.4761 12.0873 36.6776 13.1055 36.6776C15.5683 36.6776 17.2614 35.4564 17.2614 33.3342C17.2496 29.8011 12.7385 30.4295 12.7385 29.1016Z" fill="white"/>
 
<metadata><rdf:RDF xmlns:rdf="http://www.w3.org/1999/02/22-rdf-syntax-ns#" xmlns:schema="http://schema.org/">
 <rdf:Description rdf:about='' xmlns:tiff="http://ns.adobe.com/tiff/1.0/">
  <tiff:Copyright>
   <rdf:Alt>
    <rdf:li xml:lang="x-default">© Copyright 2022 payhive, Inc. All rights reserved.</rdf:li>
   </rdf:Alt>
  </tiff:Copyright>
 </rdf:Description>
</rdf:RDF></metadata></svg>
