<svg width="62" height="72" viewBox="0 0 62 72" fill="none" xmlns="http://www.w3.org/2000/svg">
<path d="M62 30.8571C62 53.0419 33.5833 72 31 72C28.4167 72 0 53.0419 0 30.8571C0 13.8152 13.8792 0 31 0C48.1208 0 62 13.8152 62 30.8571Z" fill="#53AE94"/>
<circle cx="31" cy="31" r="31" fill="#53AE94"/>
<path d="M31.0004 12.3999C41.2724 12.3999 49.6004 20.7279 49.6004 30.9999C49.6004 41.2719 41.2721 49.5999 31.0004 49.5999C20.7287 49.5999 12.4004 41.2742 12.4004 30.9999C12.4004 20.7256 20.7272 12.3999 31.0004 12.3999Z" fill="#53AE94"/>
<path d="M33.2964 28.5219V25.7549H39.6237V21.5391H22.3942V25.7549H28.7222V28.5196C23.5793 28.7559 19.7124 29.7744 19.7124 30.9946C19.7124 32.2147 23.5812 33.2333 28.7222 33.471V42.3339H33.2978V33.4702C38.4314 33.2333 42.2906 32.2155 42.2906 30.9964C42.2906 29.7774 38.4314 28.7596 33.2978 28.5226L33.2964 28.5219ZM33.2978 32.7195V32.7173C33.1688 32.7255 32.5055 32.7653 31.0286 32.7653C29.8479 32.7653 29.0172 32.7318 28.7245 32.7165V32.7203C24.1809 32.519 20.7893 31.7278 20.7893 30.781C20.7893 29.8343 24.1812 29.0442 28.7245 28.8425V31.932C29.0221 31.9525 29.8732 32.0027 31.048 32.0027C32.459 32.0027 33.1684 31.9439 33.2986 31.932V28.8425C37.8333 29.0445 41.217 29.8365 41.217 30.7799C41.217 31.7233 37.8318 32.5157 33.2986 32.7177" fill="white"/>
 
<metadata><rdf:RDF xmlns:rdf="http://www.w3.org/1999/02/22-rdf-syntax-ns#" xmlns:schema="http://schema.org/">
 <rdf:Description rdf:about='' xmlns:tiff="http://ns.adobe.com/tiff/1.0/">
  <tiff:Copyright>
   <rdf:Alt>
    <rdf:li xml:lang="x-default">© Copyright 2022 payhive, Inc. All rights reserved.</rdf:li>
   </rdf:Alt>
  </tiff:Copyright>
 </rdf:Description>
</rdf:RDF></metadata></svg>
