<svg width="62" height="72" viewBox="0 0 62 72" fill="none" xmlns="http://www.w3.org/2000/svg">
<path d="M62 30.8571C62 53.0419 33.5833 72 31 72C28.4167 72 0 53.0419 0 30.8571C0 13.8152 13.8792 0 31 0C48.1208 0 62 13.8152 62 30.8571Z" fill="#00579F"/>
<circle cx="31" cy="31" r="31" fill="#00579F"/>
<path d="M27.7594 38.5821H24.2986L26.4632 25.0781H29.9238L27.7594 38.5821Z" fill="white"/>
<path d="M40.3057 25.4089C39.6231 25.1357 38.5404 24.834 37.2017 24.834C33.784 24.834 31.3774 26.6727 31.3626 29.3016C31.3342 31.2411 33.0857 32.3184 34.3957 32.9651C35.7346 33.626 36.1897 34.0573 36.1897 34.6463C36.1761 35.551 35.1078 35.968 34.1114 35.968C32.7297 35.968 31.9894 35.753 30.8643 35.2497L30.4086 35.0339L29.9243 38.0653C30.736 38.4384 32.2314 38.7695 33.784 38.784C37.4153 38.784 39.7794 36.9737 39.8074 34.1722C39.8212 32.635 38.8964 31.4571 36.9025 30.4946C35.692 29.8767 34.9507 29.4601 34.9507 28.8279C34.9649 28.2531 35.5777 27.6645 36.9441 27.6645C38.0692 27.6356 38.8958 27.9085 39.522 28.1815L39.835 28.3249L40.3057 25.4089Z" fill="white"/>
<path d="M44.9047 33.7981C45.1897 33.0223 46.2864 30.0198 46.2864 30.0198C46.272 30.0486 46.5708 29.2297 46.7417 28.727L46.9836 29.8905C46.9836 29.8905 47.6389 33.123 47.7812 33.7981C47.2404 33.7981 45.5882 33.7981 44.9047 33.7981ZM49.1766 25.0781H46.4997C45.6742 25.0781 45.047 25.3221 44.6908 26.1986L39.5503 38.5819H43.1816C43.1816 38.5819 43.7794 36.9152 43.9079 36.5562C44.3063 36.5562 47.8388 36.5562 48.3512 36.5562C48.4506 37.0303 48.7642 38.5819 48.7642 38.5819H51.9685L49.1766 25.0781Z" fill="white"/>
<path d="M21.4081 25.0781L18.0189 34.2865L17.6485 32.419C17.0219 30.264 15.0568 27.9227 12.8638 26.7586L15.9682 38.5678H19.6279L25.0676 25.0781H21.4081Z" fill="white"/>
<path d="M14.8718 25.0781H9.30379L9.24683 25.351C13.5902 26.4716 16.4668 29.1728 17.6487 32.4195L16.4382 26.2133C16.239 25.3508 15.6266 25.1066 14.8718 25.0781Z" fill="#FAA61A"/>
 
<metadata><rdf:RDF xmlns:rdf="http://www.w3.org/1999/02/22-rdf-syntax-ns#" xmlns:schema="http://schema.org/">
 <rdf:Description rdf:about='' xmlns:tiff="http://ns.adobe.com/tiff/1.0/">
  <tiff:Copyright>
   <rdf:Alt>
    <rdf:li xml:lang="x-default">© Copyright 2022 payhive, Inc. All rights reserved.</rdf:li>
   </rdf:Alt>
  </tiff:Copyright>
 </rdf:Description>
</rdf:RDF></metadata></svg>
