<svg width="62" height="72" viewBox="0 0 62 72" fill="none" xmlns="http://www.w3.org/2000/svg">
<path d="M62 30.8571C62 53.0419 33.5833 72 31 72C28.4167 72 0 53.0419 0 30.8571C0 13.8152 13.8792 0 31 0C48.1208 0 62 13.8152 62 30.8571Z" fill="#52BE39"/>
<circle cx="31" cy="31" r="31" fill="#52BE39"/>
<path d="M38.9484 23.78C37.2171 18.8263 31.9983 15.5 25.9626 15.5C18.4838 15.5 12.4001 20.7142 12.4001 27.1249C12.4631 30.6767 14.2466 33.9768 17.1835 35.9754L15.5823 39.1777C15.3873 39.5587 15.5379 40.0257 15.9189 40.2207C16.1558 40.342 16.4384 40.3333 16.6673 40.1976L20.7686 37.8525C21.8812 38.2454 23.0352 38.5096 24.208 38.6398C24.6332 38.6888 25.0177 38.3839 25.0667 37.9587C25.0769 37.8698 25.0717 37.7799 25.0513 37.6928C24.8896 37.0237 24.8054 36.3383 24.8002 35.65C24.8002 29.6686 30.7103 24.8 37.9751 24.8L38.203 24.8109C38.4549 24.8084 38.6915 24.69 38.8447 24.49C38.9932 24.2845 39.032 24.0194 38.9484 23.78Z" fill="white"/>
<path d="M20.9253 20.1499C19.6413 20.1499 18.6003 21.1908 18.6003 22.4749C18.6003 23.7589 19.6413 24.7999 20.9253 24.7999C22.2094 24.7999 23.2503 23.7589 23.2503 22.4749C23.2503 21.1908 22.2094 20.1499 20.9253 20.1499Z" fill="#52BE39"/>
<path d="M30.2254 20.1499C28.9413 20.1499 27.9004 21.1908 27.9004 22.4749C27.9004 23.7589 28.9413 24.7999 30.2254 24.7999C31.5094 24.7999 32.5504 23.7589 32.5504 22.4749C32.5504 21.1908 31.5094 20.1499 30.2254 20.1499Z" fill="#52BE39"/>
<path d="M49.6005 35.6501C49.6005 30.5211 44.3863 26.3501 37.9755 26.3501C31.5647 26.3501 26.3506 30.5211 26.3506 35.6501C26.3506 40.779 31.5647 44.95 37.9755 44.95C39.1781 44.9496 40.3759 44.7975 41.5405 44.4974L45.383 46.4179C45.7657 46.6095 46.2313 46.4546 46.4229 46.0718C46.5221 45.8736 46.5317 45.6424 46.4493 45.4367L45.3969 42.8017C47.9122 41.277 49.4919 38.5894 49.6005 35.6501Z" fill="white"/>
<path d="M34.0995 31C33.2435 31 32.5496 31.6939 32.5496 32.55C32.5496 33.406 33.2435 34.0999 34.0995 34.0999C34.9556 34.0999 35.6495 33.406 35.6495 32.55C35.6495 31.6939 34.9556 31 34.0995 31Z" fill="#52BE39"/>
<path d="M41.8495 31C40.9935 31 40.2996 31.6939 40.2996 32.55C40.2996 33.406 40.9935 34.0999 41.8495 34.0999C42.7056 34.0999 43.3995 33.406 43.3995 32.55C43.3996 31.6939 42.7056 31 41.8495 31Z" fill="#52BE39"/>
 
<metadata><rdf:RDF xmlns:rdf="http://www.w3.org/1999/02/22-rdf-syntax-ns#" xmlns:schema="http://schema.org/">
 <rdf:Description rdf:about='' xmlns:tiff="http://ns.adobe.com/tiff/1.0/">
  <tiff:Copyright>
   <rdf:Alt>
    <rdf:li xml:lang="x-default">© Copyright 2022 payhive, Inc. All rights reserved.</rdf:li>
   </rdf:Alt>
  </tiff:Copyright>
 </rdf:Description>
</rdf:RDF></metadata></svg>
