<svg width="62" height="72" viewBox="0 0 62 72" fill="none" xmlns="http://www.w3.org/2000/svg">
<path d="M62 30.8571C62 53.0419 33.5833 72 31 72C28.4167 72 0 53.0419 0 30.8571C0 13.8152 13.8792 0 31 0C48.1208 0 62 13.8152 62 30.8571Z" fill="#1E1E1E"/>
<circle cx="31" cy="31" r="31" fill="#1E1E1E"/>
<path d="M19.7591 25.8553C19.3439 26.3639 18.6795 26.765 18.0152 26.7077C17.9321 26.0201 18.2574 25.2894 18.638 24.8381C19.0532 24.3152 19.7799 23.9427 20.3681 23.9141C20.4373 24.6304 20.1674 25.3324 19.7591 25.8553ZM20.3612 26.8438C19.3993 26.7865 18.5757 27.4097 18.119 27.4097C17.6553 27.4097 16.9563 26.8725 16.1951 26.8868C15.2055 26.9011 14.285 27.4814 13.7799 28.4054C12.7418 30.2535 13.51 32.9899 14.5134 34.4942C15.0048 35.2392 15.593 36.0558 16.3681 36.0271C17.1017 35.9985 17.3923 35.5328 18.2781 35.5328C19.1709 35.5328 19.4269 36.0271 20.202 36.0128C21.0048 35.9985 21.51 35.2678 22.0013 34.5228C22.5619 33.6776 22.7903 32.8538 22.8041 32.8108C22.7903 32.7965 21.2539 32.1876 21.2401 30.3538C21.2262 28.8209 22.4512 28.0902 22.5065 28.0473C21.8145 26.9871 20.7349 26.8725 20.3612 26.8438ZM25.9183 24.7665V35.934H27.593V32.116H29.9114C32.029 32.116 33.5169 30.6117 33.5169 28.4341C33.5169 26.2564 32.0567 24.7665 29.9668 24.7665H25.9183ZM27.593 26.2278H29.5238C30.9771 26.2278 31.8076 27.0301 31.8076 28.4412C31.8076 29.8524 30.9771 30.6618 29.5169 30.6618H27.593V26.2278ZM36.5758 36.0199C37.6277 36.0199 38.6035 35.4684 39.0464 34.5945H39.081V35.934H40.6311V30.3753C40.6311 28.7636 39.3855 27.7249 37.4685 27.7249C35.69 27.7249 34.3751 28.7779 34.3266 30.2249H35.8353C35.9599 29.5372 36.5758 29.0859 37.4201 29.0859C38.4443 29.0859 39.0187 29.5802 39.0187 30.4899V31.106L36.9287 31.2349C34.9841 31.3567 33.9322 32.1804 33.9322 33.6131C33.9322 35.0601 35.0187 36.0199 36.5758 36.0199ZM37.0256 34.6947C36.1329 34.6947 35.5654 34.2506 35.5654 33.5701C35.5654 32.8681 36.1121 32.4598 37.1571 32.3953L39.0187 32.2736V32.9039C39.0187 33.9498 38.1606 34.6947 37.0256 34.6947ZM42.7004 38.9712C44.3336 38.9712 45.1017 38.3265 45.773 36.3709L48.7142 27.8324H47.0118L45.0395 34.4297H45.0049L43.0325 27.8324H41.2817L44.119 35.9626L43.9668 36.4569C43.7107 37.295 43.2955 37.6174 42.555 37.6174C42.4235 37.6174 42.1675 37.603 42.0637 37.5887V38.9282C42.1606 38.9569 42.5758 38.9712 42.7004 38.9712Z" fill="white"/>
 
<metadata><rdf:RDF xmlns:rdf="http://www.w3.org/1999/02/22-rdf-syntax-ns#" xmlns:schema="http://schema.org/">
 <rdf:Description rdf:about='' xmlns:tiff="http://ns.adobe.com/tiff/1.0/">
  <tiff:Copyright>
   <rdf:Alt>
    <rdf:li xml:lang="x-default">© Copyright 2022 payhive, Inc. All rights reserved.</rdf:li>
   </rdf:Alt>
  </tiff:Copyright>
 </rdf:Description>
</rdf:RDF></metadata></svg>
