<svg width="62" height="72" viewBox="0 0 62 72" fill="none" xmlns="http://www.w3.org/2000/svg">
<path d="M62 30.8571C62 53.0419 33.5833 72 31 72C28.4167 72 0 53.0419 0 30.8571C0 13.8152 13.8792 0 31 0C48.1208 0 62 13.8152 62 30.8571Z" fill="#F08618"/>
<ellipse cx="31" cy="30.8571" rx="31" ry="30.8571" fill="#F08618"/>
<path d="M8.70639 25.9604H6.4585V34.4075H8.70639C9.89477 34.4075 10.7538 34.1004 11.5127 33.44C12.4147 32.6413 12.9445 31.4434 12.9445 30.1994C12.9301 27.6959 11.1977 25.9604 8.70639 25.9604ZM10.5104 32.3188C10.0236 32.7796 9.40796 32.9946 8.40572 32.9946H7.9905V27.4041H8.40572C9.39364 27.4041 9.99499 27.5884 10.5104 28.0799C11.0402 28.5867 11.3552 29.37 11.3552 30.184C11.3552 30.998 11.0402 31.812 10.5104 32.3188Z" fill="white"/>
<path d="M15.1804 25.9604H13.6484V34.4075H15.1804V25.9604Z" fill="white"/>
<path d="M18.9302 29.2009C18.0138 28.8323 17.7418 28.5865 17.7418 28.1412C17.7418 27.6036 18.2286 27.2043 18.8872 27.2043C19.3454 27.2043 19.732 27.404 20.1185 27.8954L20.9203 26.7743C20.2617 26.1599 19.4742 25.8374 18.6009 25.8374C17.212 25.8374 16.1382 26.8818 16.1382 28.264C16.1382 29.4313 16.6393 30.0302 18.0711 30.5831C18.6725 30.8135 18.9731 30.9671 19.1306 31.0592C19.4313 31.2743 19.5888 31.5814 19.5888 31.9347C19.5888 32.6258 19.0877 33.1326 18.4004 33.1326C17.6702 33.1326 17.0832 32.7333 16.7252 32.0115L15.7373 33.0405C16.4389 34.1616 17.2979 34.6531 18.4577 34.6531C20.047 34.6531 21.1781 33.5166 21.1781 31.8732C21.2067 30.5063 20.6769 29.892 18.9302 29.2009Z" fill="white"/>
<path d="M21.6785 30.1991C21.6785 32.6871 23.4968 34.6069 25.8306 34.6069C26.4892 34.6069 27.062 34.4687 27.7492 34.1155V32.1803C27.1335 32.8407 26.5895 33.1018 25.9022 33.1018C24.3559 33.1018 23.2534 31.9039 23.2534 30.1837C23.2534 28.5557 24.3845 27.281 25.8306 27.281C26.5608 27.281 27.1192 27.5574 27.7492 28.2332V26.2981C27.0763 25.9295 26.5179 25.7759 25.8593 25.7759C23.5541 25.7759 21.6785 27.7417 21.6785 30.1991Z" fill="white"/>
<path d="M39.9469 31.643L37.8422 25.9604H36.167L39.503 34.6226H40.3335L43.7268 25.9604H42.0659L39.9469 31.643Z" fill="white"/>
<path d="M44.4316 34.4075H48.7842V32.9792H45.9636V30.7062H48.684V29.2779H45.9636V27.4041H48.7842V25.9604H44.4316V34.4075Z" fill="white"/>
<path d="M54.8659 28.4632C54.8659 26.8812 53.8493 25.9751 52.0739 25.9751H49.7974V34.4222H51.3294V31.028H51.5298L53.6488 34.4222H55.5388L53.0618 30.8591C54.2216 30.598 54.8659 29.7533 54.8659 28.4632ZM51.7732 29.8608H51.3294V27.2959H51.8019C52.7611 27.2959 53.2766 27.726 53.2766 28.5553C53.2766 29.4 52.7611 29.8608 51.7732 29.8608Z" fill="white"/>
<path d="M32.4607 34.7144C34.7776 34.7144 36.6558 32.6996 36.6558 30.2144C36.6558 27.7291 34.7776 25.7144 32.4607 25.7144C30.1438 25.7144 28.2656 27.7291 28.2656 30.2144C28.2656 32.6996 30.1438 34.7144 32.4607 34.7144Z" fill="white"/>
<path opacity="0.65" d="M32.4607 34.7144C34.7776 34.7144 36.6558 32.6996 36.6558 30.2144C36.6558 27.7291 34.7776 25.7144 32.4607 25.7144C30.1438 25.7144 28.2656 27.7291 28.2656 30.2144C28.2656 32.6996 30.1438 34.7144 32.4607 34.7144Z" fill="white"/>
 
<metadata><rdf:RDF xmlns:rdf="http://www.w3.org/1999/02/22-rdf-syntax-ns#" xmlns:schema="http://schema.org/">
 <rdf:Description rdf:about='' xmlns:tiff="http://ns.adobe.com/tiff/1.0/">
  <tiff:Copyright>
   <rdf:Alt>
    <rdf:li xml:lang="x-default">© Copyright 2022 payhive, Inc. All rights reserved.</rdf:li>
   </rdf:Alt>
  </tiff:Copyright>
 </rdf:Description>
</rdf:RDF></metadata></svg>
