<svg width="62" height="72" viewBox="0 0 62 72" fill="none" xmlns="http://www.w3.org/2000/svg">
<path d="M62 30.8571C62 53.0419 33.5833 72 31 72C28.4167 72 0 53.0419 0 30.8571C0 13.8152 13.8792 0 31 0C48.1208 0 62 13.8152 62 30.8571Z" fill="#1A1A1A"/>
<ellipse cx="31" cy="30.8571" rx="31" ry="30.8571" fill="#1A1A1A"/>
<path d="M35.5396 38.9455H26.4565V22.7725H35.5396V38.9455Z" fill="#FF5F00"/>
<path d="M27.0391 30.8569C27.0391 27.5761 28.5895 24.6537 31.0039 22.7703C29.2384 21.3931 27.0101 20.5712 24.5885 20.5712C18.8555 20.5712 14.2083 25.1762 14.2083 30.8569C14.2083 36.5376 18.8555 41.1426 24.5885 41.1426C27.0101 41.1426 29.2384 40.3206 31.0039 38.9434C28.5895 37.0601 27.0391 34.1376 27.0391 30.8569Z" fill="#EB001B"/>
<path d="M47.7912 30.8569C47.7912 36.5376 43.144 41.1426 37.411 41.1426C34.9893 41.1426 32.7611 40.3206 30.9949 38.9434C33.4099 37.0601 34.9603 34.1376 34.9603 30.8569C34.9603 27.5761 33.4099 24.6537 30.9949 22.7703C32.7611 21.3931 34.9893 20.5712 37.411 20.5712C43.144 20.5712 47.7912 25.1762 47.7912 30.8569Z" fill="#F79E1B"/>
 
<metadata><rdf:RDF xmlns:rdf="http://www.w3.org/1999/02/22-rdf-syntax-ns#" xmlns:schema="http://schema.org/">
 <rdf:Description rdf:about='' xmlns:tiff="http://ns.adobe.com/tiff/1.0/">
  <tiff:Copyright>
   <rdf:Alt>
    <rdf:li xml:lang="x-default">© Copyright 2022 payhive, Inc. All rights reserved.</rdf:li>
   </rdf:Alt>
  </tiff:Copyright>
 </rdf:Description>
</rdf:RDF></metadata></svg>
