<svg width="62" height="72" viewBox="0 0 62 72" fill="none" xmlns="http://www.w3.org/2000/svg">
<path d="M62 30.8571C62 53.0419 33.5833 72 31 72C28.4167 72 0 53.0419 0 30.8571C0 13.8152 13.8792 0 31 0C48.1208 0 62 13.8152 62 30.8571Z" fill="#1746A0"/>
<circle cx="31" cy="31" r="31" fill="#1746A0"/>
<mask id="mask0" mask-type="alpha" maskUnits="userSpaceOnUse" x="0" y="0" width="62" height="62">
<circle cx="31" cy="31" r="31" fill="#016FD0"/>
</mask>
<g mask="url(#mask0)">
<path d="M19.5774 43.6291V33.2771H21.2237V34.0504C21.4482 33.6762 21.8972 33.4268 22.2465 33.3021C22.5957 33.1773 22.9698 33.1274 23.344 33.1274C24.267 33.1274 25.2398 33.4268 26.063 34.2749C26.8113 35.0482 27.1855 35.9711 27.1855 37.0936C27.1855 37.5925 27.0857 38.0914 26.8861 38.5903C26.6866 39.0642 26.4371 39.4883 26.0879 39.8625C25.7137 40.2366 25.3146 40.536 24.8656 40.7355C24.4166 40.9351 23.9926 41.0349 23.4189 41.0349C23.0197 41.0349 22.6206 40.985 22.2465 40.8353C21.8723 40.7106 21.3734 40.4362 21.1988 40.1119V43.7039H19.5774V43.6291ZM23.2941 34.5742C22.6955 34.5742 22.1467 34.7738 21.7226 35.1978C21.2736 35.6718 21.099 36.3203 21.099 36.9938C21.099 37.6923 21.2736 38.3907 21.6977 38.8397C22.1467 39.3137 22.6705 39.4634 23.2941 39.4634C23.9177 39.4634 24.4416 39.2139 24.8407 38.8148C25.2897 38.3658 25.5142 37.7422 25.5142 37.0687C25.5142 36.3453 25.2897 35.6967 24.8656 35.2228C24.4915 34.8486 23.9676 34.5742 23.2941 34.5742Z" fill="white"/>
<path d="M38.6354 43.6293L40.0572 40.3616L36.8145 33.2773H38.5855L40.8804 38.6155L43.0007 33.2773H44.7468L40.3566 43.6293H38.6354Z" fill="white"/>
<path d="M34.1698 40.8358V40.0626C33.9952 40.3868 33.4713 40.6862 33.1221 40.7859C32.748 40.9107 32.3488 40.9855 31.9497 40.9855C31.401 40.9855 30.9769 40.8857 30.5029 40.6862C30.0539 40.4866 29.6299 40.2122 29.2807 39.8131C28.9314 39.4639 28.6571 39.0398 28.4824 38.5659C28.2829 38.0919 28.1831 37.593 28.1831 37.0692C28.1831 35.9716 28.5822 35.0238 29.3056 34.2505C30.1038 33.4273 31.1016 33.103 32.0246 33.103C32.3987 33.103 32.7729 33.1529 33.1221 33.2776C33.4713 33.4024 33.9204 33.6518 34.1449 34.026V33.2527H35.8161V40.8109H34.1698V40.8358ZM30.5029 35.2233C30.0539 35.6973 29.8544 36.3458 29.8544 37.0692C29.8544 37.7427 30.0789 38.3663 30.5279 38.8153C30.927 39.2144 31.4259 39.4639 32.0745 39.4639C32.6981 39.4639 33.2468 39.2893 33.6709 38.8403C34.1199 38.3663 34.2696 37.6928 34.2696 36.9944C34.2696 36.3458 34.095 35.6723 33.646 35.1984C33.197 34.7494 32.6731 34.5748 32.0745 34.5748C31.4259 34.5748 30.8771 34.8491 30.5029 35.2233Z" fill="white"/>
<path d="M46.4927 28.4885L46.4178 23.4497H48.0143V29.8106H45.7194L44.1479 24.5972H44.098L44.1978 29.8106H42.6013V23.4497H44.996L46.4677 28.4885H46.4927Z" fill="white"/>
<path d="M17.607 24.0484L16.709 29.8605H14.9878L16.1851 23.4497H19.0288L20.2261 29.8605H18.48L17.6319 24.0484H17.607Z" fill="white"/>
<path d="M25.0908 28.3638L25.889 23.4497H28.5082L28.6329 29.8605H27.0365L26.9866 24.0983H26.9616L25.889 29.8605H24.2676L23.1701 24.0983H23.1451L23.0952 29.8605H21.4988L21.6484 23.4497H24.2676L25.0658 28.3638H25.0908Z" fill="white"/>
<path d="M38.5605 28.9126C39.0095 28.9126 39.1342 28.6132 39.1841 28.4636C39.209 28.3887 39.209 28.2889 39.209 28.2141V23.4497H40.8304V28.0644C40.8304 28.1892 40.8055 28.4137 40.8055 28.4885C40.7057 29.6858 39.7329 30.085 38.5605 30.085C37.3881 30.085 36.4402 29.7108 36.3155 28.4885C36.3155 28.4137 36.2905 28.1892 36.2905 28.0644V23.4497H37.9119V28.1892C37.9119 28.264 37.9119 28.3638 37.9369 28.4386C37.9868 28.5883 38.1115 28.9126 38.5605 28.9126Z" fill="white"/>
<path d="M12.2692 28.0643C12.3191 28.214 12.3191 28.4135 12.2941 28.5382C12.2442 28.7627 12.0946 28.9623 11.6705 28.9623C11.2714 28.9623 11.022 28.7378 11.022 28.3886V27.765H9.30078V28.2639C9.30078 29.7106 10.4233 30.1347 11.6206 30.1347C12.793 30.1347 13.7409 29.7356 13.8906 28.663C13.9654 28.1142 13.9155 27.74 13.8906 27.6153C13.6162 26.2683 11.1716 25.8692 10.997 25.1208C10.9721 24.9712 10.9721 24.8465 10.997 24.7716C11.0469 24.5721 11.1716 24.3476 11.5957 24.3476C11.9698 24.3476 12.1943 24.5721 12.1943 24.9213V25.3204H13.7908V24.8714C13.7908 23.4745 12.5436 23.25 11.6206 23.25C10.4732 23.25 9.55023 23.6242 9.37561 24.6718C9.32573 24.9462 9.32573 25.2206 9.37561 25.52C9.67495 26.842 11.9449 27.2162 12.2692 28.0643Z" fill="white"/>
<path d="M33.172 28.0393C33.2468 28.189 33.197 28.3885 33.197 28.5133C33.1471 28.7128 32.9974 28.9373 32.5733 28.9373C32.1742 28.9373 31.9248 28.7128 31.9248 28.3636V27.74H30.2036V28.2389C30.2036 29.6607 31.3261 30.0848 32.5235 30.0848C33.6709 30.0848 34.6188 29.6856 34.7685 28.638C34.8433 28.0892 34.7934 27.74 34.7685 27.5903C34.4941 26.2682 32.0994 25.8691 31.8998 25.1208C31.8749 24.9961 31.8749 24.8714 31.8998 24.7965C31.9497 24.597 32.0745 24.3725 32.4736 24.3725C32.8477 24.3725 33.0722 24.597 33.0722 24.9462V25.3453H34.6687V24.8714C34.6687 23.4994 33.4215 23.2749 32.5235 23.2749C31.401 23.2749 30.4531 23.6491 30.3034 24.6967C30.2535 24.9711 30.2535 25.2206 30.3034 25.5449C30.5778 26.842 32.8477 27.2161 33.172 28.0393Z" fill="white"/>
<path d="M51.9553 28.8376C52.4292 28.8376 52.5789 28.5382 52.6038 28.3636C52.6038 28.2888 52.6288 28.189 52.6288 28.1142V27.1912H51.9802V26.2433H54.2502V27.9645C54.2502 28.0892 54.2502 28.1641 54.2252 28.3886C54.1254 29.561 53.1027 29.985 51.9553 29.985C50.8078 29.985 49.81 29.561 49.7102 28.3886C49.6853 28.1641 49.6853 28.0892 49.6853 27.9645V25.2705C49.6853 25.1458 49.7102 24.9462 49.7102 24.8465C49.8599 23.6491 50.8327 23.25 51.9553 23.25C53.1027 23.25 54.1005 23.6242 54.2003 24.8465C54.2252 25.046 54.2003 25.2705 54.2003 25.2705V25.4701H52.5789V25.1208C52.5789 25.1208 52.5789 24.9712 52.5539 24.8714C52.529 24.7217 52.4043 24.3974 51.9054 24.3974C51.4564 24.3974 51.3067 24.6968 51.2568 24.8714C51.2319 24.9462 51.2319 25.071 51.2319 25.1707V28.1142C51.2319 28.189 51.2319 28.2888 51.2319 28.3636C51.3316 28.5382 51.4813 28.8376 51.9553 28.8376Z" fill="white"/>
</g>
 
<metadata><rdf:RDF xmlns:rdf="http://www.w3.org/1999/02/22-rdf-syntax-ns#" xmlns:schema="http://schema.org/">
 <rdf:Description rdf:about='' xmlns:tiff="http://ns.adobe.com/tiff/1.0/">
  <tiff:Copyright>
   <rdf:Alt>
    <rdf:li xml:lang="x-default">© Copyright 2022 payhive, Inc. All rights reserved.</rdf:li>
   </rdf:Alt>
  </tiff:Copyright>
 </rdf:Description>
</rdf:RDF></metadata></svg>
