<svg width="62" height="72" viewBox="0 0 62 72" fill="none" xmlns="http://www.w3.org/2000/svg">
<path d="M62 30.8571C62 53.0419 33.5833 72 31 72C28.4167 72 0 53.0419 0 30.8571C0 13.8152 13.8792 0 31 0C48.1208 0 62 13.8152 62 30.8571Z" fill="#2284FF"/>
<path d="M61.0715 38.4993C56.9306 55.1064 40.1086 65.2133 23.4978 61.0719C6.89376 56.9315 -3.21418 40.1103 0.928598 23.5042C5.0675 6.8951 21.8895 -3.21273 38.4955 0.927661C55.1053 5.06806 65.2123 21.8912 61.0715 38.4993Z" fill="#2285FF"/>
<path d="M18.5645 31.32C18.5645 31.32 18.3486 29.9304 16.4061 29.6098C16.2982 29.6098 15.9745 29.6098 15.6507 29.5029C14.8953 29.396 13.7082 29.396 13.1686 29.2891C13.1686 29.2891 13.1686 29.2891 13.0607 29.2891C11.8736 29.2891 11.8736 28.7547 11.8736 28.7547C11.8736 28.6478 11.6578 28.0064 11.9816 27.5789C12.3053 27.1513 13.7082 27.1513 13.8161 27.1513C14.1399 27.1513 14.5716 27.1513 14.6795 27.2582C15.0032 27.3651 15.327 27.5789 15.327 28.5409H18.3486V27.6858C18.3486 27.6858 18.4566 26.0825 17.2695 25.4411C16.4061 24.9067 15.327 24.9067 15.0032 24.9067C15.0032 24.9067 13.1686 24.9067 12.3053 24.9067C11.7657 24.9067 11.2261 25.0136 10.5786 25.1205C10.147 25.2274 9.82323 25.3342 9.49948 25.6549C9.49948 25.6549 9.49948 25.6549 9.49948 25.7618C9.49948 25.7618 9.49948 25.8687 9.39156 25.8687C8.42031 26.9376 8.63614 29.0753 8.95989 30.2511C9.28364 31.2131 10.3628 31.6406 11.0103 31.6406C11.0103 31.6406 11.1182 31.6406 11.2261 31.6406H11.3341C12.0895 31.7475 13.8161 31.8544 14.5716 31.9613C14.7874 31.9613 14.8953 31.9613 14.8953 31.9613C15.2191 31.9613 15.5428 32.1751 15.5428 32.7095C15.5428 33.3508 15.5428 33.5646 15.4349 33.6715L15.327 33.7784C15.2191 33.9922 14.6795 34.099 14.3557 34.099H12.3053C11.442 33.9922 11.442 33.1371 11.442 33.1371V32.8164H8.52823V33.2439C8.52823 33.2439 8.42031 35.1679 9.39156 35.8092C10.2549 36.4506 11.1182 36.5575 12.3053 36.5575H13.6003C13.6003 36.5575 13.8161 36.5575 14.2478 36.5575C14.6795 36.5575 15.2191 36.5575 15.7586 36.4506C15.7586 36.4506 17.8091 36.3437 18.3486 34.8473C18.8882 33.3508 18.5645 31.32 18.5645 31.32ZM26.6582 24.7998C24.1762 24.7998 22.0178 26.2962 21.1545 28.434H19.8595L18.9962 30.1442H20.7228C20.7228 30.358 20.7228 30.4649 20.7228 30.6786C20.7228 30.8924 20.7228 30.9993 20.7228 31.2131H19.8595L19.1041 32.9233H21.1545C22.0178 35.061 24.1762 36.5575 26.6582 36.5575C28.0612 36.5575 29.3562 36.1299 30.3274 35.2748V33.0302C29.572 34.099 28.3849 34.7404 26.982 34.7404C25.4712 34.7404 24.2841 33.9922 23.5287 32.9233H27.9532L28.8166 31.2131H22.8812C22.8812 30.9993 22.7732 30.7855 22.7732 30.5717C22.7732 30.4649 22.7732 30.358 22.7732 30.1442H29.2482L30.1116 28.434H23.3128C24.0682 27.2582 25.3632 26.4031 26.982 26.4031C28.3849 26.4031 29.572 27.0444 30.3274 28.1133L30.9749 26.7238C29.8957 25.4411 28.3849 24.7998 26.6582 24.7998ZM41.3872 26.1893C41.0635 25.548 40.416 25.2274 39.7685 25.0136C39.121 24.7998 38.3656 24.7998 38.0418 24.7998C37.826 24.7998 37.718 24.7998 37.718 24.7998H31.9985V36.5575H35.128V33.4577H37.5022C37.5022 33.4577 39.4447 33.6715 40.416 33.1371C41.3872 32.6026 41.711 31.8544 41.8189 31.32C41.9268 30.7855 42.0347 29.1822 42.0347 29.1822C41.9268 28.6478 41.9268 27.3651 41.3872 26.1893ZM38.4735 30.1442C38.3656 30.6786 37.3943 30.7855 37.0705 30.7855H34.9122V27.2582H37.2864C37.2864 27.2582 38.3656 27.2582 38.4735 27.8996C38.5814 28.2202 38.5814 28.5409 38.5814 28.8615C38.5814 28.8615 38.5814 29.6098 38.4735 30.1442ZM49.8055 24.7998H44.9492L41.388 36.5575H44.6255L45.1651 34.5266H49.4817L50.1292 36.5575H53.4747L49.8055 24.7998ZM45.9205 32.1751L47.4313 27.1513L48.9422 32.1751H45.9205Z" fill="white"/>
 
<metadata><rdf:RDF xmlns:rdf="http://www.w3.org/1999/02/22-rdf-syntax-ns#" xmlns:schema="http://schema.org/">
 <rdf:Description rdf:about='' xmlns:tiff="http://ns.adobe.com/tiff/1.0/">
  <tiff:Copyright>
   <rdf:Alt>
    <rdf:li xml:lang="x-default">© Copyright 2022 payhive, Inc. All rights reserved.</rdf:li>
   </rdf:Alt>
  </tiff:Copyright>
 </rdf:Description>
</rdf:RDF></metadata></svg>
