<svg width="62" height="72" viewBox="0 0 62 72" fill="none" xmlns="http://www.w3.org/2000/svg">
<path d="M62 30.8571C62 53.0419 33.5833 72 31 72C28.4167 72 0 53.0419 0 30.8571C0 13.8152 13.8792 0 31 0C48.1208 0 62 13.8152 62 30.8571Z" fill="#661A5E"/>
<ellipse cx="31" cy="30.8571" rx="31" ry="30.8571" fill="#661A5E"/>
<path fill-rule="evenodd" clip-rule="evenodd" d="M39.4592 27.5177C40.3377 27.5177 41.0498 26.8263 41.0498 25.9738C41.0498 25.1207 40.3377 24.4287 39.4592 24.4287C38.5818 24.4287 37.8701 25.1207 37.8701 25.9738C37.8701 26.8263 38.5818 27.5177 39.4592 27.5177ZM27.278 28.3515C27.2062 28.5266 26.6896 29.944 25.4404 31.413V25.1317L22.1117 25.7708V37.1564H25.4404V33.637C26.4044 35.0416 26.8805 37.1564 26.8805 37.1564H30.8676C30.4732 35.5637 28.748 32.6269 28.748 32.6269C30.2963 30.72 30.9764 28.6881 31.0846 28.3515H27.278ZM36.0289 28.2326C33.0474 28.3256 31.534 29.625 31.534 32.208V37.1564H34.7866V33.1211C34.7866 31.5744 34.9951 30.9114 36.8845 30.8482V28.2779C36.5665 28.2124 36.0289 28.2326 36.0289 28.2326ZM16.5292 29.6052C16.1214 29.5791 15.1775 29.5199 15.1775 28.6944C15.1775 27.6983 16.5365 27.6983 17.0462 27.6983C17.9425 27.6983 19.1032 27.9556 19.9322 28.1964C19.9322 28.1964 20.3946 28.3548 20.7881 28.5169L20.8246 28.5266V25.7985L20.7744 25.784C19.7961 25.4516 18.6586 25.1317 16.5497 25.1317C12.9134 25.1317 11.625 27.1895 11.625 28.9523C11.625 29.9686 12.0734 32.3602 16.2378 32.6361C16.5908 32.6571 17.5278 32.7096 17.5278 33.5626C17.5278 34.2669 16.7607 34.6823 15.4706 34.6823C14.0567 34.6823 12.6853 34.332 11.8523 33.9999V36.8096C13.0993 37.1272 14.5051 37.2859 16.1527 37.2859C19.7081 37.2859 21.3005 35.3389 21.3005 33.4093C21.3005 31.2213 19.5186 29.7997 16.5292 29.6052ZM37.8468 37.1564H41.0732V28.3614H37.8468V37.1564ZM47.1482 25.6924V37.1564H50.375V25.1317L47.1482 25.6924ZM42.4398 25.6924L45.6636 25.1317V37.1564H42.4398V25.6924Z" fill="white"/>
 
<metadata><rdf:RDF xmlns:rdf="http://www.w3.org/1999/02/22-rdf-syntax-ns#" xmlns:schema="http://schema.org/">
 <rdf:Description rdf:about='' xmlns:tiff="http://ns.adobe.com/tiff/1.0/">
  <tiff:Copyright>
   <rdf:Alt>
    <rdf:li xml:lang="x-default">© Copyright 2022 payhive, Inc. All rights reserved.</rdf:li>
   </rdf:Alt>
  </tiff:Copyright>
 </rdf:Description>
</rdf:RDF></metadata></svg>
