<svg width="118" height="49" viewBox="0 0 118 49" fill="none" xmlns="http://www.w3.org/2000/svg">
<g clip-path="url(#clip0_2523_22460)">
<path d="M21.923 6.56827C20.5529 8.18959 18.3607 9.46837 16.1685 9.28569C15.8945 7.09349 16.9678 4.76428 18.2237 3.32565C19.5938 1.65866 21.9915 0.471224 23.9326 0.379883C24.1609 2.66342 23.2703 4.90129 21.923 6.56827ZM23.9097 9.71956C20.7356 9.53688 18.0182 11.5236 16.511 11.5236C14.9811 11.5236 12.6747 9.8109 10.1628 9.85657C6.89735 9.90224 3.86024 11.7519 2.19325 14.6977C-1.23205 20.5892 1.30267 29.3123 4.61381 34.1078C6.23512 36.4826 8.17613 39.0859 10.7337 38.9945C13.1542 38.9032 14.1133 37.4189 17.0363 37.4189C19.982 37.4189 20.8269 38.9945 23.3845 38.9489C26.0334 38.9032 27.7004 36.574 29.3217 34.1991C31.1714 31.5045 31.9249 28.8785 31.9706 28.7414C31.9249 28.6958 26.8555 26.7548 26.8098 20.9089C26.7641 16.0221 30.806 13.6929 30.9887 13.5559C28.7052 10.1763 25.1428 9.8109 23.9097 9.71956ZM42.2465 3.09729V38.6977H47.7727V26.5264H55.4226C62.4102 26.5264 67.3198 21.731 67.3198 14.789C67.3198 7.84706 62.5015 3.09729 55.6053 3.09729H42.2465ZM47.7727 7.75572H54.1438C58.9392 7.75572 61.6795 10.3133 61.6795 14.8119C61.6795 19.3104 58.9392 21.8908 54.1209 21.8908H47.7727V7.75572ZM77.4131 38.9717C80.884 38.9717 84.1038 37.2134 85.5653 34.4275H85.6795V38.6977H90.7946V20.9774C90.7946 15.8394 86.6842 12.5283 80.3588 12.5283C74.4901 12.5283 70.1514 15.8851 69.9916 20.4979H74.9697C75.3807 18.3057 77.4131 16.867 80.199 16.867C83.5786 16.867 85.4739 18.4427 85.4739 21.3428V23.3066L78.5777 23.7177C72.1609 24.1059 68.6899 26.7319 68.6899 31.299C68.6899 35.9118 72.2751 38.9717 77.4131 38.9717ZM78.8974 34.7472C75.9516 34.7472 74.0791 33.3314 74.0791 31.162C74.0791 28.9241 75.8831 27.6225 79.3312 27.417L85.4739 27.0288V29.0383C85.4739 32.3723 82.6424 34.7472 78.8974 34.7472ZM97.6224 48.3799C103.012 48.3799 105.546 46.3247 107.761 40.0906L117.466 12.8708H111.849L105.341 33.9022H105.227L98.7185 12.8708H92.9411L102.304 38.789L101.801 40.3647C100.956 43.0364 99.5862 44.064 97.1428 44.064C96.709 44.064 95.8641 44.0183 95.5215 43.9726V48.2429C95.8412 48.3342 97.2113 48.3799 97.6224 48.3799Z" fill="#040505"/>
</g>
<defs>
<clipPath id="clip0_2523_22460">
<rect width="116.917" height="48" fill="white" transform="translate(0.548828 0.379883)"/>
</clipPath>
</defs>
</svg>
