<svg width="129" height="48" viewBox="0 0 129 48" fill="none" xmlns="http://www.w3.org/2000/svg">
<path d="M41.843 17.6064C39.3432 17.6064 36.5528 18.5702 35.9681 21.7427C35.9058 22.0797 36.1288 22.2405 36.344 22.2897L38.906 22.5972C39.1432 22.5851 39.3038 22.3269 39.3498 22.0842C39.5684 20.9924 40.4659 20.4771 41.4681 20.4771C42.0092 20.4771 42.6168 20.6631 42.9372 21.1607C43.3044 21.7154 43.2782 22.4692 43.2782 23.1091V23.4855C41.7556 23.6606 39.751 23.7667 38.3256 24.4088C36.6807 25.1406 35.5254 26.6296 35.5254 28.8186C35.5254 31.6236 37.2425 33.0238 39.4537 33.0238C41.3205 33.0238 42.3524 32.5851 43.7918 31.0754C44.2695 31.7865 44.4226 32.1093 45.2949 32.8532C45.3912 32.9083 45.5027 32.9314 45.613 32.9191C45.7232 32.9069 45.827 32.8601 45.9091 32.7853V32.8193C46.4338 32.3402 47.388 31.4693 47.9246 31.0077C48.1388 30.8282 48.0918 30.5329 47.9246 30.29C47.4448 29.6096 46.9343 29.0603 46.9343 27.7946V23.5894C46.9343 21.8083 47.0851 20.1663 45.8075 18.9399C44.7985 17.9477 43.1198 17.6064 41.843 17.6064ZM76.2733 17.6064C73.7725 17.6064 70.9842 18.5702 70.3982 21.7427C70.3359 22.0797 70.5579 22.2405 70.7743 22.2897L73.3364 22.5972C73.5735 22.5851 73.7354 22.3269 73.7801 22.0842C73.9998 20.9924 74.896 20.4771 75.8984 20.4771C76.4405 20.4771 77.0472 20.6631 77.3675 21.1607C77.7336 21.7154 77.6745 22.4692 77.6745 23.1091V23.4855C76.152 23.6606 74.1824 23.7667 72.756 24.4088C71.1098 25.1406 69.9556 26.6296 69.9556 28.8186C69.9556 31.6236 71.6738 33.0238 73.884 33.0238C75.7486 33.0238 76.7805 32.5851 78.2222 31.0754C78.6987 31.7865 78.8528 32.1093 79.725 32.8532C79.9218 32.9581 80.1657 32.9472 80.3395 32.7853V32.8193C80.8639 32.3402 81.8182 31.4693 82.3549 31.0077C82.5681 30.8282 82.5189 30.5329 82.3549 30.29C81.8751 29.6096 81.3646 29.0603 81.3646 27.7946V23.5894C81.3646 21.8083 81.4794 20.1663 80.2038 18.9399C79.1938 17.9477 77.5499 17.6064 76.2733 17.6064ZM56.906 17.7432C55.2905 17.7432 54.0925 18.5592 53.4564 20.3075H53.4225V18.4958C53.4139 18.3717 53.3606 18.2548 53.2727 18.1667C53.1847 18.0785 53.0679 18.0254 52.9438 18.0167H50.4844C50.3491 18.0187 50.2198 18.0734 50.1242 18.1692C50.0284 18.2649 49.9739 18.3943 49.9718 18.5297V32.3751C49.9836 32.4982 50.0378 32.6134 50.1251 32.7008C50.2124 32.7884 50.3275 32.8426 50.4506 32.8543H53.0805C53.216 32.8529 53.3456 32.7984 53.4413 32.7024C53.5371 32.6066 53.5917 32.4768 53.5931 32.3412V24.9908C53.5931 23.3882 53.5154 21.1958 55.4032 21.1958C57.2668 21.1958 57.0087 23.4483 57.0087 24.9908V32.3412C57.0087 32.6026 57.2219 32.8368 57.4875 32.8543H60.1174C60.2529 32.8529 60.3825 32.7984 60.4783 32.7024C60.574 32.6066 60.6286 32.4768 60.63 32.3412V24.9908C60.63 24.2041 60.5982 23.0589 60.8693 22.3586C61.1393 21.6585 61.8027 21.1969 62.4411 21.1969C63.2019 21.1969 63.7823 21.4628 63.9778 22.3937C64.1004 22.9473 64.0456 24.4098 64.0456 24.9918V32.3422C64.0456 32.6038 64.2588 32.8378 64.5244 32.8553H67.1543C67.2898 32.8539 67.4192 32.7994 67.5152 32.7036C67.611 32.6076 67.6655 32.478 67.6669 32.3422V23.5904C67.6669 22.1037 67.8165 20.4157 66.9838 19.2485C66.248 18.2004 65.0458 17.7443 63.944 17.7443C62.3985 17.7443 60.9612 18.5604 60.324 20.3086C59.5872 18.5604 58.5489 17.7432 56.906 17.7432ZM101.618 17.7432C97.8179 17.7432 95.7096 21.0875 95.7096 25.401C95.7096 29.685 97.795 33.1266 101.618 33.1266C105.296 33.1266 107.63 29.7639 107.63 25.5366C107.63 21.1684 105.516 17.7432 101.618 17.7432ZM116.613 17.7432C114.797 17.7432 113.76 18.6523 113.026 20.546H112.992V18.4258C112.945 18.2114 112.743 18.0626 112.514 18.0496H110.088C109.963 18.0467 109.841 18.0905 109.746 18.1727C109.652 18.2548 109.591 18.3691 109.576 18.4937V32.339C109.578 32.4686 109.628 32.5927 109.717 32.6875C109.805 32.7821 109.925 32.8407 110.054 32.852H112.65C112.786 32.8501 112.915 32.7955 113.011 32.6996C113.106 32.6038 113.161 32.4744 113.163 32.339V24.8869C113.163 23.9527 113.242 23.1003 113.607 22.2547C113.902 21.5841 114.471 21.1607 115.11 21.1607C116.922 21.1607 116.749 23.3717 116.749 24.8869V32.4079C116.766 32.5256 116.823 32.6342 116.91 32.7149C116.997 32.7958 117.109 32.8443 117.228 32.852H119.858C120.116 32.852 120.34 32.6552 120.37 32.4079V23.69C120.37 22.3499 120.374 20.488 119.687 19.382C118.952 18.1884 117.787 17.7432 116.613 17.7432ZM85.0514 17.9827C84.7848 17.9827 84.5737 18.1949 84.5727 18.4958V20.4781C84.5737 20.7747 84.7782 20.9889 85.0514 20.9912H89.5601L84.4022 28.6152C84.0874 29.1063 84.0611 29.6631 84.0611 29.9826V31.9999C84.0611 32.2908 84.377 32.6071 84.6754 32.444C87.6145 30.838 91.1374 30.9803 93.7956 32.4101C94.118 32.5863 94.4449 32.2558 94.4449 31.9659V29.8458C94.4374 29.6895 94.3893 29.5379 94.3054 29.4059C94.2214 29.2739 94.1045 29.1661 93.9661 29.0933C92.4577 28.2245 90.7068 27.9588 89.0475 27.9992L93.5224 21.4353C93.9366 20.8456 94.1684 20.4901 94.1716 20.2047V18.4958C94.1716 18.2016 93.9704 17.9827 93.6929 17.9827H85.0514ZM101.618 20.581C102.451 20.581 103.066 20.9529 103.361 21.9145C103.702 23.0227 103.737 24.4066 103.737 25.5728C103.737 27.3494 103.654 30.29 101.618 30.29C99.5602 30.29 99.569 26.6493 99.569 24.9568C99.569 23.2689 99.6815 20.581 101.618 20.581ZM43.2432 25.6406V26.2214C43.2432 27.2728 43.2815 28.1578 42.7644 29.0933C42.3469 29.8535 41.6911 30.3239 40.9545 30.3239C39.9488 30.3239 39.3487 29.5078 39.3487 28.3416C39.3498 26.0421 41.3457 25.6406 43.2432 25.6406ZM77.6735 25.6406V26.2214C77.6735 27.2728 77.7118 28.1578 77.1947 29.0933C76.7772 29.8535 76.1247 30.3239 75.3846 30.3239C74.3779 30.3239 73.7791 29.5078 73.7791 28.3416C73.7801 26.0421 75.7738 25.6406 77.6735 25.6406Z" fill="#040505"/>
<path d="M94.7195 33.3003V35.2826H96.0519V33.3003H94.7195ZM56.0875 33.6416V47.7604H57.3172V46.4958C57.5796 46.9969 57.878 47.3722 58.2397 47.6238C58.6004 47.8753 59.0148 48.0001 59.4694 48.0001C60.3722 48.0001 61.1516 47.5384 61.8259 46.5987C62.5004 45.659 62.8512 44.297 62.8512 42.5641C62.8512 41.4296 62.7059 40.4899 62.4075 39.6924C62.1091 38.897 61.7101 38.3053 61.2117 37.9146C60.7132 37.5241 60.1471 37.2999 59.5383 37.2999C59.1151 37.2955 58.6997 37.4139 58.3426 37.6412C57.9872 37.8687 57.6999 38.2396 57.4199 38.7013V33.6416H56.0875ZM68.7263 36.9586C67.7993 36.9586 67.0638 37.2332 66.5401 37.779C66.0167 38.3238 65.7543 39.0273 65.7543 39.8992C65.7543 40.4057 65.8679 40.8334 66.0614 41.2327C66.2548 41.6321 66.5336 41.9525 66.8812 42.1899C67.231 42.4273 67.9284 42.7391 68.9645 43.0782C69.6816 43.3091 70.1101 43.5061 70.2968 43.6591C70.568 43.8834 70.7067 44.1777 70.7067 44.5824C70.7067 45.0508 70.545 45.4413 70.228 45.7443C69.9121 46.0495 69.4727 46.1885 68.8956 46.1885C68.3185 46.1885 67.8432 46.0265 67.4956 45.6754C67.148 45.3242 66.9599 44.7904 66.8812 44.0683L65.5488 44.3418C65.8494 46.5353 66.9424 47.6248 68.8279 47.6238C69.8334 47.6238 70.603 47.3382 71.1845 46.7355C71.7659 46.1326 72.0721 45.3187 72.0721 44.3418C72.0721 43.8145 71.979 43.3573 71.7987 42.9743C71.6183 42.5914 71.3703 42.3082 71.0467 42.086C70.7221 41.865 69.9986 41.5697 68.8946 41.1977C68.0922 40.9166 67.6223 40.7109 67.4605 40.5828C67.1884 40.3663 67.0506 40.0709 67.0506 39.6945C67.0506 39.3095 67.1775 38.9834 67.4605 38.7373C67.7436 38.4913 68.1797 38.361 68.7591 38.361C69.7777 38.361 70.3472 38.9212 70.4663 40.036L71.7649 39.8303C71.6753 39.1247 71.5212 38.5677 71.2861 38.1892C71.051 37.8107 70.7035 37.4914 70.2608 37.266C69.8193 37.0417 69.311 36.9586 68.7263 36.9586ZM76.89 36.9586C75.8222 36.9586 74.9215 37.3983 74.2253 38.326C73.5291 39.2538 73.1999 40.597 73.1999 42.3606C73.1999 44.0596 73.5356 45.3909 74.2253 46.2924C74.9149 47.1927 75.8091 47.6259 76.9239 47.6259C77.8104 47.6259 78.545 47.3602 79.1438 46.8054C79.7439 46.2507 80.179 45.4347 80.4074 44.344L79.0412 44.1043C78.6487 45.5014 77.9252 46.1873 76.9228 46.1895C76.2846 46.1895 75.7632 45.9181 75.3172 45.3351C74.8713 44.7509 74.6188 43.8846 74.5651 42.7369H80.4401V42.2578C80.4401 40.5326 80.097 39.2373 79.415 38.326C78.735 37.4148 77.9076 36.9586 76.89 36.9586ZM84.9851 36.9586C84.6658 36.9586 84.3871 37.0668 84.1313 37.2999C83.8755 37.5329 83.5849 38.0165 83.2777 38.7352V37.1621H82.082V47.3841H83.4143V42.0521C83.4143 41.3083 83.4842 40.5928 83.6537 39.9319C83.7499 39.5534 83.9312 39.2548 84.1663 39.0436C84.4014 38.8326 84.6691 38.7363 84.9523 38.7363C85.2659 38.7363 85.5774 38.8621 85.9086 39.1125L86.3523 37.5056C85.8867 37.1336 85.4309 36.9586 84.9851 36.9586ZM101.311 36.9586C100.257 36.9586 99.3878 37.4028 98.7156 38.2921C98.0456 39.1804 97.6903 40.5151 97.6903 42.2917C97.6903 44.0541 98.0489 45.3898 98.7156 46.2913C99.3813 47.1916 100.214 47.6248 101.243 47.6248C102.092 47.6248 102.822 47.3087 103.429 46.6676C104.035 46.0265 104.405 45.0835 104.556 43.8649L103.257 43.6591C103.161 44.531 102.933 45.1579 102.574 45.5736C102.214 45.9871 101.781 46.1885 101.275 46.1885C100.63 46.1885 100.082 45.8876 99.6698 45.265C99.2577 44.6426 99.0554 43.6471 99.0554 42.2567C99.0554 40.9089 99.2731 39.9364 99.7047 39.316C100.137 38.6958 100.686 38.3588 101.344 38.3588C101.784 38.3588 102.159 38.5295 102.471 38.8718C102.786 39.2131 102.995 39.7559 103.12 40.445L104.419 40.1716C104.263 39.095 103.917 38.2823 103.36 37.7441C102.802 37.2048 102.126 36.9586 101.311 36.9586ZM108.929 36.9586C107.861 36.9586 106.96 37.3983 106.264 38.326C105.568 39.2538 105.239 40.597 105.239 42.3606C105.239 44.0596 105.574 45.3909 106.264 46.2924C106.955 47.1927 107.848 47.6259 108.963 47.6259C109.847 47.6259 110.583 47.3602 111.183 46.8054C111.782 46.2507 112.217 45.4347 112.446 44.344L111.08 44.1043C110.687 45.5014 109.996 46.1873 108.997 46.1895C108.358 46.1895 107.803 45.9181 107.357 45.3351C106.911 44.7509 106.66 43.8846 106.605 42.7369H112.48V42.2578C112.48 40.5326 112.137 39.2373 111.455 38.326C110.777 37.4148 109.947 36.9586 108.929 36.9586ZM116.819 36.9586C115.89 36.9586 115.157 37.2332 114.633 37.779C114.109 38.3238 113.847 39.0273 113.847 39.8992C113.847 40.4057 113.927 40.8334 114.121 41.2327C114.313 41.6309 114.591 41.9525 114.94 42.1899C115.288 42.4273 115.989 42.7391 117.024 43.0782C117.739 43.3091 118.203 43.5061 118.39 43.6591C118.661 43.8834 118.8 44.1777 118.8 44.5824C118.8 45.0508 118.638 45.4413 118.321 45.7443C118.006 46.0495 117.566 46.1885 116.989 46.1885C116.41 46.1885 115.936 46.0265 115.589 45.6754C115.241 45.3242 115.017 44.7904 114.939 44.0683L113.607 44.3418C113.908 46.5353 114.998 47.6248 116.886 47.6238C117.893 47.6238 118.695 47.3382 119.277 46.7355C119.86 46.1326 120.165 45.3187 120.165 44.3418C120.165 43.8145 120.072 43.3573 119.892 42.9743C119.712 42.5914 119.431 42.3082 119.106 42.086C118.782 41.865 118.092 41.5697 116.988 41.1977C116.185 40.9166 115.681 40.7109 115.519 40.5828C115.247 40.3663 115.109 40.0709 115.109 39.6945C115.109 39.3095 115.27 38.9834 115.553 38.7373C115.836 38.4913 116.274 38.361 116.851 38.361C117.87 38.361 118.439 38.9212 118.558 40.036L119.857 39.8303C119.766 39.1247 119.614 38.5677 119.378 38.1892C119.127 37.7933 118.773 37.4739 118.353 37.266C117.915 37.0417 117.403 36.9586 116.819 36.9586ZM86.3513 37.1631L89.3232 47.3852H90.5867L93.5587 37.1631H92.1923L90.45 43.4195C90.2391 44.1755 90.0533 44.8286 89.9375 45.3679C89.7921 44.6885 89.6534 43.9753 89.4587 43.2829L87.7515 37.1631H86.3513ZM94.7195 37.1631V47.3852H96.0519V37.1631H94.7195ZM50.9306 37.2999C49.8737 37.2999 49.0234 37.7746 48.3347 38.7013C47.6451 39.629 47.2756 40.9723 47.2756 42.7359C47.2756 44.4348 47.6166 45.7322 48.3009 46.6326C48.9851 47.5329 49.8956 48.0001 50.9995 48.0001C51.8762 48.0001 52.5921 47.7003 53.1857 47.1457C53.778 46.591 54.1879 45.7748 54.4153 44.6843L53.0828 44.4785C52.6948 45.8755 51.9898 46.5615 50.9995 46.5637C50.3668 46.5637 49.8356 46.2924 49.3939 45.7092C48.9523 45.1252 48.6955 44.2586 48.642 43.1111H54.4481L54.482 42.632C54.482 40.9066 54.1321 39.5776 53.4566 38.6663C52.7811 37.755 51.9373 37.2999 50.9306 37.2999ZM35.9355 37.5394L38.3271 47.7616H39.7271L41.299 39.898L41.5723 41.6419L42.8358 47.7616H44.202L46.6275 37.5394H45.364L44.0315 43.4534L43.5877 45.4358L43.1778 43.4534L42.017 37.5394H40.6508L39.4211 43.5224L39.0112 45.6425L38.5325 43.4546L37.303 37.5406H35.9355V37.5394ZM120.952 37.6422V38.1215H122.25V41.5402H122.763V38.1215H124.062V37.6422H120.952ZM124.573 37.6422V41.539H125.052V38.2232L126.179 41.539H126.658L127.785 38.2911V41.539H128.297V37.6422H127.58L126.658 40.3773C126.565 40.6507 126.498 40.8487 126.452 40.992L126.247 40.4112L125.324 37.6422H124.573ZM76.855 38.36C77.5186 38.36 78.065 38.6816 78.4946 39.3172C78.7897 39.7526 78.9809 40.4155 79.0412 41.2995H74.6352C74.6766 40.4023 74.9303 39.7099 75.3521 39.1794C75.7741 38.6488 76.2594 38.36 76.855 38.36ZM108.895 38.36C109.556 38.36 110.105 38.6816 110.534 39.3172C110.83 39.7526 111.021 40.4155 111.081 41.2995H106.675C106.717 40.4023 106.97 39.7099 107.392 39.1794C107.813 38.6509 108.298 38.36 108.895 38.36ZM50.9306 38.7363C51.5865 38.7363 52.1134 39.0578 52.5364 39.6935C52.8282 40.1289 53.0227 40.7918 53.0828 41.6758H48.7446C48.7862 40.7787 49.008 40.0523 49.4277 39.5217C49.8442 38.9922 50.3393 38.7363 50.9306 38.7363ZM59.4016 38.7363C59.9941 38.7363 60.498 39.0656 60.9046 39.6935C61.3112 40.3226 61.4849 41.2918 61.4849 42.634C61.4849 43.9415 61.2926 44.9162 60.8706 45.5746C60.4488 46.2332 59.9459 46.5658 59.4016 46.5658C59.0017 46.5658 58.6377 46.4312 58.3086 46.1556C57.9786 45.8799 57.737 45.485 57.5566 44.9589C57.3763 44.4326 57.2834 43.623 57.2834 42.5651C57.2834 41.3191 57.5052 40.386 57.9327 39.7274C58.36 39.0688 58.8574 38.7363 59.4016 38.7363Z" fill="#040505"/>
<path d="M16.7894 27.8964L11.7003 30.0844L16.4134 32.1017L21.8785 30.0844L16.7894 27.8964ZM9.13823 30.6312L8.96773 40.477L16.4134 43.7591V33.5368L9.13823 30.6312ZM24.4405 30.6312L17.7119 33.1955V42.8356L24.4405 40.1007V30.6312ZM32.4677 0L27.3436 2.18794L32.0918 4.20524L37.5568 2.18794L32.4677 0ZM25.3632 2.9067V12.7525L31.7158 14.5991L31.9213 5.64163L25.3632 2.9067ZM39.5725 3.45367L33.5607 6.01796V15.6931L39.5725 12.9581V3.45367ZM8.40371 13.8574L3.31459 16.0453L8.02771 18.0626L13.4928 16.0453L8.40371 13.8574ZM0.752543 16.5923L0.582031 26.4381L8.02771 29.7199V19.4979L0.752543 16.5923ZM16.0549 16.5923L9.32623 19.1566V28.7967L16.0549 26.0618V16.5923ZM24.7992 13.4942L19.7099 15.6821L24.4231 17.6995L29.8882 15.6821L24.7992 13.4942ZM17.1479 16.2291L16.9774 26.0748L24.4231 29.3569V19.1358L17.1479 16.2291ZM32.4503 16.2291L25.7216 18.7933V28.4336L32.4503 25.6986V16.2291ZM48.4816 0L43.3925 2.18794L48.1057 4.20524L53.5709 2.18794L48.4816 0ZM40.8305 2.73494L40.6599 12.5807L48.1057 15.8626V5.64163L40.8305 2.73494ZM56.1329 2.73494L49.4043 5.29922V14.9393L56.1329 12.2044V2.73494Z" fill="#F48C26"/>
</svg>
