<svg width="141" height="48" viewBox="0 0 141 48" fill="none" xmlns="http://www.w3.org/2000/svg">
<path d="M19.0255 45.0212H24.5001V47.7581H15.8752V36.4681H19.0255V45.0212ZM27.7485 42.1452V42.1066C27.7485 38.8665 30.3735 36.23 33.8687 36.23C37.3637 36.23 39.9474 38.8267 39.9474 42.0667V42.1054C39.9474 45.3453 37.3224 47.982 33.8272 47.982C30.3322 47.982 27.7485 45.3853 27.7485 42.1452ZM36.7556 42.1452V42.1066C36.7556 40.4763 35.5845 39.0672 33.8479 39.0672C32.1307 39.0672 30.9816 40.457 30.9816 42.086V42.1246C30.9816 43.755 32.1526 45.164 33.8699 45.164C35.6066 45.164 36.7581 43.7742 36.7581 42.1452H36.7556ZM43.8156 42.8079V36.4681H47.0048V42.7474C47.0048 44.3778 47.8311 45.1408 49.0706 45.1408C50.3101 45.1408 51.1363 44.3944 51.1363 42.8247V36.4655H54.3256V42.7242C54.3256 46.3658 52.2597 47.9575 49.015 47.9575C45.804 47.9575 43.786 46.349 43.786 42.8053L43.8156 42.8079ZM59.1248 36.4681H63.4863C67.5249 36.4681 69.8877 38.7842 69.8877 42.0423V42.0809C69.8877 45.3416 67.5042 47.7425 63.4255 47.7425H59.126V36.4525L59.1248 36.4681ZM63.5468 44.9812C65.4256 44.9812 66.6767 43.9544 66.6767 42.1246V42.086C66.6767 40.2742 65.4242 39.2294 63.5468 39.2294H62.2752V44.9658H63.5468V44.9812ZM74.4778 36.4681H83.5454V39.2049H77.6087V41.1377H82.9799V43.7343H77.6087V47.7593H74.4803L74.4778 36.4681ZM91.0368 45.0212H96.5293V47.7581H87.9043V36.4681H91.034L91.0368 45.0212ZM104.728 36.3999H107.757L112.583 47.771H109.226L108.4 45.7585H104.036L103.228 47.771H99.9353L104.741 36.3999H104.728ZM107.495 43.3225L106.242 40.1224L104.971 43.3225H107.495ZM116.636 36.4809H121.988C123.725 36.4809 124.916 36.9236 125.683 37.7085C126.349 38.3519 126.693 39.2177 126.693 40.3462V40.385C126.693 42.1157 125.763 43.2634 124.369 43.8592L127.075 47.8044H123.44L121.159 44.3816H119.774V47.8044H116.636V36.4809ZM121.846 41.8944C122.918 41.8944 123.522 41.3705 123.522 40.5663V40.5278C123.522 39.6425 122.876 39.1997 121.825 39.1997H119.766V41.8969H121.832L121.846 41.8944ZM134.325 45.1022H140.404V47.7593H131.216V36.4707H140.324V39.1277H134.325V40.8391H139.757V43.3148H134.325V45.1022ZM9.00632 43.4706C8.56216 44.4561 7.63254 45.1614 6.42143 45.1614C4.70421 45.1614 3.53314 43.7459 3.53314 42.122V42.0835C3.53314 40.453 4.68484 39.0647 6.3995 39.0647C7.69063 39.0647 8.68094 39.8368 9.08508 40.937H12.3969C11.8714 38.2399 9.48921 36.248 6.41887 36.248C2.92502 36.248 0.298828 38.8859 0.298828 42.1246V42.1632C0.303993 45.4033 2.88886 48 6.38271 48C9.37171 48 11.7151 46.0672 12.3194 43.4912L9.0076 43.4706H9.00632Z" fill="#040505"/>
<path d="M119.096 29.3819C119.519 27.933 119.358 26.6051 118.652 25.6181C118.006 24.7123 116.915 24.2026 115.602 24.1294L90.7422 23.8077C90.5807 23.8077 90.4387 23.7266 90.3588 23.6069C90.2787 23.4873 90.258 23.3239 90.298 23.1643C90.3434 23.0426 90.4226 22.9363 90.5263 22.8578C90.6302 22.7794 90.7544 22.7321 90.8842 22.7217L115.966 22.3999C118.936 22.2713 122.166 19.8651 123.297 16.9261L124.717 13.2022C124.781 13.0493 124.795 12.8807 124.757 12.7196C123.143 5.434 116.619 3.05343e-09 108.825 3.05343e-09C105.411 -6.58702e-05 102.083 1.06571 99.3092 3.04757C96.5347 5.02943 94.453 7.82779 93.3567 11.0494C91.9429 10.0033 90.1456 9.44097 88.2076 9.63399C86.5265 9.80737 84.9563 10.5522 83.7613 11.7433C82.5661 12.9343 81.8187 14.4991 81.6447 16.1746C81.561 17.0305 81.6221 17.8944 81.8256 18.73C79.1087 18.8065 76.529 19.9367 74.6355 21.88C72.742 23.8231 71.6843 26.4262 71.6875 29.1349C71.6908 29.6395 71.7245 30.1435 71.7881 30.6442C71.827 30.8861 72.0309 31.0663 72.2723 31.0663H118.153C118.415 31.0663 118.67 30.8861 118.739 30.6237L119.083 29.3961L119.096 29.3819Z" fill="#F2802D"/>
<path d="M127.017 13.4632L126.33 13.4838C126.169 13.4838 126.027 13.6047 125.966 13.7669L124.998 17.1279C124.574 18.5768 124.736 19.9047 125.442 20.8917C126.088 21.7975 127.179 22.3072 128.492 22.3804L133.783 22.7022C133.944 22.7022 134.086 22.7832 134.166 22.9029C134.206 22.9687 134.232 23.0419 134.242 23.118C134.253 23.1941 134.247 23.2715 134.227 23.3455C134.182 23.4672 134.102 23.5735 133.999 23.652C133.895 23.7304 133.771 23.7777 133.641 23.7881L128.128 24.1099C125.138 24.2385 121.927 26.6448 120.796 29.5837L120.392 30.6105C120.311 30.8112 120.453 31.0133 120.676 31.0133H139.617C139.84 31.0133 140.041 30.8846 140.102 30.6504C140.435 29.4575 140.604 28.2253 140.606 26.9871C140.597 23.3997 139.161 19.9623 136.614 17.4274C134.067 14.8925 130.616 13.4667 127.016 13.4619" fill="#F9AC48"/>
</svg>
