<svg width="157" height="49" viewBox="0 0 157 49" fill="none" xmlns="http://www.w3.org/2000/svg">
<path d="M13.2344 23.2277V12.5269C13.2344 9.10449 16.0197 6.33286 19.459 6.33286C22.8983 6.33286 25.6836 9.10449 25.6836 12.5269V23.2037H31.6904V12.5269C31.6904 5.82674 26.2165 0.379883 19.459 0.379883C12.7258 0.379883 7.25195 5.82674 7.25195 12.5269V23.2037H13.2344V23.2277Z" fill="#C20D33"/>
<path d="M17.7153 12.284C18.6841 11.4646 20.2585 11.4646 21.2272 12.284C22.1961 13.1035 23.9642 13.4891 25.1993 13.1276C26.4105 12.766 27.8635 13.3927 28.3964 14.5495C28.9536 15.7064 30.4068 16.7668 31.6904 16.9114C32.9499 17.0801 34.0155 18.237 34.0398 19.5143C34.0641 20.7917 34.9844 22.3582 36.0743 23.009C37.1643 23.6598 37.6487 25.154 37.1643 26.335C36.6798 27.4918 36.8737 29.2995 37.5761 30.3599C38.3027 31.3962 38.133 32.9627 37.2127 33.8304C36.2923 34.698 35.7111 36.4334 35.9533 37.6624C36.1954 38.9158 35.3962 40.2654 34.2095 40.6751C32.9983 41.0848 31.7873 42.4345 31.4967 43.6638C31.2061 44.8928 29.9223 45.8087 28.663 45.7123C27.4034 45.6159 25.7322 46.3389 24.9572 47.3512C24.182 48.3633 22.6562 48.6768 21.5421 48.0742C20.428 47.4716 18.6114 47.4716 17.4731 48.0742C16.3589 48.6768 14.8088 48.3633 14.0338 47.3512C13.2587 46.3389 11.5875 45.6159 10.3281 45.7123C9.06859 45.8087 7.78491 44.8928 7.49427 43.6638C7.20362 42.4345 5.9926 41.0848 4.78157 40.6751C3.57057 40.2654 2.79551 38.8917 3.03772 37.6624C3.27992 36.4092 2.72285 34.698 1.77825 33.8304C0.857875 32.9627 0.688331 31.3962 1.41494 30.3599C2.14156 29.3235 2.33532 27.5158 1.82669 26.335C1.34228 25.1782 1.82669 23.6838 2.9166 23.009C4.00653 22.3582 4.9269 20.7675 4.95113 19.5143C4.97534 18.2611 6.04103 17.0801 7.30049 16.9114C8.55997 16.7427 10.0374 15.6823 10.5945 14.5495C11.1273 13.3927 12.5805 12.766 13.7916 13.1276C14.9784 13.4891 16.7465 13.1035 17.7153 12.284Z" fill="#C20D33"/>
<path d="M19.4598 17.9717C12.775 17.9717 7.34961 23.3704 7.34961 30.0223C7.34961 36.6741 12.775 42.0728 19.4598 42.0728C26.1446 42.0728 31.57 36.6741 31.57 30.0223C31.57 23.3704 26.1446 17.9717 19.4598 17.9717Z" fill="white"/>
<path d="M20.2841 22.1191C19.509 22.1191 18.7825 22.1915 18.1285 22.2879C14.229 22.8663 12.1219 24.9872 11.6374 28.5783L11.2984 31.3017C11.0804 33.1815 11.4194 34.5794 12.3156 35.5917C13.3813 36.7726 15.1978 37.7366 17.8863 37.7366H22.6092C25.3461 37.7366 25.6852 34.8927 25.6852 34.8927H19.4122C18.5645 34.8927 17.741 34.8204 17.1597 34.6034C16.3846 34.3143 15.9002 33.8083 15.7307 32.8924C15.658 32.5309 15.6822 31.7355 15.7549 31.2053L16.0698 28.8192C16.1667 28.2166 16.3604 27.5418 16.4331 27.3009C16.6753 26.7225 17.0386 26.1441 17.6441 25.7102C18.0074 25.4693 18.8309 24.9631 20.9622 24.9631H24.4257C26.8479 24.9631 27.2839 22.1191 27.2839 22.1191H20.2841Z" fill="#C20D33"/>
<path d="M53.7311 37.4424C53.7311 37.9486 53.61 38.4065 53.3436 38.7922C53.0773 39.1777 52.7139 39.491 52.2295 39.7079C51.7452 39.9248 51.1637 40.0454 50.5099 40.0454C49.9528 40.0454 49.5167 40.0212 49.1293 39.9248C48.766 39.8526 48.3785 39.7079 47.9668 39.5151V37.563C48.3785 37.7799 48.8386 37.9486 49.2747 38.069C49.7347 38.1896 50.1465 38.2377 50.534 38.2377C50.8731 38.2377 51.1154 38.1896 51.2606 38.069C51.406 37.9486 51.4786 37.8039 51.4786 37.6353C51.4786 37.5148 51.4544 37.4184 51.3817 37.346C51.3091 37.2497 51.2123 37.1773 51.0911 37.0809C50.9457 36.9845 50.5825 36.8158 50.0013 36.5507C49.4684 36.3097 49.0566 36.0686 48.7903 35.8517C48.5238 35.6348 48.33 35.3697 48.1846 35.0805C48.0637 34.7912 47.9909 34.4297 47.9909 34.0443C47.9909 33.2971 48.2574 32.6945 48.8144 32.2848C49.3715 31.8751 50.1224 31.6582 51.0911 31.6582C51.9389 31.6582 52.8107 31.8509 53.6828 32.2366L53.0045 33.9477C52.2295 33.5862 51.5755 33.4175 51.0185 33.4175C50.7279 33.4175 50.534 33.4658 50.3888 33.5622C50.2676 33.6586 50.195 33.7791 50.195 33.9477C50.195 34.1164 50.2676 34.2612 50.4371 34.3816C50.6068 34.5021 51.0669 34.743 51.7935 35.0805C52.4959 35.3938 52.9804 35.7313 53.271 36.0928C53.5859 36.4301 53.7311 36.8882 53.7311 37.4424Z" fill="#040505"/>
<path d="M60.3659 37.4424C60.3659 37.9486 60.2449 38.4065 59.9784 38.7922C59.712 39.1777 59.3486 39.491 58.8643 39.7079C58.3799 39.9248 57.7985 40.0454 57.1447 40.0454C56.6118 40.0454 56.1515 40.0212 55.764 39.9248C55.4008 39.8526 55.0133 39.7079 54.6016 39.5151V37.563C55.0133 37.7799 55.4734 37.9486 55.9094 38.069C56.3695 38.1896 56.7813 38.2377 57.1689 38.2377C57.5079 38.2377 57.7502 38.1896 57.8954 38.069C58.0408 37.9486 58.1377 37.8039 58.1377 37.6353C58.1377 37.5148 58.1134 37.4184 58.0408 37.346C57.9682 37.2497 57.8713 37.1773 57.7502 37.0809C57.6048 36.9845 57.2415 36.8158 56.6603 36.5507C56.1274 36.3097 55.7157 36.0686 55.4491 35.8517C55.1828 35.6348 54.989 35.3697 54.8679 35.0805C54.7468 34.7912 54.6742 34.4297 54.6742 34.0443C54.6742 33.2971 54.9405 32.6945 55.4977 32.2848C56.0546 31.8751 56.8055 31.6582 57.7744 31.6582C58.622 31.6582 59.494 31.8509 60.3659 32.2366L59.6878 33.9477C58.9128 33.5862 58.2588 33.4175 57.7016 33.4175C57.411 33.4175 57.193 33.4658 57.0719 33.5622C56.9509 33.6586 56.8781 33.7791 56.8781 33.9477C56.8781 34.1164 56.9509 34.2612 57.1204 34.3816C57.2899 34.5021 57.7259 34.743 58.4768 35.0805C59.1792 35.3938 59.6878 35.7313 59.9541 36.0928C60.2207 36.4301 60.3659 36.8882 60.3659 37.4424Z" fill="#040505"/>
<path d="M61.627 39.9246V31.7544H63.8309V38.1412H66.9795V39.9246H61.627Z" fill="#040505"/>
<path d="M72.0906 32.1637C71.0734 32.1637 70.2499 32.501 69.6684 33.1518C69.0872 33.8026 68.7723 34.6943 68.7723 35.8511C68.7723 37.008 69.0629 37.9239 69.5958 38.5745C70.153 39.2253 70.9522 39.5386 71.9937 39.5386C72.6718 39.5386 73.3258 39.4422 73.8828 39.2735V39.7795C73.3501 39.9724 72.6718 40.0688 71.8483 40.0688C70.6857 40.0688 69.7896 39.7073 69.1357 38.9602C68.4817 38.213 68.1426 37.1767 68.1426 35.8511C68.1426 35.0316 68.3122 34.2844 68.6271 33.6578C68.942 33.0312 69.4021 32.5252 69.9833 32.1877C70.5647 31.8504 71.2671 31.6816 72.0421 31.6816C72.8413 31.6816 73.5679 31.8262 74.1977 32.1395L73.9797 32.6457C73.3742 32.3082 72.7444 32.1637 72.0906 32.1637Z" fill="#040505"/>
<path d="M80.2034 39.9246H75.7227V31.7544H80.2034V32.2846H76.3039V35.3697H79.9854V35.8999H76.3039V39.3946H80.2034V39.9246Z" fill="#040505"/>
<path d="M82.6234 36.3561V39.8989H82.0664V31.7285H84.0283C85.0455 31.7285 85.7962 31.9214 86.2808 32.2829C86.7651 32.6686 87.0074 33.2228 87.0074 33.97C87.0074 34.5242 86.862 34.9823 86.5714 35.3438C86.2808 35.7295 85.8448 35.9946 85.2393 36.1631L87.4675 39.8748H86.7894L84.6821 36.3319H82.6234V36.3561ZM82.6234 35.874H84.1978C84.9001 35.874 85.433 35.7295 85.7962 35.4161C86.1839 35.1028 86.3776 34.6448 86.3776 34.0664C86.3776 33.4398 86.1839 32.9819 85.8205 32.7168C85.4573 32.4275 84.8275 32.2829 83.9798 32.2829H82.6234V35.874Z" fill="#040505"/>
<path d="M91.0306 39.9265H90.4494V32.3105H87.7852V31.7803H93.6949V32.3105H91.0306V39.9265Z" fill="#040505"/>
<path d="M94.9062 39.9246V31.7544H95.4875V39.9246H94.9062Z" fill="#040505"/>
<path d="M98.3695 39.9246H97.8125V31.7544H102.317V32.2846H98.3937V35.7551H102.099V36.2854H98.3937V39.9246H98.3695Z" fill="#040505"/>
<path d="M103.576 39.9246V31.7544H104.157V39.9246H103.576Z" fill="#040505"/>
<path d="M109.972 32.1637C108.955 32.1637 108.132 32.501 107.55 33.1518C106.969 33.8026 106.654 34.6943 106.654 35.8511C106.654 37.008 106.945 37.9239 107.502 38.5745C108.059 39.2253 108.858 39.5386 109.9 39.5386C110.578 39.5386 111.232 39.4422 111.789 39.2735V39.7795C111.256 39.9724 110.578 40.0688 109.755 40.0688C108.592 40.0688 107.696 39.7073 107.042 38.9602C106.388 38.213 106.049 37.1767 106.049 35.8511C106.049 35.0316 106.218 34.2844 106.533 33.6578C106.848 33.0312 107.308 32.5252 107.89 32.1877C108.471 31.8504 109.173 31.6816 109.948 31.6816C110.748 31.6816 111.474 31.8262 112.104 32.1395L111.862 32.6457C111.256 32.3082 110.626 32.1637 109.972 32.1637Z" fill="#040505"/>
<path d="M117.55 37.0339H114.208L113.069 39.9018H112.439L115.733 31.7075H116.097L119.318 39.9018H118.664L117.55 37.0339ZM114.426 36.5276H117.356L116.242 33.5873C116.145 33.3464 116.048 33.0331 115.903 32.6232C115.806 32.9847 115.685 33.298 115.564 33.5873L114.426 36.5276Z" fill="#040505"/>
<path d="M122.636 39.9265H122.055V32.3105H119.391V31.7803H125.3V32.3105H122.636V39.9265Z" fill="#040505"/>
<path d="M130.994 39.9246H126.514V31.7544H130.994V32.2846H127.071V35.3697H130.776V35.8999H127.071V39.3946H130.994V39.9246Z" fill="#040505"/>
<path fill-rule="evenodd" clip-rule="evenodd" d="M71.48 10.6387H72.1823C74.9677 10.6628 76.8327 11.4581 77.8983 12.6391C78.7944 13.6272 79.1093 15.001 78.8913 16.8327L78.5523 19.3875L78.5038 19.6526C77.8741 23.34 75.2826 25.3404 70.3899 25.3886H69.6876C66.8781 25.3644 65.0131 24.4969 63.9473 23.3158C63.0755 22.3518 62.7606 21.0262 62.9786 19.2669L63.3178 16.7122C63.8747 12.7596 66.4906 10.6869 71.48 10.6387ZM74.4591 19.1705L74.774 16.8327C74.9435 15.5794 74.7981 14.6877 74.3622 14.061C73.8051 13.3139 72.7878 13.1934 72.0369 13.1934H71.3105C70.1962 13.1934 69.3001 13.4826 68.6463 14.1092C67.9922 14.76 67.5805 15.6758 67.411 16.9291L67.0961 19.2669C66.9507 20.3274 67.0233 21.1227 67.2899 21.677C67.7016 22.4241 68.6463 22.882 69.9541 22.882H70.7048C72.0129 22.882 72.9573 22.3999 73.5871 21.6048C74.0474 21.0022 74.3137 20.2068 74.4591 19.1705ZM123.481 10.952H129.827C133 10.952 135.083 11.6268 136.221 12.9041C137.069 13.8682 137.408 15.1697 137.19 16.8808C137.19 16.8808 136.851 19.7248 136.827 19.8935C136.682 20.8092 136.415 21.5806 136.052 22.2314C135.374 23.364 134.017 25.1475 129.052 25.1475H124.16C122.488 25.1475 121.713 24.5451 121.859 23.4846L122.391 19.5078L122.949 15.0009H125.031C126.533 15.0009 126.921 16.2783 126.824 17.0736L126.146 22.5447H128.543C130.36 22.5447 132.419 22.1108 132.782 19.2669L133.073 17.0736C133.46 14.3261 132.128 13.5067 129.658 13.5067H127.284H125.419C123.82 13.5067 123.506 12.3257 123.481 11.3858V10.952ZM155.501 12.6391C154.435 11.4581 152.57 10.6628 149.785 10.6387H149.083C144.093 10.6869 141.477 12.7596 140.92 16.7122L140.581 19.2669C140.363 21.0262 140.678 22.3518 141.55 23.3158C142.616 24.4969 144.481 25.3644 147.29 25.3886H147.993C152.885 25.3404 155.477 23.34 156.107 19.6526L156.155 19.3875L156.494 16.8327C156.688 15.001 156.373 13.6272 155.501 12.6391ZM152.377 16.8327L152.062 19.1705C151.916 20.2068 151.65 21.0022 151.19 21.6048C150.56 22.3999 149.615 22.882 148.308 22.882H147.532C146.225 22.882 145.28 22.4241 144.868 21.677C144.602 21.1227 144.529 20.3274 144.674 19.2669L144.989 16.9291C145.159 15.6758 145.571 14.76 146.225 14.1092C146.854 13.4826 147.775 13.1934 148.889 13.1934H149.615C150.366 13.1934 151.384 13.3139 151.941 14.061C152.401 14.6877 152.546 15.5794 152.377 16.8327ZM111.71 10.6387H112.413C115.222 10.6628 117.063 11.4581 118.129 12.6391C119.025 13.6272 119.34 15.001 119.122 16.8327L118.783 19.3875L118.734 19.6526C118.105 23.34 115.513 25.3404 110.621 25.3886H109.918C107.109 25.3644 105.244 24.4969 104.178 23.3158C103.306 22.3518 102.991 21.0262 103.209 19.2669L103.548 16.7122C104.105 12.7596 106.721 10.6869 111.71 10.6387ZM114.714 19.1705L115.029 16.8327C115.198 15.5794 115.053 14.6877 114.617 14.061C114.06 13.3139 113.042 13.1934 112.292 13.1934H111.565C110.451 13.1934 109.555 13.4826 108.901 14.1092C108.223 14.76 107.835 15.6758 107.666 16.9291L107.351 19.2669C107.205 20.3274 107.278 21.1227 107.545 21.677C107.956 22.4241 108.901 22.882 110.209 22.882H110.959C112.268 22.882 113.212 22.3999 113.842 21.6048C114.302 21.0022 114.568 20.2068 114.714 19.1705ZM96.6206 11.7474L91.1227 17.9414L87.2717 11.7956C86.9083 11.2171 86.1574 10.952 85.0433 10.952H83.2994L81.5555 25.1235H83.6871C84.3895 25.1235 84.8981 24.8344 85.1887 24.5692C85.6488 24.1836 85.9396 23.6291 86.0122 23.0507L86.7872 16.8327L89.6211 22.2072C89.742 22.4001 90.0812 22.858 90.5414 22.858H90.5898C91.0741 22.858 91.4859 22.4001 91.607 22.2554L95.9183 16.8327L94.8768 25.0995H96.9355C97.6379 25.0995 98.1465 24.8102 98.4373 24.5451C98.8731 24.1594 99.188 23.6051 99.2608 23.0267L100.762 10.9279H98.9459C97.8801 10.952 97.0809 11.2171 96.6206 11.7474ZM53.5812 11.0966C54.1867 11.0002 54.8407 10.952 55.543 10.952V10.9279H61.9614C61.9614 10.9279 61.5496 13.5068 59.3457 13.5068H56.1728C54.2352 13.5068 53.46 13.9647 53.1452 14.2057C52.5882 14.5913 52.249 15.1456 52.031 15.6518C51.9584 15.8446 51.7889 16.4712 51.6919 17.0255L51.4013 19.1945C51.3287 19.6526 51.3287 20.3756 51.3772 20.713C51.5467 21.5566 51.9584 22.0144 52.6851 22.2796C53.2179 22.4723 53.9687 22.5447 54.7438 22.5447H60.4355C60.4355 22.5447 60.1449 25.1477 57.6501 25.1477H53.3389C50.8927 25.1477 49.2457 24.2559 48.2769 23.1955C47.4534 22.2796 47.1628 21.0022 47.3566 19.2911L47.6714 16.8086C48.1315 13.555 50.0208 11.6269 53.5812 11.0966Z" fill="#040505"/>
</svg>
