<svg width="121" height="46" viewBox="0 0 121 46" fill="none" xmlns="http://www.w3.org/2000/svg">
<g clip-path="url(#clip0_2474_49078)">
<path fill-rule="evenodd" clip-rule="evenodd" d="M7.70313 0.5H45.9531V45.5H7.70313C3.9752 45.5 0.953125 42.4779 0.953125 38.75V7.25C0.953125 3.52207 3.9752 0.5 7.70313 0.5Z" fill="#2050E0"/>
<path fill-rule="evenodd" clip-rule="evenodd" d="M112.682 2H7.72455C4.84438 2 2.45312 4.3965 2.45312 7.42308V38.5769C2.45312 41.6035 4.84438 44 7.72455 44H112.682C115.562 44 117.953 41.6035 117.953 38.5769V7.42308C117.953 4.39652 115.562 2 112.682 2ZM7.72455 0.5H112.682C116.421 0.5 119.453 3.59956 119.453 7.42308V38.5769C119.453 42.4004 116.421 45.5 112.682 45.5H7.72455C3.98481 45.5 0.953125 42.4004 0.953125 38.5769V7.42308C0.953125 3.59956 3.98481 0.5 7.72455 0.5Z" fill="#2050E0"/>
<path d="M30.3065 9.72046L30.8176 11.3719H32.4726L31.1337 12.3929L31.6451 14.044L30.3065 13.023L28.9676 14.044L29.479 12.3929L28.1404 11.3719H29.7954L30.3065 9.72046Z" fill="#FFD400"/>
<path d="M23.4979 7.25L24.0091 8.90145H25.664L24.3253 9.92207L24.8366 11.5735L23.4979 10.5523L22.1595 11.5735L22.6709 9.92207L21.3318 8.90145H22.9865L23.4979 7.25Z" fill="#FFD400"/>
<path d="M23.4979 34.4254L24.0091 36.0774H25.664L24.3253 37.0978L24.8366 38.749L23.4979 37.7286L22.1595 38.749L22.6709 37.0978L21.3318 36.0774H22.9865L23.4979 34.4254Z" fill="#FFD400"/>
<path d="M23.4979 34.4254L24.0091 36.0774H25.664L24.3253 37.0978L24.8366 38.749L23.4979 37.7286L22.1595 38.749L22.6709 37.0978L21.3318 36.0774H22.9865L23.4979 34.4254Z" fill="#FFD400"/>
<path d="M35.811 27.4993L36.3219 29.1512H37.9767L36.638 30.1718L37.1497 31.8228L35.811 30.8026L34.472 31.8228L34.9834 30.1718L33.6445 29.1512H35.2994L35.811 27.4993Z" fill="#FFD400"/>
<path d="M37.1145 20.8386L37.6256 22.49H39.2806L37.9417 23.5105L38.4531 25.1622L37.1145 24.1419L35.7758 25.1622L36.2875 23.5105L34.9482 22.49H36.603L37.1145 20.8386Z" fill="#FFD400"/>
<path d="M9.88326 20.8386L10.3944 22.49H12.0491L10.7102 23.5105L11.2219 25.1622L9.88326 24.1419L8.54427 25.1622L9.05571 23.5105L7.7168 22.49H9.3718L9.88326 20.8386Z" fill="#FFD400"/>
<path d="M11.0112 27.4993L11.5223 29.1512H13.177L11.8385 30.1718L12.3495 31.8228L11.0112 30.8026L9.67228 31.8228L10.1836 30.1718L8.84473 29.1512H10.4998L11.0112 27.4993Z" fill="#FFD400"/>
<path d="M11.0112 27.4993L11.5223 29.1512H13.177L11.8385 30.1718L12.3495 31.8228L11.0112 30.8026L9.67228 31.8228L10.1836 30.1718L8.84473 29.1512H10.4998L11.0112 27.4993Z" fill="#FFD400"/>
<path d="M35.811 14.0004L36.3219 15.6524H37.9767L36.638 16.6729L37.1497 18.3239L35.811 17.3037L34.472 18.3239L34.9834 16.6729L33.6445 15.6524H35.2994L35.811 14.0004Z" fill="#FFD400"/>
<path d="M11.5737 14.0004L12.0848 15.6524H13.7395L12.401 16.6729L12.912 18.3239L11.5737 17.3037L10.2348 18.3239L10.7461 16.6729L9.40723 15.6524H11.0623L11.5737 14.0004Z" fill="#FFD400"/>
<path d="M11.5737 14.0004L12.0848 15.6524H13.7395L12.401 16.6729L12.912 18.3239L11.5737 17.3037L10.2348 18.3239L10.7461 16.6729L9.40723 15.6524H11.0623L11.5737 14.0004Z" fill="#FFD400"/>
<path d="M31.5444 33.1902L32.0555 34.8414H33.7104L32.3713 35.8625L32.883 37.5137L31.5444 36.4933L30.2054 37.5137L30.7171 35.8625L29.3782 34.8414H31.0332L31.5444 33.1902Z" fill="#FFD400"/>
<path d="M31.5444 33.1902L32.0555 34.8414H33.7104L32.3713 35.8625L32.883 37.5137L31.5444 36.4933L30.2054 37.5137L30.7171 35.8625L29.3782 34.8414H31.0332L31.5444 33.1902Z" fill="#FFD400"/>
<path d="M15.4528 33.1902L15.9642 34.8423H17.6192L16.2803 35.8624L16.7917 37.5137L15.4528 36.4938L14.1144 37.5137L14.6257 35.8624L13.2869 34.8423H14.9415L15.4528 33.1902Z" fill="#FFD400"/>
<path d="M16.6909 9.72046L17.2018 11.3719H18.857L17.5181 12.3929L18.0298 14.044L16.6909 13.023L15.3522 14.044L15.8636 12.3929L14.5247 11.3719H16.1794L16.6909 9.72046Z" fill="#FFD400"/>
<path d="M27.0402 22.0285H26.5571V20.5327C26.5571 18.7919 25.1841 17.375 23.4973 17.375C21.8104 17.375 20.4376 18.7919 20.4376 20.5327V22.0285H19.9545C19.4211 22.0285 18.9883 22.4751 18.9883 23.0256V27.0142C18.9883 27.5648 19.4211 28.0114 19.9545 28.0114H27.0402C27.5736 28.0114 28.0064 27.5648 28.0064 27.0142V23.0256C28.0064 22.4751 27.5736 22.0285 27.0402 22.0285ZM24.9468 22.0285H22.048V20.5327C22.048 19.7079 22.6982 19.0369 23.4973 19.0369C24.2965 19.0369 24.9468 19.7079 24.9468 20.5327V22.0285Z" fill="white"/>
<path d="M58.9649 29.4917C58.9168 29.3058 58.8506 29.1348 58.7664 28.9787C58.6824 28.8228 58.574 28.6878 58.4418 28.5737C58.3095 28.4598 58.1533 28.3728 57.9728 28.3127C57.7986 28.2468 57.5942 28.2137 57.3597 28.2137C57.0169 28.2137 56.7194 28.2828 56.4667 28.4207C56.2204 28.5588 56.0188 28.7447 55.8626 28.9787C55.7062 29.2068 55.5891 29.4678 55.5108 29.7617C55.4388 30.0558 55.4027 30.3557 55.4027 30.6617C55.4027 30.9677 55.4388 31.2678 55.5108 31.5617C55.5891 31.8558 55.7062 32.1197 55.8626 32.3537C56.0188 32.5818 56.2204 32.7648 56.4667 32.9027C56.7194 33.0408 57.0169 33.1097 57.3597 33.1097C57.6122 33.1097 57.8346 33.0678 58.027 32.9837C58.2193 32.8937 58.3847 32.7738 58.5229 32.6237C58.6613 32.4678 58.7695 32.2878 58.8476 32.0837C58.9258 31.8798 58.9769 31.6607 59.0009 31.4267H60.1011C60.0772 31.8108 59.993 32.1618 59.8487 32.4797C59.7104 32.7978 59.521 33.0737 59.2805 33.3077C59.0399 33.5358 58.7574 33.7127 58.4328 33.8387C58.1081 33.9647 57.7504 34.0277 57.3597 34.0277C56.8787 34.0277 56.4459 33.9408 56.0609 33.7667C55.6823 33.5867 55.3606 33.3437 55.096 33.0377C54.8315 32.7317 54.627 32.3748 54.4827 31.9667C54.3445 31.5588 54.2754 31.1238 54.2754 30.6617C54.2754 30.2058 54.3445 29.7738 54.4827 29.3657C54.627 28.9578 54.8315 28.6007 55.096 28.2947C55.3606 27.9887 55.6823 27.7457 56.0609 27.5657C56.4459 27.3857 56.8787 27.2957 57.3597 27.2957C57.7203 27.2957 58.0601 27.3468 58.3786 27.4487C58.6973 27.5448 58.9769 27.6888 59.2174 27.8807C59.4639 28.0668 59.6622 28.2947 59.8127 28.5647C59.9629 28.8347 60.0561 29.1438 60.0921 29.4917H58.9649Z" fill="#040505"/>
<path d="M63.8676 28.2137C63.5248 28.2137 63.2274 28.2828 62.9747 28.4207C62.7283 28.5588 62.5268 28.7447 62.3706 28.9787C62.2142 29.2068 62.0971 29.4678 62.0188 29.7617C61.9466 30.0558 61.9106 30.3557 61.9106 30.6617C61.9106 30.9677 61.9466 31.2678 62.0188 31.5617C62.0971 31.8558 62.2142 32.1197 62.3706 32.3537C62.5268 32.5818 62.7283 32.7648 62.9747 32.9027C63.2274 33.0408 63.5248 33.1097 63.8676 33.1097C64.2103 33.1097 64.5049 33.0408 64.7514 32.9027C65.0039 32.7648 65.2083 32.5818 65.3645 32.3537C65.5209 32.1197 65.6352 31.8558 65.7073 31.5617C65.7854 31.2678 65.8245 30.9677 65.8245 30.6617C65.8245 30.3557 65.7854 30.0558 65.7073 29.7617C65.6352 29.4678 65.5209 29.2068 65.3645 28.9787C65.2083 28.7447 65.0039 28.5588 64.7514 28.4207C64.5049 28.2828 64.2103 28.2137 63.8676 28.2137ZM63.8676 27.2957C64.3485 27.2957 64.7784 27.3857 65.1572 27.5657C65.542 27.7457 65.8666 27.9887 66.1311 28.2947C66.3957 28.6007 66.597 28.9578 66.7354 29.3657C66.8796 29.7738 66.9518 30.2058 66.9518 30.6617C66.9518 31.1238 66.8796 31.5588 66.7354 31.9667C66.597 32.3748 66.3957 32.7317 66.1311 33.0377C65.8666 33.3437 65.542 33.5867 65.1572 33.7667C64.7784 33.9408 64.3485 34.0277 63.8676 34.0277C63.3866 34.0277 62.9537 33.9408 62.5689 33.7667C62.1903 33.5867 61.8685 33.3437 61.604 33.0377C61.3394 32.7317 61.135 32.3748 60.9907 31.9667C60.8525 31.5588 60.7834 31.1238 60.7834 30.6617C60.7834 30.2058 60.8525 29.7738 60.9907 29.3657C61.135 28.9578 61.3394 28.6007 61.604 28.2947C61.8685 27.9887 62.1903 27.7457 62.5689 27.5657C62.9537 27.3857 63.3866 27.2957 63.8676 27.2957Z" fill="#040505"/>
<path d="M67.9597 27.4488H69.5469L71.3235 32.4798H71.3416L73.073 27.4488H74.6422V33.8748H73.5691V28.9158H73.551L71.7654 33.8748H70.8365L69.051 28.9158H69.0328V33.8748H67.9597V27.4488Z" fill="#040505"/>
<path d="M75.9919 27.4488H78.8325C79.2894 27.4488 79.6623 27.5148 79.9507 27.6468C80.2394 27.7789 80.4618 27.9438 80.6182 28.1418C80.7744 28.3398 80.8797 28.5558 80.9338 28.7898C80.9939 29.0238 81.024 29.2398 81.024 29.4378C81.024 29.6358 80.9939 29.8518 80.9338 30.0858C80.8797 30.3138 80.7744 30.5268 80.6182 30.7248C80.4618 30.9228 80.2394 31.0878 79.9507 31.2198C79.6623 31.3458 79.2894 31.4088 78.8325 31.4088H77.1191V33.8748H75.9919V27.4488ZM77.1191 30.4908H78.7695C78.8956 30.4908 79.0249 30.4728 79.1571 30.4368C79.2894 30.4008 79.4098 30.3439 79.5179 30.2658C79.6322 30.1819 79.7224 30.0739 79.7884 29.9418C79.8606 29.8039 79.8967 29.6329 79.8967 29.4288C79.8967 29.2189 79.8667 29.0448 79.8066 28.9068C79.7465 28.7689 79.6651 28.6609 79.5631 28.5828C79.4609 28.4989 79.3436 28.4418 79.2113 28.4118C79.079 28.3819 78.9378 28.3668 78.7875 28.3668H77.1191V30.4908Z" fill="#040505"/>
<path d="M82.0075 27.4488H83.1347V32.9028H86.4083V33.8748H82.0075V27.4488Z" fill="#040505"/>
<path d="M87.1854 27.4488H88.3127V33.8748H87.1854V27.4488Z" fill="#040505"/>
<path d="M91.4184 27.4488H92.618L95.0979 33.8748H93.8895L93.2852 32.1738H90.7151L90.1108 33.8748H88.9474L91.4184 27.4488ZM91.0216 31.3188H92.9876L92.0227 28.5558H91.9957L91.0216 31.3188Z" fill="#040505"/>
<path d="M95.6654 27.4488H96.8558L99.7957 32.1828H99.8139V27.4488H100.887V33.8748H99.6965L96.7656 29.1498H96.7386V33.8748H95.6654V27.4488Z" fill="#040505"/>
<path d="M101.606 27.4488H106.819V28.4208H104.771V33.8748H103.644V28.4208H101.606V27.4488Z" fill="#040505"/>
<path fill-rule="evenodd" clip-rule="evenodd" d="M53.9336 16.5452C53.9336 19.7223 56.3721 21.7154 59.3677 21.7154C61.2642 21.7154 62.7243 20.9512 63.8082 19.7672V15.8559H58.9612V17.9988H61.2642V18.8381C60.8578 19.1677 60.1503 19.4376 59.3677 19.4376C57.7269 19.4376 56.5679 18.1787 56.5679 16.5452C56.5679 14.9117 57.7269 13.6528 59.3677 13.6528C60.3159 13.6528 61.0836 14.1774 61.4901 14.8368L63.6576 13.6978C62.9201 12.454 61.5653 11.375 59.3677 11.375C56.3721 11.375 53.9336 13.3681 53.9336 16.5452ZM65.3284 21.5355V11.5398H69.5433C72.7042 11.5398 74.9772 13.4281 74.9772 16.5302C74.9772 19.6323 72.7042 21.5355 69.5582 21.5355H65.3284ZM67.9175 19.2876H69.5433C71.3044 19.2876 72.328 18.0138 72.328 16.5302C72.328 14.9866 71.3947 13.7878 69.5582 13.7878H67.9175V19.2876ZM76.2718 21.5355V11.5398H81.2994C83.5573 11.5398 84.7915 13.0534 84.7915 14.8668C84.7915 16.6651 83.5573 18.1488 81.2994 18.1488H78.8609V21.5355H76.2718ZM82.1574 14.8517C82.1574 14.1624 81.6456 13.7128 80.9532 13.7128H78.8609V15.9608H80.9532C81.6456 15.9608 82.1574 15.5261 82.1574 14.8517ZM91.5502 21.5355L89.8643 18.1488H88.5397V21.5355H85.9506V11.5398H90.9782C93.2061 11.5398 94.4704 13.0085 94.4704 14.8668C94.4704 16.6051 93.4018 17.5342 92.4685 17.864L94.5156 21.5355H91.5502ZM91.8363 14.8368C91.8363 14.1475 91.2643 13.7128 90.5869 13.7128H88.5397V15.9608H90.5869C91.2643 15.9608 91.8363 15.5261 91.8363 14.8368Z" fill="#040505"/>
</g>
<defs>
<clipPath id="clip0_2474_49078">
<rect width="120" height="45" fill="white" transform="translate(0.582031 0.5)"/>
</clipPath>
</defs>
</svg>
