<svg width="188" height="48" viewBox="0 0 188 48" fill="none" xmlns="http://www.w3.org/2000/svg">
<g clip-path="url(#clip0_2474_49091)">
<path d="M24.9347 48C38.2302 48 49.0082 37.2549 49.0082 24C49.0082 10.7452 38.2302 0 24.9347 0C11.6394 0 0.861328 10.7452 0.861328 24C0.861328 37.2549 11.6394 48 24.9347 48Z" fill="#656565"/>
<path d="M24.9347 39.2722C16.4732 39.2722 9.61583 32.4358 9.61583 24C9.61583 15.5642 16.4732 8.72781 24.9347 8.72781C29.1637 8.72781 32.9929 10.4374 35.7668 13.201L41.9569 7.02982C37.6 2.68622 31.5806 0 24.9347 0C11.6394 0 0.861328 10.7452 0.861328 24C0.861328 37.2549 11.6394 48 24.9347 48C31.5825 48 37.6 45.3137 41.9588 40.9721L35.7688 34.801C32.9929 37.5626 29.1637 39.2722 24.9347 39.2722Z" fill="#A3A3A3"/>
<path d="M40.2536 23.9998H32.5933C32.5933 19.7839 29.1635 16.3627 24.9328 16.3627C20.702 16.3627 17.2743 19.7818 17.2743 23.9998C17.2743 26.0535 18.089 27.9159 19.4138 29.291L19.408 29.2968L28.892 38.7518L28.8938 38.7537C35.435 37.0131 40.2536 31.0683 40.2536 23.9998Z" fill="#484848"/>
<path d="M49.0082 24L40.2536 23.9998C40.2536 31.0683 35.4311 37.0131 28.8938 38.7537L35.6547 45.4937C43.5692 41.562 49.0082 33.4143 49.0082 24Z" fill="#656565"/>
<path d="M44.6305 21.8178H24.9334C23.725 21.8178 22.7453 22.7944 22.7453 23.9992C22.7453 25.204 23.725 26.1807 24.9334 26.1807H44.6286C45.8372 26.1807 46.8167 25.204 46.8167 23.9992C46.8186 22.7944 45.8391 21.8178 44.6305 21.8178Z" fill="#AFAFAF"/>
<path d="M5.23792 25.6358C6.14428 25.6358 6.87904 24.9033 6.87904 23.9997C6.87904 23.0961 6.14428 22.3636 5.23792 22.3636C4.33158 22.3636 3.59682 23.0961 3.59682 23.9997C3.59682 24.9033 4.33158 25.6358 5.23792 25.6358Z" fill="#C1C1C1"/>
<path d="M24.9338 5.99932C25.8401 5.99932 26.5749 5.26682 26.5749 4.36322C26.5749 3.45964 25.8401 2.72712 24.9338 2.72712C24.0274 2.72712 23.2927 3.45964 23.2927 4.36322C23.2927 5.26682 24.0274 5.99932 24.9338 5.99932Z" fill="#C1C1C1"/>
<path d="M24.9338 45.2714C25.8401 45.2714 26.5749 44.5389 26.5749 43.6353C26.5749 42.7317 25.8401 41.9992 24.9338 41.9992C24.0274 41.9992 23.2927 42.7317 23.2927 43.6353C23.2927 44.5389 24.0274 45.2714 24.9338 45.2714Z" fill="#C1C1C1"/>
<path d="M10.9818 11.7507C11.8881 11.7507 12.6229 11.0182 12.6229 10.1146C12.6229 9.21103 11.8881 8.47852 10.9818 8.47852C10.0754 8.47852 9.34068 9.21103 9.34068 10.1146C9.34068 11.0182 10.0754 11.7507 10.9818 11.7507Z" fill="#C1C1C1"/>
<path d="M10.9818 39.5451C11.8881 39.5451 12.6229 38.8126 12.6229 37.909C12.6229 37.0054 11.8881 36.2729 10.9818 36.2729C10.0754 36.2729 9.34068 37.0054 9.34068 37.909C9.34068 38.8126 10.0754 39.5451 10.9818 39.5451Z" fill="#C1C1C1"/>
<path d="M38.8858 39.5451C39.7923 39.5451 40.527 38.8126 40.527 37.909C40.527 37.0054 39.7923 36.2729 38.8858 36.2729C37.9794 36.2729 37.2447 37.0054 37.2447 37.909C37.2447 38.8126 37.9794 39.5451 38.8858 39.5451Z" fill="#767676"/>
<path d="M64.5672 14.66V16.676H66.4656C66.4243 17.5674 65.7639 18.2257 64.6085 18.2257C63.1366 18.2257 62.3388 17.1012 62.3388 15.3594C62.3388 13.6452 63.1366 12.5343 64.5672 12.5343C65.3926 12.5343 65.9429 12.836 66.1217 13.4257H68.7629C68.4051 11.5743 66.9333 10.2852 64.5809 10.2852C61.4446 10.2852 59.725 12.356 59.725 15.3594C59.725 18.404 61.4446 20.4337 64.5809 20.4337C67.7311 20.4337 68.9967 18.212 68.9967 15.908V14.66H64.5672Z" fill="#040505"/>
<path d="M75.5241 10.2852C72.3463 10.2852 70.613 12.452 70.613 15.3594C70.613 18.2669 72.3463 20.4337 75.5241 20.4337C78.7017 20.4337 80.435 18.2669 80.435 15.3594C80.435 12.452 78.7017 10.2852 75.5241 10.2852ZM75.5241 18.1846C73.9972 18.1846 73.2268 17.0052 73.2268 15.3594C73.2268 13.7 73.9972 12.5343 75.5241 12.5343C77.051 12.5343 77.8214 13.7137 77.8214 15.3594C77.8214 17.0052 77.051 18.1846 75.5241 18.1846Z" fill="#040505"/>
<path d="M86.8819 10.2852C83.7041 10.2852 81.971 12.452 81.971 15.3594C81.971 18.2669 83.7041 20.4337 86.8819 20.4337C90.0597 20.4337 91.7928 18.2669 91.7928 15.3594C91.7928 12.452 90.0597 10.2852 86.8819 10.2852ZM86.8819 18.1846C85.355 18.1846 84.5846 17.0052 84.5846 15.3594C84.5846 13.7 85.355 12.5343 86.8819 12.5343C88.4088 12.5343 89.1792 13.7137 89.1792 15.3594C89.1792 17.0052 88.4088 18.1846 86.8819 18.1846Z" fill="#040505"/>
<path d="M98.1711 14.66V16.676H100.07C100.028 17.5674 99.3679 18.2257 98.2125 18.2257C96.7406 18.2257 95.9426 17.1012 95.9426 15.3594C95.9426 13.6452 96.7406 12.5343 98.1711 12.5343C98.9966 12.5343 99.5467 12.836 99.7256 13.4257H102.367C102.009 11.5743 100.537 10.2852 98.1848 10.2852C95.0484 10.2852 93.329 12.356 93.329 15.3594C93.329 18.404 95.0484 20.4337 98.1848 20.4337C101.335 20.4337 102.601 18.212 102.601 15.908V14.66H98.1711Z" fill="#040505"/>
<path d="M107.202 18.0063V10.4634H104.643V20.2554H112.223V18.0063H107.202Z" fill="#040505"/>
<path d="M120.476 16.3606V14.1663H116.679V12.7126H121.659V10.4634H114.121V20.2554H121.783V18.0063H116.679V16.3606H120.476Z" fill="#040505"/>
<path d="M66.1355 29.3206H62.2699L59.3262 39.1126H61.816L62.5177 36.5754H65.819L66.5344 39.1126H69.0793L66.1355 29.3206ZM63.8658 31.7343H64.4709L65.255 34.5732H63.0678L63.8658 31.7343Z" fill="#040505"/>
<path d="M76.6337 29.3206V35.396C76.6337 36.3834 76.0009 37.0417 74.9004 37.0417C73.8 37.0417 73.1671 36.3834 73.1671 35.396V29.3206H70.6222V35.4509C70.6222 37.9332 72.1767 39.2909 74.8867 39.2909C77.6242 39.2909 79.1786 37.9332 79.1786 35.4509V29.3206H76.6337Z" fill="#040505"/>
<path d="M89.1308 29.3206H80.6982V31.5697H83.6283V39.1126H86.187V31.5697H89.1308V29.3206Z" fill="#040505"/>
<path d="M96.8699 29.3206V32.9412H93.2244V29.3206H90.6659V39.1126H93.2244V35.2314H96.8699V39.1126H99.4286V29.3206H96.8699Z" fill="#040505"/>
<path d="M108.178 35.2177V33.0234H104.381V31.5697H109.361V29.3206H101.822V39.1126H109.484V36.8634H104.381V35.2177H108.178Z" fill="#040505"/>
<path d="M117.887 29.3206V35.012H117.502L114.448 29.3206H111.38V39.1126H113.65V33.4212H114.035L117.089 39.1126H120.156V29.3206H117.887Z" fill="#040505"/>
<path d="M130.13 29.3206H121.697V31.5697H124.627V39.1126H127.186V31.5697H130.13V29.3206Z" fill="#040505"/>
<path d="M134.292 29.3206H131.733V39.1126H134.292V29.3206Z" fill="#040505"/>
<path d="M142.719 35.78C142.595 36.6029 141.99 37.0417 141.11 37.0417C139.679 37.0417 138.936 35.8623 138.936 34.2166C138.936 32.5572 139.679 31.3914 141.11 31.3914C141.88 31.3914 142.444 31.7069 142.609 32.3514H145.264C144.934 30.4863 143.434 29.1423 141.11 29.1423C138.083 29.1423 136.323 31.172 136.323 34.2166C136.323 37.2612 138.083 39.2909 141.11 39.2909C143.531 39.2909 145.085 37.8509 145.347 35.78H142.719Z" fill="#040505"/>
<path d="M153.312 29.3206H149.447L146.503 39.1126H148.993L149.694 36.5754H152.996L153.711 39.1126H156.256L153.312 29.3206ZM151.042 31.7343H151.648L152.432 34.5732H150.244L151.042 31.7343Z" fill="#040505"/>
<path d="M164.721 29.3206H156.288V31.5697H159.218V39.1126H161.777V31.5697H164.721V29.3206Z" fill="#040505"/>
<path d="M170.74 29.1423C167.562 29.1423 165.829 31.3092 165.829 34.2166C165.829 37.124 167.562 39.2909 170.74 39.2909C173.918 39.2909 175.651 37.124 175.651 34.2166C175.651 31.3092 173.918 29.1423 170.74 29.1423ZM170.74 37.0417C169.213 37.0417 168.443 35.8623 168.443 34.2166C168.443 32.5572 169.213 31.3914 170.74 31.3914C172.267 31.3914 173.037 32.5709 173.037 34.2166C173.037 35.8623 172.267 37.0417 170.74 37.0417Z" fill="#040505"/>
<path d="M177.614 29.3206V39.1126H180.172V35.684H182.209L183.433 39.1126H185.99L184.574 35.1766C185.51 34.6417 186.004 33.7366 186.004 32.4886C186.004 30.5 184.684 29.3206 182.414 29.3206H177.614ZM180.172 33.5583V31.5423H182.07C183.02 31.5423 183.392 31.8852 183.392 32.5434C183.392 33.188 183.02 33.5583 182.07 33.5583H180.172Z" fill="#040505"/>
</g>
<defs>
<clipPath id="clip0_2474_49091">
<rect width="186.857" height="48" fill="white" transform="translate(0.605469)"/>
</clipPath>
</defs>
</svg>
