<svg width="71" height="54" viewBox="0 0 71 54" fill="none" xmlns="http://www.w3.org/2000/svg">
<g clip-path="url(#clip0_2474_49060)">
<path d="M13.2019 53.7134V50.1293C13.2019 48.7554 12.3656 47.8594 10.932 47.8594C10.2152 47.8594 9.43861 48.0984 8.901 48.8749C8.48286 48.2178 7.88551 47.8594 6.98949 47.8594C6.39214 47.8594 5.7948 48.0386 5.31693 48.6957V47.9789H4.0625V53.7134H5.31693V50.5475C5.31693 49.532 5.85453 49.0541 6.69081 49.0541C7.5271 49.0541 7.94524 49.5917 7.94524 50.5475V53.7134H9.19967V50.5475C9.19967 49.532 9.79701 49.0541 10.5736 49.0541C11.4098 49.0541 11.828 49.5917 11.828 50.5475V53.7134H13.2019ZM31.7793 47.9789H29.7483V46.2466H28.4939V47.9789H27.359V49.1138H28.4939V51.7421C28.4939 53.0563 29.0315 53.8329 30.4651 53.8329C31.0028 53.8329 31.6001 53.6537 32.0182 53.4147L31.6598 52.3395C31.3014 52.5784 30.8833 52.6382 30.5846 52.6382C29.9873 52.6382 29.7483 52.2798 29.7483 51.6824V49.1138H31.7793V47.9789ZM42.412 47.8594C41.6952 47.8594 41.2174 48.2178 40.9187 48.6957V47.9789H39.6643V53.7134H40.9187V50.4877C40.9187 49.532 41.3368 48.9944 42.1134 48.9944C42.3523 48.9944 42.651 49.0541 42.8899 49.1138L43.2483 47.9191C43.0094 47.8594 42.651 47.8594 42.412 47.8594ZM26.3435 48.4568C25.7461 48.0386 24.9098 47.8594 24.0138 47.8594C22.5802 47.8594 21.6244 48.5762 21.6244 49.7112C21.6244 50.6669 22.3412 51.2046 23.5957 51.3838L24.193 51.4435C24.8501 51.5629 25.2085 51.7421 25.2085 52.0408C25.2085 52.459 24.7306 52.7576 23.8943 52.7576C23.0581 52.7576 22.401 52.459 21.9829 52.1603L21.3855 53.1161C22.0426 53.5939 22.9386 53.8329 23.8346 53.8329C25.5072 53.8329 26.4629 53.0563 26.4629 51.9811C26.4629 50.9656 25.6864 50.428 24.4917 50.2488L23.8943 50.1891C23.3567 50.1293 22.9386 50.0099 22.9386 49.6514C22.9386 49.2333 23.3567 48.9944 24.0138 48.9944C24.7306 48.9944 25.4475 49.293 25.8059 49.4722L26.3435 48.4568ZM59.6753 47.8594C58.9585 47.8594 58.4806 48.2178 58.182 48.6957V47.9789H56.9275V53.7134H58.182V50.4877C58.182 49.532 58.6001 48.9944 59.3767 48.9944C59.6156 48.9944 59.9143 49.0541 60.1532 49.1138L60.5116 47.9191C60.2727 47.8594 59.9143 47.8594 59.6753 47.8594ZM43.6665 50.8461C43.6665 52.5784 44.8612 53.8329 46.7129 53.8329C47.5492 53.8329 48.1466 53.6537 48.7439 53.1758L48.1466 52.1603C47.6687 52.5187 47.1908 52.6979 46.6532 52.6979C45.6377 52.6979 44.9209 51.9811 44.9209 50.8461C44.9209 49.7709 45.6377 49.0541 46.6532 48.9944C47.1908 48.9944 47.6687 49.1736 48.1466 49.532L48.7439 48.5165C48.1466 48.0386 47.5492 47.8594 46.7129 47.8594C44.8612 47.8594 43.6665 49.1138 43.6665 50.8461ZM55.255 50.8461V47.9789H54.0006V48.6957C53.5824 48.1581 52.9851 47.8594 52.2085 47.8594C50.5957 47.8594 49.3413 49.1138 49.3413 50.8461C49.3413 52.5784 50.5957 53.8329 52.2085 53.8329C53.0448 53.8329 53.6421 53.5342 54.0006 52.9966V53.7134H55.255V50.8461ZM50.6554 50.8461C50.6554 49.8306 51.3125 48.9944 52.3877 48.9944C53.4032 48.9944 54.12 49.7709 54.12 50.8461C54.12 51.8616 53.4032 52.6979 52.3877 52.6979C51.3125 52.6382 50.6554 51.8616 50.6554 50.8461ZM35.6621 47.8594C33.9895 47.8594 32.7948 49.0541 32.7948 50.8461C32.7948 52.6382 33.9895 53.8329 35.7218 53.8329C36.5581 53.8329 37.3944 53.5939 38.0514 53.0563L37.4541 52.1603C36.9762 52.5187 36.3789 52.7576 35.7815 52.7576C35.005 52.7576 34.2284 52.3992 34.0492 51.3838H38.2904C38.2904 51.2046 38.2904 51.0851 38.2904 50.9059C38.3501 49.0541 37.2749 47.8594 35.6621 47.8594ZM35.6621 48.9346C36.4386 48.9346 36.9762 49.4125 37.0957 50.3085H34.109C34.2284 49.532 34.766 48.9346 35.6621 48.9346ZM66.7837 50.8461V45.709H65.5293V48.6957C65.1112 48.1581 64.5138 47.8594 63.7373 47.8594C62.1244 47.8594 60.87 49.1138 60.87 50.8461C60.87 52.5784 62.1244 53.8329 63.7373 53.8329C64.5736 53.8329 65.1709 53.5342 65.5293 52.9966V53.7134H66.7837V50.8461ZM62.1842 50.8461C62.1842 49.8306 62.8412 48.9944 63.9165 48.9944C64.932 48.9944 65.6488 49.7709 65.6488 50.8461C65.6488 51.8616 64.932 52.6979 63.9165 52.6979C62.8412 52.6382 62.1842 51.8616 62.1842 50.8461ZM20.2506 50.8461V47.9789H18.9961V48.6957C18.578 48.1581 17.9806 47.8594 17.2041 47.8594C15.5913 47.8594 14.3368 49.1138 14.3368 50.8461C14.3368 52.5784 15.5913 53.8329 17.2041 53.8329C18.0404 53.8329 18.6377 53.5342 18.9961 52.9966V53.7134H20.2506V50.8461ZM15.5913 50.8461C15.5913 49.8306 16.2483 48.9944 17.3236 48.9944C18.339 48.9944 19.0559 49.7709 19.0559 50.8461C19.0559 51.8616 18.339 52.6979 17.3236 52.6979C16.2483 52.6382 15.5913 51.8616 15.5913 50.8461Z" fill="#040505"/>
<path d="M44.7402 4.59961H25.9238V38.4094H44.7402V4.59961Z" fill="#FF5F00"/>
<path d="M27.119 21.5044C27.119 14.635 30.3446 8.54204 35.3026 4.59956C31.6588 1.73231 27.0592 0 22.0415 0C10.1544 0 0.537109 9.61726 0.537109 21.5044C0.537109 33.3916 10.1544 43.0089 22.0415 43.0089C27.0592 43.0089 31.6588 41.2766 35.3026 38.4093C30.3446 34.5266 27.119 28.3739 27.119 21.5044Z" fill="#EB001B"/>
<path d="M70.1267 21.5044C70.1267 33.3916 60.5095 43.0089 48.6224 43.0089C43.6047 43.0089 39.0051 41.2766 35.3613 38.4093C40.379 34.4668 43.5449 28.3739 43.5449 21.5044C43.5449 14.635 40.3193 8.54204 35.3613 4.59956C39.0051 1.73231 43.6047 0 48.6224 0C60.5095 0 70.1267 9.67699 70.1267 21.5044Z" fill="#F79E1B"/>
</g>
<defs>
<clipPath id="clip0_2474_49060">
<rect width="69.5907" height="54" fill="white" transform="translate(0.537109)"/>
</clipPath>
</defs>
</svg>
