<svg width="159" height="48" viewBox="0 0 159 48" fill="none" xmlns="http://www.w3.org/2000/svg">
<g clip-path="url(#clip0_2474_49069)">
<path d="M77.8118 21.7543C78.2329 22.035 78.8644 22.2455 79.496 22.2455C80.4785 22.2455 81.0399 21.7543 81.0399 20.9823C81.0399 20.2806 80.6188 19.9297 79.6364 19.5087C78.4434 19.0876 77.6715 18.456 77.6715 17.4034C77.6715 16.2806 78.6539 15.4385 80.0574 15.4385C80.8294 15.4385 81.3206 15.5788 81.6715 15.7894L81.3908 16.5613C81.1802 16.4209 80.689 16.2104 79.9873 16.2104C79.0048 16.2104 78.5837 16.842 78.5837 17.3332C78.5837 18.035 79.0048 18.3858 80.0574 18.7367C81.3206 19.228 81.882 19.7894 81.882 20.9122C81.882 22.035 81.0399 23.0174 79.3557 23.0174C78.6539 23.0174 77.882 22.8069 77.4609 22.5262L77.8118 21.7543ZM83.8469 20.4209C83.8469 21.6841 84.689 22.2455 85.6715 22.2455C86.3732 22.2455 86.7943 22.1051 87.1451 21.9648L87.2855 22.6665C86.9346 22.8069 86.3732 23.0174 85.5311 23.0174C83.9171 23.0174 82.9346 21.9648 82.9346 20.3508C82.9346 18.7367 83.9171 17.4736 85.3908 17.4736C87.075 17.4736 87.5662 19.0174 87.5662 19.9297C87.5662 20.1402 87.5662 20.2806 87.5662 20.4209H83.8469ZM86.6539 19.7894C86.6539 19.1578 86.3732 18.2455 85.3206 18.2455C84.3381 18.2455 83.9171 19.1578 83.8469 19.7894H86.6539ZM92.5487 22.7367C92.268 22.8771 91.7066 23.0174 91.0048 23.0174C89.3908 23.0174 88.4083 21.9648 88.4083 20.3508C88.4083 18.7367 89.5311 17.5437 91.2153 17.5437C91.7767 17.5437 92.268 17.6841 92.5487 17.8244L92.3381 18.5262C92.1276 18.3858 91.7767 18.2455 91.2153 18.2455C90.0223 18.2455 89.3206 19.1578 89.3206 20.2806C89.3206 21.4736 90.0925 22.2455 91.1451 22.2455C91.7066 22.2455 92.0574 22.1051 92.3381 21.9648L92.5487 22.7367ZM98.0223 21.4736C98.0223 22.035 98.0223 22.5262 98.0925 22.8771H97.2504L97.1802 22.035C96.9697 22.456 96.3381 23.0174 95.4259 23.0174C94.5837 23.0174 93.6013 22.5262 93.6013 20.7016V17.6139H94.5837V20.4911C94.5837 21.4736 94.9346 22.1753 95.7767 22.1753C96.4083 22.1753 96.8995 21.7543 97.0399 21.263C97.1101 21.1227 97.1101 20.9823 97.1101 20.7718V17.5437H98.0925V21.4736M99.6364 19.2981C99.6364 18.6665 99.6364 18.1753 99.5662 17.6841H100.408L100.478 18.7367C100.689 18.035 101.321 17.6139 101.952 17.6139C102.022 17.6139 102.163 17.6139 102.233 17.6139V18.5262C102.093 18.5262 102.022 18.5262 101.882 18.5262C101.18 18.5262 100.759 19.0174 100.619 19.7192C100.619 19.8595 100.619 19.9999 100.619 20.2104V23.0174H99.6364V19.2981ZM103.707 16.7016C103.356 16.7016 103.075 16.4209 103.075 16.0701C103.075 15.7192 103.356 15.4385 103.707 15.4385C104.057 15.4385 104.338 15.7192 104.338 16.0701C104.338 16.4209 104.128 16.7016 103.707 16.7016ZM104.198 22.9472H103.285V17.6841H104.268V22.9472H104.198ZM106.935 16.4209V17.6841H108.338V18.3858H106.935V21.263C106.935 21.8946 107.145 22.3157 107.636 22.3157C107.917 22.3157 108.057 22.3157 108.198 22.2455L108.268 22.9472C108.057 23.0174 107.777 23.0876 107.426 23.0876C107.005 23.0876 106.654 22.9472 106.373 22.6665C106.093 22.3858 106.022 21.8946 106.022 21.263V18.3858H105.18V17.6841H106.022V16.7016L106.935 16.4209ZM109.882 17.6841L111.005 20.7718C111.145 21.1227 111.285 21.5437 111.356 21.8244C111.426 21.5437 111.566 21.1227 111.707 20.7016L112.759 17.6139H113.742L112.268 21.4034C111.566 23.228 111.145 24.1402 110.443 24.7016C109.952 25.1227 109.531 25.263 109.25 25.3332L109.04 24.5613C109.25 24.4911 109.601 24.3508 109.882 24.0701C110.163 23.8595 110.443 23.5087 110.654 23.0174C110.724 22.9472 110.724 22.8771 110.724 22.8069C110.724 22.7367 110.724 22.6665 110.654 22.5964L108.689 17.7543H109.882M77.8118 32.6315C78.2329 32.9122 78.8644 33.1227 79.496 33.1227C80.4785 33.1227 81.0399 32.6315 81.0399 31.8595C81.0399 31.1578 80.6188 30.8069 79.6364 30.3858C78.4434 29.9648 77.6715 29.3332 77.6715 28.2806C77.6715 27.1578 78.6539 26.3157 80.0574 26.3157C80.8294 26.3157 81.3206 26.456 81.6715 26.6665L81.3908 27.4385C81.1802 27.2981 80.689 27.0876 79.9873 27.0876C79.0048 27.0876 78.5837 27.7192 78.5837 28.2104C78.5837 28.9122 79.0048 29.263 80.0574 29.6139C81.3206 30.1051 81.882 30.6665 81.882 31.7894C81.882 32.9122 81.0399 33.8946 79.3557 33.8946C78.6539 33.8946 77.882 33.6841 77.4609 33.4034L77.8118 32.6315ZM84.3381 27.2981V28.5613H85.7416V29.263H84.3381V32.0701C84.3381 32.7016 84.5487 33.1227 85.0399 33.1227C85.3206 33.1227 85.4609 33.1227 85.6013 33.0525L85.6715 33.7543C85.4609 33.8244 85.1802 33.8946 84.8294 33.8946C84.4083 33.8946 84.0574 33.7543 83.7767 33.4736C83.496 33.1929 83.4258 32.7016 83.4258 32.0701V29.1929H82.5837V28.4911H83.4258V27.5087L84.3381 27.2981ZM90.5136 32.5613C90.5136 33.0525 90.5136 33.4736 90.5837 33.8244H89.7416L89.6715 33.1929C89.3908 33.6139 88.8294 33.9648 88.0574 33.9648C87.0048 33.9648 86.4434 33.1929 86.4434 32.4209C86.4434 31.1578 87.5662 30.456 89.6013 30.456V30.3157C89.6013 29.8946 89.4609 29.0525 88.4083 29.1227C87.9171 29.1227 87.4259 29.263 87.0048 29.5437L86.7943 28.9122C87.2153 28.6315 87.8469 28.4911 88.5487 28.4911C90.1627 28.4911 90.5837 29.6139 90.5837 30.6665V32.5613M89.6013 31.1578C88.5487 31.1578 87.3557 31.2981 87.3557 32.3508C87.3557 32.9823 87.7767 33.263 88.268 33.263C88.9697 33.263 89.3908 32.842 89.5311 32.3508C89.5311 32.2806 89.6013 32.1402 89.6013 32.0701V31.1578ZM92.0574 29.9648C92.0574 29.4034 92.0574 28.9823 91.9873 28.5613H92.8294L92.8995 29.4034C93.1802 28.9122 93.7416 28.4209 94.6539 28.4209C95.3557 28.4209 96.5487 28.842 96.5487 30.6665V33.8244H95.5662V30.8069C95.5662 29.9648 95.2153 29.263 94.3732 29.263C93.7416 29.263 93.2504 29.6841 93.1101 30.2455C93.0399 30.3858 93.0399 30.5262 93.0399 30.6665V33.8244H92.0574V29.9648ZM102.654 26.1051V32.4911C102.654 32.9823 102.654 33.4736 102.724 33.8244H101.882L101.812 32.9122C101.531 33.4736 100.9 33.9648 100.057 33.9648C98.7943 33.9648 97.8118 32.9122 97.8118 31.2981C97.8118 29.5437 98.9346 28.4911 100.198 28.4911C101.04 28.4911 101.531 28.842 101.812 29.263V26.1051H102.654ZM101.671 30.6665C101.671 30.5262 101.671 30.3858 101.601 30.2455C101.461 29.6139 100.97 29.1227 100.198 29.1227C99.2153 29.1227 98.5837 29.9648 98.5837 31.1578C98.5837 32.2104 99.1451 33.1227 100.128 33.1227C100.759 33.1227 101.321 32.7016 101.531 31.9999C101.601 31.8595 101.601 31.7192 101.601 31.5788V30.6665H101.671ZM107.987 32.5613C107.987 33.0525 107.987 33.4736 108.057 33.8244H107.215L107.145 33.1929C106.864 33.6139 106.303 33.9648 105.531 33.9648C104.478 33.9648 103.917 33.1929 103.917 32.4209C103.917 31.1578 105.04 30.456 107.075 30.456V30.3157C107.075 29.8946 106.935 29.0525 105.882 29.1227C105.391 29.1227 104.9 29.263 104.478 29.5437L104.268 28.9122C104.689 28.6315 105.321 28.4911 106.022 28.4911C107.636 28.4911 108.057 29.6139 108.057 30.6665V32.5613M107.005 31.1578C105.952 31.1578 104.759 31.2981 104.759 32.3508C104.759 32.9823 105.18 33.263 105.671 33.263C106.373 33.263 106.794 32.842 106.935 32.3508C106.935 32.2806 107.005 32.1402 107.005 32.0701V31.1578ZM109.531 30.1753C109.531 29.5437 109.531 29.0525 109.461 28.5613H110.303L110.373 29.6139H110.443C110.654 28.9122 111.285 28.4911 111.917 28.4911C111.987 28.4911 112.057 28.4911 112.198 28.4911V29.4034C112.057 29.4034 111.987 29.4034 111.847 29.4034C111.145 29.4034 110.724 29.8946 110.584 30.5964C110.584 30.7367 110.584 30.8771 110.584 31.0876V33.8946H109.601L109.531 30.1753ZM117.531 26.1051V32.4911C117.531 32.9823 117.531 33.4736 117.601 33.8244H116.759L116.689 32.9122C116.408 33.4736 115.777 33.9648 114.864 33.9648C113.601 33.9648 112.619 32.9122 112.619 31.2981C112.619 29.5437 113.671 28.4911 115.005 28.4911C115.847 28.4911 116.338 28.842 116.619 29.263V26.1051H117.531ZM116.619 30.6665C116.619 30.5262 116.619 30.3858 116.549 30.2455C116.408 29.6139 115.847 29.1227 115.145 29.1227C114.163 29.1227 113.601 29.9648 113.601 31.1578C113.601 32.2104 114.163 33.1227 115.145 33.1227C115.777 33.1227 116.408 32.7016 116.549 31.9999C116.549 31.8595 116.619 31.7192 116.619 31.5788V30.6665ZM119.005 32.842C119.285 33.0525 119.777 33.1929 120.268 33.1929C120.97 33.1929 121.25 32.842 121.25 32.4209C121.25 31.9297 120.97 31.7192 120.268 31.4385C119.285 31.0876 118.864 30.5964 118.864 29.9648C118.864 29.1227 119.566 28.4209 120.689 28.4209C121.25 28.4209 121.671 28.5613 121.952 28.7718L121.742 29.4736C121.531 29.3332 121.18 29.1929 120.689 29.1929C120.128 29.1929 119.847 29.5437 119.847 29.8946C119.847 30.3157 120.128 30.5262 120.829 30.8069C121.742 31.1578 122.233 31.5788 122.233 32.4209C122.233 33.3332 121.531 34.035 120.268 34.035C119.707 34.035 119.145 33.8946 118.794 33.6841L119.005 32.842ZM130.935 33.6139C130.584 33.7543 129.882 33.9648 128.97 33.9648C126.935 33.9648 125.321 32.6315 125.321 30.2455C125.321 27.9297 126.864 26.3858 129.18 26.3858C130.093 26.3858 130.654 26.5964 130.935 26.7367L130.724 27.5087C130.373 27.3683 129.882 27.228 129.25 27.228C127.496 27.228 126.373 28.3508 126.373 30.2455C126.373 32.0701 127.426 33.1929 129.18 33.1929C129.742 33.1929 130.373 33.0525 130.724 32.9122L130.935 33.6139ZM134.093 33.9648C132.689 33.9648 131.566 32.9122 131.566 31.228C131.566 29.4736 132.759 28.4209 134.163 28.4209C135.707 28.4209 136.689 29.5437 136.689 31.0876C136.689 33.0525 135.356 33.9648 134.093 33.9648ZM134.093 33.1929C135.005 33.1929 135.707 32.3508 135.707 31.1578C135.707 30.2455 135.285 29.1227 134.093 29.1227C132.97 29.1227 132.478 30.1753 132.478 31.1578C132.549 32.3508 133.18 33.1929 134.093 33.1929ZM142.303 32.3508C142.303 32.9122 142.303 33.4034 142.373 33.7543H141.531L141.461 32.9122C141.25 33.3332 140.619 33.8946 139.707 33.8946C138.864 33.8946 137.882 33.4034 137.882 31.5788V28.4911H138.864V31.3683C138.864 32.3508 139.145 33.0525 140.057 33.0525C140.689 33.0525 141.11 32.6315 141.321 32.1402C141.391 31.9999 141.391 31.8595 141.391 31.649V28.4209H142.373V32.3508M143.917 29.9648C143.917 29.4034 143.917 28.9823 143.847 28.5613H144.689L144.759 29.4034C145.04 28.9122 145.601 28.4209 146.514 28.4209C147.215 28.4209 148.408 28.842 148.408 30.6665V33.8244H147.426V30.8069C147.426 29.9648 147.075 29.263 146.233 29.263C145.601 29.263 145.11 29.6841 144.97 30.2455C144.9 30.3858 144.9 30.5262 144.9 30.6665V33.8244H143.917V29.9648ZM153.742 33.6139C153.461 33.7543 152.97 33.8946 152.198 33.8946C150.584 33.8946 149.601 32.842 149.601 31.228C149.601 29.6139 150.724 28.4209 152.408 28.4209C152.97 28.4209 153.461 28.5613 153.742 28.7016L153.531 29.4034C153.321 29.263 152.97 29.1227 152.408 29.1227C151.215 29.1227 150.514 30.035 150.514 31.1578C150.514 32.3508 151.285 33.1227 152.338 33.1227C152.9 33.1227 153.25 32.9823 153.531 32.842L153.742 33.6139ZM155.285 27.5788C154.935 27.5788 154.654 27.2981 154.654 26.9472C154.654 26.5964 154.935 26.3157 155.285 26.3157C155.636 26.3157 155.917 26.5964 155.917 26.9472C155.917 27.2981 155.707 27.5788 155.285 27.5788ZM155.777 33.8244H154.794V28.5613H155.777V33.8244Z" fill="#040505"/>
<path d="M158.373 26.105H157.391V33.8243H158.373V26.105Z" fill="white"/>
<path d="M72.8989 30.3158L16.548 48L0.126953 3.29825L59.2849 0L72.8989 30.3158Z" fill="#02797E"/>
<path d="M30.303 21.3334C30.303 22.4562 30.0223 23.4386 29.531 24.3509C29.0398 25.193 28.3381 25.965 27.4258 26.5264C26.5135 27.0878 25.3907 27.5088 24.1275 27.7895C22.8644 28.0702 21.4609 28.2106 19.8468 28.2106H18.724V33.965H11.4258V14.8071H19.9872C23.2153 14.8071 25.7416 15.3685 27.5661 16.4211C29.3907 17.4737 30.303 19.1579 30.303 21.3334ZM23.2854 21.4036C23.2854 19.7193 22.0223 18.8772 19.5661 18.8772H18.6539V24.0001H19.496C20.6889 24.0001 21.6714 23.7895 22.303 23.3685C22.9346 23.0176 23.2854 22.3158 23.2854 21.4036ZM48.4082 33.965C47.2854 34.1755 46.0223 34.3158 44.5486 34.3158C42.5135 34.3158 40.6889 34.1053 39.1451 33.6141C37.531 33.1229 36.1977 32.4913 35.0749 31.6492C33.9521 30.8071 33.11 29.7544 32.5486 28.5615C31.9872 27.2983 31.7065 25.965 31.7065 24.4913C31.7065 23.0176 31.9872 21.6843 32.6188 20.4211C33.2503 19.2281 34.0924 18.1755 35.2153 17.2632C36.3381 16.4211 37.6714 15.7193 39.2153 15.2281C40.7591 14.7369 42.4433 14.5264 44.2679 14.5264C45.6714 14.5264 47.0047 14.5965 48.1977 14.8071C49.3907 15.0878 49.3907 15.0878 50.303 15.4386V20.5615C49.6012 20.1404 48.7591 19.7895 47.8468 19.579C46.9346 19.2983 45.9521 19.1579 44.9696 19.1579C43.2854 19.1579 41.9521 19.6492 40.8995 20.4913C39.8468 21.4036 39.3556 22.6667 39.3556 24.4211C39.3556 25.2632 39.496 26.0351 39.8468 26.7369C40.1977 27.3685 40.6188 27.9299 41.1802 28.3509C41.7416 28.772 42.3731 29.1229 43.1451 29.3334C43.917 29.5439 44.6889 29.6843 45.531 29.6843C46.3731 29.6843 47.2854 29.6141 48.1275 29.4036C48.9696 29.193 49.8819 28.9825 50.7942 28.5615V33.4036C49.6714 33.6843 49.531 33.7544 48.4082 33.965Z" fill="white"/>
<path d="M61.179 14.8076H53.8105V34.0357H61.179V14.8076Z" fill="white"/>
<path d="M61.9515 8.77205C61.9515 10.0352 61.5304 11.0878 60.6883 11.7896C59.8462 12.4913 58.7936 12.9124 57.5304 12.9124C56.2673 12.9124 55.2146 12.5615 54.3725 11.7896C53.5304 11.0878 53.1094 10.0352 53.1094 8.77205C53.1094 7.43872 53.5304 6.45626 54.3725 5.68433C55.2146 4.9124 56.2673 4.56152 57.5304 4.56152C58.7936 4.56152 59.8462 4.9124 60.6883 5.68433C61.5304 6.38609 61.9515 7.43872 61.9515 8.77205Z" fill="white"/>
<path d="M158.583 17.193C158.583 18.386 157.601 19.3685 156.337 19.3685C155.074 19.3685 154.092 18.386 154.092 17.193C154.092 16 155.074 15.0176 156.337 15.0176C157.601 15.0176 158.583 16 158.583 17.193ZM154.794 17.193C154.794 18.1053 155.495 18.8071 156.337 18.8071C157.25 18.8071 157.881 18.1053 157.881 17.193C157.881 16.2807 157.18 15.579 156.267 15.579C155.425 15.579 154.794 16.2807 154.794 17.193ZM156.057 18.2456H155.425V16.2106C155.565 16.2106 155.916 16.1404 156.337 16.1404C156.758 16.1404 156.969 16.2106 157.109 16.2807C157.25 16.3509 157.32 16.4913 157.32 16.7018C157.32 16.9123 157.109 17.0527 156.829 17.1228C157.039 17.193 157.18 17.3334 157.25 17.6141C157.32 17.8948 157.32 18.0351 157.39 18.1053H156.688C156.618 18.0351 156.618 17.8246 156.548 17.6842C156.478 17.4737 156.408 17.4035 156.197 17.4035H155.987V18.2456H156.057ZM156.127 17.1228H156.337C156.548 17.1228 156.688 17.0527 156.688 16.9123C156.688 16.772 156.548 16.6316 156.337 16.6316C156.267 16.6316 156.197 16.6316 156.127 16.6316V17.1228Z" fill="white"/>
</g>
<defs>
<clipPath id="clip0_2474_49069">
<rect width="158.456" height="48" fill="white" transform="translate(0.126953)"/>
</clipPath>
</defs>
</svg>
