<svg width="91" height="30" viewBox="0 0 91 30" fill="none" xmlns="http://www.w3.org/2000/svg">
<g clip-path="url(#clip0_1974_16164)">
<path d="M39.188 29.4339H31.8667L36.446 1.11914H43.7669L39.188 29.4339Z" fill="#00579F"/>
<path d="M65.7281 1.81094C64.284 1.23803 61.9935 0.605469 59.1614 0.605469C51.9314 0.605469 46.84 4.4609 46.8088 9.973C46.7488 14.0398 50.4541 16.2986 53.2253 17.6546C56.0578 19.0403 57.0207 19.9447 57.0207 21.1798C56.9919 23.0767 54.7319 23.951 52.624 23.951C49.701 23.951 48.1348 23.5002 45.7547 22.4449L44.7906 21.9925L43.7661 28.3485C45.4832 29.1308 48.6469 29.8251 51.9314 29.8555C59.6134 29.8555 64.6147 26.0597 64.6739 20.1857C64.7031 16.9624 62.7466 14.4926 58.5284 12.4744C55.9678 11.1789 54.3996 10.3053 54.3996 8.97972C54.4296 7.77465 55.726 6.54035 58.6165 6.54035C60.9966 6.47989 62.7454 7.052 64.0702 7.62451L64.7324 7.92518L65.7281 1.81094Z" fill="#00579F"/>
<path d="M75.4591 19.402C76.062 17.7754 78.3821 11.4798 78.3821 11.4798C78.3517 11.5402 78.9838 9.82311 79.3454 8.76897L79.857 11.2087C79.857 11.2087 81.2435 17.9864 81.5445 19.402C80.4003 19.402 76.9052 19.402 75.4591 19.402ZM84.4963 1.11816H78.8333C77.087 1.11816 75.7602 1.62982 75.0067 3.46745L64.1318 29.4325H71.8139C71.8139 29.4325 73.0786 25.9378 73.3504 25.1852C74.1932 25.1852 81.6662 25.1852 82.7504 25.1852C82.9606 26.1793 83.624 29.4325 83.624 29.4325H90.4028L84.4963 1.11816Z" fill="#00579F"/>
<path d="M25.7515 1.11914L18.5815 20.4271L17.798 16.5112C16.4724 11.9928 12.3151 7.08364 7.67578 4.64267L14.2432 29.4039H21.9853L33.4931 1.11914H25.7515Z" fill="#00579F"/>
<path d="M11.9237 1.11914H0.144432L0.0239258 1.69125C9.21249 4.04094 15.2979 9.70477 17.7981 16.5124L15.2375 3.49926C14.8159 1.69085 13.5203 1.17879 11.9237 1.11914Z" fill="#FAA61A"/>
</g>
<defs>
<clipPath id="clip0_1974_16164">
<rect width="90.3787" height="29.25" fill="white" transform="translate(0.0244141 0.606445)"/>
</clipPath>
</defs>
</svg>
